<?xml version="1.0" encoding="utf-8" standalone="no"?>
<!DOCTYPE svg PUBLIC "-//W3C//DTD SVG 1.1//EN"
  "http://www.w3.org/Graphics/SVG/1.1/DTD/svg11.dtd">
<!-- Created with matplotlib (http://matplotlib.org/) -->
<svg height="277pt" version="1.1" viewBox="0 0 281 277" width="281pt" xmlns="http://www.w3.org/2000/svg" xmlns:xlink="http://www.w3.org/1999/xlink">
 <defs>
  <style type="text/css">
*{stroke-linecap:butt;stroke-linejoin:round;stroke-miterlimit:100000;}
  </style>
 </defs>
 <g id="figure_1">
  <g id="patch_1">
   <path d="M 0.000000 277.652188 
L 281.295313 277.652188 
L 281.295313 0.000000 
L 0.000000 0.000000 
L 0.000000 277.652188 
z
" style="fill:none;"/>
  </g>
  <g id="axes_1">
   <g id="line2d_1">
    <path clip-path="url(#p7fad9495ba)" d="M 78.820376 51.118337 
L 80.842309 52.090096 
L 83.076348 52.599586 
L 85.385635 52.615595 
L 87.628703 52.137143 
L 89.668142 51.193539 
L 91.379017 49.842589 
L 92.656518 48.167052 
L 93.422388 46.269571 
L 93.629707 44.266386 
L 93.265778 42.280211 
L 92.352892 40.432719 
L 90.946974 38.837088 
L 89.134151 37.591065 
L 87.025475 36.770982 
L 84.750124 36.427078 
L 82.447485 36.580419 
L 80.258618 37.221613 
L 78.317614 38.311379 
L 76.743377 39.782958 
L 75.632345 41.546202 
L 75.052580 43.493095 
L 75.039598 45.504370 
L 75.594194 47.456817 
L 76.682395 49.230829 
L 78.237537 50.717730 
L 80.164351 51.826432 
L 82.344803 52.489017 
L 84.645316 52.664895 
L 86.924963 52.343292 
L 89.044092 51.543909 
L 90.872885 50.315715 
L 92.299312 48.733951 
L 93.235988 46.895515 
L 93.625534 44.913029 
L 93.444085 42.907940 
L 92.702758 41.003079 
L 91.446966 39.315139 
L 89.753639 37.947523 
L 87.726509 36.984010 
L 85.489759 36.483624 
L 83.180412 36.477021 
L 80.939937 36.964604 
L 78.905587 37.916503 
L 77.201985 39.274407 
L 75.933494 40.955129 
L 75.177822 42.855708 
L 74.981260 44.859716 
L 75.355851 46.844388 
L 76.278647 48.688141 
L 77.693117 50.278029 
L 79.512611 51.516654 
L 81.625668 52.328139 
L 83.902841 52.662772 
L 86.204631 52.500054 
L 88.390030 51.849953 
L 90.325162 50.752293 
L 91.891481 49.274318 
L 92.993033 47.506568 
L 93.562337 45.557335 
L 93.564520 43.546029 
L 92.999445 41.595862 
L 91.901731 39.826302 
L 90.338622 38.345752 
L 88.405876 37.244909 
L 86.221890 36.591212 
L 83.920458 36.424706 
L 81.642563 36.755590 
L 79.527749 37.563596 
L 77.705571 38.799225 
L 76.287653 40.386781 
L 75.360859 42.229013 
L 74.981962 44.213064 
L 75.174175 46.217392 
L 75.925722 48.119212 
L 77.190564 49.802019 
L 78.891216 51.162723 
L 80.923497 52.117970 
L 83.162910 52.609239 
L 85.472267 52.606437 
L 87.710099 52.109734 
L 89.739316 51.149559 
L 91.435608 49.784732 
L 92.695060 48.098862 
L 93.440519 46.195225 
L 93.626318 44.190438 
L 93.241074 42.207314 
L 92.308389 40.367340 
L 90.885397 38.783230 
L 89.059272 37.552029 
L 86.941881 36.749159 
L 84.662936 36.423805 
L 82.362045 36.595896 
L 80.180160 37.254891 
L 78.250943 38.360421 
L 76.692578 39.844759 
L 75.600530 41.616977 
L 75.041698 43.568507 
L 75.050316 45.579800 
L 75.625855 47.527644 
L 76.733059 49.292713 
L 78.304101 50.766881 
" style="fill:none;opacity:0.75;stroke:#fffff0;stroke-linecap:square;stroke-width:2.0;"/>
   </g>
   <g id="line2d_2">
    <path clip-path="url(#p7fad9495ba)" d="M 82.743800 78.920164 
L 83.319262 79.196736 
L 83.955090 79.341741 
L 84.612335 79.346298 
L 85.250734 79.210126 
L 85.831178 78.941567 
L 86.318109 78.557074 
L 86.681698 78.080200 
L 86.899672 77.540159 
L 86.958677 76.970033 
L 86.855099 76.404749 
L 86.595283 75.878935 
L 86.195146 75.424803 
L 85.679199 75.070173 
L 85.079050 74.836770 
L 84.431463 74.738891 
L 83.776110 74.782534 
L 83.153138 74.965023 
L 82.600709 75.275181 
L 82.152666 75.694007 
L 81.836456 76.195843 
L 81.671449 76.749947 
L 81.667755 77.322375 
L 81.825598 77.878060 
L 82.135310 78.382961 
L 82.577918 78.806147 
L 83.126308 79.121694 
L 83.746886 79.310272 
L 84.401634 79.360329 
L 85.050443 79.268798 
L 85.653567 79.041286 
L 86.174059 78.691730 
L 86.580034 78.241545 
L 86.846621 77.718308 
L 86.957489 77.154074 
L 86.905847 76.583406 
L 86.694859 76.041265 
L 86.337448 75.560861 
L 85.855511 75.171624 
L 85.278571 74.897399 
L 84.641970 74.754985 
L 83.984708 74.753106 
L 83.347047 74.891876 
L 82.768052 75.162796 
L 82.283191 75.549268 
L 81.922166 76.027618 
L 81.707094 76.568541 
L 81.651151 77.138901 
L 81.757763 77.703757 
L 82.020400 78.228507 
L 82.422971 78.681004 
L 82.940817 79.033529 
L 83.542213 79.264485 
L 84.190318 79.359725 
L 84.845429 79.313414 
L 85.467415 79.128389 
L 86.018172 78.815984 
L 86.463961 78.395338 
L 86.777473 77.892220 
L 86.939503 77.337449 
L 86.940124 76.765013 
L 86.779299 76.209977 
L 86.466879 75.706343 
L 86.022003 75.284964 
L 85.471925 74.971654 
L 84.850342 74.785605 
L 84.195332 74.738216 
L 83.547021 74.832389 
L 82.945125 75.062355 
L 82.426516 75.414027 
L 82.022963 75.865861 
L 81.759188 76.390177 
L 81.651351 76.954857 
L 81.706056 77.525308 
L 81.919954 78.066584 
L 82.279940 78.545527 
L 82.763962 78.932797 
L 83.342368 79.204669 
L 83.979727 79.344489 
L 84.636992 79.343691 
L 85.273900 79.202325 
L 85.851435 78.929050 
L 86.334215 78.540607 
L 86.692668 78.060792 
L 86.904832 77.518999 
L 86.957712 76.948418 
L 86.848068 76.384002 
L 86.582617 75.860327 
L 86.177620 75.409475 
L 85.657888 75.059063 
L 85.055258 74.830559 
L 84.406649 74.737960 
L 83.751793 74.786938 
L 83.130808 74.974495 
L 82.581734 75.289139 
L 82.138209 75.711596 
L 81.827401 76.215986 
L 81.668352 76.771410 
L 81.670805 77.343843 
L 81.834609 77.898218 
L 82.149730 78.400574 
L 82.596863 78.820136 
" style="fill:none;opacity:0.75;stroke:#fffff0;stroke-linecap:square;stroke-width:2.0;"/>
   </g>
   <g id="line2d_3">
    <path clip-path="url(#p7fad9495ba)" d="M 83.860444 110.086596 
L 84.024226 110.165311 
L 84.205189 110.206581 
L 84.392247 110.207878 
L 84.573941 110.169122 
L 84.739141 110.092687 
L 84.877726 109.983257 
L 84.981207 109.847534 
L 85.043245 109.693833 
L 85.060038 109.531570 
L 85.030559 109.370685 
L 84.956613 109.221033 
L 84.842730 109.091783 
L 84.695887 108.990852 
L 84.525078 108.924423 
L 84.340769 108.896566 
L 84.154249 108.908987 
L 83.976945 108.960925 
L 83.819719 109.049199 
L 83.692202 109.168401 
L 83.602205 109.311228 
L 83.555243 109.468931 
L 83.554191 109.631850 
L 83.599115 109.790003 
L 83.687262 109.933703 
L 83.813233 110.054146 
L 83.969310 110.143953 
L 84.145932 110.197624 
L 84.332279 110.211871 
L 84.516937 110.185820 
L 84.688592 110.121068 
L 84.836729 110.021581 
L 84.952273 109.893454 
L 85.028146 109.744536 
L 85.059700 109.583950 
L 85.045002 109.421532 
L 84.984953 109.267234 
L 84.883231 109.130506 
L 84.746067 109.019726 
L 84.581864 108.941679 
L 84.400681 108.901146 
L 84.213618 108.900611 
L 84.032134 108.940107 
L 83.867346 109.017213 
L 83.729350 109.127207 
L 83.626599 109.263350 
L 83.565388 109.417301 
L 83.549466 109.579631 
L 83.579809 109.740395 
L 83.654557 109.889744 
L 83.769133 110.018529 
L 83.916517 110.118860 
L 84.087680 110.184593 
L 84.272137 110.211699 
L 84.458588 110.198518 
L 84.635611 110.145859 
L 84.792362 110.056945 
L 84.919237 109.937225 
L 85.008466 109.794033 
L 85.054581 109.636140 
L 85.054758 109.473219 
L 85.008985 109.315251 
L 84.920068 109.171912 
L 84.793452 109.051983 
L 84.636894 108.962812 
L 84.459986 108.909861 
L 84.273564 108.896374 
L 84.089048 108.923176 
L 83.917743 108.988627 
L 83.770142 109.088716 
L 83.655287 109.217312 
L 83.580214 109.366537 
L 83.549523 109.527251 
L 83.565092 109.689607 
L 83.625970 109.843659 
L 83.728425 109.979971 
L 83.866182 110.090191 
L 84.030802 110.167569 
L 84.212201 110.207363 
L 84.399264 110.207136 
L 84.580535 110.166901 
L 84.744906 110.089125 
L 84.882311 109.978570 
L 84.984329 109.842010 
L 85.044714 109.687811 
L 85.059764 109.525418 
L 85.028558 109.364780 
L 84.953008 109.215737 
L 84.837742 109.087420 
L 84.689821 108.987690 
L 84.518307 108.922655 
L 84.333707 108.896301 
L 84.147328 108.910240 
L 83.970590 108.963621 
L 83.814319 109.053171 
L 83.688087 109.173407 
L 83.599628 109.316961 
L 83.554361 109.475040 
L 83.555059 109.637960 
L 83.601680 109.795740 
L 83.691366 109.938716 
L 83.818624 110.058127 
" style="fill:none;opacity:0.75;stroke:#fffff0;stroke-linecap:square;stroke-width:2.0;"/>
   </g>
   <g id="line2d_4">
    <path clip-path="url(#p7fad9495ba)" d="M 84.178252 142.210627 
L 84.224865 142.233030 
L 84.276369 142.244775 
L 84.329608 142.245145 
L 84.381320 142.234114 
L 84.428337 142.212360 
L 84.467780 142.181215 
L 84.497232 142.142587 
L 84.514888 142.098843 
L 84.519668 142.052661 
L 84.511277 142.006871 
L 84.490232 141.964279 
L 84.457820 141.927493 
L 84.416026 141.898767 
L 84.367413 141.879861 
L 84.314957 141.871933 
L 84.261871 141.875468 
L 84.211409 141.890250 
L 84.166661 141.915374 
L 84.130368 141.949299 
L 84.104754 141.989949 
L 84.091388 142.034833 
L 84.091089 142.081202 
L 84.103875 142.126213 
L 84.128962 142.167112 
L 84.164815 142.201391 
L 84.209236 142.226951 
L 84.259504 142.242226 
L 84.312540 142.246281 
L 84.365096 142.238867 
L 84.413950 142.220438 
L 84.456111 142.192123 
L 84.488996 142.155657 
L 84.510591 142.113273 
L 84.519571 142.067569 
L 84.515388 142.021343 
L 84.498298 141.977428 
L 84.469346 141.938514 
L 84.430308 141.906985 
L 84.383575 141.884772 
L 84.332008 141.873236 
L 84.278768 141.873084 
L 84.227116 141.884325 
L 84.180216 141.906270 
L 84.140941 141.937575 
L 84.111697 141.976323 
L 84.094276 142.020139 
L 84.089744 142.066340 
L 84.098380 142.112094 
L 84.119654 142.154601 
L 84.152264 142.191254 
L 84.194210 142.219809 
L 84.242925 142.238517 
L 84.295423 142.246232 
L 84.348489 142.242481 
L 84.398871 142.227493 
L 84.443484 142.202188 
L 84.479594 142.168114 
L 84.504990 142.127360 
L 84.518114 142.082423 
L 84.518165 142.036054 
L 84.505137 141.991094 
L 84.479831 141.950299 
L 84.443795 141.916166 
L 84.399237 141.890787 
L 84.348887 141.875717 
L 84.295829 141.871878 
L 84.243315 141.879506 
L 84.194559 141.898134 
L 84.152551 141.926620 
L 84.119862 141.963220 
L 84.098495 142.005691 
L 84.089760 142.051432 
L 84.094192 142.097640 
L 84.111518 142.141484 
L 84.140678 142.180280 
L 84.179885 142.211650 
L 84.226737 142.233672 
L 84.278365 142.244998 
L 84.331605 142.244933 
L 84.383196 142.233482 
L 84.429978 142.211346 
L 84.469085 142.179881 
L 84.498120 142.141015 
L 84.515306 142.097129 
L 84.519589 142.050910 
L 84.510708 142.005191 
L 84.489206 141.962772 
L 84.456400 141.926252 
L 84.414300 141.897867 
L 84.365486 141.879358 
L 84.312947 141.871857 
L 84.259902 141.875825 
L 84.209600 141.891017 
L 84.165124 141.916504 
L 84.129197 141.950724 
L 84.104021 141.991581 
L 84.091138 142.036572 
L 84.091336 142.082941 
L 84.104605 142.127846 
L 84.130130 142.168538 
L 84.166349 142.202524 
" style="fill:none;opacity:0.75;stroke:#fffff0;stroke-linecap:square;stroke-width:2.0;"/>
   </g>
   <g id="line2d_5">
    <path clip-path="url(#p7fad9495ba)" d="M 84.268703 174.607199 
L 84.281969 174.613575 
L 84.296628 174.616918 
L 84.311780 174.617023 
L 84.326498 174.613884 
L 84.339879 174.607693 
L 84.351105 174.598828 
L 84.359487 174.587834 
L 84.364513 174.575384 
L 84.365873 174.562241 
L 84.363485 174.549208 
L 84.357495 174.537086 
L 84.348270 174.526617 
L 84.336376 174.518441 
L 84.322540 174.513060 
L 84.307610 174.510804 
L 84.292502 174.511810 
L 84.278140 174.516017 
L 84.265404 174.523167 
L 84.255075 174.532823 
L 84.247785 174.544392 
L 84.243981 174.557167 
L 84.243895 174.570363 
L 84.247534 174.583174 
L 84.254674 174.594814 
L 84.264878 174.604571 
L 84.277521 174.611845 
L 84.291828 174.616193 
L 84.306923 174.617347 
L 84.321880 174.615237 
L 84.335785 174.609991 
L 84.347784 174.601933 
L 84.357144 174.591554 
L 84.363290 174.579491 
L 84.365845 174.566483 
L 84.364655 174.553327 
L 84.359791 174.540829 
L 84.351551 174.529753 
L 84.340440 174.520780 
L 84.327140 174.514458 
L 84.312463 174.511175 
L 84.297311 174.511131 
L 84.282610 174.514330 
L 84.269262 174.520576 
L 84.258084 174.529486 
L 84.249761 174.540514 
L 84.244802 174.552984 
L 84.243513 174.566134 
L 84.245970 174.579156 
L 84.252025 174.591254 
L 84.261306 174.601685 
L 84.273245 174.609813 
L 84.287109 174.615137 
L 84.302051 174.617333 
L 84.317154 174.616265 
L 84.331493 174.612000 
L 84.344190 174.604797 
L 84.354468 174.595100 
L 84.361695 174.583501 
L 84.365431 174.570711 
L 84.365445 174.557514 
L 84.361737 174.544718 
L 84.354535 174.533107 
L 84.344279 174.523393 
L 84.331597 174.516170 
L 84.317267 174.511881 
L 84.302166 174.510788 
L 84.287220 174.512959 
L 84.273344 174.518261 
L 84.261388 174.526368 
L 84.252084 174.536785 
L 84.246003 174.548872 
L 84.243517 174.561891 
L 84.244778 174.575042 
L 84.249710 174.587521 
L 84.258009 174.598562 
L 84.269167 174.607490 
L 84.282502 174.613758 
L 84.297196 174.616982 
L 84.312348 174.616963 
L 84.327032 174.613704 
L 84.340346 174.607404 
L 84.351476 174.598449 
L 84.359740 174.587387 
L 84.364632 174.574896 
L 84.365851 174.561742 
L 84.363323 174.548730 
L 84.357203 174.536657 
L 84.347866 174.526263 
L 84.335884 174.518185 
L 84.321991 174.512917 
L 84.307038 174.510782 
L 84.291941 174.511911 
L 84.277625 174.516235 
L 84.264966 174.523489 
L 84.254741 174.533228 
L 84.247576 174.544857 
L 84.243909 174.557661 
L 84.243966 174.570858 
L 84.247742 174.583639 
L 84.255007 174.595220 
L 84.265315 174.604893 
" style="fill:none;opacity:0.75;stroke:#fffff0;stroke-linecap:square;stroke-width:2.0;"/>
   </g>
   <g id="line2d_6">
    <path clip-path="url(#p7fad9495ba)" d="M 84.294446 207.081340 
L 84.298222 207.083154 
L 84.302394 207.084106 
L 84.306706 207.084136 
L 84.310895 207.083242 
L 84.314703 207.081480 
L 84.317898 207.078957 
L 84.320284 207.075828 
L 84.321714 207.072285 
L 84.322101 207.068544 
L 84.321422 207.064835 
L 84.319717 207.061385 
L 84.317092 207.058405 
L 84.313706 207.056078 
L 84.309768 207.054547 
L 84.305519 207.053904 
L 84.301219 207.054191 
L 84.297132 207.055388 
L 84.293507 207.057423 
L 84.290567 207.060171 
L 84.288492 207.063464 
L 84.287410 207.067100 
L 84.287385 207.070856 
L 84.288421 207.074502 
L 84.290453 207.077815 
L 84.293357 207.080591 
L 84.296956 207.082662 
L 84.301028 207.083899 
L 84.305324 207.084228 
L 84.309581 207.083627 
L 84.313538 207.082134 
L 84.316953 207.079841 
L 84.319617 207.076887 
L 84.321366 207.073454 
L 84.322094 207.069752 
L 84.321755 207.066007 
L 84.320370 207.062450 
L 84.318025 207.059298 
L 84.314863 207.056744 
L 84.311078 207.054945 
L 84.306901 207.054010 
L 84.302588 207.053998 
L 84.298404 207.054908 
L 84.294605 207.056686 
L 84.291424 207.059222 
L 84.289055 207.062360 
L 84.287644 207.065910 
L 84.287277 207.069652 
L 84.287976 207.073358 
L 84.289699 207.076801 
L 84.292341 207.079770 
L 84.295739 207.082083 
L 84.299685 207.083599 
L 84.303937 207.084224 
L 84.308236 207.083920 
L 84.312317 207.082706 
L 84.315930 207.080656 
L 84.318855 207.077896 
L 84.320912 207.074595 
L 84.321976 207.070955 
L 84.321980 207.067199 
L 84.320924 207.063557 
L 84.318875 207.060252 
L 84.315956 207.057488 
L 84.312346 207.055432 
L 84.308268 207.054211 
L 84.303970 207.053900 
L 84.299716 207.054518 
L 84.295767 207.056027 
L 84.292364 207.058334 
L 84.289716 207.061299 
L 84.287985 207.064739 
L 84.287278 207.068444 
L 84.287637 207.072187 
L 84.289040 207.075739 
L 84.291402 207.078881 
L 84.294578 207.081422 
L 84.298373 207.083206 
L 84.302555 207.084124 
L 84.306868 207.084119 
L 84.311047 207.083191 
L 84.314836 207.081398 
L 84.318004 207.078849 
L 84.320356 207.075701 
L 84.321748 207.072146 
L 84.322095 207.068402 
L 84.321376 207.064699 
L 84.319634 207.061263 
L 84.316977 207.058304 
L 84.313566 207.056005 
L 84.309612 207.054506 
L 84.305357 207.053898 
L 84.301060 207.054220 
L 84.296985 207.055450 
L 84.293382 207.057515 
L 84.290472 207.060287 
L 84.288433 207.063596 
L 84.287389 207.067241 
L 84.287405 207.070997 
L 84.288480 207.074634 
L 84.290548 207.077930 
L 84.293482 207.080683 
" style="fill:none;opacity:0.75;stroke:#fffff0;stroke-linecap:square;stroke-width:2.0;"/>
   </g>
   <g id="line2d_7">
    <path clip-path="url(#p7fad9495ba)" d="M 158.948438 36.417813 
L 156.656830 36.666719 
L 154.505606 37.398191 
L 152.626549 38.567418 
L 151.134771 40.102774 
L 150.121657 41.910203 
L 149.649271 43.878982 
L 149.746551 45.888504 
L 150.407537 47.815665 
L 151.591739 49.542408 
L 153.226611 50.962953 
L 155.212001 51.990278 
L 157.426286 52.561448 
L 159.733817 52.641473 
L 161.993236 52.225452 
L 164.066131 51.338870 
L 165.825516 50.036039 
L 167.163613 48.396769 
L 167.998448 46.521484 
L 168.278881 44.525061 
L 167.987731 42.529803 
L 167.142836 40.657938 
L 165.795952 39.024136 
L 164.029590 37.728485 
L 161.951957 36.850355 
L 159.690329 36.443541 
L 157.383253 36.532965 
L 155.172060 37.113147 
L 153.192207 38.148547 
L 151.564980 39.575735 
L 150.390064 41.307282 
L 149.739432 43.237115 
L 149.652943 45.247011 
L 150.135896 47.213844 
L 151.158704 49.017127 
L 152.658710 50.546390 
L 154.544024 51.707951 
L 156.699152 52.430653 
L 158.992072 52.670224 
L 161.282318 52.411986 
L 163.429591 51.671760 
L 165.302349 50.494892 
L 166.785867 48.953477 
L 167.789264 47.141942 
L 168.251074 45.171261 
L 168.143005 43.162157 
L 167.471677 41.237709 
L 166.278217 39.515808 
L 164.635735 38.101937 
L 162.644850 37.082710 
L 160.427523 36.520565 
L 158.119587 36.449939 
L 155.862427 36.875158 
L 153.794315 37.770173 
L 152.041945 39.080156 
L 150.712665 40.724858 
L 149.887908 42.603523 
L 149.618198 44.601066 
L 149.920058 46.595117 
L 150.774996 48.463520 
L 152.130637 50.091818 
L 153.903937 51.380261 
L 155.986262 52.249919 
L 158.250050 52.647517 
L 160.556621 52.548698 
L 162.764674 51.959516 
L 164.738946 50.916064 
L 166.358491 49.482263 
L 167.524098 47.745949 
L 168.164360 45.813488 
L 168.240055 43.803262 
L 167.746547 41.838417 
L 166.714068 40.039320 
L 165.205867 38.516183 
L 163.314336 37.362313 
L 161.155351 36.648397 
L 158.861170 36.418168 
L 156.572336 36.685731 
L 154.429061 37.434694 
L 152.562643 38.619177 
L 151.087418 40.166617 
L 150.093758 41.982220 
L 149.642535 43.954760 
L 149.761391 45.963402 
L 150.443044 47.885094 
L 151.645737 49.602116 
L 153.295793 51.009281 
L 155.292129 52.020388 
L 157.512450 52.573496 
L 159.820740 52.634722 
L 162.075593 52.200314 
L 164.138876 51.296885 
L 165.884193 49.979779 
L 167.204627 48.329682 
L 168.019288 46.447678 
L 168.278269 44.449058 
L 167.965705 42.456259 
L 167.100744 40.591358 
L 165.736374 38.968599 
L 163.956176 37.687393 
L 161.869204 36.826226 
L 159.603306 36.437852 
" style="fill:none;opacity:0.75;stroke:#fffff0;stroke-linecap:square;stroke-width:2.0;"/>
   </g>
   <g id="line2d_8">
    <path clip-path="url(#p7fad9495ba)" d="M 158.948438 74.736254 
L 158.296224 74.807095 
L 157.683965 75.015279 
L 157.149168 75.348053 
L 156.724593 75.785030 
L 156.436251 76.299441 
L 156.301806 76.859774 
L 156.329493 77.431703 
L 156.517616 77.980192 
L 156.854651 78.471639 
L 157.319951 78.875940 
L 157.885012 79.168326 
L 158.515219 79.330887 
L 159.171964 79.353663 
L 159.815016 79.235259 
L 160.404982 78.982930 
L 160.905720 78.612131 
L 161.286555 78.145580 
L 161.524157 77.611855 
L 161.603971 77.043655 
L 161.521107 76.475785 
L 161.280641 75.943034 
L 160.897305 75.478039 
L 160.394582 75.109284 
L 159.803268 74.859360 
L 159.159587 74.743577 
L 158.502971 74.769028 
L 157.873644 74.934153 
L 157.310159 75.228838 
L 156.847035 75.635029 
L 156.512643 76.127844 
L 156.327467 76.677093 
L 156.302851 77.249128 
L 156.440304 77.808908 
L 156.731405 78.322139 
L 157.158321 78.757382 
L 157.694899 79.087974 
L 158.308269 79.293662 
L 158.960856 79.361846 
L 159.612682 79.288349 
L 160.223816 79.077673 
L 160.756821 78.742726 
L 161.179045 78.304024 
L 161.464621 77.788444 
L 161.596057 77.227569 
L 161.565299 76.655759 
L 161.374233 76.108043 
L 161.034563 75.617973 
L 160.567097 75.215572 
L 160.000472 74.925491 
L 159.369399 74.765499 
L 158.712539 74.745398 
L 158.070129 74.866419 
L 157.481525 75.121149 
L 156.982784 75.493983 
L 156.604458 75.962080 
L 156.369724 76.496766 
L 156.292962 77.065286 
L 156.378875 77.632812 
L 156.622198 78.164578 
L 157.008026 78.628007 
L 157.512724 78.994710 
L 158.105374 79.242223 
L 158.749670 79.355383 
L 159.406142 79.327258 
L 160.034575 79.159571 
L 160.596471 78.862595 
L 161.057410 78.454522 
L 161.389152 77.960350 
L 161.571377 77.410353 
L 161.592921 76.838224 
L 161.452464 76.279010 
L 161.158610 75.766970 
L 160.729362 75.333470 
L 160.191014 75.005068 
L 159.576546 74.801881 
L 158.923600 74.736355 
L 158.272176 74.812506 
L 157.662180 75.025668 
L 157.130979 75.362783 
L 156.711116 75.803200 
L 156.428311 76.319938 
L 156.299889 76.881342 
L 156.333716 77.453020 
L 156.527721 77.999952 
L 156.870019 78.488633 
L 157.339641 78.889125 
L 157.907817 79.176896 
L 158.539742 79.334316 
L 159.196703 79.351741 
L 159.838456 79.228105 
L 160.425686 78.970980 
L 160.922420 78.596119 
L 161.298228 78.126486 
L 161.530088 77.590850 
L 161.603796 77.022023 
L 161.514838 76.454854 
L 161.268662 75.924085 
L 160.880349 75.462232 
L 160.373688 75.097589 
L 159.779715 74.852493 
L 159.134819 74.741958 
" style="fill:none;opacity:0.75;stroke:#fffff0;stroke-linecap:square;stroke-width:2.0;"/>
   </g>
   <g id="line2d_9">
    <path clip-path="url(#p7fad9495ba)" d="M 158.948438 108.895815 
L 158.762811 108.915977 
L 158.588557 108.975228 
L 158.436348 109.069939 
L 158.315510 109.194307 
L 158.233445 109.340713 
L 158.195181 109.500189 
L 158.203061 109.662966 
L 158.256602 109.819071 
L 158.352526 109.958941 
L 158.484955 110.074009 
L 158.645776 110.157225 
L 158.825139 110.203491 
L 159.012055 110.209974 
L 159.195074 110.176275 
L 159.362984 110.104460 
L 159.505499 109.998927 
L 159.613888 109.866142 
L 159.681512 109.714239 
L 159.704228 109.552523 
L 159.680644 109.390902 
L 159.612205 109.239276 
L 159.503104 109.106934 
L 159.360024 109.001983 
L 159.191730 108.930852 
L 159.008533 108.897899 
L 158.821653 108.905143 
L 158.642541 108.952139 
L 158.482168 109.036009 
L 158.350358 109.151615 
L 158.255187 109.291875 
L 158.202484 109.448196 
L 158.195478 109.611003 
L 158.234599 109.770322 
L 158.317449 109.916392 
L 158.438953 110.040267 
L 158.591669 110.134356 
L 158.766240 110.192897 
L 158.951972 110.212303 
L 159.137488 110.191385 
L 159.311423 110.131425 
L 159.463121 110.036095 
L 159.583290 109.911237 
L 159.664567 109.764497 
L 159.701975 109.604867 
L 159.693221 109.442125 
L 159.638842 109.286239 
L 159.542169 109.146761 
L 159.409123 109.032234 
L 159.247857 108.949674 
L 159.068247 108.904138 
L 158.881298 108.898418 
L 158.698463 108.932861 
L 158.530940 109.005360 
L 158.388994 109.111472 
L 158.281319 109.244697 
L 158.214511 109.396874 
L 158.192664 109.558680 
L 158.217115 109.720203 
L 158.286368 109.871549 
L 158.396178 110.003445 
L 158.539820 110.107812 
L 158.708494 110.178257 
L 158.891866 110.210463 
L 159.078705 110.202459 
L 159.257563 110.154733 
L 159.417484 110.070211 
L 159.548671 109.954070 
L 159.643088 109.813424 
L 159.694951 109.656889 
L 159.701083 109.494056 
L 159.661107 109.334898 
L 159.577474 109.189167 
L 159.455305 109.065789 
L 159.302087 108.972322 
L 159.127203 108.914493 
L 158.941369 108.895844 
L 158.755967 108.917517 
L 158.582356 108.978185 
L 158.431172 109.074131 
L 158.311675 109.199478 
L 158.231186 109.346547 
L 158.194635 109.506328 
L 158.204263 109.669033 
L 158.259479 109.824695 
L 158.356900 109.963778 
L 158.490559 110.077762 
L 158.652267 110.159664 
L 158.832119 110.204467 
L 159.019096 110.209427 
L 159.201745 110.174239 
L 159.368876 110.101059 
L 159.510252 109.994370 
L 159.617210 109.860707 
L 159.683200 109.708260 
L 159.704178 109.546367 
L 159.678860 109.384945 
L 159.608795 109.233883 
L 159.498278 109.102436 
L 159.354077 108.998655 
L 159.185027 108.928898 
L 159.001484 108.897438 
" style="fill:none;opacity:0.75;stroke:#fffff0;stroke-linecap:square;stroke-width:2.0;"/>
   </g>
   <g id="line2d_10">
    <path clip-path="url(#p7fad9495ba)" d="M 158.948438 141.871719 
L 158.895607 141.877457 
L 158.846012 141.894321 
L 158.802692 141.921276 
L 158.768300 141.956673 
L 158.744944 141.998341 
L 158.734053 142.043730 
L 158.736296 142.090057 
L 158.751535 142.134486 
L 158.778835 142.174295 
L 158.816526 142.207044 
L 158.862297 142.230728 
L 158.913346 142.243896 
L 158.966544 142.245741 
L 159.018633 142.236150 
L 159.066421 142.215711 
L 159.106982 142.185675 
L 159.137831 142.147883 
L 159.157077 142.104650 
L 159.163543 142.058624 
L 159.156830 142.012626 
L 159.137352 141.969471 
L 159.106301 141.931806 
L 159.065579 141.901935 
L 159.017681 141.881691 
L 158.965541 141.872312 
L 158.912354 141.874374 
L 158.861376 141.887749 
L 158.815733 141.911620 
L 158.778218 141.944522 
L 158.751132 141.984441 
L 158.736132 142.028932 
L 158.734138 142.075268 
L 158.745272 142.120612 
L 158.768852 142.162185 
L 158.803433 142.197441 
L 158.846898 142.224220 
L 158.896582 142.240881 
L 158.949443 142.246404 
L 159.002243 142.240450 
L 159.051747 142.223385 
L 159.094921 142.196254 
L 159.129122 142.160718 
L 159.152255 142.118954 
L 159.162902 142.073522 
L 159.160410 142.027204 
L 159.144933 141.982837 
L 159.117419 141.943141 
L 159.079553 141.910545 
L 159.033655 141.887048 
L 158.982537 141.874088 
L 158.929329 141.872460 
L 158.877292 141.882263 
L 158.829614 141.902897 
L 158.789214 141.933097 
L 158.758569 141.971014 
L 158.739555 142.014325 
L 158.733337 142.060377 
L 158.740296 142.106348 
L 158.760006 142.149422 
L 158.791259 142.186961 
L 158.832141 142.216665 
L 158.880147 142.236714 
L 158.932337 142.245880 
L 158.985513 142.243602 
L 159.036417 142.230019 
L 159.081933 142.205963 
L 159.119270 142.172908 
L 159.146142 142.132879 
L 159.160902 142.088328 
L 159.162647 142.041984 
L 159.151270 141.996686 
L 159.127467 141.955210 
L 159.092697 141.920095 
L 159.049089 141.893494 
L 158.999316 141.877035 
L 158.946426 141.871727 
L 158.893659 141.877896 
L 158.844247 141.895162 
L 158.801219 141.922470 
L 158.767209 141.958144 
L 158.744301 142.000001 
L 158.733898 142.045477 
L 158.736638 142.091784 
L 158.752353 142.136087 
L 158.780080 142.175671 
L 158.818121 142.208112 
L 158.864145 142.231423 
L 158.915332 142.244174 
L 158.968548 142.245585 
L 159.020531 142.235571 
L 159.068098 142.214743 
L 159.108335 142.184378 
L 159.138777 142.146337 
L 159.157558 142.102949 
L 159.163528 142.056872 
L 159.156323 142.010930 
L 159.136382 141.967936 
L 159.104927 141.930525 
L 159.063886 141.900988 
L 159.015773 141.881135 
L 158.963535 141.872181 
" style="fill:none;opacity:0.75;stroke:#fffff0;stroke-linecap:square;stroke-width:2.0;"/>
   </g>
   <g id="line2d_11">
    <path clip-path="url(#p7fad9495ba)" d="M 158.948438 174.510743 
L 158.933401 174.512376 
L 158.919286 174.517175 
L 158.906957 174.524847 
L 158.897169 174.534921 
L 158.890521 174.546781 
L 158.887422 174.559699 
L 158.888060 174.572884 
L 158.892397 174.585529 
L 158.900167 174.596859 
L 158.910894 174.606180 
L 158.923921 174.612920 
L 158.938450 174.616668 
L 158.953591 174.617193 
L 158.968416 174.614463 
L 158.982017 174.608646 
L 158.993561 174.600098 
L 159.002341 174.589342 
L 159.007818 174.577037 
L 159.009658 174.563938 
L 159.007748 174.550846 
L 159.002204 174.538564 
L 158.993367 174.527844 
L 158.981777 174.519343 
L 158.968145 174.513581 
L 158.953305 174.510912 
L 158.938168 174.511498 
L 158.923659 174.515305 
L 158.910668 174.522099 
L 158.899992 174.531463 
L 158.892282 174.542825 
L 158.888013 174.555487 
L 158.887446 174.568675 
L 158.890615 174.581580 
L 158.897326 174.593412 
L 158.907168 174.603446 
L 158.919538 174.611068 
L 158.933679 174.615810 
L 158.948724 174.617382 
L 158.963751 174.615687 
L 158.977840 174.610830 
L 158.990128 174.603108 
L 158.999862 174.592995 
L 159.006446 174.581108 
L 159.009476 174.568178 
L 159.008767 174.554995 
L 159.004362 174.542368 
L 158.996531 174.531070 
L 158.985754 174.521793 
L 158.972691 174.515105 
L 158.958142 174.511417 
L 158.942999 174.510954 
L 158.928189 174.513744 
L 158.914619 174.519616 
L 158.903121 174.528212 
L 158.894399 174.539003 
L 158.888988 174.551330 
L 158.887218 174.564437 
L 158.889199 174.577520 
L 158.894808 174.589780 
L 158.903703 174.600464 
L 158.915338 174.608918 
L 158.929001 174.614624 
L 158.943855 174.617233 
L 158.958989 174.616584 
L 158.973477 174.612718 
L 158.986431 174.605872 
L 158.997058 174.596464 
L 159.004706 174.585071 
L 159.008907 174.572392 
L 159.009404 174.559202 
L 159.006166 174.546310 
L 158.999391 174.534505 
L 158.989495 174.524511 
L 158.977084 174.516940 
L 158.962918 174.512256 
L 158.947865 174.510745 
L 158.932847 174.512501 
L 158.918784 174.517415 
L 158.906538 174.525187 
L 158.896858 174.535340 
L 158.890338 174.547253 
L 158.887378 174.560196 
L 158.888157 174.573375 
L 158.892630 174.585984 
L 158.900521 174.597251 
L 158.911348 174.606484 
L 158.924447 174.613118 
L 158.939015 174.616747 
L 158.954161 174.617149 
L 158.968956 174.614298 
L 158.982494 174.608371 
L 158.993946 174.599729 
L 159.002610 174.588902 
L 159.007955 174.576553 
L 159.009654 174.563439 
L 159.007604 174.550364 
L 159.001928 174.538127 
L 158.992976 174.527480 
L 158.981295 174.519073 
L 158.967602 174.513423 
L 158.952734 174.510874 
" style="fill:none;opacity:0.75;stroke:#fffff0;stroke-linecap:square;stroke-width:2.0;"/>
   </g>
   <g id="line2d_12">
    <path clip-path="url(#p7fad9495ba)" d="M 158.948438 207.053887 
L 158.944158 207.054352 
L 158.940141 207.055718 
L 158.936632 207.057901 
L 158.933846 207.060769 
L 158.931954 207.064144 
L 158.931072 207.067821 
L 158.931254 207.071573 
L 158.932488 207.075172 
L 158.934699 207.078397 
L 158.937752 207.081049 
L 158.941460 207.082968 
L 158.945595 207.084035 
L 158.949904 207.084184 
L 158.954123 207.083407 
L 158.957994 207.081751 
L 158.961280 207.079318 
L 158.963779 207.076257 
L 158.965338 207.072755 
L 158.965862 207.069027 
L 158.965318 207.065301 
L 158.963740 207.061805 
L 158.961225 207.058754 
L 158.957926 207.056335 
L 158.954046 207.054695 
L 158.949823 207.053935 
L 158.945515 207.054102 
L 158.941385 207.055186 
L 158.937688 207.057119 
L 158.934649 207.059784 
L 158.932455 207.063018 
L 158.931240 207.066622 
L 158.931079 207.070375 
L 158.931981 207.074048 
L 158.933891 207.077416 
L 158.936692 207.080272 
L 158.940213 207.082441 
L 158.944237 207.083790 
L 158.948519 207.084238 
L 158.952796 207.083755 
L 158.956806 207.082373 
L 158.960303 207.080175 
L 158.963073 207.077297 
L 158.964947 207.073914 
L 158.965810 207.070234 
L 158.965608 207.066482 
L 158.964354 207.062888 
L 158.962125 207.059673 
L 158.959058 207.057032 
L 158.955340 207.055129 
L 158.951200 207.054079 
L 158.946890 207.053947 
L 158.942675 207.054741 
L 158.938812 207.056413 
L 158.935540 207.058859 
L 158.933058 207.061930 
L 158.931517 207.065439 
L 158.931014 207.069169 
L 158.931578 207.072893 
L 158.933174 207.076382 
L 158.935706 207.079423 
L 158.939017 207.081829 
L 158.942906 207.083453 
L 158.947133 207.084195 
L 158.951441 207.084011 
L 158.955564 207.082910 
L 158.959251 207.080962 
L 158.962275 207.078284 
L 158.964452 207.075042 
L 158.965648 207.071433 
L 158.965789 207.067679 
L 158.964867 207.064010 
L 158.962939 207.060650 
L 158.960123 207.057806 
L 158.956591 207.055651 
L 158.952559 207.054318 
L 158.948275 207.053888 
L 158.944000 207.054388 
L 158.939998 207.055786 
L 158.936512 207.057998 
L 158.933757 207.060888 
L 158.931902 207.064278 
L 158.931059 207.067962 
L 158.931281 207.071713 
L 158.932554 207.075302 
L 158.934800 207.078508 
L 158.937882 207.081136 
L 158.941610 207.083024 
L 158.945756 207.084057 
L 158.950066 207.084171 
L 158.954277 207.083360 
L 158.958130 207.081673 
L 158.961390 207.079213 
L 158.963855 207.076132 
L 158.965377 207.072617 
L 158.965860 207.068885 
L 158.965277 207.065164 
L 158.963661 207.061681 
L 158.961114 207.058651 
L 158.957789 207.056258 
L 158.953892 207.054650 
L 158.949660 207.053925 
" style="fill:none;opacity:0.75;stroke:#fffff0;stroke-linecap:square;stroke-width:2.0;"/>
   </g>
   <g id="line2d_13">
    <path clip-path="url(#p7fad9495ba)" d="M 239.076499 51.118337 
L 240.762465 49.743838 
L 242.009180 48.050802 
L 242.740271 46.142943 
L 242.910951 44.137137 
L 242.510764 42.156259 
L 241.564227 40.321658 
L 240.129323 38.745721 
L 238.293954 37.524990 
L 236.170556 36.734246 
L 233.889208 36.421931 
L 231.589664 36.607177 
L 229.412794 37.278636 
L 227.491953 38.395174 
L 225.944813 39.888393 
L 224.866150 41.666817 
L 224.322043 43.621501 
L 224.345824 45.632702 
L 224.936037 47.577212 
L 226.056524 49.335912 
L 227.638646 50.801063 
L 229.585481 51.882912 
L 231.777766 52.515183 
L 234.081203 52.659144 
L 236.354683 52.305976 
L 238.458932 51.477314 
L 240.265045 50.223921 
L 241.662380 48.622581 
L 242.565335 46.771392 
L 242.918596 44.783756 
L 242.700523 42.781437 
L 241.924473 40.887096 
L 240.637989 39.216780 
L 238.919879 37.872813 
L 236.875395 36.937527 
L 234.629783 36.468216 
L 232.320607 36.493630 
L 230.089329 37.012214 
L 228.072635 37.992197 
L 226.394068 39.373548 
L 225.156458 41.071643 
L 224.435619 42.982459 
L 224.275711 44.988938 
L 224.686530 46.968164 
L 225.642908 48.798890 
L 227.086258 50.368966 
L 228.928161 51.582209 
L 231.055782 52.364295 
L 233.338783 52.667315 
L 235.637307 52.472705 
L 237.810547 51.792387 
L 239.725371 50.668038 
L 241.264477 49.168534 
L 242.333579 47.385736 
L 242.867185 45.428857 
L 242.832605 43.417775 
L 242.231957 41.475690 
L 241.102039 39.721573 
L 239.512067 38.262882 
L 237.559444 37.188974 
L 235.363788 36.565639 
L 233.059603 36.431062 
L 230.788045 36.793485 
L 228.688268 37.630709 
L 226.888904 38.891444 
L 225.500184 40.498458 
L 224.607178 42.353305 
L 224.264593 44.342358 
L 224.493416 46.343767 
L 225.279629 48.234926 
L 226.575068 49.899984 
L 228.300376 51.236938 
L 230.349859 52.163887 
L 232.597967 52.624047 
L 234.906981 52.589228 
L 237.135450 52.061562 
L 239.146860 51.073375 
L 240.817991 49.685203 
L 242.046470 47.982086 
L 242.757041 46.068355 
L 242.906173 44.061246 
L 242.484732 42.083715 
L 241.518534 40.256904 
L 240.066769 38.692724 
L 238.218371 37.486997 
L 236.086575 36.713585 
L 233.801972 36.419867 
L 231.504518 36.623836 
L 229.334954 37.312998 
L 227.426188 38.445134 
L 225.895150 39.950890 
L 224.835633 41.738024 
L 224.312541 43.697054 
L 224.357919 45.707973 
L 224.968988 47.647590 
L 226.108313 49.397086 
L 227.706099 50.849286 
L 229.664467 51.915229 
L 231.863447 52.529614 
L 234.168329 52.654806 
L 236.437916 52.283134 
L 238.533175 51.437367 
" style="fill:none;opacity:0.75;stroke:#fffff0;stroke-linecap:square;stroke-width:2.0;"/>
   </g>
   <g id="line2d_14">
    <path clip-path="url(#p7fad9495ba)" d="M 235.153075 78.920164 
L 235.632917 78.528968 
L 235.987744 78.047114 
L 236.195819 77.504119 
L 236.244396 76.933248 
L 236.130500 76.369471 
L 235.861106 75.847326 
L 235.452719 75.398799 
L 234.930355 75.051367 
L 234.326016 74.826314 
L 233.676722 74.737426 
L 233.022250 74.790149 
L 232.402692 74.981253 
L 231.856003 75.299030 
L 231.415672 75.724014 
L 231.108674 76.230171 
L 230.953816 76.786493 
L 230.960584 77.358900 
L 231.128564 77.912326 
L 231.447466 78.412869 
L 231.897753 78.829865 
L 232.451841 79.137769 
L 233.075786 79.317719 
L 233.731366 79.358692 
L 234.378420 79.258177 
L 234.977309 79.022332 
L 235.491347 78.665605 
L 235.889041 78.209848 
L 236.146031 77.682982 
L 236.246573 77.117282 
L 236.184507 76.547402 
L 235.963636 76.008255 
L 235.597490 75.532867 
L 235.108499 75.150361 
L 234.526620 74.884170 
L 233.887497 74.750599 
L 233.230284 74.757833 
L 232.595240 74.905426 
L 232.021270 75.184339 
L 231.543534 75.577485 
L 231.191298 76.060779 
L 230.986141 76.604615 
L 230.940629 77.175678 
L 231.057552 77.738985 
L 231.329747 78.260027 
L 231.740538 78.706886 
L 232.264761 79.052186 
L 232.870302 79.274775 
L 233.520066 79.361018 
L 234.174248 79.305630 
L 234.792773 79.112005 
L 235.337750 78.792004 
L 235.775794 78.365231 
L 236.080071 77.857830 
L 236.231940 77.300883 
L 236.222098 76.728510 
L 236.051148 76.175774 
L 235.729563 75.676536 
L 235.277042 75.261378 
L 234.721307 74.955734 
L 234.096402 74.778327 
L 233.440609 74.740025 
L 232.794102 74.843174 
L 232.196485 75.081456 
L 231.684369 75.440273 
L 231.289126 75.897645 
L 231.034968 76.425552 
L 230.937465 76.991655 
L 231.002590 77.561276 
L 231.226354 78.099518 
L 231.595048 78.573409 
L 232.086087 78.953919 
L 232.669390 79.217737 
L 233.309223 79.348703 
L 233.966390 79.338793 
L 234.600634 79.188615 
L 235.173100 78.907367 
L 235.648720 78.512280 
L 235.998357 78.027557 
L 236.200592 77.482891 
L 236.243037 76.911648 
L 236.123090 76.348824 
L 235.848101 75.828896 
L 235.434915 75.383716 
L 234.908844 75.040554 
L 234.302114 74.820434 
L 233.651894 74.736839 
L 232.998017 74.794891 
L 232.380538 74.991033 
L 231.837285 75.313249 
L 231.401537 75.741802 
L 231.099988 76.250437 
L 230.951112 76.807996 
L 230.964027 77.380323 
L 231.137943 77.932356 
L 231.462205 78.430279 
L 231.916951 78.843589 
L 232.474321 79.146967 
L 233.100171 79.321827 
L 233.756163 79.357457 
L 234.402109 79.251676 
L 234.998440 79.010963 
" style="fill:none;opacity:0.75;stroke:#fffff0;stroke-linecap:square;stroke-width:2.0;"/>
   </g>
   <g id="line2d_15">
    <path clip-path="url(#p7fad9495ba)" d="M 234.036431 110.086596 
L 234.172999 109.975258 
L 234.273986 109.838117 
L 234.333206 109.683576 
L 234.347031 109.521100 
L 234.314615 109.360644 
L 234.237943 109.212037 
L 234.121712 109.084382 
L 233.973043 108.985499 
L 233.801042 108.921447 
L 233.616247 108.896149 
L 233.429978 108.911154 
L 233.253646 108.965544 
L 233.098053 109.055987 
L 232.972730 109.176941 
L 232.885356 109.320998 
L 232.841282 109.479333 
L 232.843208 109.642245 
L 232.891017 109.799755 
L 232.981779 109.942215 
L 233.109935 110.060896 
L 233.267634 110.148528 
L 233.445215 110.199744 
L 233.631799 110.211405 
L 233.815957 110.182798 
L 233.986406 110.115674 
L 234.132706 110.014146 
L 234.245894 109.884433 
L 234.319036 109.734482 
L 234.347651 109.573478 
L 234.329986 109.411285 
L 234.267124 109.257839 
L 234.162916 109.122539 
L 234.023744 109.013674 
L 233.858136 108.937913 
L 233.676235 108.899898 
L 233.489186 108.901957 
L 233.308447 108.943963 
L 233.145089 109.023344 
L 233.009121 109.135237 
L 232.908872 109.272788 
L 232.850482 109.427569 
L 232.837529 109.590099 
L 232.870806 109.750421 
L 232.948275 109.898715 
L 233.065190 110.025895 
L 233.214389 110.124171 
L 233.386732 110.187522 
L 233.571661 110.212067 
L 233.757847 110.196303 
L 233.933886 110.141196 
L 234.088991 110.050120 
L 234.213663 109.928657 
L 234.300263 109.784245 
L 234.343486 109.625733 
L 234.340685 109.462830 
L 234.292031 109.305516 
L 234.200505 109.163428 
L 234.071713 109.045271 
L 233.913546 108.958281 
L 233.735692 108.907790 
L 233.549047 108.896888 
L 233.365045 108.926246 
L 233.194957 108.994063 
L 233.049204 109.096186 
L 232.936714 109.226358 
L 232.864378 109.376605 
L 232.836628 109.537724 
L 232.855163 109.699843 
L 232.918849 109.853032 
L 233.023783 109.987906 
L 233.163537 110.096203 
L 233.329550 110.171288 
L 233.511653 110.208562 
L 233.698689 110.205742 
L 233.879201 110.162999 
L 234.042130 110.082954 
L 234.177496 109.970508 
L 234.277006 109.832551 
L 234.334564 109.677534 
L 234.346644 109.514953 
L 234.312507 109.354768 
L 234.234242 109.206792 
L 234.116645 109.080089 
L 233.966920 108.982422 
L 233.794239 108.919773 
L 233.609181 108.895982 
L 233.423081 108.912504 
L 233.247341 108.968328 
L 233.092726 109.060034 
L 232.968708 109.182004 
L 232.882884 109.326766 
L 232.840512 109.485453 
L 232.844188 109.648342 
L 232.893686 109.805456 
L 232.985974 109.947170 
L 233.115399 110.064802 
L 233.274032 110.151146 
L 233.452155 110.200913 
L 233.638856 110.211054 
L 233.822699 110.180947 
L 233.992420 110.112438 
" style="fill:none;opacity:0.75;stroke:#fffff0;stroke-linecap:square;stroke-width:2.0;"/>
   </g>
   <g id="line2d_16">
    <path clip-path="url(#p7fad9495ba)" d="M 233.718623 142.210627 
L 233.757492 142.178939 
L 233.786234 142.139907 
L 233.803088 142.095923 
L 233.807023 142.049681 
L 233.797797 142.004014 
L 233.775976 141.961719 
L 233.742895 141.925387 
L 233.700583 141.897244 
L 233.651629 141.879014 
L 233.599035 141.871814 
L 233.546021 141.876085 
L 233.495835 141.891565 
L 233.451552 141.917305 
L 233.415884 141.951730 
L 233.391016 141.992730 
L 233.378473 142.037794 
L 233.379021 142.084160 
L 233.392628 142.128989 
L 233.418459 142.169534 
L 233.454934 142.203312 
L 233.499816 142.228253 
L 233.550358 142.242830 
L 233.603461 142.246148 
L 233.655874 142.238007 
L 233.704386 142.218902 
L 233.746024 142.190007 
L 233.778239 142.153089 
L 233.799055 142.110412 
L 233.807200 142.064588 
L 233.802172 142.018427 
L 233.784281 141.974754 
L 233.754622 141.936247 
L 233.715013 141.905263 
L 233.667879 141.883701 
L 233.616108 141.872881 
L 233.562872 141.873467 
L 233.511432 141.885422 
L 233.464939 141.908015 
L 233.426241 141.939861 
L 233.397709 141.979009 
L 233.381091 142.023061 
L 233.377404 142.069319 
L 233.386875 142.114948 
L 233.408924 142.157154 
L 233.442199 142.193350 
L 233.484663 142.221321 
L 233.533713 142.239351 
L 233.586345 142.246337 
L 233.639336 142.241850 
L 233.689438 142.226166 
L 233.733583 142.200245 
L 233.769065 142.165676 
L 233.793713 142.124575 
L 233.806014 142.079461 
L 233.805217 142.033097 
L 233.791370 141.988324 
L 233.765320 141.947884 
L 233.728665 141.914255 
L 233.683649 141.889497 
L 233.633030 141.875127 
L 233.579909 141.872024 
L 233.527540 141.880380 
L 233.479132 141.899681 
L 233.437649 141.928746 
L 233.405634 141.965795 
L 233.385046 142.008557 
L 233.377148 142.054412 
L 233.382423 142.100553 
L 233.400549 142.144152 
L 233.430414 142.182539 
L 233.470189 142.213361 
L 233.517438 142.234731 
L 233.569267 142.245339 
L 233.622499 142.244537 
L 233.673874 142.232372 
L 233.720246 142.209590 
L 233.758772 142.177587 
L 233.787093 142.138323 
L 233.803475 142.094204 
L 233.806913 142.047932 
L 233.797197 142.002341 
L 233.774922 141.960226 
L 233.741453 141.924165 
L 233.698840 141.896368 
L 233.649693 141.878538 
L 233.597024 141.871766 
L 233.544058 141.876469 
L 233.494041 141.892357 
L 233.450036 141.918457 
L 233.414739 141.953171 
L 233.390313 141.994372 
L 233.378253 142.039535 
L 233.379300 142.085895 
L 233.393387 142.130612 
L 233.419653 142.170945 
L 233.456489 142.204424 
L 233.501637 142.228998 
L 233.552333 142.243162 
L 233.605470 142.246048 
L 233.657793 142.237480 
L 233.706098 142.217982 
" style="fill:none;opacity:0.75;stroke:#fffff0;stroke-linecap:square;stroke-width:2.0;"/>
   </g>
   <g id="line2d_17">
    <path clip-path="url(#p7fad9495ba)" d="M 233.628172 174.607199 
L 233.639235 174.598180 
L 233.647415 174.587072 
L 233.652212 174.574553 
L 233.653332 174.561392 
L 233.650706 174.548395 
L 233.644495 174.536358 
L 233.635080 174.526017 
L 233.623038 174.518007 
L 233.609105 174.512819 
L 233.594136 174.510770 
L 233.579048 174.511985 
L 233.564765 174.516391 
L 233.552161 174.523717 
L 233.542010 174.533515 
L 233.534932 174.545184 
L 233.531362 174.558009 
L 233.531518 174.571206 
L 233.535391 174.583964 
L 233.542743 174.595504 
L 233.553124 174.605117 
L 233.565898 174.612216 
L 233.580282 174.616364 
L 233.595396 174.617309 
L 233.610313 174.614992 
L 233.624120 174.609554 
L 233.635971 174.601330 
L 233.645139 174.590823 
L 233.651064 174.578677 
L 233.653382 174.565635 
L 233.651951 174.552497 
L 233.646859 174.540068 
L 233.638418 174.529108 
L 233.627145 174.520290 
L 233.613730 174.514153 
L 233.598996 174.511073 
L 233.583844 174.511240 
L 233.569204 174.514643 
L 233.555971 174.521073 
L 233.544958 174.530137 
L 233.536837 174.541278 
L 233.532107 174.553816 
L 233.531058 174.566982 
L 233.533754 174.579968 
L 233.540029 174.591980 
L 233.549499 174.602282 
L 233.561585 174.610243 
L 233.575545 174.615374 
L 233.590525 174.617363 
L 233.605606 174.616086 
L 233.619866 174.611622 
L 233.632430 174.604244 
L 233.642529 174.594406 
L 233.649543 174.582708 
L 233.653045 174.569868 
L 233.652818 174.556672 
L 233.648877 174.543930 
L 233.641463 174.532420 
L 233.631030 174.522849 
L 233.618218 174.515803 
L 233.603812 174.511713 
L 233.588693 174.510830 
L 233.573788 174.513208 
L 233.560011 174.518701 
L 233.548204 174.526973 
L 233.539092 174.537518 
L 233.533233 174.549688 
L 233.530985 174.562739 
L 233.532487 174.575871 
L 233.537645 174.588280 
L 233.546145 174.599205 
L 233.557466 174.607977 
L 233.570913 174.614059 
L 233.585664 174.617079 
L 233.600814 174.616850 
L 233.615436 174.613388 
L 233.628634 174.606904 
L 233.639599 174.597796 
L 233.647660 174.586621 
L 233.652322 174.574064 
L 233.653300 174.560895 
L 233.650535 174.547919 
L 233.644196 174.535933 
L 233.634670 174.525669 
L 233.622542 174.517758 
L 233.608554 174.512683 
L 233.593564 174.510756 
L 233.578489 174.512095 
L 233.564254 174.516616 
L 233.551730 174.524045 
L 233.541684 174.533925 
L 233.534732 174.545651 
L 233.531300 174.558505 
L 233.531598 174.571699 
L 233.535607 174.584426 
L 233.543083 174.595905 
L 233.553566 174.605434 
L 233.566416 174.612428 
L 233.580845 174.616459 
L 233.595968 174.617280 
L 233.610860 174.614842 
L 233.624607 174.609292 
" style="fill:none;opacity:0.75;stroke:#fffff0;stroke-linecap:square;stroke-width:2.0;"/>
   </g>
   <g id="line2d_18">
    <path clip-path="url(#p7fad9495ba)" d="M 233.602429 207.081340 
L 233.605578 207.078773 
L 233.607906 207.075611 
L 233.609271 207.072048 
L 233.609590 207.068303 
L 233.608842 207.064603 
L 233.607075 207.061177 
L 233.604395 207.058234 
L 233.600968 207.055955 
L 233.597002 207.054478 
L 233.592742 207.053895 
L 233.588448 207.054241 
L 233.584383 207.055495 
L 233.580796 207.057580 
L 233.577906 207.060368 
L 233.575892 207.063689 
L 233.574876 207.067340 
L 233.574920 207.071095 
L 233.576023 207.074727 
L 233.578115 207.078011 
L 233.581070 207.080747 
L 233.584705 207.082767 
L 233.588799 207.083948 
L 233.593101 207.084217 
L 233.597346 207.083557 
L 233.601276 207.082010 
L 233.604649 207.079669 
L 233.607258 207.076679 
L 233.608944 207.073222 
L 233.609604 207.069510 
L 233.609197 207.065771 
L 233.607748 207.062233 
L 233.605345 207.059114 
L 233.602137 207.056604 
L 233.598319 207.054858 
L 233.594125 207.053981 
L 233.589813 207.054029 
L 233.585646 207.054997 
L 233.581880 207.056827 
L 233.578745 207.059407 
L 233.576434 207.062578 
L 233.575088 207.066146 
L 233.574790 207.069893 
L 233.575557 207.073589 
L 233.577343 207.077008 
L 233.580038 207.079940 
L 233.583478 207.082206 
L 233.587451 207.083666 
L 233.591714 207.084232 
L 233.596007 207.083869 
L 233.600065 207.082598 
L 233.603641 207.080499 
L 233.606515 207.077698 
L 233.608512 207.074369 
L 233.609508 207.070715 
L 233.609443 207.066959 
L 233.608322 207.063332 
L 233.606212 207.060057 
L 233.603243 207.057333 
L 233.599596 207.055327 
L 233.595496 207.054163 
L 233.591193 207.053912 
L 233.586951 207.054589 
L 233.583030 207.056152 
L 233.579670 207.058507 
L 233.577076 207.061508 
L 233.575409 207.064971 
L 233.574769 207.068686 
L 233.575196 207.072423 
L 233.576664 207.075955 
L 233.579083 207.079064 
L 233.582305 207.081561 
L 233.586133 207.083292 
L 233.590331 207.084151 
L 233.594643 207.084086 
L 233.598804 207.083101 
L 233.602561 207.081256 
L 233.605681 207.078663 
L 233.607975 207.075483 
L 233.609302 207.071909 
L 233.609581 207.068161 
L 233.608794 207.064468 
L 233.606989 207.061056 
L 233.604278 207.058135 
L 233.600827 207.055884 
L 233.596846 207.054440 
L 233.592579 207.053891 
L 233.588289 207.054272 
L 233.584237 207.055559 
L 233.580673 207.057673 
L 233.577814 207.060485 
L 233.575835 207.063822 
L 233.574858 207.067481 
L 233.574943 207.071236 
L 233.576084 207.074858 
L 233.578212 207.078125 
L 233.581196 207.080837 
L 233.584853 207.082828 
L 233.588959 207.083975 
L 233.593263 207.084209 
L 233.597502 207.083515 
L 233.601415 207.081935 
" style="fill:none;opacity:0.75;stroke:#fffff0;stroke-linecap:square;stroke-width:2.0;"/>
   </g>
   <g id="line2d_19">
    <path clip-path="url(#p7fad9495ba)" d="M 65.643750 36.417813 
L 67.491368 36.666719 
L 69.338985 37.398191 
L 71.186603 38.567418 
L 73.034220 40.102774 
L 74.881838 41.910203 
L 76.729455 43.878982 
L 78.577073 45.888504 
L 80.424691 47.815665 
L 82.272308 49.542408 
L 84.119926 50.962953 
L 85.967543 51.990278 
L 87.815161 52.561448 
L 89.662778 52.641473 
L 91.510396 52.225452 
L 93.358014 51.338870 
L 95.205631 50.036039 
L 97.053249 48.396769 
L 98.900866 46.521484 
L 100.748484 44.525061 
L 102.596101 42.529803 
L 104.443719 40.657938 
L 106.291337 39.024136 
L 108.138954 37.728485 
L 109.986572 36.850355 
L 111.834189 36.443541 
L 113.681807 36.532965 
L 115.529425 37.113147 
L 117.377042 38.148547 
L 119.224660 39.575735 
L 121.072277 41.307282 
L 122.919895 43.237115 
L 124.767512 45.247011 
L 126.615130 47.213844 
L 128.462748 49.017127 
L 130.310365 50.546390 
L 132.157983 51.707951 
L 134.005600 52.430653 
L 135.853218 52.670224 
L 137.700835 52.411986 
L 139.548453 51.671760 
L 141.396071 50.494892 
L 143.243688 48.953477 
L 145.091306 47.141942 
L 146.938923 45.171261 
L 148.786541 43.162157 
L 150.634158 41.237709 
L 152.481776 39.515808 
L 154.329394 38.101937 
L 156.177011 37.082710 
L 158.024629 36.520565 
L 159.872246 36.449939 
L 161.719864 36.875158 
L 163.567481 37.770173 
L 165.415099 39.080156 
L 167.262717 40.724858 
L 169.110334 42.603523 
L 170.957952 44.601066 
L 172.805569 46.595117 
L 174.653187 48.463520 
L 176.500804 50.091818 
L 178.348422 51.380261 
L 180.196040 52.249919 
L 182.043657 52.647517 
L 183.891275 52.548698 
L 185.738892 51.959516 
L 187.586510 50.916064 
L 189.434127 49.482263 
L 191.281745 47.745949 
L 193.129363 45.813488 
L 194.976980 43.803262 
L 196.824598 41.838417 
L 198.672215 40.039320 
L 200.519833 38.516183 
L 202.367450 37.362313 
L 204.215068 36.648397 
L 206.062686 36.418168 
L 207.910303 36.685731 
L 209.757921 37.434694 
L 211.605538 38.619177 
L 213.453156 40.166617 
L 215.300774 41.982220 
L 217.148391 43.954760 
L 218.996009 45.963402 
L 220.843626 47.885094 
L 222.691244 49.602116 
L 224.538861 51.009281 
L 226.386479 52.020388 
L 228.234097 52.573496 
L 230.081714 52.634722 
L 231.929332 52.200314 
L 233.776949 51.296885 
L 235.624567 49.979779 
L 237.472184 48.329682 
L 239.319802 46.447678 
L 241.167420 44.449058 
L 243.015037 42.456259 
L 244.862655 40.591358 
L 246.710272 38.968599 
L 248.557890 37.687393 
L 250.405507 36.826226 
L 252.253125 36.437852 
" style="fill:none;opacity:0.75;stroke:#ff8c00;stroke-linecap:square;stroke-width:4.0;"/>
   </g>
   <g id="patch_2">
    <path d="M 258.034911 24.753974 
Q 251.288477 29.465377 248.028768 36.144764 
" style="fill:none;stroke:#fffff0;stroke-linecap:round;"/>
    <path d="M 251.580483 33.427170 
L 248.028768 36.144764 
L 247.985721 31.672836 
" style="fill:none;stroke:#fffff0;stroke-linecap:round;"/>
   </g>
   <g id="text_1">
    <!-- $\eta$ -->
    <defs>
     <path d="M 10.687500 -1.125000 
Q 9.468750 -1.125000 8.593750 -0.343750 
Q 7.718750 0.437500 7.718750 1.703125 
Q 7.718750 2.296875 7.812500 2.593750 
L 15.281250 32.421875 
Q 16.015625 35.203125 16.015625 37.312500 
Q 16.015625 41.609375 13.093750 41.609375 
Q 9.968750 41.609375 8.453125 37.859375 
Q 6.937500 34.125000 5.515625 28.421875 
Q 5.515625 28.125000 5.218750 27.953125 
Q 4.937500 27.781250 4.687500 27.781250 
L 3.515625 27.781250 
Q 3.171875 27.781250 2.921875 28.140625 
Q 2.687500 28.515625 2.687500 28.812500 
Q 3.765625 33.156250 4.765625 36.171875 
Q 5.765625 39.203125 7.890625 41.687500 
Q 10.015625 44.187500 13.187500 44.187500 
Q 16.890625 44.187500 19.796875 41.843750 
Q 22.703125 39.500000 22.703125 35.796875 
Q 25.640625 39.703125 29.593750 41.937500 
Q 33.546875 44.187500 38.187500 44.187500 
Q 43.406250 44.187500 46.546875 41.375000 
Q 49.703125 38.578125 49.703125 33.406250 
Q 49.703125 30.421875 49.031250 27.875000 
L 37.406250 -18.406250 
Q 37.109375 -19.828125 35.937500 -20.703125 
Q 34.765625 -21.578125 33.296875 -21.578125 
Q 32.078125 -21.578125 31.203125 -20.812500 
Q 30.328125 -20.062500 30.328125 -18.796875 
Q 30.328125 -18.218750 30.421875 -18.015625 
L 41.890625 28.078125 
Q 42.921875 32.171875 42.921875 34.906250 
Q 42.921875 37.703125 41.750000 39.656250 
Q 40.578125 41.609375 37.984375 41.609375 
Q 28.171875 41.609375 21.687500 29.500000 
L 14.890625 2.203125 
Q 14.546875 0.828125 13.343750 -0.140625 
Q 12.156250 -1.125000 10.687500 -1.125000 
" id="Cmmi10-b4"/>
    </defs>
    <g style="fill:#fffff0;" transform="translate(261.710272277 23.9685992352)scale(0.1 -0.1)">
     <use transform="translate(0.0 0.8125)" xlink:href="#Cmmi10-b4"/>
    </g>
   </g>
   <g id="text_2">
    <!-- H $\geq \frac{L}{2}$ -->
    <defs>
     <path d="M 9.812500 72.906250 
L 19.671875 72.906250 
L 19.671875 43.015625 
L 55.515625 43.015625 
L 55.515625 72.906250 
L 65.375000 72.906250 
L 65.375000 0.000000 
L 55.515625 0.000000 
L 55.515625 34.718750 
L 19.671875 34.718750 
L 19.671875 0.000000 
L 9.812500 0.000000 
z
" id="BitstreamVeraSans-Roman-48"/>
     <path d="M 4.984375 0.000000 
L 4.984375 2.687500 
Q 4.984375 2.937500 5.171875 3.218750 
L 20.703125 20.406250 
Q 24.218750 24.218750 26.406250 26.796875 
Q 28.609375 29.390625 30.750000 32.765625 
Q 32.906250 36.140625 34.156250 39.625000 
Q 35.406250 43.109375 35.406250 47.015625 
Q 35.406250 51.125000 33.890625 54.859375 
Q 32.375000 58.593750 29.375000 60.843750 
Q 26.375000 63.093750 22.125000 63.093750 
Q 17.781250 63.093750 14.312500 60.468750 
Q 10.843750 57.859375 9.421875 53.718750 
Q 9.812500 53.812500 10.500000 53.812500 
Q 12.750000 53.812500 14.328125 52.296875 
Q 15.921875 50.781250 15.921875 48.390625 
Q 15.921875 46.093750 14.328125 44.500000 
Q 12.750000 42.921875 10.500000 42.921875 
Q 8.156250 42.921875 6.562500 44.546875 
Q 4.984375 46.187500 4.984375 48.390625 
Q 4.984375 52.156250 6.390625 55.437500 
Q 7.812500 58.734375 10.468750 61.296875 
Q 13.140625 63.875000 16.484375 65.234375 
Q 19.828125 66.609375 23.578125 66.609375 
Q 29.296875 66.609375 34.218750 64.187500 
Q 39.156250 61.765625 42.031250 57.343750 
Q 44.921875 52.937500 44.921875 47.015625 
Q 44.921875 42.671875 43.015625 38.765625 
Q 41.109375 34.859375 38.125000 31.656250 
Q 35.156250 28.468750 30.515625 24.406250 
Q 25.875000 20.359375 24.421875 19.000000 
L 13.093750 8.109375 
L 22.703125 8.109375 
Q 29.781250 8.109375 34.546875 8.218750 
Q 39.312500 8.343750 39.593750 8.593750 
Q 40.765625 9.859375 42.000000 17.828125 
L 44.921875 17.828125 
L 42.093750 0.000000 
z
" id="Cmr10-32"/>
     <path d="M 4.687500 0.000000 
Q 3.718750 0.000000 3.718750 1.312500 
Q 3.765625 1.562500 3.906250 2.171875 
Q 4.046875 2.781250 4.312500 3.140625 
Q 4.593750 3.515625 4.984375 3.515625 
Q 11.078125 3.515625 13.484375 4.203125 
Q 14.796875 4.640625 15.375000 6.890625 
L 29.109375 61.812500 
Q 29.296875 62.796875 29.296875 63.187500 
Q 29.296875 64.265625 28.078125 64.406250 
Q 26.218750 64.796875 20.906250 64.796875 
Q 19.921875 64.796875 19.921875 66.109375 
Q 20.265625 67.390625 20.453125 67.843750 
Q 20.656250 68.312500 21.578125 68.312500 
L 51.125000 68.312500 
Q 52.000000 68.312500 52.000000 67.000000 
Q 51.859375 65.968750 51.656250 65.375000 
Q 51.468750 64.796875 50.687500 64.796875 
Q 43.312500 64.796875 40.828125 64.312500 
Q 38.375000 63.875000 37.796875 61.375000 
L 24.125000 6.500000 
Q 23.687500 5.281250 23.687500 4.296875 
Q 23.687500 3.515625 27.093750 3.515625 
L 36.375000 3.515625 
Q 44.234375 3.515625 49.109375 6.640625 
Q 54.000000 9.765625 56.343750 13.687500 
Q 58.687500 17.625000 60.265625 21.843750 
Q 61.859375 26.078125 62.593750 26.218750 
L 63.484375 26.218750 
Q 64.500000 26.218750 64.500000 24.906250 
L 55.609375 0.687500 
Q 55.468750 0.000000 54.687500 0.000000 
z
" id="Cmmi10-4c"/>
     <path d="M 10.203125 -13.718750 
Q 9.375000 -13.718750 8.828125 -13.078125 
Q 8.296875 -12.453125 8.296875 -11.718750 
Q 8.296875 -10.890625 8.828125 -10.296875 
Q 9.375000 -9.718750 10.203125 -9.718750 
L 67.578125 -9.718750 
Q 68.359375 -9.718750 68.875000 -10.296875 
Q 69.390625 -10.890625 69.390625 -11.718750 
Q 69.390625 -12.453125 68.875000 -13.078125 
Q 68.359375 -13.718750 67.578125 -13.718750 
z
M 8.296875 7.718750 
Q 8.296875 8.937500 9.625000 9.625000 
L 62.703125 34.718750 
L 9.281250 59.906250 
Q 8.296875 60.359375 8.296875 61.625000 
Q 8.296875 62.359375 8.875000 62.984375 
Q 9.468750 63.625000 10.296875 63.625000 
Q 10.796875 63.625000 11.078125 63.484375 
L 68.500000 36.375000 
Q 69.390625 35.937500 69.390625 34.718750 
Q 69.390625 33.500000 68.218750 32.812500 
L 11.078125 5.906250 
Q 10.796875 5.718750 10.296875 5.718750 
Q 9.468750 5.718750 8.875000 6.296875 
Q 8.296875 6.890625 8.296875 7.718750 
" id="Cmsy10-b8"/>
     <path id="BitstreamVeraSans-Roman-20"/>
    </defs>
    <g style="fill:#fffff0;" transform="translate(84.3046875 28.2915625)scale(0.1 -0.1)">
     <use transform="translate(0.0 0.6812500000000057)" xlink:href="#BitstreamVeraSans-Roman-48"/>
     <use transform="translate(75.1953125 0.6812500000000057)" xlink:href="#BitstreamVeraSans-Roman-20"/>
     <use transform="translate(124.541015625 0.6812500000000057)" xlink:href="#Cmsy10-b8"/>
     <use transform="translate(203.177734375 38.181250000000006)scale(0.7)" xlink:href="#Cmmi10-4c"/>
     <use transform="translate(209.177734375 -39.6953125)scale(0.7)" xlink:href="#Cmr10-32"/>
     <path d="M 203.177734 13.181250 
L 203.177734 19.431250 
L 250.790039 19.431250 
L 250.790039 13.181250 
L 203.177734 13.181250 
z
"/>
    </g>
   </g>
  </g>
 </g>
 <defs>
  <clipPath id="p7fad9495ba">
   <rect height="227.535" width="223.93125" x="46.9828125" y="12.0390625"/>
  </clipPath>
 </defs>
</svg>
