<?xml version="1.0" encoding="utf-8" standalone="no"?>
<!DOCTYPE svg PUBLIC "-//W3C//DTD SVG 1.1//EN"
  "http://www.w3.org/Graphics/SVG/1.1/DTD/svg11.dtd">
<!-- Created with matplotlib (http://matplotlib.org/) -->
<svg height="288pt" version="1.1" viewBox="0 0 576 288" width="576pt" xmlns="http://www.w3.org/2000/svg" xmlns:xlink="http://www.w3.org/1999/xlink">
 <defs>
  <style type="text/css">
*{stroke-linecap:butt;stroke-linejoin:round;stroke-miterlimit:100000;}
  </style>
 </defs>
 <g id="figure_1">
  <g id="patch_1">
   <path d="M 0.000000 288.000000 
L 576.000000 288.000000 
L 576.000000 0.000000 
L 0.000000 0.000000 
z
" style="fill:#ffffff;"/>
  </g>
  <g id="axes_1">
   <g id="line2d_1">
    <path clip-path="url(#pd17d8af51d)" d="M 74.209901 214.800000 
L 76.198812 214.681075 
L 78.187723 214.324682 
L 80.176634 213.731958 
L 82.165545 212.904799 
L 84.154455 211.845850 
L 86.364356 210.401529 
L 88.574257 208.680944 
L 90.784158 206.690885 
L 93.215050 204.199983 
L 95.866931 201.135640 
L 98.518812 197.726185 
L 101.391683 193.665674 
L 104.485545 188.896429 
L 107.800396 183.371409 
L 111.557228 176.651409 
L 115.756040 168.655565 
L 120.617822 158.902528 
L 127.468515 144.604979 
L 139.401980 119.643062 
L 144.484752 109.570457 
L 148.683564 101.725590 
L 152.440396 95.169986 
L 155.755248 89.811469 
L 158.849109 85.214412 
L 161.721980 81.327114 
L 164.373861 78.087914 
L 167.025743 75.202783 
L 169.456634 72.883159 
L 171.666535 71.053909 
L 173.876436 69.498337 
L 176.086337 68.222581 
L 178.075248 67.317829 
L 180.064158 66.646712 
L 182.053069 66.211378 
L 184.041980 66.013217 
L 186.030891 66.052863 
L 188.019802 66.330190 
L 190.008713 66.844310 
L 191.997624 67.593581 
L 193.986535 68.575606 
L 196.196436 69.935886 
L 198.406337 71.574256 
L 200.616238 73.484249 
L 203.047129 75.889940 
L 205.478020 78.603665 
L 208.129901 81.900141 
L 211.002772 85.845802 
L 214.096634 90.500993 
L 217.411485 95.915869 
L 220.947327 102.125699 
L 224.925149 109.570457 
L 229.565941 118.746909 
L 235.532673 131.075207 
L 251.885941 165.161774 
L 256.526733 174.176893 
L 260.504554 181.442453 
L 264.040396 187.463220 
L 267.355248 192.677158 
L 270.449109 197.125723 
L 273.321980 200.864446 
L 275.973861 203.958241 
L 278.404752 206.477352 
L 280.835644 208.680944 
L 283.045545 210.401529 
L 285.255446 211.845850 
L 287.465347 213.008207 
L 289.454257 213.809434 
L 291.443168 214.375979 
L 293.432079 214.706030 
L 295.420990 214.798531 
L 297.409901 214.653189 
L 299.398812 214.270466 
L 301.387723 213.651586 
L 303.376634 212.798529 
L 305.365545 211.714021 
L 307.575446 210.241799 
L 309.785347 208.493943 
L 312.216238 206.261210 
L 314.647129 203.713989 
L 317.299010 200.590864 
L 319.950891 197.125723 
L 322.823762 193.008745 
L 325.917624 188.183597 
L 329.232475 182.604810 
L 332.989307 175.832122 
L 337.188119 167.788467 
L 342.270891 157.540973 
L 349.563564 142.269679 
L 360.171089 120.092376 
L 365.253861 109.996509 
L 369.452673 102.125699 
L 373.209505 95.542042 
L 376.524356 90.155239 
L 379.618218 85.529024 
L 382.491089 81.612467 
L 385.142970 78.344565 
L 387.794851 75.429273 
L 390.225743 73.080867 
L 392.656634 71.053909 
L 394.866535 69.498337 
L 397.076436 68.222581 
L 399.065347 67.317829 
L 401.054257 66.646712 
L 403.043168 66.211378 
L 405.032079 66.013217 
L 407.020990 66.052863 
L 409.009901 66.330190 
L 410.998812 66.844310 
L 412.987723 67.593581 
L 414.976634 68.575606 
L 417.186535 69.935886 
L 419.396436 71.574256 
L 421.606337 73.484249 
L 424.037228 75.889940 
L 426.468119 78.603665 
L 429.120000 81.900141 
L 431.992871 85.845802 
L 435.086733 90.500993 
L 438.401584 95.915869 
L 441.937426 102.125699 
L 445.915248 109.570457 
L 450.556040 118.746909 
L 456.522772 131.075207 
L 472.876040 165.161774 
L 477.516832 174.176893 
L 481.494653 181.442453 
L 485.030495 187.463220 
L 488.345347 192.677158 
L 491.439208 197.125723 
L 494.312079 200.864446 
L 496.963960 203.958241 
L 499.394851 206.477352 
L 501.825743 208.680944 
L 504.035644 210.401529 
L 506.245545 211.845850 
L 508.455446 213.008207 
L 510.444356 213.809434 
L 512.433267 214.375979 
L 514.422178 214.706030 
L 515.969109 214.798531 
L 515.969109 214.798531 
" style="fill:none;stroke:#006633;stroke-linecap:square;stroke-width:2.0;"/>
   </g>
   <g id="matplotlib.axis_1"/>
   <g id="matplotlib.axis_2"/>
   <g id="patch_2">
    <path d="M 76.209521 140.400000 
Q 295.201167 140.400000 513.074778 140.400000 
" style="fill:none;stroke:#000000;stroke-linecap:round;"/>
    <path d="M 509.074778 138.400000 
L 513.074778 140.400000 
L 509.074778 142.400000 
" style="fill:none;stroke:#000000;stroke-linecap:round;"/>
   </g>
   <g id="text_1">
    <!-- Espaço -->
    <defs>
     <path d="M 18.109375 8.203125 
L 18.109375 -20.796875 
L 9.078125 -20.796875 
L 9.078125 54.687500 
L 18.109375 54.687500 
L 18.109375 46.390625 
Q 20.953125 51.265625 25.265625 53.625000 
Q 29.593750 56.000000 35.593750 56.000000 
Q 45.562500 56.000000 51.781250 48.093750 
Q 58.015625 40.187500 58.015625 27.296875 
Q 58.015625 14.406250 51.781250 6.484375 
Q 45.562500 -1.421875 35.593750 -1.421875 
Q 29.593750 -1.421875 25.265625 0.953125 
Q 20.953125 3.328125 18.109375 8.203125 
M 48.687500 27.296875 
Q 48.687500 37.203125 44.609375 42.843750 
Q 40.531250 48.484375 33.406250 48.484375 
Q 26.265625 48.484375 22.187500 42.843750 
Q 18.109375 37.203125 18.109375 27.296875 
Q 18.109375 17.390625 22.187500 11.750000 
Q 26.265625 6.109375 33.406250 6.109375 
Q 40.531250 6.109375 44.609375 11.750000 
Q 48.687500 17.390625 48.687500 27.296875 
" id="BitstreamVeraSans-Roman-70"/>
     <path d="M 48.781250 52.593750 
L 48.781250 44.187500 
Q 44.968750 46.296875 41.140625 47.343750 
Q 37.312500 48.390625 33.406250 48.390625 
Q 24.656250 48.390625 19.812500 42.843750 
Q 14.984375 37.312500 14.984375 27.296875 
Q 14.984375 17.281250 19.812500 11.734375 
Q 24.656250 6.203125 33.406250 6.203125 
Q 37.312500 6.203125 41.140625 7.250000 
Q 44.968750 8.296875 48.781250 10.406250 
L 48.781250 2.093750 
Q 45.015625 0.343750 40.984375 -0.531250 
Q 36.968750 -1.421875 32.421875 -1.421875 
Q 20.062500 -1.421875 12.781250 6.343750 
Q 5.515625 14.109375 5.515625 27.296875 
Q 5.515625 40.671875 12.859375 48.328125 
Q 20.218750 56.000000 33.015625 56.000000 
Q 37.156250 56.000000 41.109375 55.140625 
Q 45.062500 54.296875 48.781250 52.593750 
M 36.109375 0.000000 
Q 38.781250 -3.031250 40.093750 -5.593750 
Q 41.421875 -8.156250 41.421875 -10.500000 
Q 41.421875 -14.843750 38.484375 -17.062500 
Q 35.562500 -19.281250 29.796875 -19.281250 
Q 27.562500 -19.281250 25.437500 -18.984375 
Q 23.312500 -18.703125 21.203125 -18.109375 
L 21.203125 -11.718750 
Q 22.875000 -12.546875 24.671875 -12.906250 
Q 26.484375 -13.281250 28.781250 -13.281250 
Q 31.656250 -13.281250 33.125000 -12.109375 
Q 34.593750 -10.937500 34.593750 -8.687500 
Q 34.593750 -7.234375 33.531250 -5.109375 
Q 32.484375 -2.984375 30.296875 0.000000 
z
" id="BitstreamVeraSans-Roman-e7"/>
     <path d="M 30.609375 48.390625 
Q 23.390625 48.390625 19.187500 42.750000 
Q 14.984375 37.109375 14.984375 27.296875 
Q 14.984375 17.484375 19.156250 11.843750 
Q 23.343750 6.203125 30.609375 6.203125 
Q 37.796875 6.203125 41.984375 11.859375 
Q 46.187500 17.531250 46.187500 27.296875 
Q 46.187500 37.015625 41.984375 42.703125 
Q 37.796875 48.390625 30.609375 48.390625 
M 30.609375 56.000000 
Q 42.328125 56.000000 49.015625 48.375000 
Q 55.718750 40.765625 55.718750 27.296875 
Q 55.718750 13.875000 49.015625 6.218750 
Q 42.328125 -1.421875 30.609375 -1.421875 
Q 18.843750 -1.421875 12.171875 6.218750 
Q 5.515625 13.875000 5.515625 27.296875 
Q 5.515625 40.765625 12.171875 48.375000 
Q 18.843750 56.000000 30.609375 56.000000 
" id="BitstreamVeraSans-Roman-6f"/>
     <path d="M 44.281250 53.078125 
L 44.281250 44.578125 
Q 40.484375 46.531250 36.375000 47.500000 
Q 32.281250 48.484375 27.875000 48.484375 
Q 21.187500 48.484375 17.843750 46.437500 
Q 14.500000 44.390625 14.500000 40.281250 
Q 14.500000 37.156250 16.890625 35.375000 
Q 19.281250 33.593750 26.515625 31.984375 
L 29.593750 31.296875 
Q 39.156250 29.250000 43.187500 25.515625 
Q 47.218750 21.781250 47.218750 15.093750 
Q 47.218750 7.468750 41.187500 3.015625 
Q 35.156250 -1.421875 24.609375 -1.421875 
Q 20.218750 -1.421875 15.453125 -0.562500 
Q 10.687500 0.296875 5.421875 2.000000 
L 5.421875 11.281250 
Q 10.406250 8.687500 15.234375 7.390625 
Q 20.062500 6.109375 24.812500 6.109375 
Q 31.156250 6.109375 34.562500 8.281250 
Q 37.984375 10.453125 37.984375 14.406250 
Q 37.984375 18.062500 35.515625 20.015625 
Q 33.062500 21.968750 24.703125 23.781250 
L 21.578125 24.515625 
Q 13.234375 26.265625 9.515625 29.906250 
Q 5.812500 33.546875 5.812500 39.890625 
Q 5.812500 47.609375 11.281250 51.796875 
Q 16.750000 56.000000 26.812500 56.000000 
Q 31.781250 56.000000 36.171875 55.265625 
Q 40.578125 54.546875 44.281250 53.078125 
" id="BitstreamVeraSans-Roman-73"/>
     <path d="M 9.812500 72.906250 
L 55.906250 72.906250 
L 55.906250 64.593750 
L 19.671875 64.593750 
L 19.671875 43.015625 
L 54.390625 43.015625 
L 54.390625 34.718750 
L 19.671875 34.718750 
L 19.671875 8.296875 
L 56.781250 8.296875 
L 56.781250 0.000000 
L 9.812500 0.000000 
z
" id="BitstreamVeraSans-Roman-45"/>
     <path d="M 34.281250 27.484375 
Q 23.390625 27.484375 19.187500 25.000000 
Q 14.984375 22.515625 14.984375 16.500000 
Q 14.984375 11.718750 18.140625 8.906250 
Q 21.296875 6.109375 26.703125 6.109375 
Q 34.187500 6.109375 38.703125 11.406250 
Q 43.218750 16.703125 43.218750 25.484375 
L 43.218750 27.484375 
z
M 52.203125 31.203125 
L 52.203125 0.000000 
L 43.218750 0.000000 
L 43.218750 8.296875 
Q 40.140625 3.328125 35.546875 0.953125 
Q 30.953125 -1.421875 24.312500 -1.421875 
Q 15.921875 -1.421875 10.953125 3.296875 
Q 6.000000 8.015625 6.000000 15.921875 
Q 6.000000 25.140625 12.171875 29.828125 
Q 18.359375 34.515625 30.609375 34.515625 
L 43.218750 34.515625 
L 43.218750 35.406250 
Q 43.218750 41.609375 39.140625 45.000000 
Q 35.062500 48.390625 27.687500 48.390625 
Q 23.000000 48.390625 18.546875 47.265625 
Q 14.109375 46.140625 10.015625 43.890625 
L 10.015625 52.203125 
Q 14.937500 54.109375 19.578125 55.046875 
Q 24.218750 56.000000 28.609375 56.000000 
Q 40.484375 56.000000 46.343750 49.843750 
Q 52.203125 43.703125 52.203125 31.203125 
" id="BitstreamVeraSans-Roman-61"/>
    </defs>
    <g style="fill:#0000ff;" transform="translate(480.56822401 136.4603125)scale(0.1 -0.1)">
     <use xlink:href="#BitstreamVeraSans-Roman-45"/>
     <use x="63.18359375" xlink:href="#BitstreamVeraSans-Roman-73"/>
     <use x="115.283203125" xlink:href="#BitstreamVeraSans-Roman-70"/>
     <use x="178.759765625" xlink:href="#BitstreamVeraSans-Roman-61"/>
     <use x="240.0390625" xlink:href="#BitstreamVeraSans-Roman-e7"/>
     <use x="295.01953125" xlink:href="#BitstreamVeraSans-Roman-6f"/>
    </g>
   </g>
   <g id="text_2">
    <!-- Tempo -->
    <defs>
     <path d="M -0.296875 72.906250 
L 61.375000 72.906250 
L 61.375000 64.593750 
L 35.500000 64.593750 
L 35.500000 0.000000 
L 25.593750 0.000000 
L 25.593750 64.593750 
L -0.296875 64.593750 
z
" id="BitstreamVeraSans-Roman-54"/>
     <path d="M 56.203125 29.593750 
L 56.203125 25.203125 
L 14.890625 25.203125 
Q 15.484375 15.921875 20.484375 11.062500 
Q 25.484375 6.203125 34.421875 6.203125 
Q 39.593750 6.203125 44.453125 7.468750 
Q 49.312500 8.734375 54.109375 11.281250 
L 54.109375 2.781250 
Q 49.265625 0.734375 44.187500 -0.343750 
Q 39.109375 -1.421875 33.890625 -1.421875 
Q 20.796875 -1.421875 13.156250 6.187500 
Q 5.515625 13.812500 5.515625 26.812500 
Q 5.515625 40.234375 12.765625 48.109375 
Q 20.015625 56.000000 32.328125 56.000000 
Q 43.359375 56.000000 49.781250 48.890625 
Q 56.203125 41.796875 56.203125 29.593750 
M 47.218750 32.234375 
Q 47.125000 39.593750 43.093750 43.984375 
Q 39.062500 48.390625 32.421875 48.390625 
Q 24.906250 48.390625 20.390625 44.140625 
Q 15.875000 39.890625 15.187500 32.171875 
z
" id="BitstreamVeraSans-Roman-65"/>
     <path d="M 52.000000 44.187500 
Q 55.375000 50.250000 60.062500 53.125000 
Q 64.750000 56.000000 71.093750 56.000000 
Q 79.640625 56.000000 84.281250 50.015625 
Q 88.921875 44.046875 88.921875 33.015625 
L 88.921875 0.000000 
L 79.890625 0.000000 
L 79.890625 32.718750 
Q 79.890625 40.578125 77.093750 44.375000 
Q 74.312500 48.187500 68.609375 48.187500 
Q 61.625000 48.187500 57.562500 43.546875 
Q 53.515625 38.921875 53.515625 30.906250 
L 53.515625 0.000000 
L 44.484375 0.000000 
L 44.484375 32.718750 
Q 44.484375 40.625000 41.703125 44.406250 
Q 38.921875 48.187500 33.109375 48.187500 
Q 26.218750 48.187500 22.156250 43.531250 
Q 18.109375 38.875000 18.109375 30.906250 
L 18.109375 0.000000 
L 9.078125 0.000000 
L 9.078125 54.687500 
L 18.109375 54.687500 
L 18.109375 46.187500 
Q 21.187500 51.218750 25.484375 53.609375 
Q 29.781250 56.000000 35.687500 56.000000 
Q 41.656250 56.000000 45.828125 52.968750 
Q 50.000000 49.953125 52.000000 44.187500 
" id="BitstreamVeraSans-Roman-6d"/>
    </defs>
    <g style="fill:#ff0000;" transform="translate(481.74791151 149.8584375)scale(0.1 -0.1)">
     <use xlink:href="#BitstreamVeraSans-Roman-54"/>
     <use x="60.818359375" xlink:href="#BitstreamVeraSans-Roman-65"/>
     <use x="122.341796875" xlink:href="#BitstreamVeraSans-Roman-6d"/>
     <use x="219.75390625" xlink:href="#BitstreamVeraSans-Roman-70"/>
     <use x="283.23046875" xlink:href="#BitstreamVeraSans-Roman-6f"/>
    </g>
   </g>
   <g id="patch_3">
    <path d="M 187.822605 47.400000 
Q 295.199022 47.400000 402.575439 47.400000 
" style="fill:none;stroke:#000000;stroke-linecap:round;"/>
    <path d="M 191.822605 49.400000 
L 187.822605 47.400000 
L 191.822605 45.400000 
" style="fill:none;stroke:#000000;stroke-linecap:round;"/>
    <path d="M 398.575439 45.400000 
L 402.575439 47.400000 
L 398.575439 49.400000 
" style="fill:none;stroke:#000000;stroke-linecap:round;"/>
   </g>
   <g id="text_3">
    <!-- Comprimento -->
    <defs>
     <path d="M 9.421875 54.687500 
L 18.406250 54.687500 
L 18.406250 0.000000 
L 9.421875 0.000000 
z
M 9.421875 75.984375 
L 18.406250 75.984375 
L 18.406250 64.593750 
L 9.421875 64.593750 
z
" id="BitstreamVeraSans-Roman-69"/>
     <path d="M 18.312500 70.218750 
L 18.312500 54.687500 
L 36.812500 54.687500 
L 36.812500 47.703125 
L 18.312500 47.703125 
L 18.312500 18.015625 
Q 18.312500 11.328125 20.140625 9.421875 
Q 21.968750 7.515625 27.593750 7.515625 
L 36.812500 7.515625 
L 36.812500 0.000000 
L 27.593750 0.000000 
Q 17.187500 0.000000 13.234375 3.875000 
Q 9.281250 7.765625 9.281250 18.015625 
L 9.281250 47.703125 
L 2.687500 47.703125 
L 2.687500 54.687500 
L 9.281250 54.687500 
L 9.281250 70.218750 
z
" id="BitstreamVeraSans-Roman-74"/>
     <path d="M 64.406250 67.281250 
L 64.406250 56.890625 
Q 59.421875 61.531250 53.781250 63.812500 
Q 48.140625 66.109375 41.796875 66.109375 
Q 29.296875 66.109375 22.656250 58.468750 
Q 16.015625 50.828125 16.015625 36.375000 
Q 16.015625 21.968750 22.656250 14.328125 
Q 29.296875 6.687500 41.796875 6.687500 
Q 48.140625 6.687500 53.781250 8.984375 
Q 59.421875 11.281250 64.406250 15.921875 
L 64.406250 5.609375 
Q 59.234375 2.093750 53.437500 0.328125 
Q 47.656250 -1.421875 41.218750 -1.421875 
Q 24.656250 -1.421875 15.125000 8.703125 
Q 5.609375 18.843750 5.609375 36.375000 
Q 5.609375 53.953125 15.125000 64.078125 
Q 24.656250 74.218750 41.218750 74.218750 
Q 47.750000 74.218750 53.531250 72.484375 
Q 59.328125 70.750000 64.406250 67.281250 
" id="BitstreamVeraSans-Roman-43"/>
     <path d="M 54.890625 33.015625 
L 54.890625 0.000000 
L 45.906250 0.000000 
L 45.906250 32.718750 
Q 45.906250 40.484375 42.875000 44.328125 
Q 39.843750 48.187500 33.796875 48.187500 
Q 26.515625 48.187500 22.312500 43.546875 
Q 18.109375 38.921875 18.109375 30.906250 
L 18.109375 0.000000 
L 9.078125 0.000000 
L 9.078125 54.687500 
L 18.109375 54.687500 
L 18.109375 46.187500 
Q 21.343750 51.125000 25.703125 53.562500 
Q 30.078125 56.000000 35.796875 56.000000 
Q 45.218750 56.000000 50.046875 50.171875 
Q 54.890625 44.343750 54.890625 33.015625 
" id="BitstreamVeraSans-Roman-6e"/>
     <path d="M 41.109375 46.296875 
Q 39.593750 47.171875 37.812500 47.578125 
Q 36.031250 48.000000 33.890625 48.000000 
Q 26.265625 48.000000 22.187500 43.046875 
Q 18.109375 38.093750 18.109375 28.812500 
L 18.109375 0.000000 
L 9.078125 0.000000 
L 9.078125 54.687500 
L 18.109375 54.687500 
L 18.109375 46.187500 
Q 20.953125 51.171875 25.484375 53.578125 
Q 30.031250 56.000000 36.531250 56.000000 
Q 37.453125 56.000000 38.578125 55.875000 
Q 39.703125 55.765625 41.062500 55.515625 
z
" id="BitstreamVeraSans-Roman-72"/>
    </defs>
    <g style="fill:#0000ff;" transform="translate(261.025 43.4603125)scale(0.1 -0.1)">
     <use xlink:href="#BitstreamVeraSans-Roman-43"/>
     <use x="69.82421875" xlink:href="#BitstreamVeraSans-Roman-6f"/>
     <use x="131.005859375" xlink:href="#BitstreamVeraSans-Roman-6d"/>
     <use x="228.41796875" xlink:href="#BitstreamVeraSans-Roman-70"/>
     <use x="291.89453125" xlink:href="#BitstreamVeraSans-Roman-72"/>
     <use x="333.0078125" xlink:href="#BitstreamVeraSans-Roman-69"/>
     <use x="360.791015625" xlink:href="#BitstreamVeraSans-Roman-6d"/>
     <use x="458.203125" xlink:href="#BitstreamVeraSans-Roman-65"/>
     <use x="519.7265625" xlink:href="#BitstreamVeraSans-Roman-6e"/>
     <use x="583.10546875" xlink:href="#BitstreamVeraSans-Roman-74"/>
     <use x="622.314453125" xlink:href="#BitstreamVeraSans-Roman-6f"/>
    </g>
   </g>
   <g id="text_4">
    <!-- Período -->
    <defs>
     <path d="M 19.671875 64.796875 
L 19.671875 37.406250 
L 32.078125 37.406250 
Q 38.968750 37.406250 42.718750 40.968750 
Q 46.484375 44.531250 46.484375 51.125000 
Q 46.484375 57.671875 42.718750 61.234375 
Q 38.968750 64.796875 32.078125 64.796875 
z
M 9.812500 72.906250 
L 32.078125 72.906250 
Q 44.343750 72.906250 50.609375 67.359375 
Q 56.890625 61.812500 56.890625 51.125000 
Q 56.890625 40.328125 50.609375 34.812500 
Q 44.343750 29.296875 32.078125 29.296875 
L 19.671875 29.296875 
L 19.671875 0.000000 
L 9.812500 0.000000 
z
" id="BitstreamVeraSans-Roman-50"/>
     <path d="M 45.406250 46.390625 
L 45.406250 75.984375 
L 54.390625 75.984375 
L 54.390625 0.000000 
L 45.406250 0.000000 
L 45.406250 8.203125 
Q 42.578125 3.328125 38.250000 0.953125 
Q 33.937500 -1.421875 27.875000 -1.421875 
Q 17.968750 -1.421875 11.734375 6.484375 
Q 5.515625 14.406250 5.515625 27.296875 
Q 5.515625 40.187500 11.734375 48.093750 
Q 17.968750 56.000000 27.875000 56.000000 
Q 33.937500 56.000000 38.250000 53.625000 
Q 42.578125 51.265625 45.406250 46.390625 
M 14.796875 27.296875 
Q 14.796875 17.390625 18.875000 11.750000 
Q 22.953125 6.109375 30.078125 6.109375 
Q 37.203125 6.109375 41.296875 11.750000 
Q 45.406250 17.390625 45.406250 27.296875 
Q 45.406250 37.203125 41.296875 42.843750 
Q 37.203125 48.484375 30.078125 48.484375 
Q 22.953125 48.484375 18.875000 42.843750 
Q 14.796875 37.203125 14.796875 27.296875 
" id="BitstreamVeraSans-Roman-64"/>
     <path d="M 9.421875 54.687500 
L 18.406250 54.687500 
L 18.406250 0.000000 
L 9.421875 0.000000 
z
M 20.656250 79.984375 
L 30.375000 79.984375 
L 14.468750 61.625000 
L 6.984375 61.625000 
z
" id="BitstreamVeraSans-Roman-ed"/>
    </defs>
    <g style="fill:#ff0000;" transform="translate(276.3734375 56.8584375)scale(0.1 -0.1)">
     <use xlink:href="#BitstreamVeraSans-Roman-50"/>
     <use x="60.255859375" xlink:href="#BitstreamVeraSans-Roman-65"/>
     <use x="121.779296875" xlink:href="#BitstreamVeraSans-Roman-72"/>
     <use x="162.892578125" xlink:href="#BitstreamVeraSans-Roman-ed"/>
     <use x="190.67578125" xlink:href="#BitstreamVeraSans-Roman-6f"/>
     <use x="251.857421875" xlink:href="#BitstreamVeraSans-Roman-64"/>
     <use x="315.333984375" xlink:href="#BitstreamVeraSans-Roman-6f"/>
    </g>
   </g>
   <g id="patch_4">
    <path d="M 184.704950 137.279378 
Q 184.704950 103.199561 184.704950 69.119745 
" style="fill:none;stroke:#000000;stroke-linecap:round;"/>
    <path d="M 186.704950 133.279378 
L 184.704950 137.279378 
L 182.704950 133.279378 
" style="fill:none;stroke:#000000;stroke-linecap:round;"/>
    <path d="M 182.704950 73.119745 
L 184.704950 69.119745 
L 186.704950 73.119745 
" style="fill:none;stroke:#000000;stroke-linecap:round;"/>
   </g>
   <g id="text_5">
    <!-- Amplitude -->
    <defs>
     <path d="M 9.421875 75.984375 
L 18.406250 75.984375 
L 18.406250 0.000000 
L 9.421875 0.000000 
z
" id="BitstreamVeraSans-Roman-6c"/>
     <path d="M 34.187500 63.187500 
L 20.796875 26.906250 
L 47.609375 26.906250 
z
M 28.609375 72.906250 
L 39.796875 72.906250 
L 67.578125 0.000000 
L 57.328125 0.000000 
L 50.687500 18.703125 
L 17.828125 18.703125 
L 11.187500 0.000000 
L 0.781250 0.000000 
z
" id="BitstreamVeraSans-Roman-41"/>
     <path d="M 8.500000 21.578125 
L 8.500000 54.687500 
L 17.484375 54.687500 
L 17.484375 21.921875 
Q 17.484375 14.156250 20.500000 10.265625 
Q 23.531250 6.390625 29.593750 6.390625 
Q 36.859375 6.390625 41.078125 11.031250 
Q 45.312500 15.671875 45.312500 23.687500 
L 45.312500 54.687500 
L 54.296875 54.687500 
L 54.296875 0.000000 
L 45.312500 0.000000 
L 45.312500 8.406250 
Q 42.046875 3.421875 37.718750 1.000000 
Q 33.406250 -1.421875 27.687500 -1.421875 
Q 18.265625 -1.421875 13.375000 4.437500 
Q 8.500000 10.296875 8.500000 21.578125 
" id="BitstreamVeraSans-Roman-75"/>
    </defs>
    <g transform="translate(180.415362005 128.82265625)rotate(-90.0)scale(0.1 -0.1)">
     <use xlink:href="#BitstreamVeraSans-Roman-41"/>
     <use x="68.408203125" xlink:href="#BitstreamVeraSans-Roman-6d"/>
     <use x="165.8203125" xlink:href="#BitstreamVeraSans-Roman-70"/>
     <use x="229.296875" xlink:href="#BitstreamVeraSans-Roman-6c"/>
     <use x="257.080078125" xlink:href="#BitstreamVeraSans-Roman-69"/>
     <use x="284.86328125" xlink:href="#BitstreamVeraSans-Roman-74"/>
     <use x="324.072265625" xlink:href="#BitstreamVeraSans-Roman-75"/>
     <use x="387.451171875" xlink:href="#BitstreamVeraSans-Roman-64"/>
     <use x="450.927734375" xlink:href="#BitstreamVeraSans-Roman-65"/>
    </g>
   </g>
   <g id="patch_5">
    <path d="M 405.695050 211.679378 
Q 405.695050 140.399964 405.695050 69.120550 
" style="fill:none;stroke:#000000;stroke-linecap:round;"/>
    <path d="M 407.695050 207.679378 
L 405.695050 211.679378 
L 403.695050 207.679378 
" style="fill:none;stroke:#000000;stroke-linecap:round;"/>
    <path d="M 403.695050 73.120550 
L 405.695050 69.120550 
L 407.695050 73.120550 
" style="fill:none;stroke:#000000;stroke-linecap:round;"/>
   </g>
   <g id="text_6">
    <!-- Altura -->
    <g transform="translate(401.405461015 136.68)rotate(-90.0)scale(0.1 -0.1)">
     <use xlink:href="#BitstreamVeraSans-Roman-41"/>
     <use x="68.408203125" xlink:href="#BitstreamVeraSans-Roman-6c"/>
     <use x="96.19140625" xlink:href="#BitstreamVeraSans-Roman-74"/>
     <use x="135.400390625" xlink:href="#BitstreamVeraSans-Roman-75"/>
     <use x="198.779296875" xlink:href="#BitstreamVeraSans-Roman-72"/>
     <use x="239.892578125" xlink:href="#BitstreamVeraSans-Roman-61"/>
    </g>
   </g>
   <g id="patch_6">
    <path d="M 187.288020 213.060733 
Q 295.199509 140.400331 403.110997 67.739928 
" style="fill:none;stroke:#000000;stroke-linecap:round;"/>
    <path d="M 191.723022 212.485621 
L 187.288020 213.060733 
L 189.488931 209.167664 
" style="fill:none;stroke:#000000;stroke-linecap:round;"/>
    <path d="M 398.675995 68.315041 
L 403.110997 67.739928 
L 400.910086 71.632998 
" style="fill:none;stroke:#000000;stroke-linecap:round;"/>
   </g>
   <g id="text_7">
    <!-- Inclinação -->
    <defs>
     <path d="M 48.781250 52.593750 
L 48.781250 44.187500 
Q 44.968750 46.296875 41.140625 47.343750 
Q 37.312500 48.390625 33.406250 48.390625 
Q 24.656250 48.390625 19.812500 42.843750 
Q 14.984375 37.312500 14.984375 27.296875 
Q 14.984375 17.281250 19.812500 11.734375 
Q 24.656250 6.203125 33.406250 6.203125 
Q 37.312500 6.203125 41.140625 7.250000 
Q 44.968750 8.296875 48.781250 10.406250 
L 48.781250 2.093750 
Q 45.015625 0.343750 40.984375 -0.531250 
Q 36.968750 -1.421875 32.421875 -1.421875 
Q 20.062500 -1.421875 12.781250 6.343750 
Q 5.515625 14.109375 5.515625 27.296875 
Q 5.515625 40.671875 12.859375 48.328125 
Q 20.218750 56.000000 33.015625 56.000000 
Q 37.156250 56.000000 41.109375 55.140625 
Q 45.062500 54.296875 48.781250 52.593750 
" id="BitstreamVeraSans-Roman-63"/>
     <path d="M 34.281250 27.484375 
Q 23.390625 27.484375 19.187500 25.000000 
Q 14.984375 22.515625 14.984375 16.500000 
Q 14.984375 11.718750 18.140625 8.906250 
Q 21.296875 6.109375 26.703125 6.109375 
Q 34.187500 6.109375 38.703125 11.406250 
Q 43.218750 16.703125 43.218750 25.484375 
L 43.218750 27.484375 
z
M 52.203125 31.203125 
L 52.203125 0.000000 
L 43.218750 0.000000 
L 43.218750 8.296875 
Q 40.140625 3.328125 35.546875 0.953125 
Q 30.953125 -1.421875 24.312500 -1.421875 
Q 15.921875 -1.421875 10.953125 3.296875 
Q 6.000000 8.015625 6.000000 15.921875 
Q 6.000000 25.140625 12.171875 29.828125 
Q 18.359375 34.515625 30.609375 34.515625 
L 43.218750 34.515625 
L 43.218750 35.406250 
Q 43.218750 41.609375 39.140625 45.000000 
Q 35.062500 48.390625 27.687500 48.390625 
Q 23.000000 48.390625 18.546875 47.265625 
Q 14.109375 46.140625 10.015625 43.890625 
L 10.015625 52.203125 
Q 14.937500 54.109375 19.578125 55.046875 
Q 24.218750 56.000000 28.609375 56.000000 
Q 40.484375 56.000000 46.343750 49.843750 
Q 52.203125 43.703125 52.203125 31.203125 
M 28.812500 66.890625 
L 26.015625 69.578125 
Q 24.953125 70.562500 24.140625 71.015625 
Q 23.343750 71.484375 22.703125 71.484375 
Q 20.843750 71.484375 19.968750 69.703125 
Q 19.093750 67.921875 18.984375 63.921875 
L 12.890625 63.921875 
Q 12.984375 70.515625 15.468750 74.093750 
Q 17.968750 77.687500 22.406250 77.687500 
Q 24.265625 77.687500 25.828125 77.000000 
Q 27.390625 76.312500 29.203125 74.703125 
L 31.984375 72.015625 
Q 33.046875 71.046875 33.859375 70.578125 
Q 34.671875 70.125000 35.296875 70.125000 
Q 37.156250 70.125000 38.031250 71.906250 
Q 38.906250 73.687500 39.015625 77.687500 
L 45.109375 77.687500 
Q 45.015625 71.093750 42.515625 67.500000 
Q 40.031250 63.921875 35.593750 63.921875 
Q 33.734375 63.921875 32.171875 64.593750 
Q 30.609375 65.281250 28.812500 66.890625 
" id="BitstreamVeraSans-Roman-e3"/>
     <path d="M 9.812500 72.906250 
L 19.671875 72.906250 
L 19.671875 0.000000 
L 9.812500 0.000000 
z
" id="BitstreamVeraSans-Roman-49"/>
    </defs>
    <g transform="translate(287.132246864 138.566067865)rotate(-35.0)scale(0.1 -0.1)">
     <use xlink:href="#BitstreamVeraSans-Roman-49"/>
     <use x="29.4921875" xlink:href="#BitstreamVeraSans-Roman-6e"/>
     <use x="92.87109375" xlink:href="#BitstreamVeraSans-Roman-63"/>
     <use x="147.8515625" xlink:href="#BitstreamVeraSans-Roman-6c"/>
     <use x="175.634765625" xlink:href="#BitstreamVeraSans-Roman-69"/>
     <use x="203.41796875" xlink:href="#BitstreamVeraSans-Roman-6e"/>
     <use x="266.796875" xlink:href="#BitstreamVeraSans-Roman-61"/>
     <use x="328.076171875" xlink:href="#BitstreamVeraSans-Roman-e7"/>
     <use x="383.056640625" xlink:href="#BitstreamVeraSans-Roman-e3"/>
     <use x="444.3359375" xlink:href="#BitstreamVeraSans-Roman-6f"/>
    </g>
   </g>
   <g id="line2d_2">
    <path clip-path="url(#pd17d8af51d)" d="M 138.960000 66.000000 
L 451.440000 66.000000 
" style="fill:none;stroke:#808080;stroke-dasharray:6.000000,6.000000;stroke-dashoffset:0.0;"/>
   </g>
   <g id="line2d_3">
    <path clip-path="url(#pd17d8af51d)" d="M 138.960000 214.800000 
L 451.440000 214.800000 
" style="fill:none;stroke:#808080;stroke-dasharray:6.000000,6.000000;stroke-dashoffset:0.0;"/>
   </g>
   <g id="line2d_4">
    <path clip-path="url(#pd17d8af51d)" d="M 184.704950 285.480000 
L 184.704950 -1.000000 
" style="fill:none;stroke:#808080;stroke-dasharray:6.000000,6.000000;stroke-dashoffset:0.0;"/>
   </g>
   <g id="line2d_5">
    <path clip-path="url(#pd17d8af51d)" d="M 405.695050 285.480000 
L 405.695050 -1.000000 
" style="fill:none;stroke:#808080;stroke-dasharray:6.000000,6.000000;stroke-dashoffset:0.0;"/>
   </g>
  </g>
 </g>
 <defs>
  <clipPath id="pd17d8af51d">
   <rect height="223.2" width="446.4" x="72.0" y="28.8"/>
  </clipPath>
 </defs>
</svg>
