<?xml version="1.0" encoding="utf-8" standalone="no"?>
<!DOCTYPE svg PUBLIC "-//W3C//DTD SVG 1.1//EN"
  "http://www.w3.org/Graphics/SVG/1.1/DTD/svg11.dtd">
<!-- Created with matplotlib (http://matplotlib.org/) -->
<svg height="274pt" version="1.1" viewBox="0 0 562 274" width="562pt" xmlns="http://www.w3.org/2000/svg" xmlns:xlink="http://www.w3.org/1999/xlink">
 <defs>
  <style type="text/css">
*{stroke-linecap:butt;stroke-linejoin:round;stroke-miterlimit:100000;}
  </style>
 </defs>
 <g id="figure_1">
  <g id="patch_1">
   <path d="M 0.000000 274.459625 
L 562.318437 274.459625 
L 562.318437 -0.000000 
L 0.000000 -0.000000 
z
" style="fill:#ffffff;"/>
  </g>
  <g id="axes_1">
   <g id="patch_2">
    <path d="M 46.555937 232.967750 
L 548.755938 232.967750 
L 548.755938 23.717750 
L 46.555937 23.717750 
z
" style="fill:#e5e5e5;"/>
   </g>
   <g id="matplotlib.axis_1">
    <g id="xtick_1">
     <g id="line2d_1">
      <path clip-path="url(#pdd263db176)" d="M 46.555937 232.967750 
L 46.555937 23.717750 
" style="fill:none;stroke:#ffffff;stroke-linecap:square;stroke-width:0.5;"/>
     </g>
     <g id="line2d_2">
      <defs>
       <path d="M 0.000000 0.000000 
L 0.000000 4.000000 
" id="mb40cdb5cf6" style="stroke:#555555;stroke-width:0.5;"/>
      </defs>
      <g>
       <use style="fill:#555555;stroke:#555555;stroke-width:0.5;" x="46.5559375" xlink:href="#mb40cdb5cf6" y="232.96775"/>
      </g>
     </g>
     <g id="line2d_3">
      <defs>
       <path d="M 0.000000 0.000000 
L 0.000000 -4.000000 
" id="m2a8ca5eefa" style="stroke:#555555;stroke-width:0.5;"/>
      </defs>
      <g>
       <use style="fill:#555555;stroke:#555555;stroke-width:0.5;" x="46.5559375" xlink:href="#m2a8ca5eefa" y="23.71775"/>
      </g>
     </g>
     <g id="text_1">
      <!-- 0 -->
      <defs>
       <path d="M 31.781250 66.406250 
Q 24.171875 66.406250 20.328125 58.906250 
Q 16.500000 51.421875 16.500000 36.375000 
Q 16.500000 21.390625 20.328125 13.890625 
Q 24.171875 6.390625 31.781250 6.390625 
Q 39.453125 6.390625 43.281250 13.890625 
Q 47.125000 21.390625 47.125000 36.375000 
Q 47.125000 51.421875 43.281250 58.906250 
Q 39.453125 66.406250 31.781250 66.406250 
M 31.781250 74.218750 
Q 44.046875 74.218750 50.515625 64.515625 
Q 56.984375 54.828125 56.984375 36.375000 
Q 56.984375 17.968750 50.515625 8.265625 
Q 44.046875 -1.421875 31.781250 -1.421875 
Q 19.531250 -1.421875 13.062500 8.265625 
Q 6.593750 17.968750 6.593750 36.375000 
Q 6.593750 54.828125 13.062500 64.515625 
Q 19.531250 74.218750 31.781250 74.218750 
" id="BitstreamVeraSans-Roman-30"/>
      </defs>
      <g style="fill:#555555;" transform="translate(43.3746875 248.5661875)scale(0.1 -0.1)">
       <use xlink:href="#BitstreamVeraSans-Roman-30"/>
      </g>
     </g>
    </g>
    <g id="xtick_2">
     <g id="line2d_4">
      <path clip-path="url(#pdd263db176)" d="M 146.995937 232.967750 
L 146.995937 23.717750 
" style="fill:none;stroke:#ffffff;stroke-linecap:square;stroke-width:0.5;"/>
     </g>
     <g id="line2d_5">
      <g>
       <use style="fill:#555555;stroke:#555555;stroke-width:0.5;" x="146.9959375" xlink:href="#mb40cdb5cf6" y="232.96775"/>
      </g>
     </g>
     <g id="line2d_6">
      <g>
       <use style="fill:#555555;stroke:#555555;stroke-width:0.5;" x="146.9959375" xlink:href="#m2a8ca5eefa" y="23.71775"/>
      </g>
     </g>
     <g id="text_2">
      <!-- 5 -->
      <defs>
       <path d="M 10.796875 72.906250 
L 49.515625 72.906250 
L 49.515625 64.593750 
L 19.828125 64.593750 
L 19.828125 46.734375 
Q 21.968750 47.468750 24.109375 47.828125 
Q 26.265625 48.187500 28.421875 48.187500 
Q 40.625000 48.187500 47.750000 41.500000 
Q 54.890625 34.812500 54.890625 23.390625 
Q 54.890625 11.625000 47.562500 5.093750 
Q 40.234375 -1.421875 26.906250 -1.421875 
Q 22.312500 -1.421875 17.546875 -0.640625 
Q 12.796875 0.140625 7.718750 1.703125 
L 7.718750 11.625000 
Q 12.109375 9.234375 16.796875 8.062500 
Q 21.484375 6.890625 26.703125 6.890625 
Q 35.156250 6.890625 40.078125 11.328125 
Q 45.015625 15.765625 45.015625 23.390625 
Q 45.015625 31.000000 40.078125 35.437500 
Q 35.156250 39.890625 26.703125 39.890625 
Q 22.750000 39.890625 18.812500 39.015625 
Q 14.890625 38.140625 10.796875 36.281250 
z
" id="BitstreamVeraSans-Roman-35"/>
      </defs>
      <g style="fill:#555555;" transform="translate(143.8146875 248.5661875)scale(0.1 -0.1)">
       <use xlink:href="#BitstreamVeraSans-Roman-35"/>
      </g>
     </g>
    </g>
    <g id="xtick_3">
     <g id="line2d_7">
      <path clip-path="url(#pdd263db176)" d="M 247.435937 232.967750 
L 247.435937 23.717750 
" style="fill:none;stroke:#ffffff;stroke-linecap:square;stroke-width:0.5;"/>
     </g>
     <g id="line2d_8">
      <g>
       <use style="fill:#555555;stroke:#555555;stroke-width:0.5;" x="247.4359375" xlink:href="#mb40cdb5cf6" y="232.96775"/>
      </g>
     </g>
     <g id="line2d_9">
      <g>
       <use style="fill:#555555;stroke:#555555;stroke-width:0.5;" x="247.4359375" xlink:href="#m2a8ca5eefa" y="23.71775"/>
      </g>
     </g>
     <g id="text_3">
      <!-- 10 -->
      <defs>
       <path d="M 12.406250 8.296875 
L 28.515625 8.296875 
L 28.515625 63.921875 
L 10.984375 60.406250 
L 10.984375 69.390625 
L 28.421875 72.906250 
L 38.281250 72.906250 
L 38.281250 8.296875 
L 54.390625 8.296875 
L 54.390625 0.000000 
L 12.406250 0.000000 
z
" id="BitstreamVeraSans-Roman-31"/>
      </defs>
      <g style="fill:#555555;" transform="translate(241.0734375 248.5661875)scale(0.1 -0.1)">
       <use xlink:href="#BitstreamVeraSans-Roman-31"/>
       <use x="63.623046875" xlink:href="#BitstreamVeraSans-Roman-30"/>
      </g>
     </g>
    </g>
    <g id="xtick_4">
     <g id="line2d_10">
      <path clip-path="url(#pdd263db176)" d="M 347.875937 232.967750 
L 347.875937 23.717750 
" style="fill:none;stroke:#ffffff;stroke-linecap:square;stroke-width:0.5;"/>
     </g>
     <g id="line2d_11">
      <g>
       <use style="fill:#555555;stroke:#555555;stroke-width:0.5;" x="347.8759375" xlink:href="#mb40cdb5cf6" y="232.96775"/>
      </g>
     </g>
     <g id="line2d_12">
      <g>
       <use style="fill:#555555;stroke:#555555;stroke-width:0.5;" x="347.8759375" xlink:href="#m2a8ca5eefa" y="23.71775"/>
      </g>
     </g>
     <g id="text_4">
      <!-- 15 -->
      <g style="fill:#555555;" transform="translate(341.5134375 248.5661875)scale(0.1 -0.1)">
       <use xlink:href="#BitstreamVeraSans-Roman-31"/>
       <use x="63.623046875" xlink:href="#BitstreamVeraSans-Roman-35"/>
      </g>
     </g>
    </g>
    <g id="xtick_5">
     <g id="line2d_13">
      <path clip-path="url(#pdd263db176)" d="M 448.315938 232.967750 
L 448.315938 23.717750 
" style="fill:none;stroke:#ffffff;stroke-linecap:square;stroke-width:0.5;"/>
     </g>
     <g id="line2d_14">
      <g>
       <use style="fill:#555555;stroke:#555555;stroke-width:0.5;" x="448.3159375" xlink:href="#mb40cdb5cf6" y="232.96775"/>
      </g>
     </g>
     <g id="line2d_15">
      <g>
       <use style="fill:#555555;stroke:#555555;stroke-width:0.5;" x="448.3159375" xlink:href="#m2a8ca5eefa" y="23.71775"/>
      </g>
     </g>
     <g id="text_5">
      <!-- 20 -->
      <defs>
       <path d="M 19.187500 8.296875 
L 53.609375 8.296875 
L 53.609375 0.000000 
L 7.328125 0.000000 
L 7.328125 8.296875 
Q 12.937500 14.109375 22.625000 23.890625 
Q 32.328125 33.687500 34.812500 36.531250 
Q 39.546875 41.843750 41.421875 45.531250 
Q 43.312500 49.218750 43.312500 52.781250 
Q 43.312500 58.593750 39.234375 62.250000 
Q 35.156250 65.921875 28.609375 65.921875 
Q 23.968750 65.921875 18.812500 64.312500 
Q 13.671875 62.703125 7.812500 59.421875 
L 7.812500 69.390625 
Q 13.765625 71.781250 18.937500 73.000000 
Q 24.125000 74.218750 28.421875 74.218750 
Q 39.750000 74.218750 46.484375 68.546875 
Q 53.218750 62.890625 53.218750 53.421875 
Q 53.218750 48.921875 51.531250 44.890625 
Q 49.859375 40.875000 45.406250 35.406250 
Q 44.187500 33.984375 37.640625 27.218750 
Q 31.109375 20.453125 19.187500 8.296875 
" id="BitstreamVeraSans-Roman-32"/>
      </defs>
      <g style="fill:#555555;" transform="translate(441.9534375 248.5661875)scale(0.1 -0.1)">
       <use xlink:href="#BitstreamVeraSans-Roman-32"/>
       <use x="63.623046875" xlink:href="#BitstreamVeraSans-Roman-30"/>
      </g>
     </g>
    </g>
    <g id="xtick_6">
     <g id="line2d_16">
      <path clip-path="url(#pdd263db176)" d="M 548.755938 232.967750 
L 548.755938 23.717750 
" style="fill:none;stroke:#ffffff;stroke-linecap:square;stroke-width:0.5;"/>
     </g>
     <g id="line2d_17">
      <g>
       <use style="fill:#555555;stroke:#555555;stroke-width:0.5;" x="548.7559375" xlink:href="#mb40cdb5cf6" y="232.96775"/>
      </g>
     </g>
     <g id="line2d_18">
      <g>
       <use style="fill:#555555;stroke:#555555;stroke-width:0.5;" x="548.7559375" xlink:href="#m2a8ca5eefa" y="23.71775"/>
      </g>
     </g>
     <g id="text_6">
      <!-- 25 -->
      <g style="fill:#555555;" transform="translate(542.3934375 248.5661875)scale(0.1 -0.1)">
       <use xlink:href="#BitstreamVeraSans-Roman-32"/>
       <use x="63.623046875" xlink:href="#BitstreamVeraSans-Roman-35"/>
      </g>
     </g>
    </g>
    <g id="text_7">
     <!-- Dias -->
     <defs>
      <path d="M 34.281250 27.484375 
Q 23.390625 27.484375 19.187500 25.000000 
Q 14.984375 22.515625 14.984375 16.500000 
Q 14.984375 11.718750 18.140625 8.906250 
Q 21.296875 6.109375 26.703125 6.109375 
Q 34.187500 6.109375 38.703125 11.406250 
Q 43.218750 16.703125 43.218750 25.484375 
L 43.218750 27.484375 
z
M 52.203125 31.203125 
L 52.203125 0.000000 
L 43.218750 0.000000 
L 43.218750 8.296875 
Q 40.140625 3.328125 35.546875 0.953125 
Q 30.953125 -1.421875 24.312500 -1.421875 
Q 15.921875 -1.421875 10.953125 3.296875 
Q 6.000000 8.015625 6.000000 15.921875 
Q 6.000000 25.140625 12.171875 29.828125 
Q 18.359375 34.515625 30.609375 34.515625 
L 43.218750 34.515625 
L 43.218750 35.406250 
Q 43.218750 41.609375 39.140625 45.000000 
Q 35.062500 48.390625 27.687500 48.390625 
Q 23.000000 48.390625 18.546875 47.265625 
Q 14.109375 46.140625 10.015625 43.890625 
L 10.015625 52.203125 
Q 14.937500 54.109375 19.578125 55.046875 
Q 24.218750 56.000000 28.609375 56.000000 
Q 40.484375 56.000000 46.343750 49.843750 
Q 52.203125 43.703125 52.203125 31.203125 
" id="BitstreamVeraSans-Roman-61"/>
      <path d="M 44.281250 53.078125 
L 44.281250 44.578125 
Q 40.484375 46.531250 36.375000 47.500000 
Q 32.281250 48.484375 27.875000 48.484375 
Q 21.187500 48.484375 17.843750 46.437500 
Q 14.500000 44.390625 14.500000 40.281250 
Q 14.500000 37.156250 16.890625 35.375000 
Q 19.281250 33.593750 26.515625 31.984375 
L 29.593750 31.296875 
Q 39.156250 29.250000 43.187500 25.515625 
Q 47.218750 21.781250 47.218750 15.093750 
Q 47.218750 7.468750 41.187500 3.015625 
Q 35.156250 -1.421875 24.609375 -1.421875 
Q 20.218750 -1.421875 15.453125 -0.562500 
Q 10.687500 0.296875 5.421875 2.000000 
L 5.421875 11.281250 
Q 10.406250 8.687500 15.234375 7.390625 
Q 20.062500 6.109375 24.812500 6.109375 
Q 31.156250 6.109375 34.562500 8.281250 
Q 37.984375 10.453125 37.984375 14.406250 
Q 37.984375 18.062500 35.515625 20.015625 
Q 33.062500 21.968750 24.703125 23.781250 
L 21.578125 24.515625 
Q 13.234375 26.265625 9.515625 29.906250 
Q 5.812500 33.546875 5.812500 39.890625 
Q 5.812500 47.609375 11.281250 51.796875 
Q 16.750000 56.000000 26.812500 56.000000 
Q 31.781250 56.000000 36.171875 55.265625 
Q 40.578125 54.546875 44.281250 53.078125 
" id="BitstreamVeraSans-Roman-73"/>
      <path d="M 19.671875 64.796875 
L 19.671875 8.109375 
L 31.593750 8.109375 
Q 46.687500 8.109375 53.687500 14.937500 
Q 60.687500 21.781250 60.687500 36.531250 
Q 60.687500 51.171875 53.687500 57.984375 
Q 46.687500 64.796875 31.593750 64.796875 
z
M 9.812500 72.906250 
L 30.078125 72.906250 
Q 51.265625 72.906250 61.171875 64.093750 
Q 71.093750 55.281250 71.093750 36.531250 
Q 71.093750 17.671875 61.125000 8.828125 
Q 51.171875 0.000000 30.078125 0.000000 
L 9.812500 0.000000 
z
" id="BitstreamVeraSans-Roman-44"/>
      <path d="M 9.421875 54.687500 
L 18.406250 54.687500 
L 18.406250 0.000000 
L 9.421875 0.000000 
z
M 9.421875 75.984375 
L 18.406250 75.984375 
L 18.406250 64.593750 
L 9.421875 64.593750 
z
" id="BitstreamVeraSans-Roman-69"/>
     </defs>
     <g style="fill:#555555;" transform="translate(284.5665625 264.764)scale(0.12 -0.12)">
      <use xlink:href="#BitstreamVeraSans-Roman-44"/>
      <use x="77.001953125" xlink:href="#BitstreamVeraSans-Roman-69"/>
      <use x="104.78515625" xlink:href="#BitstreamVeraSans-Roman-61"/>
      <use x="166.064453125" xlink:href="#BitstreamVeraSans-Roman-73"/>
     </g>
    </g>
   </g>
   <g id="matplotlib.axis_2">
    <g id="ytick_1">
     <g id="line2d_19">
      <path clip-path="url(#pdd263db176)" d="M 46.555937 232.967750 
L 548.755938 232.967750 
" style="fill:none;stroke:#ffffff;stroke-linecap:square;stroke-width:0.5;"/>
     </g>
     <g id="line2d_20">
      <defs>
       <path d="M 0.000000 0.000000 
L -4.000000 0.000000 
" id="m93a58e288f" style="stroke:#555555;stroke-width:0.5;"/>
      </defs>
      <g>
       <use style="fill:#555555;stroke:#555555;stroke-width:0.5;" x="46.5559375" xlink:href="#m93a58e288f" y="232.96775"/>
      </g>
     </g>
     <g id="line2d_21">
      <defs>
       <path d="M 0.000000 0.000000 
L 4.000000 0.000000 
" id="m08e8a79ec6" style="stroke:#555555;stroke-width:0.5;"/>
      </defs>
      <g>
       <use style="fill:#555555;stroke:#555555;stroke-width:0.5;" x="548.7559375" xlink:href="#m08e8a79ec6" y="232.96775"/>
      </g>
     </g>
     <g id="text_8">
      <!-- −4 -->
      <defs>
       <path d="M 10.593750 35.500000 
L 73.187500 35.500000 
L 73.187500 27.203125 
L 10.593750 27.203125 
z
" id="BitstreamVeraSans-Roman-2212"/>
       <path d="M 37.796875 64.312500 
L 12.890625 25.390625 
L 37.796875 25.390625 
z
M 35.203125 72.906250 
L 47.609375 72.906250 
L 47.609375 25.390625 
L 58.015625 25.390625 
L 58.015625 17.187500 
L 47.609375 17.187500 
L 47.609375 0.000000 
L 37.796875 0.000000 
L 37.796875 17.187500 
L 4.890625 17.187500 
L 4.890625 26.703125 
z
" id="BitstreamVeraSans-Roman-34"/>
      </defs>
      <g style="fill:#555555;" transform="translate(23.81375 235.727125)scale(0.1 -0.1)">
       <use xlink:href="#BitstreamVeraSans-Roman-2212"/>
       <use x="83.7890625" xlink:href="#BitstreamVeraSans-Roman-34"/>
      </g>
     </g>
    </g>
    <g id="ytick_2">
     <g id="line2d_22">
      <path clip-path="url(#pdd263db176)" d="M 46.555937 206.811500 
L 548.755938 206.811500 
" style="fill:none;stroke:#ffffff;stroke-linecap:square;stroke-width:0.5;"/>
     </g>
     <g id="line2d_23">
      <g>
       <use style="fill:#555555;stroke:#555555;stroke-width:0.5;" x="46.5559375" xlink:href="#m93a58e288f" y="206.8115"/>
      </g>
     </g>
     <g id="line2d_24">
      <g>
       <use style="fill:#555555;stroke:#555555;stroke-width:0.5;" x="548.7559375" xlink:href="#m08e8a79ec6" y="206.8115"/>
      </g>
     </g>
     <g id="text_9">
      <!-- −3 -->
      <defs>
       <path d="M 40.578125 39.312500 
Q 47.656250 37.796875 51.625000 33.000000 
Q 55.609375 28.218750 55.609375 21.187500 
Q 55.609375 10.406250 48.187500 4.484375 
Q 40.765625 -1.421875 27.093750 -1.421875 
Q 22.515625 -1.421875 17.656250 -0.515625 
Q 12.796875 0.390625 7.625000 2.203125 
L 7.625000 11.718750 
Q 11.718750 9.328125 16.593750 8.109375 
Q 21.484375 6.890625 26.812500 6.890625 
Q 36.078125 6.890625 40.937500 10.546875 
Q 45.796875 14.203125 45.796875 21.187500 
Q 45.796875 27.640625 41.281250 31.265625 
Q 36.765625 34.906250 28.718750 34.906250 
L 20.218750 34.906250 
L 20.218750 43.015625 
L 29.109375 43.015625 
Q 36.375000 43.015625 40.234375 45.921875 
Q 44.093750 48.828125 44.093750 54.296875 
Q 44.093750 59.906250 40.109375 62.906250 
Q 36.140625 65.921875 28.718750 65.921875 
Q 24.656250 65.921875 20.015625 65.031250 
Q 15.375000 64.156250 9.812500 62.312500 
L 9.812500 71.093750 
Q 15.437500 72.656250 20.343750 73.437500 
Q 25.250000 74.218750 29.593750 74.218750 
Q 40.828125 74.218750 47.359375 69.109375 
Q 53.906250 64.015625 53.906250 55.328125 
Q 53.906250 49.265625 50.437500 45.093750 
Q 46.968750 40.921875 40.578125 39.312500 
" id="BitstreamVeraSans-Roman-33"/>
      </defs>
      <g style="fill:#555555;" transform="translate(23.81375 209.570875)scale(0.1 -0.1)">
       <use xlink:href="#BitstreamVeraSans-Roman-2212"/>
       <use x="83.7890625" xlink:href="#BitstreamVeraSans-Roman-33"/>
      </g>
     </g>
    </g>
    <g id="ytick_3">
     <g id="line2d_25">
      <path clip-path="url(#pdd263db176)" d="M 46.555937 180.655250 
L 548.755938 180.655250 
" style="fill:none;stroke:#ffffff;stroke-linecap:square;stroke-width:0.5;"/>
     </g>
     <g id="line2d_26">
      <g>
       <use style="fill:#555555;stroke:#555555;stroke-width:0.5;" x="46.5559375" xlink:href="#m93a58e288f" y="180.65525"/>
      </g>
     </g>
     <g id="line2d_27">
      <g>
       <use style="fill:#555555;stroke:#555555;stroke-width:0.5;" x="548.7559375" xlink:href="#m08e8a79ec6" y="180.65525"/>
      </g>
     </g>
     <g id="text_10">
      <!-- −2 -->
      <g style="fill:#555555;" transform="translate(23.81375 183.414625)scale(0.1 -0.1)">
       <use xlink:href="#BitstreamVeraSans-Roman-2212"/>
       <use x="83.7890625" xlink:href="#BitstreamVeraSans-Roman-32"/>
      </g>
     </g>
    </g>
    <g id="ytick_4">
     <g id="line2d_28">
      <path clip-path="url(#pdd263db176)" d="M 46.555937 154.499000 
L 548.755938 154.499000 
" style="fill:none;stroke:#ffffff;stroke-linecap:square;stroke-width:0.5;"/>
     </g>
     <g id="line2d_29">
      <g>
       <use style="fill:#555555;stroke:#555555;stroke-width:0.5;" x="46.5559375" xlink:href="#m93a58e288f" y="154.499"/>
      </g>
     </g>
     <g id="line2d_30">
      <g>
       <use style="fill:#555555;stroke:#555555;stroke-width:0.5;" x="548.7559375" xlink:href="#m08e8a79ec6" y="154.499"/>
      </g>
     </g>
     <g id="text_11">
      <!-- −1 -->
      <g style="fill:#555555;" transform="translate(23.81375 157.258375)scale(0.1 -0.1)">
       <use xlink:href="#BitstreamVeraSans-Roman-2212"/>
       <use x="83.7890625" xlink:href="#BitstreamVeraSans-Roman-31"/>
      </g>
     </g>
    </g>
    <g id="ytick_5">
     <g id="line2d_31">
      <path clip-path="url(#pdd263db176)" d="M 46.555937 128.342750 
L 548.755938 128.342750 
" style="fill:none;stroke:#ffffff;stroke-linecap:square;stroke-width:0.5;"/>
     </g>
     <g id="line2d_32">
      <g>
       <use style="fill:#555555;stroke:#555555;stroke-width:0.5;" x="46.5559375" xlink:href="#m93a58e288f" y="128.34275"/>
      </g>
     </g>
     <g id="line2d_33">
      <g>
       <use style="fill:#555555;stroke:#555555;stroke-width:0.5;" x="548.7559375" xlink:href="#m08e8a79ec6" y="128.34275"/>
      </g>
     </g>
     <g id="text_12">
      <!-- 0 -->
      <g style="fill:#555555;" transform="translate(32.1934375 131.102125)scale(0.1 -0.1)">
       <use xlink:href="#BitstreamVeraSans-Roman-30"/>
      </g>
     </g>
    </g>
    <g id="ytick_6">
     <g id="line2d_34">
      <path clip-path="url(#pdd263db176)" d="M 46.555937 102.186500 
L 548.755938 102.186500 
" style="fill:none;stroke:#ffffff;stroke-linecap:square;stroke-width:0.5;"/>
     </g>
     <g id="line2d_35">
      <g>
       <use style="fill:#555555;stroke:#555555;stroke-width:0.5;" x="46.5559375" xlink:href="#m93a58e288f" y="102.1865"/>
      </g>
     </g>
     <g id="line2d_36">
      <g>
       <use style="fill:#555555;stroke:#555555;stroke-width:0.5;" x="548.7559375" xlink:href="#m08e8a79ec6" y="102.1865"/>
      </g>
     </g>
     <g id="text_13">
      <!-- 1 -->
      <g style="fill:#555555;" transform="translate(32.1934375 104.945875)scale(0.1 -0.1)">
       <use xlink:href="#BitstreamVeraSans-Roman-31"/>
      </g>
     </g>
    </g>
    <g id="ytick_7">
     <g id="line2d_37">
      <path clip-path="url(#pdd263db176)" d="M 46.555937 76.030250 
L 548.755938 76.030250 
" style="fill:none;stroke:#ffffff;stroke-linecap:square;stroke-width:0.5;"/>
     </g>
     <g id="line2d_38">
      <g>
       <use style="fill:#555555;stroke:#555555;stroke-width:0.5;" x="46.5559375" xlink:href="#m93a58e288f" y="76.03025"/>
      </g>
     </g>
     <g id="line2d_39">
      <g>
       <use style="fill:#555555;stroke:#555555;stroke-width:0.5;" x="548.7559375" xlink:href="#m08e8a79ec6" y="76.03025"/>
      </g>
     </g>
     <g id="text_14">
      <!-- 2 -->
      <g style="fill:#555555;" transform="translate(32.1934375 78.789625)scale(0.1 -0.1)">
       <use xlink:href="#BitstreamVeraSans-Roman-32"/>
      </g>
     </g>
    </g>
    <g id="ytick_8">
     <g id="line2d_40">
      <path clip-path="url(#pdd263db176)" d="M 46.555937 49.874000 
L 548.755938 49.874000 
" style="fill:none;stroke:#ffffff;stroke-linecap:square;stroke-width:0.5;"/>
     </g>
     <g id="line2d_41">
      <g>
       <use style="fill:#555555;stroke:#555555;stroke-width:0.5;" x="46.5559375" xlink:href="#m93a58e288f" y="49.874"/>
      </g>
     </g>
     <g id="line2d_42">
      <g>
       <use style="fill:#555555;stroke:#555555;stroke-width:0.5;" x="548.7559375" xlink:href="#m08e8a79ec6" y="49.874"/>
      </g>
     </g>
     <g id="text_15">
      <!-- 3 -->
      <g style="fill:#555555;" transform="translate(32.1934375 52.633375)scale(0.1 -0.1)">
       <use xlink:href="#BitstreamVeraSans-Roman-33"/>
      </g>
     </g>
    </g>
    <g id="ytick_9">
     <g id="line2d_43">
      <path clip-path="url(#pdd263db176)" d="M 46.555937 23.717750 
L 548.755938 23.717750 
" style="fill:none;stroke:#ffffff;stroke-linecap:square;stroke-width:0.5;"/>
     </g>
     <g id="line2d_44">
      <g>
       <use style="fill:#555555;stroke:#555555;stroke-width:0.5;" x="46.5559375" xlink:href="#m93a58e288f" y="23.71775"/>
      </g>
     </g>
     <g id="line2d_45">
      <g>
       <use style="fill:#555555;stroke:#555555;stroke-width:0.5;" x="548.7559375" xlink:href="#m08e8a79ec6" y="23.71775"/>
      </g>
     </g>
     <g id="text_16">
      <!-- 4 -->
      <g style="fill:#555555;" transform="translate(32.1934375 26.477125)scale(0.1 -0.1)">
       <use xlink:href="#BitstreamVeraSans-Roman-34"/>
      </g>
     </g>
    </g>
    <g id="text_17">
     <!-- m s$^{-1}$ -->
     <defs>
      <path id="BitstreamVeraSans-Roman-20"/>
      <path d="M 9.281250 0.000000 
L 9.281250 3.515625 
Q 21.781250 3.515625 21.781250 6.687500 
L 21.781250 59.187500 
Q 16.609375 56.687500 8.687500 56.687500 
L 8.687500 60.203125 
Q 20.953125 60.203125 27.203125 66.609375 
L 28.609375 66.609375 
Q 28.953125 66.609375 29.265625 66.328125 
Q 29.593750 66.062500 29.593750 65.718750 
L 29.593750 6.687500 
Q 29.593750 3.515625 42.093750 3.515625 
L 42.093750 0.000000 
z
" id="Cmr10-31"/>
      <path d="M 52.000000 44.187500 
Q 55.375000 50.250000 60.062500 53.125000 
Q 64.750000 56.000000 71.093750 56.000000 
Q 79.640625 56.000000 84.281250 50.015625 
Q 88.921875 44.046875 88.921875 33.015625 
L 88.921875 0.000000 
L 79.890625 0.000000 
L 79.890625 32.718750 
Q 79.890625 40.578125 77.093750 44.375000 
Q 74.312500 48.187500 68.609375 48.187500 
Q 61.625000 48.187500 57.562500 43.546875 
Q 53.515625 38.921875 53.515625 30.906250 
L 53.515625 0.000000 
L 44.484375 0.000000 
L 44.484375 32.718750 
Q 44.484375 40.625000 41.703125 44.406250 
Q 38.921875 48.187500 33.109375 48.187500 
Q 26.218750 48.187500 22.156250 43.531250 
Q 18.109375 38.875000 18.109375 30.906250 
L 18.109375 0.000000 
L 9.078125 0.000000 
L 9.078125 54.687500 
L 18.109375 54.687500 
L 18.109375 46.187500 
Q 21.187500 51.218750 25.484375 53.609375 
Q 29.781250 56.000000 35.687500 56.000000 
Q 41.656250 56.000000 45.828125 52.968750 
Q 50.000000 49.953125 52.000000 44.187500 
" id="BitstreamVeraSans-Roman-6d"/>
      <path d="M 10.203125 23.000000 
Q 9.375000 23.000000 8.828125 23.625000 
Q 8.296875 24.265625 8.296875 25.000000 
Q 8.296875 25.734375 8.828125 26.359375 
Q 9.375000 27.000000 10.203125 27.000000 
L 67.578125 27.000000 
Q 68.359375 27.000000 68.875000 26.359375 
Q 69.390625 25.734375 69.390625 25.000000 
Q 69.390625 24.265625 68.875000 23.625000 
Q 68.359375 23.000000 67.578125 23.000000 
z
" id="Cmsy10-a1"/>
     </defs>
     <g style="fill:#555555;" transform="translate(16.318125 145.62275)rotate(-90.0)scale(0.12 -0.12)">
      <use transform="translate(0.0 0.8578124999999943)" xlink:href="#BitstreamVeraSans-Roman-6d"/>
      <use transform="translate(97.412109375 0.8578124999999943)" xlink:href="#BitstreamVeraSans-Roman-20"/>
      <use transform="translate(129.19921875 0.8578124999999943)" xlink:href="#BitstreamVeraSans-Roman-73"/>
      <use transform="translate(181.298828125 43.373437499999994)scale(0.7)" xlink:href="#Cmsy10-a1"/>
      <use transform="translate(235.6787109375 43.373437499999994)scale(0.7)" xlink:href="#Cmr10-31"/>
     </g>
    </g>
   </g>
   <g id="line2d_46">
    <path clip-path="url(#pdd263db176)" d="M 46.555937 127.154944 
L 47.392938 108.695570 
L 48.229937 84.670055 
L 49.066938 82.690173 
L 49.903937 56.672347 
L 50.740938 60.917803 
L 51.577937 58.402284 
L 52.414938 51.649064 
L 54.925938 83.263082 
L 55.762937 106.869252 
L 56.599937 117.591160 
L 57.436937 149.277791 
L 58.273938 171.798414 
L 59.110937 174.160473 
L 59.947937 200.985059 
L 60.784937 200.683619 
L 61.621938 212.512035 
L 62.458937 207.403441 
L 64.132937 184.239126 
L 64.969938 178.208973 
L 65.806938 153.145788 
L 66.643937 142.660762 
L 67.480938 112.181704 
L 68.317937 104.012870 
L 69.154938 83.376351 
L 69.991938 72.753894 
L 70.828937 59.591325 
L 71.665937 54.844993 
L 73.339937 67.689144 
L 74.176938 52.604788 
L 75.013937 82.905593 
L 75.850938 99.397353 
L 76.687938 111.364269 
L 77.524938 140.708604 
L 78.361937 158.800076 
L 79.198937 172.663870 
L 80.035938 176.438070 
L 80.872938 185.267265 
L 81.709937 203.072945 
L 83.383938 193.411178 
L 84.220937 198.489064 
L 85.057938 182.648716 
L 85.894937 169.091710 
L 87.568938 122.618508 
L 88.405938 108.324223 
L 90.916938 72.412768 
L 91.753938 64.367733 
L 92.590937 60.802036 
L 93.427938 58.218687 
L 94.264938 57.978690 
L 95.101937 86.398229 
L 95.938938 89.430400 
L 96.775937 102.913329 
L 97.612938 119.065883 
L 98.449938 144.520993 
L 99.286937 161.951853 
L 100.123937 170.496407 
L 100.960938 177.138782 
L 101.797938 179.022477 
L 102.634938 196.593558 
L 103.471937 195.986801 
L 104.308937 179.356398 
L 105.145938 169.237889 
L 105.982938 168.765391 
L 106.819938 151.909561 
L 107.656937 126.196129 
L 108.493938 120.725394 
L 109.330938 96.966155 
L 110.167937 79.778358 
L 111.004938 78.561569 
L 111.841938 71.170046 
L 112.678938 67.295994 
L 113.515938 74.809684 
L 114.352937 70.349412 
L 115.189937 83.828953 
L 116.026938 81.685018 
L 116.863938 96.600211 
L 117.700937 118.669817 
L 118.537938 130.951604 
L 119.374938 139.562199 
L 120.211938 153.798659 
L 121.048938 173.288582 
L 121.885937 173.464876 
L 122.722938 182.907782 
L 123.559938 186.883610 
L 124.396938 188.683384 
L 125.233937 178.790575 
L 126.070937 155.189141 
L 126.907938 151.250194 
L 127.744938 136.952059 
L 128.581937 130.816833 
L 129.418937 111.592455 
L 130.255938 95.766299 
L 131.092938 94.351800 
L 131.929937 85.240122 
L 132.766938 79.765790 
L 133.603938 82.741886 
L 134.440938 75.666208 
L 136.114937 95.747905 
L 136.951937 115.070626 
L 137.788938 114.906190 
L 138.625937 128.820476 
L 139.462938 138.751597 
L 140.299937 152.502314 
L 141.136937 157.653024 
L 141.973938 172.398242 
L 142.810938 168.323961 
L 143.647938 167.475222 
L 144.484938 159.637533 
L 145.321937 162.925159 
L 146.158937 156.930296 
L 146.995937 134.991613 
L 147.832938 133.160794 
L 148.669938 121.158760 
L 149.506937 116.869701 
L 150.343938 107.659921 
L 151.180937 109.517364 
L 152.017938 101.192649 
L 152.854938 85.465628 
L 153.691937 93.017207 
L 154.528937 97.819680 
L 155.365938 94.641758 
L 157.039938 112.742231 
L 157.876937 131.548553 
L 159.550938 148.003908 
L 160.387938 147.341045 
L 161.224938 154.226744 
L 162.061937 154.252339 
L 162.898938 157.553444 
L 163.735937 154.369731 
L 164.572938 158.648106 
L 165.409938 149.858973 
L 166.246938 145.819509 
L 167.083937 139.350213 
L 167.920938 122.805733 
L 168.757937 111.359114 
L 169.594938 111.566368 
L 170.431938 107.127212 
L 171.268937 99.536291 
L 172.105938 100.870259 
L 172.942938 100.050078 
L 173.779938 112.517431 
L 174.616938 101.181603 
L 175.453938 116.634469 
L 176.290938 115.444774 
L 177.127938 116.531888 
L 177.964938 144.406888 
L 178.801938 139.785697 
L 179.638937 145.192703 
L 180.475938 153.997942 
L 181.312938 154.497097 
L 182.149937 153.430474 
L 182.986938 154.160131 
L 183.823937 145.676687 
L 184.660938 146.285236 
L 185.497938 137.781681 
L 186.334937 124.343363 
L 187.171938 116.835956 
L 188.008938 115.833040 
L 188.845937 122.897674 
L 189.682938 109.397931 
L 190.519938 105.801876 
L 191.356937 104.020302 
L 192.193938 110.291611 
L 193.030938 96.986824 
L 193.867938 113.217050 
L 194.704937 115.096506 
L 195.541938 128.366446 
L 197.215937 139.881607 
L 198.052938 140.811033 
L 198.889938 148.223066 
L 199.726938 151.057094 
L 200.563938 163.633828 
L 201.400937 156.290797 
L 202.237938 145.808870 
L 203.074938 145.246531 
L 203.911937 139.256707 
L 204.748938 135.590673 
L 206.422937 119.907194 
L 207.259938 114.067980 
L 208.096937 95.960928 
L 208.933938 102.856073 
L 209.770938 104.110782 
L 210.607937 92.312236 
L 211.444938 94.614938 
L 212.281937 100.731474 
L 213.118937 117.725316 
L 213.955938 117.353504 
L 214.792937 121.312280 
L 215.629937 131.657613 
L 216.466938 131.320627 
L 217.303938 155.377108 
L 218.140938 144.717373 
L 218.977938 172.857530 
L 219.814938 168.030825 
L 220.651938 160.042610 
L 221.488938 167.575465 
L 222.325938 153.413926 
L 223.162937 152.958459 
L 223.999938 148.829736 
L 224.836938 133.855482 
L 225.673937 115.167806 
L 226.510938 109.838665 
L 227.347938 95.682004 
L 228.184937 93.764107 
L 229.021938 90.935482 
L 229.858937 72.301944 
L 230.695937 91.780192 
L 231.532938 84.155191 
L 232.369938 90.390608 
L 233.206938 94.764038 
L 234.043938 118.054618 
L 234.880938 124.343957 
L 235.717938 141.385279 
L 236.554938 148.381111 
L 237.391938 171.258288 
L 238.228938 168.540752 
L 239.065938 170.052745 
L 239.902938 168.251105 
L 240.739937 177.670816 
L 241.576938 177.149134 
L 242.413938 167.523391 
L 243.250937 165.180468 
L 244.087938 141.928196 
L 244.924937 132.058302 
L 245.761937 127.560685 
L 247.435937 89.751080 
L 248.272937 85.710147 
L 249.109938 69.594146 
L 249.946938 62.844501 
L 250.783938 68.228686 
L 251.620938 85.898493 
L 252.457938 87.773057 
L 253.294938 92.800822 
L 254.131938 111.281975 
L 254.968938 117.606180 
L 255.805937 137.686686 
L 256.642938 153.622119 
L 257.479938 160.512209 
L 258.316937 174.309576 
L 259.153937 190.889311 
L 259.990937 188.709394 
L 260.827937 192.578669 
L 262.501937 182.853607 
L 263.338937 168.200640 
L 264.175938 157.021776 
L 265.012938 148.663774 
L 265.849938 122.882940 
L 266.686937 101.296921 
L 267.523937 97.623661 
L 268.360937 80.430470 
L 269.197938 69.763786 
L 270.034938 61.350074 
L 270.871938 63.909996 
L 271.708938 57.891260 
L 272.545938 64.002373 
L 273.382938 79.623147 
L 275.893937 133.656512 
L 276.730937 145.185329 
L 277.567937 158.366037 
L 278.404937 177.873581 
L 279.241938 193.216567 
L 280.078938 195.438306 
L 280.915937 198.517653 
L 281.752938 197.685813 
L 282.589938 183.872565 
L 283.426938 184.476741 
L 284.263937 167.753206 
L 285.100937 154.131681 
L 285.937937 133.895324 
L 287.611938 105.202475 
L 288.448937 82.653811 
L 289.285938 71.170812 
L 290.122938 48.051811 
L 290.959938 55.016469 
L 291.796938 45.895250 
L 292.633938 53.485428 
L 293.470937 74.739245 
L 294.307938 90.370858 
L 295.144937 100.209808 
L 295.981937 117.325299 
L 296.818938 143.949269 
L 297.655938 157.193635 
L 298.492938 183.197849 
L 299.329938 190.451251 
L 300.166938 191.363131 
L 301.003938 202.807718 
L 301.840937 194.217859 
L 302.677937 194.532842 
L 303.514937 200.049524 
L 304.351938 179.301051 
L 305.188938 153.680892 
L 306.025938 142.574165 
L 306.862938 121.204931 
L 307.699938 106.137508 
L 308.536938 81.382779 
L 309.373938 81.487303 
L 310.210938 54.234774 
L 311.047937 54.498580 
L 311.884937 50.900859 
L 312.721937 49.870137 
L 313.558937 55.708523 
L 314.395938 78.834963 
L 315.232938 84.876599 
L 316.069938 104.959477 
L 316.906938 134.239940 
L 317.743938 147.833037 
L 318.580938 157.324049 
L 319.417937 186.236683 
L 321.091937 201.765618 
L 321.928938 205.894703 
L 322.765938 199.021143 
L 323.602938 196.308648 
L 324.439938 173.081558 
L 325.276938 178.673275 
L 326.113938 149.190948 
L 326.950938 129.913559 
L 327.787937 116.431469 
L 329.461937 73.488539 
L 330.298937 73.572337 
L 331.135937 65.073409 
L 331.972938 52.260126 
L 332.809938 51.299009 
L 333.646938 54.562746 
L 334.483938 68.563518 
L 336.157938 102.093408 
L 336.994937 108.634588 
L 337.831937 145.012398 
L 338.668937 155.404041 
L 339.505938 176.773558 
L 340.342938 181.533915 
L 341.179938 202.199295 
L 342.016938 200.616133 
L 342.853938 203.791651 
L 343.690938 200.029070 
L 344.527938 186.469330 
L 345.364937 182.871857 
L 346.201937 167.300762 
L 347.038937 141.268973 
L 347.875937 131.488865 
L 348.712937 91.916551 
L 349.549938 92.845313 
L 351.223938 59.815035 
L 352.060938 55.710145 
L 352.897938 54.051801 
L 353.734938 61.385863 
L 354.571937 65.235915 
L 355.408937 66.612315 
L 356.245937 93.590227 
L 358.756938 137.654616 
L 359.593938 170.222166 
L 360.430938 170.087009 
L 361.267938 187.376657 
L 362.104938 189.358576 
L 362.941937 199.635066 
L 363.778937 199.819621 
L 364.615937 189.162965 
L 365.452937 187.675653 
L 366.289937 164.536113 
L 367.126938 150.129489 
L 367.963938 128.020703 
L 368.800938 115.486969 
L 369.637938 97.769530 
L 370.474938 85.117872 
L 371.311937 75.557322 
L 372.985937 62.638629 
L 373.822938 67.104432 
L 374.659937 73.801902 
L 375.496938 72.403701 
L 376.333938 91.390581 
L 377.170938 107.071714 
L 378.007938 127.948589 
L 378.844938 123.613411 
L 379.681938 153.322369 
L 380.518937 163.271957 
L 382.192937 195.445119 
L 383.029937 190.274896 
L 383.866938 192.944621 
L 384.703937 183.224262 
L 385.540938 175.332089 
L 386.377938 164.175815 
L 390.562937 94.852290 
L 391.399938 76.448631 
L 392.236937 73.963806 
L 393.073938 65.378453 
L 393.910938 70.484762 
L 394.747938 81.793313 
L 395.584938 79.827148 
L 396.421938 86.128311 
L 397.258938 106.627876 
L 398.095937 117.998843 
L 398.932938 126.831631 
L 399.769937 138.864927 
L 400.606938 156.576069 
L 401.443938 164.090689 
L 402.280937 180.983156 
L 403.117938 174.535403 
L 403.954938 180.440247 
L 404.791938 173.944017 
L 405.628938 168.590995 
L 406.465937 171.791112 
L 407.302937 143.015655 
L 408.976938 129.003071 
L 409.813937 113.746376 
L 410.650938 110.205334 
L 411.487938 95.394315 
L 412.324938 92.068165 
L 413.161938 90.225922 
L 413.998938 80.442147 
L 414.835938 83.451752 
L 415.672937 97.500007 
L 416.509938 92.595786 
L 418.183938 124.570168 
L 419.020938 128.713995 
L 419.857938 142.734901 
L 420.694938 138.672548 
L 421.531938 168.180619 
L 422.368938 167.649655 
L 423.205938 171.724212 
L 424.042937 166.235257 
L 424.879937 159.994086 
L 425.716937 163.163949 
L 426.553938 146.018469 
L 427.390937 135.734450 
L 428.227938 124.032611 
L 429.064938 119.134316 
L 429.901938 116.277963 
L 430.738938 103.915704 
L 431.575938 103.433365 
L 432.412937 94.740145 
L 433.249937 94.288841 
L 434.086938 102.344702 
L 434.923937 101.790544 
L 435.760938 98.508457 
L 436.597938 114.927280 
L 437.434938 124.597373 
L 438.271938 136.578305 
L 439.108938 129.273492 
L 439.945938 138.154880 
L 441.619937 150.414440 
L 442.456937 158.437517 
L 443.293937 161.239688 
L 444.130938 146.999342 
L 444.967937 158.582396 
L 445.804938 157.288327 
L 447.478938 129.834819 
L 448.315938 127.774932 
L 449.152938 114.344778 
L 449.989937 114.418981 
L 450.826937 105.620579 
L 451.663938 109.042356 
L 452.500937 93.404359 
L 453.337938 101.730238 
L 454.174938 104.438946 
L 455.011938 112.142420 
L 455.848938 122.011127 
L 456.685938 121.240099 
L 457.522938 133.321941 
L 458.359938 134.975964 
L 459.196937 149.847258 
L 460.033937 145.858898 
L 460.870937 150.384797 
L 461.707938 160.780714 
L 462.544937 149.912514 
L 463.381938 157.841949 
L 464.218938 158.105069 
L 465.055938 153.998296 
L 465.892938 135.818813 
L 466.729938 126.644142 
L 467.566937 122.411150 
L 468.403937 115.529788 
L 469.240938 107.278264 
L 470.077937 103.240697 
L 470.914938 101.011487 
L 471.751938 105.212743 
L 472.588938 102.626909 
L 473.425938 104.381537 
L 474.262938 111.253907 
L 475.099938 122.829280 
L 475.936937 124.569396 
L 476.773937 138.729295 
L 477.610937 141.712237 
L 478.447937 140.929010 
L 479.284938 154.561910 
L 480.121937 154.947489 
L 480.958938 155.607926 
L 481.795938 168.388566 
L 482.632938 158.724794 
L 483.469938 153.517317 
L 484.306938 144.770137 
L 485.143937 126.419281 
L 485.980937 120.803658 
L 486.817938 111.620861 
L 487.654937 107.960903 
L 488.491938 100.712371 
L 489.328938 96.647281 
L 490.165938 96.341276 
L 491.002938 92.992724 
L 491.839938 100.469829 
L 492.676938 99.627814 
L 493.513937 110.215894 
L 494.350938 111.449283 
L 495.187937 126.461621 
L 496.024937 132.096228 
L 496.861938 150.857917 
L 497.698937 151.284258 
L 498.535938 169.426003 
L 500.209938 161.716357 
L 501.046938 179.905353 
L 501.883938 170.331769 
L 502.720937 165.669622 
L 503.557937 139.527104 
L 504.394938 146.201693 
L 506.068938 118.713048 
L 506.905938 111.500344 
L 507.742938 103.276336 
L 508.579938 89.351050 
L 509.416938 79.161564 
L 510.253938 74.835877 
L 511.090937 72.891119 
L 512.764937 88.874652 
L 513.601938 88.766414 
L 514.438938 102.958261 
L 516.112938 137.266185 
L 516.949938 143.088602 
L 517.786938 160.694663 
L 518.623938 182.319460 
L 519.460938 182.626692 
L 521.134937 187.828527 
L 521.971938 178.868093 
L 522.808937 174.970969 
L 524.482938 145.217084 
L 525.319938 137.644495 
L 526.156938 120.816852 
L 526.993938 110.209758 
L 527.830938 81.170709 
L 528.667937 88.297063 
L 529.504938 77.264667 
L 530.341937 69.104349 
L 531.178938 72.367420 
L 532.015938 76.285367 
L 532.852938 70.898360 
L 533.689938 81.977723 
L 534.526938 98.776546 
L 535.363938 118.021950 
L 536.200938 134.334695 
L 537.037937 152.819524 
L 539.548938 186.401896 
L 540.385937 185.137159 
L 541.222938 192.205262 
L 542.059938 204.812306 
L 542.896938 186.514088 
L 544.570938 159.321688 
L 545.407938 151.196780 
L 546.244937 127.240142 
L 547.081938 111.536194 
L 547.918937 93.520718 
L 547.918937 93.520718 
" style="fill:none;opacity:0.5;stroke:#e24a33;stroke-linecap:square;stroke-width:2.0;"/>
   </g>
   <g id="line2d_47">
    <path clip-path="url(#pdd263db176)" d="M 46.555937 176.142467 
L 47.392938 173.292322 
L 48.229937 171.149986 
L 49.066938 157.298677 
L 49.903937 145.814975 
L 50.740938 138.891239 
L 51.577937 127.555536 
L 52.414938 111.246402 
L 53.251937 107.234956 
L 54.088938 96.739209 
L 54.925938 89.405189 
L 55.762937 76.591734 
L 56.599937 82.819616 
L 57.436937 86.017270 
L 58.273938 79.036726 
L 59.110937 98.123413 
L 59.947937 108.380972 
L 60.784937 117.008160 
L 61.621938 121.487894 
L 62.458937 131.819213 
L 63.295938 148.789221 
L 64.132937 156.946765 
L 64.969938 160.060945 
L 65.806938 162.678685 
L 66.643937 176.425556 
L 67.480938 177.345800 
L 68.317937 177.890804 
L 69.154938 167.452732 
L 69.991938 167.332303 
L 70.828937 158.063762 
L 71.665937 125.244964 
L 72.502938 123.093792 
L 73.339937 106.489487 
L 74.176938 105.514771 
L 75.013937 87.135514 
L 75.850938 99.470819 
L 76.687938 79.649786 
L 77.524938 89.098322 
L 78.361937 84.915715 
L 79.198937 96.144966 
L 80.035938 97.688310 
L 80.872938 112.665187 
L 81.709937 113.259935 
L 82.546938 129.366817 
L 83.383938 131.407849 
L 84.220937 150.716104 
L 85.057938 147.266440 
L 85.894937 163.501390 
L 86.731938 169.542243 
L 87.568938 172.331094 
L 88.405938 176.301619 
L 89.242938 164.994598 
L 90.079937 164.368227 
L 90.916938 139.031591 
L 91.753938 141.985711 
L 92.590937 134.415642 
L 93.427938 123.378772 
L 94.264938 109.414585 
L 95.101937 103.172501 
L 95.938938 100.213586 
L 96.775937 78.422867 
L 97.612938 92.190489 
L 98.449938 86.687856 
L 100.123937 108.558482 
L 100.960938 105.064143 
L 101.797938 111.725582 
L 103.471937 134.350790 
L 104.308937 155.425594 
L 105.145938 149.224263 
L 105.982938 165.918624 
L 106.819938 165.167507 
L 107.656937 162.931137 
L 108.493938 158.267575 
L 109.330938 162.389401 
L 110.167937 156.212380 
L 111.841938 139.611900 
L 112.678938 124.458224 
L 113.515938 126.609585 
L 114.352937 115.171491 
L 115.189937 108.447379 
L 116.026938 100.125113 
L 116.863938 105.079557 
L 117.700937 98.435923 
L 118.537938 92.820248 
L 119.374938 102.350409 
L 120.211938 98.795523 
L 121.048938 109.504684 
L 121.885937 117.115831 
L 122.722938 119.622221 
L 123.559938 136.997808 
L 126.070937 156.223744 
L 126.907938 162.973777 
L 127.744938 160.678418 
L 128.581937 161.991450 
L 129.418937 152.978336 
L 130.255938 154.539434 
L 131.092938 145.776867 
L 131.929937 146.343490 
L 133.603938 121.489635 
L 134.440938 118.125410 
L 135.277938 119.751486 
L 136.114937 107.564777 
L 136.951937 107.666575 
L 137.788938 105.792920 
L 138.625937 103.589671 
L 139.462938 102.721005 
L 140.299937 109.229010 
L 141.136937 109.716192 
L 141.973938 122.396476 
L 142.810938 125.133416 
L 143.647938 135.579786 
L 144.484938 130.493898 
L 145.321937 139.388633 
L 146.158937 142.256778 
L 146.995937 148.140839 
L 147.832938 141.175607 
L 148.669938 144.408007 
L 149.506937 145.027596 
L 150.343938 144.635001 
L 151.180937 132.328724 
L 152.017938 133.324909 
L 152.854938 136.675551 
L 153.691937 123.312167 
L 154.528937 128.342030 
L 155.365938 110.330151 
L 156.202938 106.286615 
L 157.039938 109.389789 
L 157.876937 105.331266 
L 158.713937 103.322923 
L 160.387938 118.624896 
L 161.224938 113.681969 
L 162.061937 111.789924 
L 162.898938 128.838310 
L 163.735937 134.366670 
L 164.572938 144.064324 
L 165.409938 135.900083 
L 166.246938 142.490506 
L 167.083937 145.415056 
L 167.920938 138.658032 
L 168.757937 147.399615 
L 169.594938 148.745630 
L 170.431938 139.220327 
L 171.268937 147.861635 
L 172.105938 133.772458 
L 172.942938 127.662998 
L 173.779938 117.674880 
L 174.616938 116.506678 
L 175.453938 113.443700 
L 176.290938 114.185389 
L 177.127938 115.713300 
L 177.964938 110.780965 
L 178.801938 114.256851 
L 179.638937 109.233320 
L 180.475938 124.406110 
L 181.312938 133.888541 
L 182.149937 130.042943 
L 182.986938 126.745406 
L 183.823937 142.988277 
L 184.660938 147.074858 
L 185.497938 144.218184 
L 186.334937 144.059404 
L 187.171938 141.464547 
L 188.008938 141.688468 
L 188.845937 146.662810 
L 189.682938 133.380272 
L 190.519938 128.142786 
L 191.356937 124.587191 
L 192.193938 123.088488 
L 193.030938 119.668938 
L 193.867938 114.265047 
L 194.704937 110.358291 
L 195.541938 119.406573 
L 196.378938 114.104679 
L 197.215937 103.000007 
L 198.052938 120.220007 
L 198.889938 114.114438 
L 199.726938 129.984067 
L 200.563938 131.801049 
L 201.400937 137.501649 
L 202.237938 133.255153 
L 203.074938 140.849897 
L 203.911937 149.839239 
L 204.748938 144.659061 
L 205.585938 152.140443 
L 206.422937 143.503738 
L 207.259938 150.802527 
L 208.096937 149.510863 
L 208.933938 127.575006 
L 209.770938 131.157717 
L 210.607937 124.128171 
L 211.444938 122.888590 
L 212.281937 123.540771 
L 213.118937 109.567200 
L 213.955938 115.087039 
L 214.792937 117.449386 
L 215.629937 103.998441 
L 216.466938 106.581342 
L 217.303938 102.404179 
L 218.140938 113.679277 
L 218.977938 122.374830 
L 219.814938 123.749777 
L 220.651938 130.478197 
L 221.488938 140.848072 
L 222.325938 145.094366 
L 223.162937 145.722375 
L 223.999938 151.925650 
L 224.836938 150.152740 
L 225.673937 155.409171 
L 226.510938 154.435708 
L 227.347938 147.842796 
L 229.021938 143.180890 
L 229.858937 128.544562 
L 230.695937 128.124334 
L 231.532938 121.489542 
L 232.369938 113.542650 
L 233.206938 110.245589 
L 234.043938 100.621694 
L 234.880938 95.374932 
L 235.717938 98.518717 
L 236.554938 97.897424 
L 237.391938 109.703331 
L 238.228938 111.243727 
L 239.065938 118.087101 
L 239.902938 127.049857 
L 240.739937 129.864127 
L 241.576938 146.794919 
L 242.413938 141.714025 
L 243.250937 149.146999 
L 244.087938 163.463631 
L 244.924937 160.721646 
L 245.761937 155.476318 
L 246.598938 156.654155 
L 247.435937 159.720269 
L 248.272937 141.705195 
L 249.109938 141.155097 
L 249.946938 129.717344 
L 250.783938 116.190964 
L 251.620938 111.984898 
L 252.457938 111.798175 
L 253.294938 104.959940 
L 254.131938 96.117828 
L 254.968938 89.546072 
L 255.805937 91.408990 
L 256.642938 92.720541 
L 257.479938 106.196669 
L 258.316937 109.044656 
L 259.153937 112.477586 
L 259.990937 133.386744 
L 260.827937 127.544583 
L 261.664938 135.089922 
L 262.501937 154.722478 
L 263.338937 155.564673 
L 264.175938 164.886088 
L 265.012938 170.553464 
L 265.849938 164.514476 
L 266.686937 179.657271 
L 267.523937 166.172766 
L 268.360937 148.428838 
L 269.197938 149.116043 
L 270.034938 136.153584 
L 270.871938 134.239188 
L 271.708938 114.293397 
L 272.545938 101.691163 
L 273.382938 97.016519 
L 274.219938 99.373675 
L 275.056938 90.787658 
L 275.893937 79.897478 
L 276.730937 86.940281 
L 278.404937 96.954838 
L 279.241938 98.978706 
L 280.078938 111.030481 
L 280.915937 132.819859 
L 281.752938 132.575346 
L 282.589938 151.297311 
L 283.426938 153.416659 
L 284.263937 172.702424 
L 285.100937 167.208956 
L 285.937937 183.549597 
L 286.774938 166.145628 
L 287.611938 169.265884 
L 288.448937 169.238969 
L 289.285938 152.366477 
L 290.122938 148.594214 
L 290.959938 132.698848 
L 291.796938 112.785078 
L 292.633938 109.944164 
L 293.470937 95.694786 
L 294.307938 91.313718 
L 295.144937 84.573283 
L 295.981937 81.939567 
L 297.655938 82.638476 
L 298.492938 88.260312 
L 299.329938 100.964062 
L 300.166938 118.470560 
L 301.003938 119.484285 
L 301.840937 136.661587 
L 302.677937 148.413351 
L 303.514937 145.612853 
L 305.188938 169.294532 
L 306.025938 173.014930 
L 306.862938 178.393676 
L 307.699938 175.923026 
L 308.536938 163.936621 
L 309.373938 163.316904 
L 310.210938 152.112101 
L 311.047937 144.222373 
L 311.884937 123.105433 
L 312.721937 109.112019 
L 313.558937 101.819698 
L 314.395938 98.824062 
L 316.069938 78.457514 
L 316.906938 95.412056 
L 317.743938 88.237977 
L 318.580938 85.410093 
L 320.254937 107.433143 
L 321.091937 110.832710 
L 321.928938 122.504904 
L 322.765938 130.506915 
L 323.602938 156.234517 
L 324.439938 165.599110 
L 325.276938 164.415991 
L 326.113938 167.576682 
L 326.950938 183.128364 
L 327.787937 169.795849 
L 328.624937 163.195240 
L 329.461937 159.702794 
L 331.135937 141.562113 
L 331.972938 129.580780 
L 332.809938 126.259369 
L 333.646938 121.753655 
L 334.483938 100.601341 
L 335.320938 83.115790 
L 336.157938 77.150925 
L 336.994937 87.868078 
L 337.831937 86.203892 
L 338.668937 92.422536 
L 339.505938 85.021889 
L 340.342938 99.533629 
L 341.179938 103.122848 
L 342.016938 108.605463 
L 342.853938 127.981457 
L 343.690938 136.520466 
L 344.527938 158.396673 
L 345.364937 170.734400 
L 346.201937 172.176949 
L 347.038937 181.490246 
L 347.875937 176.147688 
L 348.712937 171.679251 
L 349.549938 168.910824 
L 350.386938 148.501484 
L 351.223938 151.382340 
L 352.060938 137.371742 
L 353.734938 118.221147 
L 354.571937 102.264390 
L 355.408937 89.666208 
L 356.245937 95.807586 
L 357.082938 88.193431 
L 357.919938 85.536923 
L 358.756938 78.788452 
L 360.430938 106.441777 
L 361.267938 100.530540 
L 362.104938 118.969435 
L 362.941937 119.797503 
L 363.778937 140.098307 
L 364.615937 146.454990 
L 365.452937 160.205185 
L 366.289937 161.375845 
L 367.126938 175.552760 
L 367.963938 172.067464 
L 368.800938 164.773302 
L 369.637938 168.619331 
L 370.474938 164.353864 
L 371.311937 142.941032 
L 372.985937 138.832324 
L 373.822938 120.957163 
L 374.659937 111.640066 
L 375.496938 107.860116 
L 376.333938 97.062165 
L 377.170938 90.401614 
L 378.007938 96.125239 
L 378.844938 85.080480 
L 379.681938 93.280079 
L 380.518937 102.691361 
L 381.355938 98.349625 
L 383.029937 118.288761 
L 383.866938 136.667331 
L 384.703937 144.292548 
L 385.540938 150.847887 
L 386.377938 166.832579 
L 387.214938 154.667546 
L 388.051938 178.893532 
L 388.888937 156.759024 
L 389.725937 154.045023 
L 390.562937 160.782974 
L 391.399938 157.802885 
L 392.236937 141.338027 
L 393.073938 134.514091 
L 393.910938 115.437280 
L 394.747938 122.012288 
L 395.584938 114.276184 
L 396.421938 108.586350 
L 397.258938 97.224973 
L 398.095937 97.342884 
L 398.932938 94.713676 
L 399.769937 101.588133 
L 400.606938 97.113424 
L 401.443938 107.271748 
L 402.280937 105.604603 
L 403.117938 119.781566 
L 403.954938 122.010853 
L 404.791938 136.590819 
L 405.628938 145.241234 
L 406.465937 146.066131 
L 407.302937 149.081434 
L 408.139937 148.160441 
L 408.976938 153.406055 
L 409.813937 151.438823 
L 410.650938 146.982285 
L 411.487938 143.692354 
L 412.324938 144.324046 
L 413.161938 140.365360 
L 413.998938 123.265719 
L 414.835938 116.090617 
L 415.672937 113.578661 
L 416.509938 105.919533 
L 417.346937 100.223734 
L 418.183938 107.119186 
L 419.020938 95.326447 
L 421.531938 117.429406 
L 422.368938 117.545293 
L 423.205938 116.996271 
L 424.042937 124.522733 
L 424.879937 127.267783 
L 426.553938 146.731065 
L 427.390937 153.856476 
L 428.227938 141.181657 
L 429.064938 157.930173 
L 429.901938 151.771810 
L 430.738938 150.434025 
L 431.575938 137.156599 
L 432.412937 141.553389 
L 433.249937 119.577207 
L 434.086938 122.929926 
L 434.923937 114.909141 
L 435.760938 122.199833 
L 436.597938 116.135961 
L 437.434938 102.991386 
L 438.271938 111.023109 
L 439.108938 113.436176 
L 439.945938 104.139690 
L 440.782938 113.842508 
L 441.619937 109.811949 
L 442.456937 125.064695 
L 443.293937 124.017517 
L 444.130938 133.536452 
L 445.804938 146.911875 
L 446.641938 148.845805 
L 447.478938 146.093183 
L 448.315938 141.568496 
L 449.152938 153.569693 
L 449.989937 137.604600 
L 450.826937 143.534068 
L 451.663938 141.429901 
L 452.500937 122.386388 
L 453.337938 124.789284 
L 454.174938 116.810421 
L 455.011938 116.044829 
L 455.848938 110.199322 
L 456.685938 120.869334 
L 457.522938 111.863104 
L 458.359938 105.477668 
L 459.196937 116.568564 
L 460.870937 122.013504 
L 461.707938 133.762028 
L 462.544937 137.922597 
L 463.381938 131.981284 
L 464.218938 139.709696 
L 465.055938 138.091066 
L 465.892938 147.712695 
L 467.566937 143.780156 
L 468.403937 132.437953 
L 469.240938 146.258247 
L 470.077937 126.912197 
L 470.914938 127.172390 
L 471.751938 131.371325 
L 472.588938 116.472462 
L 473.425938 123.437273 
L 474.262938 108.642541 
L 475.099938 109.379745 
L 475.936937 102.240122 
L 476.773937 108.597476 
L 477.610937 105.710241 
L 478.447937 108.369089 
L 479.284938 121.994191 
L 480.121937 123.800799 
L 480.958938 121.672220 
L 481.795938 138.508824 
L 482.632938 146.521821 
L 483.469938 144.358595 
L 484.306938 144.374344 
L 485.143937 148.088905 
L 485.980937 156.028059 
L 486.817938 148.737002 
L 487.654937 146.573317 
L 489.328938 137.792490 
L 490.165938 141.416976 
L 491.002938 137.635125 
L 491.839938 119.583877 
L 492.676938 114.152885 
L 493.513937 116.353408 
L 494.350938 115.648571 
L 495.187937 98.627384 
L 496.024937 102.764648 
L 496.861938 102.602604 
L 497.698937 112.633909 
L 498.535938 113.406654 
L 499.372938 115.691747 
L 500.209938 122.068090 
L 501.046938 127.110599 
L 501.883938 138.572872 
L 502.720937 137.683047 
L 503.557937 142.510054 
L 504.394938 146.361954 
L 505.231937 160.546274 
L 506.068938 152.665606 
L 506.905938 162.664755 
L 507.742938 149.679391 
L 508.579938 147.212960 
L 510.253938 128.934102 
L 511.927938 119.562085 
L 513.601938 110.648610 
L 514.438938 96.164235 
L 515.275937 102.446699 
L 516.112938 104.463271 
L 516.949938 101.335535 
L 517.786938 96.958714 
L 518.623938 108.284637 
L 519.460938 122.510168 
L 520.297937 128.085691 
L 521.134937 140.730410 
L 521.971938 135.760286 
L 522.808937 151.351869 
L 523.645938 157.482113 
L 524.482938 156.443429 
L 525.319938 162.062068 
L 526.156938 171.396299 
L 526.993938 173.372665 
L 527.830938 145.203238 
L 528.667937 145.036284 
L 529.504938 137.618390 
L 530.341937 134.622737 
L 531.178938 118.999191 
L 532.015938 113.169265 
L 532.852938 109.971679 
L 533.689938 101.469265 
L 534.526938 99.348848 
L 535.363938 99.237237 
L 536.200938 97.055563 
L 537.037937 85.007603 
L 537.874937 98.849965 
L 538.711937 108.538422 
L 539.548938 112.268561 
L 540.385937 114.652809 
L 541.222938 127.813464 
L 542.059938 136.002826 
L 542.896938 153.843680 
L 543.733938 162.344845 
L 544.570938 159.790702 
L 545.407938 169.920704 
L 546.244937 172.074087 
L 547.081938 162.211221 
L 547.918937 161.835061 
L 547.918937 161.835061 
" style="fill:none;opacity:0.5;stroke:#348abd;stroke-linecap:square;stroke-width:2.0;"/>
   </g>
   <g id="patch_3">
    <path d="M 46.555937 232.967750 
L 46.555937 23.717750 
" style="fill:none;stroke:#ffffff;stroke-linecap:square;stroke-linejoin:miter;"/>
   </g>
   <g id="patch_4">
    <path d="M 548.755938 232.967750 
L 548.755938 23.717750 
" style="fill:none;stroke:#ffffff;stroke-linecap:square;stroke-linejoin:miter;"/>
   </g>
   <g id="patch_5">
    <path d="M 46.555937 23.717750 
L 548.755938 23.717750 
" style="fill:none;stroke:#ffffff;stroke-linecap:square;stroke-linejoin:miter;"/>
   </g>
   <g id="patch_6">
    <path d="M 46.555937 232.967750 
L 548.755938 232.967750 
" style="fill:none;stroke:#ffffff;stroke-linecap:square;stroke-linejoin:miter;"/>
   </g>
   <g id="text_18">
    <!-- Típico registro de velocidade de maré -->
    <defs>
     <path d="M 18.109375 8.203125 
L 18.109375 -20.796875 
L 9.078125 -20.796875 
L 9.078125 54.687500 
L 18.109375 54.687500 
L 18.109375 46.390625 
Q 20.953125 51.265625 25.265625 53.625000 
Q 29.593750 56.000000 35.593750 56.000000 
Q 45.562500 56.000000 51.781250 48.093750 
Q 58.015625 40.187500 58.015625 27.296875 
Q 58.015625 14.406250 51.781250 6.484375 
Q 45.562500 -1.421875 35.593750 -1.421875 
Q 29.593750 -1.421875 25.265625 0.953125 
Q 20.953125 3.328125 18.109375 8.203125 
M 48.687500 27.296875 
Q 48.687500 37.203125 44.609375 42.843750 
Q 40.531250 48.484375 33.406250 48.484375 
Q 26.265625 48.484375 22.187500 42.843750 
Q 18.109375 37.203125 18.109375 27.296875 
Q 18.109375 17.390625 22.187500 11.750000 
Q 26.265625 6.109375 33.406250 6.109375 
Q 40.531250 6.109375 44.609375 11.750000 
Q 48.687500 17.390625 48.687500 27.296875 
" id="BitstreamVeraSans-Roman-70"/>
     <path d="M -0.296875 72.906250 
L 61.375000 72.906250 
L 61.375000 64.593750 
L 35.500000 64.593750 
L 35.500000 0.000000 
L 25.593750 0.000000 
L 25.593750 64.593750 
L -0.296875 64.593750 
z
" id="BitstreamVeraSans-Roman-54"/>
     <path d="M 45.406250 27.984375 
Q 45.406250 37.750000 41.375000 43.109375 
Q 37.359375 48.484375 30.078125 48.484375 
Q 22.859375 48.484375 18.828125 43.109375 
Q 14.796875 37.750000 14.796875 27.984375 
Q 14.796875 18.265625 18.828125 12.890625 
Q 22.859375 7.515625 30.078125 7.515625 
Q 37.359375 7.515625 41.375000 12.890625 
Q 45.406250 18.265625 45.406250 27.984375 
M 54.390625 6.781250 
Q 54.390625 -7.171875 48.187500 -13.984375 
Q 42.000000 -20.796875 29.203125 -20.796875 
Q 24.468750 -20.796875 20.265625 -20.093750 
Q 16.062500 -19.390625 12.109375 -17.921875 
L 12.109375 -9.187500 
Q 16.062500 -11.328125 19.921875 -12.343750 
Q 23.781250 -13.375000 27.781250 -13.375000 
Q 36.625000 -13.375000 41.015625 -8.765625 
Q 45.406250 -4.156250 45.406250 5.171875 
L 45.406250 9.625000 
Q 42.625000 4.781250 38.281250 2.390625 
Q 33.937500 0.000000 27.875000 0.000000 
Q 17.828125 0.000000 11.671875 7.656250 
Q 5.515625 15.328125 5.515625 27.984375 
Q 5.515625 40.671875 11.671875 48.328125 
Q 17.828125 56.000000 27.875000 56.000000 
Q 33.937500 56.000000 38.281250 53.609375 
Q 42.625000 51.218750 45.406250 46.390625 
L 45.406250 54.687500 
L 54.390625 54.687500 
z
" id="BitstreamVeraSans-Roman-67"/>
     <path d="M 30.609375 48.390625 
Q 23.390625 48.390625 19.187500 42.750000 
Q 14.984375 37.109375 14.984375 27.296875 
Q 14.984375 17.484375 19.156250 11.843750 
Q 23.343750 6.203125 30.609375 6.203125 
Q 37.796875 6.203125 41.984375 11.859375 
Q 46.187500 17.531250 46.187500 27.296875 
Q 46.187500 37.015625 41.984375 42.703125 
Q 37.796875 48.390625 30.609375 48.390625 
M 30.609375 56.000000 
Q 42.328125 56.000000 49.015625 48.375000 
Q 55.718750 40.765625 55.718750 27.296875 
Q 55.718750 13.875000 49.015625 6.218750 
Q 42.328125 -1.421875 30.609375 -1.421875 
Q 18.843750 -1.421875 12.171875 6.218750 
Q 5.515625 13.875000 5.515625 27.296875 
Q 5.515625 40.765625 12.171875 48.375000 
Q 18.843750 56.000000 30.609375 56.000000 
" id="BitstreamVeraSans-Roman-6f"/>
     <path d="M 9.421875 54.687500 
L 18.406250 54.687500 
L 18.406250 0.000000 
L 9.421875 0.000000 
z
M 20.656250 79.984375 
L 30.375000 79.984375 
L 14.468750 61.625000 
L 6.984375 61.625000 
z
" id="BitstreamVeraSans-Roman-ed"/>
     <path d="M 56.203125 29.593750 
L 56.203125 25.203125 
L 14.890625 25.203125 
Q 15.484375 15.921875 20.484375 11.062500 
Q 25.484375 6.203125 34.421875 6.203125 
Q 39.593750 6.203125 44.453125 7.468750 
Q 49.312500 8.734375 54.109375 11.281250 
L 54.109375 2.781250 
Q 49.265625 0.734375 44.187500 -0.343750 
Q 39.109375 -1.421875 33.890625 -1.421875 
Q 20.796875 -1.421875 13.156250 6.187500 
Q 5.515625 13.812500 5.515625 26.812500 
Q 5.515625 40.234375 12.765625 48.109375 
Q 20.015625 56.000000 32.328125 56.000000 
Q 43.359375 56.000000 49.781250 48.890625 
Q 56.203125 41.796875 56.203125 29.593750 
M 47.218750 32.234375 
Q 47.125000 39.593750 43.093750 43.984375 
Q 39.062500 48.390625 32.421875 48.390625 
Q 24.906250 48.390625 20.390625 44.140625 
Q 15.875000 39.890625 15.187500 32.171875 
z
M 38.531250 79.984375 
L 48.250000 79.984375 
L 32.343750 61.625000 
L 24.859375 61.625000 
z
" id="BitstreamVeraSans-Roman-e9"/>
     <path d="M 48.781250 52.593750 
L 48.781250 44.187500 
Q 44.968750 46.296875 41.140625 47.343750 
Q 37.312500 48.390625 33.406250 48.390625 
Q 24.656250 48.390625 19.812500 42.843750 
Q 14.984375 37.312500 14.984375 27.296875 
Q 14.984375 17.281250 19.812500 11.734375 
Q 24.656250 6.203125 33.406250 6.203125 
Q 37.312500 6.203125 41.140625 7.250000 
Q 44.968750 8.296875 48.781250 10.406250 
L 48.781250 2.093750 
Q 45.015625 0.343750 40.984375 -0.531250 
Q 36.968750 -1.421875 32.421875 -1.421875 
Q 20.062500 -1.421875 12.781250 6.343750 
Q 5.515625 14.109375 5.515625 27.296875 
Q 5.515625 40.671875 12.859375 48.328125 
Q 20.218750 56.000000 33.015625 56.000000 
Q 37.156250 56.000000 41.109375 55.140625 
Q 45.062500 54.296875 48.781250 52.593750 
" id="BitstreamVeraSans-Roman-63"/>
     <path d="M 41.109375 46.296875 
Q 39.593750 47.171875 37.812500 47.578125 
Q 36.031250 48.000000 33.890625 48.000000 
Q 26.265625 48.000000 22.187500 43.046875 
Q 18.109375 38.093750 18.109375 28.812500 
L 18.109375 0.000000 
L 9.078125 0.000000 
L 9.078125 54.687500 
L 18.109375 54.687500 
L 18.109375 46.187500 
Q 20.953125 51.171875 25.484375 53.578125 
Q 30.031250 56.000000 36.531250 56.000000 
Q 37.453125 56.000000 38.578125 55.875000 
Q 39.703125 55.765625 41.062500 55.515625 
z
" id="BitstreamVeraSans-Roman-72"/>
     <path d="M 56.203125 29.593750 
L 56.203125 25.203125 
L 14.890625 25.203125 
Q 15.484375 15.921875 20.484375 11.062500 
Q 25.484375 6.203125 34.421875 6.203125 
Q 39.593750 6.203125 44.453125 7.468750 
Q 49.312500 8.734375 54.109375 11.281250 
L 54.109375 2.781250 
Q 49.265625 0.734375 44.187500 -0.343750 
Q 39.109375 -1.421875 33.890625 -1.421875 
Q 20.796875 -1.421875 13.156250 6.187500 
Q 5.515625 13.812500 5.515625 26.812500 
Q 5.515625 40.234375 12.765625 48.109375 
Q 20.015625 56.000000 32.328125 56.000000 
Q 43.359375 56.000000 49.781250 48.890625 
Q 56.203125 41.796875 56.203125 29.593750 
M 47.218750 32.234375 
Q 47.125000 39.593750 43.093750 43.984375 
Q 39.062500 48.390625 32.421875 48.390625 
Q 24.906250 48.390625 20.390625 44.140625 
Q 15.875000 39.890625 15.187500 32.171875 
z
" id="BitstreamVeraSans-Roman-65"/>
     <path d="M 9.421875 75.984375 
L 18.406250 75.984375 
L 18.406250 0.000000 
L 9.421875 0.000000 
z
" id="BitstreamVeraSans-Roman-6c"/>
     <path d="M 45.406250 46.390625 
L 45.406250 75.984375 
L 54.390625 75.984375 
L 54.390625 0.000000 
L 45.406250 0.000000 
L 45.406250 8.203125 
Q 42.578125 3.328125 38.250000 0.953125 
Q 33.937500 -1.421875 27.875000 -1.421875 
Q 17.968750 -1.421875 11.734375 6.484375 
Q 5.515625 14.406250 5.515625 27.296875 
Q 5.515625 40.187500 11.734375 48.093750 
Q 17.968750 56.000000 27.875000 56.000000 
Q 33.937500 56.000000 38.250000 53.625000 
Q 42.578125 51.265625 45.406250 46.390625 
M 14.796875 27.296875 
Q 14.796875 17.390625 18.875000 11.750000 
Q 22.953125 6.109375 30.078125 6.109375 
Q 37.203125 6.109375 41.296875 11.750000 
Q 45.406250 17.390625 45.406250 27.296875 
Q 45.406250 37.203125 41.296875 42.843750 
Q 37.203125 48.484375 30.078125 48.484375 
Q 22.953125 48.484375 18.875000 42.843750 
Q 14.796875 37.203125 14.796875 27.296875 
" id="BitstreamVeraSans-Roman-64"/>
     <path d="M 2.984375 54.687500 
L 12.500000 54.687500 
L 29.593750 8.796875 
L 46.687500 54.687500 
L 56.203125 54.687500 
L 35.687500 0.000000 
L 23.484375 0.000000 
z
" id="BitstreamVeraSans-Roman-76"/>
     <path d="M 18.312500 70.218750 
L 18.312500 54.687500 
L 36.812500 54.687500 
L 36.812500 47.703125 
L 18.312500 47.703125 
L 18.312500 18.015625 
Q 18.312500 11.328125 20.140625 9.421875 
Q 21.968750 7.515625 27.593750 7.515625 
L 36.812500 7.515625 
L 36.812500 0.000000 
L 27.593750 0.000000 
Q 17.187500 0.000000 13.234375 3.875000 
Q 9.281250 7.765625 9.281250 18.015625 
L 9.281250 47.703125 
L 2.687500 47.703125 
L 2.687500 54.687500 
L 9.281250 54.687500 
L 9.281250 70.218750 
z
" id="BitstreamVeraSans-Roman-74"/>
    </defs>
    <g transform="translate(161.1293125 18.71775)scale(0.144 -0.144)">
     <use xlink:href="#BitstreamVeraSans-Roman-54"/>
     <use x="61.083984375" xlink:href="#BitstreamVeraSans-Roman-ed"/>
     <use x="88.8671875" xlink:href="#BitstreamVeraSans-Roman-70"/>
     <use x="152.34375" xlink:href="#BitstreamVeraSans-Roman-69"/>
     <use x="180.126953125" xlink:href="#BitstreamVeraSans-Roman-63"/>
     <use x="235.107421875" xlink:href="#BitstreamVeraSans-Roman-6f"/>
     <use x="296.2890625" xlink:href="#BitstreamVeraSans-Roman-20"/>
     <use x="328.076171875" xlink:href="#BitstreamVeraSans-Roman-72"/>
     <use x="369.158203125" xlink:href="#BitstreamVeraSans-Roman-65"/>
     <use x="430.681640625" xlink:href="#BitstreamVeraSans-Roman-67"/>
     <use x="494.158203125" xlink:href="#BitstreamVeraSans-Roman-69"/>
     <use x="521.94140625" xlink:href="#BitstreamVeraSans-Roman-73"/>
     <use x="574.041015625" xlink:href="#BitstreamVeraSans-Roman-74"/>
     <use x="613.25" xlink:href="#BitstreamVeraSans-Roman-72"/>
     <use x="654.33203125" xlink:href="#BitstreamVeraSans-Roman-6f"/>
     <use x="715.513671875" xlink:href="#BitstreamVeraSans-Roman-20"/>
     <use x="747.30078125" xlink:href="#BitstreamVeraSans-Roman-64"/>
     <use x="810.77734375" xlink:href="#BitstreamVeraSans-Roman-65"/>
     <use x="872.30078125" xlink:href="#BitstreamVeraSans-Roman-20"/>
     <use x="904.087890625" xlink:href="#BitstreamVeraSans-Roman-76"/>
     <use x="963.267578125" xlink:href="#BitstreamVeraSans-Roman-65"/>
     <use x="1024.791015625" xlink:href="#BitstreamVeraSans-Roman-6c"/>
     <use x="1052.57421875" xlink:href="#BitstreamVeraSans-Roman-6f"/>
     <use x="1113.755859375" xlink:href="#BitstreamVeraSans-Roman-63"/>
     <use x="1168.736328125" xlink:href="#BitstreamVeraSans-Roman-69"/>
     <use x="1196.51953125" xlink:href="#BitstreamVeraSans-Roman-64"/>
     <use x="1259.99609375" xlink:href="#BitstreamVeraSans-Roman-61"/>
     <use x="1321.275390625" xlink:href="#BitstreamVeraSans-Roman-64"/>
     <use x="1384.751953125" xlink:href="#BitstreamVeraSans-Roman-65"/>
     <use x="1446.275390625" xlink:href="#BitstreamVeraSans-Roman-20"/>
     <use x="1478.0625" xlink:href="#BitstreamVeraSans-Roman-64"/>
     <use x="1541.5390625" xlink:href="#BitstreamVeraSans-Roman-65"/>
     <use x="1603.0625" xlink:href="#BitstreamVeraSans-Roman-20"/>
     <use x="1634.849609375" xlink:href="#BitstreamVeraSans-Roman-6d"/>
     <use x="1732.26171875" xlink:href="#BitstreamVeraSans-Roman-61"/>
     <use x="1793.541015625" xlink:href="#BitstreamVeraSans-Roman-72"/>
     <use x="1834.623046875" xlink:href="#BitstreamVeraSans-Roman-e9"/>
    </g>
   </g>
   <g id="legend_1">
    <g id="patch_7">
     <path d="M 490.773438 226.967750 
L 542.755937 226.967750 
L 542.755937 188.140250 
L 490.773438 188.140250 
z
" style="fill:#e5e5e5;stroke:#ffffff;stroke-linejoin:miter;stroke-width:0.5;"/>
    </g>
    <g id="line2d_48">
     <path d="M 499.173438 197.858375 
L 515.973438 197.858375 
" style="fill:none;opacity:0.5;stroke:#e24a33;stroke-linecap:square;stroke-width:2.0;"/>
    </g>
    <g id="line2d_49"/>
    <g id="text_19">
     <!-- U -->
     <defs>
      <path d="M 8.687500 72.906250 
L 18.609375 72.906250 
L 18.609375 28.609375 
Q 18.609375 16.890625 22.843750 11.734375 
Q 27.093750 6.593750 36.625000 6.593750 
Q 46.093750 6.593750 50.343750 11.734375 
Q 54.593750 16.890625 54.593750 28.609375 
L 54.593750 72.906250 
L 64.500000 72.906250 
L 64.500000 27.390625 
Q 64.500000 13.140625 57.437500 5.859375 
Q 50.390625 -1.421875 36.625000 -1.421875 
Q 22.796875 -1.421875 15.734375 5.859375 
Q 8.687500 13.140625 8.687500 27.390625 
z
" id="BitstreamVeraSans-Roman-55"/>
     </defs>
     <g transform="translate(529.1734375 202.058375)scale(0.12 -0.12)">
      <use xlink:href="#BitstreamVeraSans-Roman-55"/>
     </g>
    </g>
    <g id="line2d_50">
     <path d="M 499.173438 215.472125 
L 515.973438 215.472125 
" style="fill:none;opacity:0.5;stroke:#348abd;stroke-linecap:square;stroke-width:2.0;"/>
    </g>
    <g id="line2d_51"/>
    <g id="text_20">
     <!-- V -->
     <defs>
      <path d="M 28.609375 0.000000 
L 0.781250 72.906250 
L 11.078125 72.906250 
L 34.187500 11.531250 
L 57.328125 72.906250 
L 67.578125 72.906250 
L 39.796875 0.000000 
z
" id="BitstreamVeraSans-Roman-56"/>
     </defs>
     <g transform="translate(529.1734375 219.672125)scale(0.12 -0.12)">
      <use xlink:href="#BitstreamVeraSans-Roman-56"/>
     </g>
    </g>
   </g>
  </g>
 </g>
 <defs>
  <clipPath id="pdd263db176">
   <rect height="209.25" width="502.2" x="46.5559375" y="23.71775"/>
  </clipPath>
 </defs>
</svg>
