<?xml version="1.0" encoding="utf-8" standalone="no"?>
<!DOCTYPE svg PUBLIC "-//W3C//DTD SVG 1.1//EN"
  "http://www.w3.org/Graphics/SVG/1.1/DTD/svg11.dtd">
<!-- Created with matplotlib (http://matplotlib.org/) -->
<svg height="274pt" version="1.1" viewBox="0 0 562 274" width="562pt" xmlns="http://www.w3.org/2000/svg" xmlns:xlink="http://www.w3.org/1999/xlink">
 <defs>
  <style type="text/css">
*{stroke-linecap:butt;stroke-linejoin:round;stroke-miterlimit:100000;}
  </style>
 </defs>
 <g id="figure_1">
  <g id="patch_1">
   <path d="M 0.000000 274.459625 
L 562.318437 274.459625 
L 562.318437 -0.000000 
L 0.000000 -0.000000 
z
" style="fill:#ffffff;"/>
  </g>
  <g id="axes_1">
   <g id="patch_2">
    <path d="M 46.555937 232.967750 
L 548.755938 232.967750 
L 548.755938 23.717750 
L 46.555937 23.717750 
z
" style="fill:#e5e5e5;"/>
   </g>
   <g id="matplotlib.axis_1">
    <g id="xtick_1">
     <g id="line2d_1">
      <path clip-path="url(#pdd263db176)" d="M 46.555937 232.967750 
L 46.555937 23.717750 
" style="fill:none;stroke:#ffffff;stroke-linecap:square;stroke-width:0.5;"/>
     </g>
     <g id="line2d_2">
      <defs>
       <path d="M 0.000000 0.000000 
L 0.000000 4.000000 
" id="mb40cdb5cf6" style="stroke:#555555;stroke-width:0.5;"/>
      </defs>
      <g>
       <use style="fill:#555555;stroke:#555555;stroke-width:0.5;" x="46.5559375" xlink:href="#mb40cdb5cf6" y="232.96775"/>
      </g>
     </g>
     <g id="line2d_3">
      <defs>
       <path d="M 0.000000 0.000000 
L 0.000000 -4.000000 
" id="m2a8ca5eefa" style="stroke:#555555;stroke-width:0.5;"/>
      </defs>
      <g>
       <use style="fill:#555555;stroke:#555555;stroke-width:0.5;" x="46.5559375" xlink:href="#m2a8ca5eefa" y="23.71775"/>
      </g>
     </g>
     <g id="text_1">
      <!-- 0 -->
      <defs>
       <path d="M 31.781250 66.406250 
Q 24.171875 66.406250 20.328125 58.906250 
Q 16.500000 51.421875 16.500000 36.375000 
Q 16.500000 21.390625 20.328125 13.890625 
Q 24.171875 6.390625 31.781250 6.390625 
Q 39.453125 6.390625 43.281250 13.890625 
Q 47.125000 21.390625 47.125000 36.375000 
Q 47.125000 51.421875 43.281250 58.906250 
Q 39.453125 66.406250 31.781250 66.406250 
M 31.781250 74.218750 
Q 44.046875 74.218750 50.515625 64.515625 
Q 56.984375 54.828125 56.984375 36.375000 
Q 56.984375 17.968750 50.515625 8.265625 
Q 44.046875 -1.421875 31.781250 -1.421875 
Q 19.531250 -1.421875 13.062500 8.265625 
Q 6.593750 17.968750 6.593750 36.375000 
Q 6.593750 54.828125 13.062500 64.515625 
Q 19.531250 74.218750 31.781250 74.218750 
" id="BitstreamVeraSans-Roman-30"/>
      </defs>
      <g style="fill:#555555;" transform="translate(43.3746875 248.5661875)scale(0.1 -0.1)">
       <use xlink:href="#BitstreamVeraSans-Roman-30"/>
      </g>
     </g>
    </g>
    <g id="xtick_2">
     <g id="line2d_4">
      <path clip-path="url(#pdd263db176)" d="M 146.995937 232.967750 
L 146.995937 23.717750 
" style="fill:none;stroke:#ffffff;stroke-linecap:square;stroke-width:0.5;"/>
     </g>
     <g id="line2d_5">
      <g>
       <use style="fill:#555555;stroke:#555555;stroke-width:0.5;" x="146.9959375" xlink:href="#mb40cdb5cf6" y="232.96775"/>
      </g>
     </g>
     <g id="line2d_6">
      <g>
       <use style="fill:#555555;stroke:#555555;stroke-width:0.5;" x="146.9959375" xlink:href="#m2a8ca5eefa" y="23.71775"/>
      </g>
     </g>
     <g id="text_2">
      <!-- 5 -->
      <defs>
       <path d="M 10.796875 72.906250 
L 49.515625 72.906250 
L 49.515625 64.593750 
L 19.828125 64.593750 
L 19.828125 46.734375 
Q 21.968750 47.468750 24.109375 47.828125 
Q 26.265625 48.187500 28.421875 48.187500 
Q 40.625000 48.187500 47.750000 41.500000 
Q 54.890625 34.812500 54.890625 23.390625 
Q 54.890625 11.625000 47.562500 5.093750 
Q 40.234375 -1.421875 26.906250 -1.421875 
Q 22.312500 -1.421875 17.546875 -0.640625 
Q 12.796875 0.140625 7.718750 1.703125 
L 7.718750 11.625000 
Q 12.109375 9.234375 16.796875 8.062500 
Q 21.484375 6.890625 26.703125 6.890625 
Q 35.156250 6.890625 40.078125 11.328125 
Q 45.015625 15.765625 45.015625 23.390625 
Q 45.015625 31.000000 40.078125 35.437500 
Q 35.156250 39.890625 26.703125 39.890625 
Q 22.750000 39.890625 18.812500 39.015625 
Q 14.890625 38.140625 10.796875 36.281250 
z
" id="BitstreamVeraSans-Roman-35"/>
      </defs>
      <g style="fill:#555555;" transform="translate(143.8146875 248.5661875)scale(0.1 -0.1)">
       <use xlink:href="#BitstreamVeraSans-Roman-35"/>
      </g>
     </g>
    </g>
    <g id="xtick_3">
     <g id="line2d_7">
      <path clip-path="url(#pdd263db176)" d="M 247.435937 232.967750 
L 247.435937 23.717750 
" style="fill:none;stroke:#ffffff;stroke-linecap:square;stroke-width:0.5;"/>
     </g>
     <g id="line2d_8">
      <g>
       <use style="fill:#555555;stroke:#555555;stroke-width:0.5;" x="247.4359375" xlink:href="#mb40cdb5cf6" y="232.96775"/>
      </g>
     </g>
     <g id="line2d_9">
      <g>
       <use style="fill:#555555;stroke:#555555;stroke-width:0.5;" x="247.4359375" xlink:href="#m2a8ca5eefa" y="23.71775"/>
      </g>
     </g>
     <g id="text_3">
      <!-- 10 -->
      <defs>
       <path d="M 12.406250 8.296875 
L 28.515625 8.296875 
L 28.515625 63.921875 
L 10.984375 60.406250 
L 10.984375 69.390625 
L 28.421875 72.906250 
L 38.281250 72.906250 
L 38.281250 8.296875 
L 54.390625 8.296875 
L 54.390625 0.000000 
L 12.406250 0.000000 
z
" id="BitstreamVeraSans-Roman-31"/>
      </defs>
      <g style="fill:#555555;" transform="translate(241.0734375 248.5661875)scale(0.1 -0.1)">
       <use xlink:href="#BitstreamVeraSans-Roman-31"/>
       <use x="63.623046875" xlink:href="#BitstreamVeraSans-Roman-30"/>
      </g>
     </g>
    </g>
    <g id="xtick_4">
     <g id="line2d_10">
      <path clip-path="url(#pdd263db176)" d="M 347.875937 232.967750 
L 347.875937 23.717750 
" style="fill:none;stroke:#ffffff;stroke-linecap:square;stroke-width:0.5;"/>
     </g>
     <g id="line2d_11">
      <g>
       <use style="fill:#555555;stroke:#555555;stroke-width:0.5;" x="347.8759375" xlink:href="#mb40cdb5cf6" y="232.96775"/>
      </g>
     </g>
     <g id="line2d_12">
      <g>
       <use style="fill:#555555;stroke:#555555;stroke-width:0.5;" x="347.8759375" xlink:href="#m2a8ca5eefa" y="23.71775"/>
      </g>
     </g>
     <g id="text_4">
      <!-- 15 -->
      <g style="fill:#555555;" transform="translate(341.5134375 248.5661875)scale(0.1 -0.1)">
       <use xlink:href="#BitstreamVeraSans-Roman-31"/>
       <use x="63.623046875" xlink:href="#BitstreamVeraSans-Roman-35"/>
      </g>
     </g>
    </g>
    <g id="xtick_5">
     <g id="line2d_13">
      <path clip-path="url(#pdd263db176)" d="M 448.315938 232.967750 
L 448.315938 23.717750 
" style="fill:none;stroke:#ffffff;stroke-linecap:square;stroke-width:0.5;"/>
     </g>
     <g id="line2d_14">
      <g>
       <use style="fill:#555555;stroke:#555555;stroke-width:0.5;" x="448.3159375" xlink:href="#mb40cdb5cf6" y="232.96775"/>
      </g>
     </g>
     <g id="line2d_15">
      <g>
       <use style="fill:#555555;stroke:#555555;stroke-width:0.5;" x="448.3159375" xlink:href="#m2a8ca5eefa" y="23.71775"/>
      </g>
     </g>
     <g id="text_5">
      <!-- 20 -->
      <defs>
       <path d="M 19.187500 8.296875 
L 53.609375 8.296875 
L 53.609375 0.000000 
L 7.328125 0.000000 
L 7.328125 8.296875 
Q 12.937500 14.109375 22.625000 23.890625 
Q 32.328125 33.687500 34.812500 36.531250 
Q 39.546875 41.843750 41.421875 45.531250 
Q 43.312500 49.218750 43.312500 52.781250 
Q 43.312500 58.593750 39.234375 62.250000 
Q 35.156250 65.921875 28.609375 65.921875 
Q 23.968750 65.921875 18.812500 64.312500 
Q 13.671875 62.703125 7.812500 59.421875 
L 7.812500 69.390625 
Q 13.765625 71.781250 18.937500 73.000000 
Q 24.125000 74.218750 28.421875 74.218750 
Q 39.750000 74.218750 46.484375 68.546875 
Q 53.218750 62.890625 53.218750 53.421875 
Q 53.218750 48.921875 51.531250 44.890625 
Q 49.859375 40.875000 45.406250 35.406250 
Q 44.187500 33.984375 37.640625 27.218750 
Q 31.109375 20.453125 19.187500 8.296875 
" id="BitstreamVeraSans-Roman-32"/>
      </defs>
      <g style="fill:#555555;" transform="translate(441.9534375 248.5661875)scale(0.1 -0.1)">
       <use xlink:href="#BitstreamVeraSans-Roman-32"/>
       <use x="63.623046875" xlink:href="#BitstreamVeraSans-Roman-30"/>
      </g>
     </g>
    </g>
    <g id="xtick_6">
     <g id="line2d_16">
      <path clip-path="url(#pdd263db176)" d="M 548.755938 232.967750 
L 548.755938 23.717750 
" style="fill:none;stroke:#ffffff;stroke-linecap:square;stroke-width:0.5;"/>
     </g>
     <g id="line2d_17">
      <g>
       <use style="fill:#555555;stroke:#555555;stroke-width:0.5;" x="548.7559375" xlink:href="#mb40cdb5cf6" y="232.96775"/>
      </g>
     </g>
     <g id="line2d_18">
      <g>
       <use style="fill:#555555;stroke:#555555;stroke-width:0.5;" x="548.7559375" xlink:href="#m2a8ca5eefa" y="23.71775"/>
      </g>
     </g>
     <g id="text_6">
      <!-- 25 -->
      <g style="fill:#555555;" transform="translate(542.3934375 248.5661875)scale(0.1 -0.1)">
       <use xlink:href="#BitstreamVeraSans-Roman-32"/>
       <use x="63.623046875" xlink:href="#BitstreamVeraSans-Roman-35"/>
      </g>
     </g>
    </g>
    <g id="text_7">
     <!-- Dias -->
     <defs>
      <path d="M 34.281250 27.484375 
Q 23.390625 27.484375 19.187500 25.000000 
Q 14.984375 22.515625 14.984375 16.500000 
Q 14.984375 11.718750 18.140625 8.906250 
Q 21.296875 6.109375 26.703125 6.109375 
Q 34.187500 6.109375 38.703125 11.406250 
Q 43.218750 16.703125 43.218750 25.484375 
L 43.218750 27.484375 
z
M 52.203125 31.203125 
L 52.203125 0.000000 
L 43.218750 0.000000 
L 43.218750 8.296875 
Q 40.140625 3.328125 35.546875 0.953125 
Q 30.953125 -1.421875 24.312500 -1.421875 
Q 15.921875 -1.421875 10.953125 3.296875 
Q 6.000000 8.015625 6.000000 15.921875 
Q 6.000000 25.140625 12.171875 29.828125 
Q 18.359375 34.515625 30.609375 34.515625 
L 43.218750 34.515625 
L 43.218750 35.406250 
Q 43.218750 41.609375 39.140625 45.000000 
Q 35.062500 48.390625 27.687500 48.390625 
Q 23.000000 48.390625 18.546875 47.265625 
Q 14.109375 46.140625 10.015625 43.890625 
L 10.015625 52.203125 
Q 14.937500 54.109375 19.578125 55.046875 
Q 24.218750 56.000000 28.609375 56.000000 
Q 40.484375 56.000000 46.343750 49.843750 
Q 52.203125 43.703125 52.203125 31.203125 
" id="BitstreamVeraSans-Roman-61"/>
      <path d="M 44.281250 53.078125 
L 44.281250 44.578125 
Q 40.484375 46.531250 36.375000 47.500000 
Q 32.281250 48.484375 27.875000 48.484375 
Q 21.187500 48.484375 17.843750 46.437500 
Q 14.500000 44.390625 14.500000 40.281250 
Q 14.500000 37.156250 16.890625 35.375000 
Q 19.281250 33.593750 26.515625 31.984375 
L 29.593750 31.296875 
Q 39.156250 29.250000 43.187500 25.515625 
Q 47.218750 21.781250 47.218750 15.093750 
Q 47.218750 7.468750 41.187500 3.015625 
Q 35.156250 -1.421875 24.609375 -1.421875 
Q 20.218750 -1.421875 15.453125 -0.562500 
Q 10.687500 0.296875 5.421875 2.000000 
L 5.421875 11.281250 
Q 10.406250 8.687500 15.234375 7.390625 
Q 20.062500 6.109375 24.812500 6.109375 
Q 31.156250 6.109375 34.562500 8.281250 
Q 37.984375 10.453125 37.984375 14.406250 
Q 37.984375 18.062500 35.515625 20.015625 
Q 33.062500 21.968750 24.703125 23.781250 
L 21.578125 24.515625 
Q 13.234375 26.265625 9.515625 29.906250 
Q 5.812500 33.546875 5.812500 39.890625 
Q 5.812500 47.609375 11.281250 51.796875 
Q 16.750000 56.000000 26.812500 56.000000 
Q 31.781250 56.000000 36.171875 55.265625 
Q 40.578125 54.546875 44.281250 53.078125 
" id="BitstreamVeraSans-Roman-73"/>
      <path d="M 19.671875 64.796875 
L 19.671875 8.109375 
L 31.593750 8.109375 
Q 46.687500 8.109375 53.687500 14.937500 
Q 60.687500 21.781250 60.687500 36.531250 
Q 60.687500 51.171875 53.687500 57.984375 
Q 46.687500 64.796875 31.593750 64.796875 
z
M 9.812500 72.906250 
L 30.078125 72.906250 
Q 51.265625 72.906250 61.171875 64.093750 
Q 71.093750 55.281250 71.093750 36.531250 
Q 71.093750 17.671875 61.125000 8.828125 
Q 51.171875 0.000000 30.078125 0.000000 
L 9.812500 0.000000 
z
" id="BitstreamVeraSans-Roman-44"/>
      <path d="M 9.421875 54.687500 
L 18.406250 54.687500 
L 18.406250 0.000000 
L 9.421875 0.000000 
z
M 9.421875 75.984375 
L 18.406250 75.984375 
L 18.406250 64.593750 
L 9.421875 64.593750 
z
" id="BitstreamVeraSans-Roman-69"/>
     </defs>
     <g style="fill:#555555;" transform="translate(284.5665625 264.764)scale(0.12 -0.12)">
      <use xlink:href="#BitstreamVeraSans-Roman-44"/>
      <use x="77.001953125" xlink:href="#BitstreamVeraSans-Roman-69"/>
      <use x="104.78515625" xlink:href="#BitstreamVeraSans-Roman-61"/>
      <use x="166.064453125" xlink:href="#BitstreamVeraSans-Roman-73"/>
     </g>
    </g>
   </g>
   <g id="matplotlib.axis_2">
    <g id="ytick_1">
     <g id="line2d_19">
      <path clip-path="url(#pdd263db176)" d="M 46.555937 232.967750 
L 548.755938 232.967750 
" style="fill:none;stroke:#ffffff;stroke-linecap:square;stroke-width:0.5;"/>
     </g>
     <g id="line2d_20">
      <defs>
       <path d="M 0.000000 0.000000 
L -4.000000 0.000000 
" id="m93a58e288f" style="stroke:#555555;stroke-width:0.5;"/>
      </defs>
      <g>
       <use style="fill:#555555;stroke:#555555;stroke-width:0.5;" x="46.5559375" xlink:href="#m93a58e288f" y="232.96775"/>
      </g>
     </g>
     <g id="line2d_21">
      <defs>
       <path d="M 0.000000 0.000000 
L 4.000000 0.000000 
" id="m08e8a79ec6" style="stroke:#555555;stroke-width:0.5;"/>
      </defs>
      <g>
       <use style="fill:#555555;stroke:#555555;stroke-width:0.5;" x="548.7559375" xlink:href="#m08e8a79ec6" y="232.96775"/>
      </g>
     </g>
     <g id="text_8">
      <!-- −4 -->
      <defs>
       <path d="M 10.593750 35.500000 
L 73.187500 35.500000 
L 73.187500 27.203125 
L 10.593750 27.203125 
z
" id="BitstreamVeraSans-Roman-2212"/>
       <path d="M 37.796875 64.312500 
L 12.890625 25.390625 
L 37.796875 25.390625 
z
M 35.203125 72.906250 
L 47.609375 72.906250 
L 47.609375 25.390625 
L 58.015625 25.390625 
L 58.015625 17.187500 
L 47.609375 17.187500 
L 47.609375 0.000000 
L 37.796875 0.000000 
L 37.796875 17.187500 
L 4.890625 17.187500 
L 4.890625 26.703125 
z
" id="BitstreamVeraSans-Roman-34"/>
      </defs>
      <g style="fill:#555555;" transform="translate(23.81375 235.727125)scale(0.1 -0.1)">
       <use xlink:href="#BitstreamVeraSans-Roman-2212"/>
       <use x="83.7890625" xlink:href="#BitstreamVeraSans-Roman-34"/>
      </g>
     </g>
    </g>
    <g id="ytick_2">
     <g id="line2d_22">
      <path clip-path="url(#pdd263db176)" d="M 46.555937 206.811500 
L 548.755938 206.811500 
" style="fill:none;stroke:#ffffff;stroke-linecap:square;stroke-width:0.5;"/>
     </g>
     <g id="line2d_23">
      <g>
       <use style="fill:#555555;stroke:#555555;stroke-width:0.5;" x="46.5559375" xlink:href="#m93a58e288f" y="206.8115"/>
      </g>
     </g>
     <g id="line2d_24">
      <g>
       <use style="fill:#555555;stroke:#555555;stroke-width:0.5;" x="548.7559375" xlink:href="#m08e8a79ec6" y="206.8115"/>
      </g>
     </g>
     <g id="text_9">
      <!-- −3 -->
      <defs>
       <path d="M 40.578125 39.312500 
Q 47.656250 37.796875 51.625000 33.000000 
Q 55.609375 28.218750 55.609375 21.187500 
Q 55.609375 10.406250 48.187500 4.484375 
Q 40.765625 -1.421875 27.093750 -1.421875 
Q 22.515625 -1.421875 17.656250 -0.515625 
Q 12.796875 0.390625 7.625000 2.203125 
L 7.625000 11.718750 
Q 11.718750 9.328125 16.593750 8.109375 
Q 21.484375 6.890625 26.812500 6.890625 
Q 36.078125 6.890625 40.937500 10.546875 
Q 45.796875 14.203125 45.796875 21.187500 
Q 45.796875 27.640625 41.281250 31.265625 
Q 36.765625 34.906250 28.718750 34.906250 
L 20.218750 34.906250 
L 20.218750 43.015625 
L 29.109375 43.015625 
Q 36.375000 43.015625 40.234375 45.921875 
Q 44.093750 48.828125 44.093750 54.296875 
Q 44.093750 59.906250 40.109375 62.906250 
Q 36.140625 65.921875 28.718750 65.921875 
Q 24.656250 65.921875 20.015625 65.031250 
Q 15.375000 64.156250 9.812500 62.312500 
L 9.812500 71.093750 
Q 15.437500 72.656250 20.343750 73.437500 
Q 25.250000 74.218750 29.593750 74.218750 
Q 40.828125 74.218750 47.359375 69.109375 
Q 53.906250 64.015625 53.906250 55.328125 
Q 53.906250 49.265625 50.437500 45.093750 
Q 46.968750 40.921875 40.578125 39.312500 
" id="BitstreamVeraSans-Roman-33"/>
      </defs>
      <g style="fill:#555555;" transform="translate(23.81375 209.570875)scale(0.1 -0.1)">
       <use xlink:href="#BitstreamVeraSans-Roman-2212"/>
       <use x="83.7890625" xlink:href="#BitstreamVeraSans-Roman-33"/>
      </g>
     </g>
    </g>
    <g id="ytick_3">
     <g id="line2d_25">
      <path clip-path="url(#pdd263db176)" d="M 46.555937 180.655250 
L 548.755938 180.655250 
" style="fill:none;stroke:#ffffff;stroke-linecap:square;stroke-width:0.5;"/>
     </g>
     <g id="line2d_26">
      <g>
       <use style="fill:#555555;stroke:#555555;stroke-width:0.5;" x="46.5559375" xlink:href="#m93a58e288f" y="180.65525"/>
      </g>
     </g>
     <g id="line2d_27">
      <g>
       <use style="fill:#555555;stroke:#555555;stroke-width:0.5;" x="548.7559375" xlink:href="#m08e8a79ec6" y="180.65525"/>
      </g>
     </g>
     <g id="text_10">
      <!-- −2 -->
      <g style="fill:#555555;" transform="translate(23.81375 183.414625)scale(0.1 -0.1)">
       <use xlink:href="#BitstreamVeraSans-Roman-2212"/>
       <use x="83.7890625" xlink:href="#BitstreamVeraSans-Roman-32"/>
      </g>
     </g>
    </g>
    <g id="ytick_4">
     <g id="line2d_28">
      <path clip-path="url(#pdd263db176)" d="M 46.555937 154.499000 
L 548.755938 154.499000 
" style="fill:none;stroke:#ffffff;stroke-linecap:square;stroke-width:0.5;"/>
     </g>
     <g id="line2d_29">
      <g>
       <use style="fill:#555555;stroke:#555555;stroke-width:0.5;" x="46.5559375" xlink:href="#m93a58e288f" y="154.499"/>
      </g>
     </g>
     <g id="line2d_30">
      <g>
       <use style="fill:#555555;stroke:#555555;stroke-width:0.5;" x="548.7559375" xlink:href="#m08e8a79ec6" y="154.499"/>
      </g>
     </g>
     <g id="text_11">
      <!-- −1 -->
      <g style="fill:#555555;" transform="translate(23.81375 157.258375)scale(0.1 -0.1)">
       <use xlink:href="#BitstreamVeraSans-Roman-2212"/>
       <use x="83.7890625" xlink:href="#BitstreamVeraSans-Roman-31"/>
      </g>
     </g>
    </g>
    <g id="ytick_5">
     <g id="line2d_31">
      <path clip-path="url(#pdd263db176)" d="M 46.555937 128.342750 
L 548.755938 128.342750 
" style="fill:none;stroke:#ffffff;stroke-linecap:square;stroke-width:0.5;"/>
     </g>
     <g id="line2d_32">
      <g>
       <use style="fill:#555555;stroke:#555555;stroke-width:0.5;" x="46.5559375" xlink:href="#m93a58e288f" y="128.34275"/>
      </g>
     </g>
     <g id="line2d_33">
      <g>
       <use style="fill:#555555;stroke:#555555;stroke-width:0.5;" x="548.7559375" xlink:href="#m08e8a79ec6" y="128.34275"/>
      </g>
     </g>
     <g id="text_12">
      <!-- 0 -->
      <g style="fill:#555555;" transform="translate(32.1934375 131.102125)scale(0.1 -0.1)">
       <use xlink:href="#BitstreamVeraSans-Roman-30"/>
      </g>
     </g>
    </g>
    <g id="ytick_6">
     <g id="line2d_34">
      <path clip-path="url(#pdd263db176)" d="M 46.555937 102.186500 
L 548.755938 102.186500 
" style="fill:none;stroke:#ffffff;stroke-linecap:square;stroke-width:0.5;"/>
     </g>
     <g id="line2d_35">
      <g>
       <use style="fill:#555555;stroke:#555555;stroke-width:0.5;" x="46.5559375" xlink:href="#m93a58e288f" y="102.1865"/>
      </g>
     </g>
     <g id="line2d_36">
      <g>
       <use style="fill:#555555;stroke:#555555;stroke-width:0.5;" x="548.7559375" xlink:href="#m08e8a79ec6" y="102.1865"/>
      </g>
     </g>
     <g id="text_13">
      <!-- 1 -->
      <g style="fill:#555555;" transform="translate(32.1934375 104.945875)scale(0.1 -0.1)">
       <use xlink:href="#BitstreamVeraSans-Roman-31"/>
      </g>
     </g>
    </g>
    <g id="ytick_7">
     <g id="line2d_37">
      <path clip-path="url(#pdd263db176)" d="M 46.555937 76.030250 
L 548.755938 76.030250 
" style="fill:none;stroke:#ffffff;stroke-linecap:square;stroke-width:0.5;"/>
     </g>
     <g id="line2d_38">
      <g>
       <use style="fill:#555555;stroke:#555555;stroke-width:0.5;" x="46.5559375" xlink:href="#m93a58e288f" y="76.03025"/>
      </g>
     </g>
     <g id="line2d_39">
      <g>
       <use style="fill:#555555;stroke:#555555;stroke-width:0.5;" x="548.7559375" xlink:href="#m08e8a79ec6" y="76.03025"/>
      </g>
     </g>
     <g id="text_14">
      <!-- 2 -->
      <g style="fill:#555555;" transform="translate(32.1934375 78.789625)scale(0.1 -0.1)">
       <use xlink:href="#BitstreamVeraSans-Roman-32"/>
      </g>
     </g>
    </g>
    <g id="ytick_8">
     <g id="line2d_40">
      <path clip-path="url(#pdd263db176)" d="M 46.555937 49.874000 
L 548.755938 49.874000 
" style="fill:none;stroke:#ffffff;stroke-linecap:square;stroke-width:0.5;"/>
     </g>
     <g id="line2d_41">
      <g>
       <use style="fill:#555555;stroke:#555555;stroke-width:0.5;" x="46.5559375" xlink:href="#m93a58e288f" y="49.874"/>
      </g>
     </g>
     <g id="line2d_42">
      <g>
       <use style="fill:#555555;stroke:#555555;stroke-width:0.5;" x="548.7559375" xlink:href="#m08e8a79ec6" y="49.874"/>
      </g>
     </g>
     <g id="text_15">
      <!-- 3 -->
      <g style="fill:#555555;" transform="translate(32.1934375 52.633375)scale(0.1 -0.1)">
       <use xlink:href="#BitstreamVeraSans-Roman-33"/>
      </g>
     </g>
    </g>
    <g id="ytick_9">
     <g id="line2d_43">
      <path clip-path="url(#pdd263db176)" d="M 46.555937 23.717750 
L 548.755938 23.717750 
" style="fill:none;stroke:#ffffff;stroke-linecap:square;stroke-width:0.5;"/>
     </g>
     <g id="line2d_44">
      <g>
       <use style="fill:#555555;stroke:#555555;stroke-width:0.5;" x="46.5559375" xlink:href="#m93a58e288f" y="23.71775"/>
      </g>
     </g>
     <g id="line2d_45">
      <g>
       <use style="fill:#555555;stroke:#555555;stroke-width:0.5;" x="548.7559375" xlink:href="#m08e8a79ec6" y="23.71775"/>
      </g>
     </g>
     <g id="text_16">
      <!-- 4 -->
      <g style="fill:#555555;" transform="translate(32.1934375 26.477125)scale(0.1 -0.1)">
       <use xlink:href="#BitstreamVeraSans-Roman-34"/>
      </g>
     </g>
    </g>
    <g id="text_17">
     <!-- m s$^{-1}$ -->
     <defs>
      <path id="BitstreamVeraSans-Roman-20"/>
      <path d="M 9.281250 0.000000 
L 9.281250 3.515625 
Q 21.781250 3.515625 21.781250 6.687500 
L 21.781250 59.187500 
Q 16.609375 56.687500 8.687500 56.687500 
L 8.687500 60.203125 
Q 20.953125 60.203125 27.203125 66.609375 
L 28.609375 66.609375 
Q 28.953125 66.609375 29.265625 66.328125 
Q 29.593750 66.062500 29.593750 65.718750 
L 29.593750 6.687500 
Q 29.593750 3.515625 42.093750 3.515625 
L 42.093750 0.000000 
z
" id="Cmr10-31"/>
      <path d="M 52.000000 44.187500 
Q 55.375000 50.250000 60.062500 53.125000 
Q 64.750000 56.000000 71.093750 56.000000 
Q 79.640625 56.000000 84.281250 50.015625 
Q 88.921875 44.046875 88.921875 33.015625 
L 88.921875 0.000000 
L 79.890625 0.000000 
L 79.890625 32.718750 
Q 79.890625 40.578125 77.093750 44.375000 
Q 74.312500 48.187500 68.609375 48.187500 
Q 61.625000 48.187500 57.562500 43.546875 
Q 53.515625 38.921875 53.515625 30.906250 
L 53.515625 0.000000 
L 44.484375 0.000000 
L 44.484375 32.718750 
Q 44.484375 40.625000 41.703125 44.406250 
Q 38.921875 48.187500 33.109375 48.187500 
Q 26.218750 48.187500 22.156250 43.531250 
Q 18.109375 38.875000 18.109375 30.906250 
L 18.109375 0.000000 
L 9.078125 0.000000 
L 9.078125 54.687500 
L 18.109375 54.687500 
L 18.109375 46.187500 
Q 21.187500 51.218750 25.484375 53.609375 
Q 29.781250 56.000000 35.687500 56.000000 
Q 41.656250 56.000000 45.828125 52.968750 
Q 50.000000 49.953125 52.000000 44.187500 
" id="BitstreamVeraSans-Roman-6d"/>
      <path d="M 10.203125 23.000000 
Q 9.375000 23.000000 8.828125 23.625000 
Q 8.296875 24.265625 8.296875 25.000000 
Q 8.296875 25.734375 8.828125 26.359375 
Q 9.375000 27.000000 10.203125 27.000000 
L 67.578125 27.000000 
Q 68.359375 27.000000 68.875000 26.359375 
Q 69.390625 25.734375 69.390625 25.000000 
Q 69.390625 24.265625 68.875000 23.625000 
Q 68.359375 23.000000 67.578125 23.000000 
z
" id="Cmsy10-a1"/>
     </defs>
     <g style="fill:#555555;" transform="translate(16.318125 145.62275)rotate(-90.0)scale(0.12 -0.12)">
      <use transform="translate(0.0 0.8578124999999943)" xlink:href="#BitstreamVeraSans-Roman-6d"/>
      <use transform="translate(97.412109375 0.8578124999999943)" xlink:href="#BitstreamVeraSans-Roman-20"/>
      <use transform="translate(129.19921875 0.8578124999999943)" xlink:href="#BitstreamVeraSans-Roman-73"/>
      <use transform="translate(181.298828125 43.373437499999994)scale(0.7)" xlink:href="#Cmsy10-a1"/>
      <use transform="translate(235.6787109375 43.373437499999994)scale(0.7)" xlink:href="#Cmr10-31"/>
     </g>
    </g>
   </g>
   <g id="line2d_46">
    <path clip-path="url(#pdd263db176)" d="M 46.555937 129.983414 
L 47.392938 92.545102 
L 48.229937 62.225785 
L 49.066938 50.132404 
L 49.903937 54.752960 
L 50.740938 90.530549 
L 51.577937 117.886067 
L 52.414938 168.092194 
L 53.251937 197.845466 
L 54.088938 211.077290 
L 54.925938 205.536346 
L 56.599937 150.775340 
L 58.273938 67.633024 
L 59.110937 48.200984 
L 59.947937 45.243111 
L 63.295938 189.335698 
L 64.132937 205.132484 
L 64.969938 199.087896 
L 65.806938 182.098937 
L 66.643937 154.515133 
L 68.317937 76.615888 
L 69.154938 49.970800 
L 71.665937 97.379476 
L 72.502938 137.666832 
L 74.176938 196.301904 
L 75.013937 203.876300 
L 75.850938 184.737761 
L 76.687938 144.458846 
L 77.524938 120.569371 
L 78.361937 79.322178 
L 79.198937 65.622826 
L 80.035938 49.744860 
L 80.872938 65.951443 
L 81.709937 97.127649 
L 82.546938 120.840442 
L 84.220937 195.880231 
L 85.057938 201.926522 
L 85.894937 191.105145 
L 86.731938 155.657678 
L 87.568938 136.765922 
L 88.405938 85.266363 
L 89.242938 66.665605 
L 90.079937 60.027241 
L 90.916938 67.038778 
L 91.753938 84.381452 
L 93.427938 148.957145 
L 94.264938 181.303396 
L 95.101937 193.085714 
L 95.938938 191.289584 
L 96.775937 176.962581 
L 98.449938 103.014238 
L 99.286937 75.898083 
L 100.123937 61.093990 
L 100.960938 64.639942 
L 101.797938 80.012429 
L 102.634938 104.017589 
L 103.471937 149.704968 
L 104.308937 179.568872 
L 105.145938 189.995777 
L 105.982938 187.505914 
L 106.819938 191.915717 
L 107.656937 151.217801 
L 109.330938 90.712784 
L 110.167937 74.150190 
L 111.004938 61.674761 
L 111.841938 80.436296 
L 112.678938 92.479633 
L 113.515938 137.766759 
L 114.352937 159.811326 
L 115.189937 178.022285 
L 116.026938 190.390007 
L 116.863938 181.461859 
L 117.700937 155.379368 
L 118.537938 125.166816 
L 119.374938 102.225399 
L 120.211938 71.787554 
L 121.048938 68.596450 
L 121.885937 70.660294 
L 122.722938 94.665952 
L 123.559938 128.610116 
L 125.233937 178.491368 
L 126.070937 175.554291 
L 126.907938 182.543654 
L 127.744938 166.164923 
L 128.581937 139.125828 
L 129.418937 101.427389 
L 130.255938 84.358955 
L 131.092938 75.023133 
L 131.929937 79.948840 
L 132.766938 97.264186 
L 134.440938 143.229626 
L 135.277938 158.629980 
L 136.114937 180.185592 
L 136.951937 174.389487 
L 137.788938 166.269641 
L 138.625937 141.298494 
L 139.462938 129.742313 
L 140.299937 108.083060 
L 141.136937 77.566079 
L 141.973938 76.990818 
L 142.810938 87.488634 
L 143.647938 99.536117 
L 144.484938 140.794897 
L 145.321937 158.479497 
L 146.158937 159.939578 
L 146.995937 168.760095 
L 147.832938 164.461906 
L 148.669938 145.790927 
L 149.506937 132.516925 
L 150.343938 110.380805 
L 151.180937 94.254710 
L 152.017938 85.323168 
L 152.854938 85.932912 
L 153.691937 108.098846 
L 154.528937 122.696193 
L 155.365938 135.286724 
L 156.202938 153.766812 
L 157.039938 164.352406 
L 157.876937 162.833305 
L 158.713937 160.487644 
L 159.550938 137.326872 
L 160.387938 124.723615 
L 161.224938 104.514658 
L 162.061937 101.187865 
L 162.898938 96.450692 
L 163.735937 96.946471 
L 164.572938 112.474233 
L 165.409938 125.644939 
L 166.246938 133.923373 
L 167.083937 158.333688 
L 167.920938 155.283434 
L 168.757937 158.731789 
L 169.594938 152.555566 
L 170.431938 143.827260 
L 171.268937 119.342513 
L 172.105938 108.108004 
L 172.942938 99.700723 
L 173.779938 102.440320 
L 174.616938 105.954981 
L 175.453938 116.585956 
L 176.290938 124.812436 
L 177.127938 153.276902 
L 177.964938 161.070422 
L 178.801938 156.683429 
L 179.638937 158.356351 
L 180.475938 141.986291 
L 181.312938 122.762021 
L 182.149937 115.422386 
L 182.986938 93.603090 
L 183.823937 99.750491 
L 184.660938 109.636757 
L 185.497938 109.314979 
L 186.334937 127.282861 
L 187.171938 134.287203 
L 188.008938 157.433688 
L 188.845937 154.854566 
L 189.682938 157.179387 
L 190.519938 143.735744 
L 191.356937 137.723817 
L 192.193938 121.853449 
L 193.030938 118.032581 
L 193.867938 107.433345 
L 194.704937 95.417287 
L 195.541938 105.887440 
L 196.378938 109.434471 
L 198.052938 146.459436 
L 198.889938 153.910187 
L 199.726938 153.749002 
L 200.563938 148.033732 
L 201.400937 149.034849 
L 202.237938 133.838438 
L 203.074938 129.220463 
L 203.911937 115.956698 
L 204.748938 92.203543 
L 205.585938 98.851536 
L 206.422937 102.452660 
L 207.259938 106.805860 
L 208.096937 129.482268 
L 208.933938 140.199244 
L 209.770938 153.385655 
L 210.607937 157.327608 
L 211.444938 159.601657 
L 212.281937 142.129168 
L 213.118937 128.952329 
L 213.955938 123.036945 
L 214.792937 108.077581 
L 215.629937 106.783598 
L 216.466938 93.749961 
L 217.303938 106.153297 
L 218.140938 126.349108 
L 218.977938 133.387795 
L 219.814938 152.185878 
L 220.651938 144.595469 
L 221.488938 156.100922 
L 222.325938 161.287452 
L 223.162937 148.894196 
L 224.836938 104.900712 
L 225.673937 98.064600 
L 226.510938 101.510637 
L 227.347938 100.353606 
L 228.184937 113.957737 
L 229.021938 131.283724 
L 229.858937 132.049275 
L 230.695937 162.090687 
L 231.532938 164.606532 
L 232.369938 166.667760 
L 233.206938 157.077788 
L 234.043938 143.488805 
L 234.880938 113.333920 
L 235.717938 104.453842 
L 236.554938 88.334445 
L 237.391938 93.382203 
L 238.228938 93.275885 
L 239.065938 103.405226 
L 239.902938 136.813969 
L 240.739937 153.951966 
L 242.413938 178.032761 
L 243.250937 163.072443 
L 244.087938 151.441217 
L 244.924937 123.720256 
L 245.761937 109.207150 
L 246.598938 87.723802 
L 247.435937 80.398643 
L 248.272937 75.113973 
L 249.109938 96.149334 
L 251.620938 171.937394 
L 252.457938 178.498162 
L 253.294938 168.293096 
L 254.131938 159.608538 
L 254.968938 136.009469 
L 255.805937 118.240619 
L 256.642938 83.224019 
L 257.479938 83.148165 
L 258.316937 72.727964 
L 259.153937 87.246360 
L 259.990937 108.082281 
L 260.827937 147.198641 
L 261.664938 162.124471 
L 262.501937 183.959675 
L 263.338937 175.986765 
L 264.175938 170.922240 
L 265.012938 150.990186 
L 266.686937 91.000461 
L 267.523937 88.046682 
L 268.360937 65.358790 
L 270.034938 95.322960 
L 270.871938 133.389272 
L 272.545938 187.519276 
L 273.382938 194.603941 
L 274.219938 191.924166 
L 275.056938 158.759817 
L 275.893937 144.318883 
L 276.730937 100.735511 
L 277.567937 77.396845 
L 278.404937 73.246849 
L 279.241938 69.904789 
L 280.078938 93.335771 
L 280.915937 128.558144 
L 281.752938 148.674724 
L 282.589938 176.100888 
L 283.426938 189.105695 
L 284.263937 182.598525 
L 285.100937 163.990346 
L 285.937937 141.456877 
L 287.611938 78.062703 
L 288.448937 59.993942 
L 289.285938 58.005603 
L 290.959938 112.764966 
L 291.796938 149.475340 
L 292.633938 175.461805 
L 293.470937 186.681072 
L 294.307938 202.794594 
L 295.144937 184.693357 
L 297.655938 87.588933 
L 298.492938 68.937158 
L 299.329938 47.588654 
L 300.166938 77.511738 
L 301.840937 130.017916 
L 302.677937 168.388165 
L 303.514937 195.070506 
L 304.351938 201.635150 
L 306.025938 171.513868 
L 307.699938 92.791349 
L 308.536938 68.948407 
L 309.373938 52.042812 
L 310.210938 57.604191 
L 311.884937 128.287640 
L 312.721937 159.487781 
L 313.558937 197.160494 
L 314.395938 211.868947 
L 315.232938 199.141011 
L 316.069938 177.851478 
L 316.906938 144.308067 
L 317.743938 104.145720 
L 319.417937 55.637765 
L 320.254937 61.876472 
L 321.091937 69.029305 
L 323.602938 191.262829 
L 324.439938 203.798396 
L 325.276938 206.062526 
L 326.950938 156.593204 
L 327.787937 111.964586 
L 328.624937 74.490747 
L 329.461937 54.249743 
L 330.298937 56.175947 
L 331.135937 62.671306 
L 331.972938 107.963322 
L 332.809938 127.448415 
L 333.646938 172.554387 
L 334.483938 209.162924 
L 335.320938 196.611916 
L 336.157938 185.805715 
L 336.994937 162.695280 
L 337.831937 120.925195 
L 339.505938 58.959266 
L 340.342938 54.927871 
L 341.179938 61.445281 
L 342.016938 83.013993 
L 342.853938 139.674297 
L 343.690938 172.878672 
L 344.527938 198.226595 
L 345.364937 201.669910 
L 346.201937 192.103549 
L 347.038937 168.241122 
L 348.712937 95.405008 
L 349.549938 75.200707 
L 350.386938 48.236593 
L 351.223938 57.561282 
L 352.060938 77.114165 
L 354.571937 189.970056 
L 355.408937 209.838550 
L 356.245937 208.755280 
L 357.082938 173.390978 
L 357.919938 153.107079 
L 358.756938 99.084323 
L 360.430938 53.538121 
L 361.267938 53.377641 
L 362.104938 73.709085 
L 362.941937 108.115297 
L 363.778937 154.106906 
L 364.615937 181.521692 
L 365.452937 204.237458 
L 366.289937 197.177135 
L 367.126938 184.653742 
L 367.963938 158.071110 
L 368.800938 107.655233 
L 369.637938 76.123944 
L 370.474938 55.090879 
L 371.311937 48.753165 
L 372.985937 91.769325 
L 373.822938 135.332155 
L 374.659937 169.931348 
L 375.496938 195.942650 
L 376.333938 198.254431 
L 377.170938 189.802848 
L 378.007938 172.133889 
L 378.844938 133.719541 
L 379.681938 84.430307 
L 380.518937 58.193660 
L 381.355938 66.736167 
L 382.192937 68.292628 
L 383.029937 94.107465 
L 383.866938 129.417926 
L 384.703937 159.100696 
L 385.540938 196.051974 
L 386.377938 191.880636 
L 387.214938 193.392143 
L 388.051938 176.562674 
L 389.725937 102.457909 
L 390.562937 81.527653 
L 391.399938 56.673814 
L 392.236937 62.321732 
L 393.073938 82.714881 
L 393.910938 113.299804 
L 394.747938 139.145853 
L 395.584938 178.861605 
L 396.421938 197.750220 
L 397.258938 189.189645 
L 398.095937 174.751183 
L 398.932938 128.204092 
L 399.769937 118.447825 
L 400.606938 82.120043 
L 401.443938 63.633176 
L 402.280937 58.292642 
L 403.117938 71.835536 
L 405.628938 170.938925 
L 406.465937 186.866910 
L 407.302937 186.595966 
L 408.139937 178.238571 
L 409.813937 131.898351 
L 410.650938 85.538652 
L 411.487938 74.684398 
L 412.324938 75.785022 
L 413.161938 77.072195 
L 413.998938 99.133139 
L 414.835938 136.666673 
L 415.672937 149.630972 
L 416.509938 179.612248 
L 417.346937 183.782929 
L 418.183938 186.108815 
L 419.020938 158.693881 
L 419.857938 135.118262 
L 420.694938 105.188791 
L 422.368938 75.917412 
L 423.205938 69.863762 
L 424.042937 98.960469 
L 424.879937 121.624306 
L 425.716937 148.623803 
L 426.553938 170.948751 
L 427.390937 179.255727 
L 429.064938 169.601752 
L 429.901938 144.280024 
L 430.738938 126.653000 
L 431.575938 91.674236 
L 433.249937 73.028291 
L 434.086938 90.049788 
L 435.760938 138.350306 
L 436.597938 152.719989 
L 437.434938 174.054863 
L 438.271938 175.000589 
L 439.108938 169.499489 
L 439.945938 154.364640 
L 441.619937 98.153284 
L 442.456937 82.260561 
L 443.293937 80.773644 
L 444.130938 86.001164 
L 444.967937 114.010518 
L 445.804938 121.562865 
L 447.478938 176.634512 
L 448.315938 174.992857 
L 449.152938 169.299214 
L 449.989937 157.822309 
L 450.826937 130.667395 
L 451.663938 115.844407 
L 452.500937 105.288279 
L 453.337938 89.885827 
L 454.174938 94.024330 
L 455.011938 110.073936 
L 455.848938 121.923458 
L 456.685938 147.851167 
L 457.522938 154.800453 
L 458.359938 160.736325 
L 459.196937 161.961379 
L 460.033937 162.108769 
L 460.870937 143.014667 
L 461.707938 115.738127 
L 462.544937 106.411642 
L 463.381938 93.644282 
L 464.218938 82.649956 
L 465.055938 93.664721 
L 465.892938 99.611776 
L 466.729938 129.031904 
L 467.566937 140.349547 
L 468.403937 154.755404 
L 469.240938 162.929475 
L 470.077937 166.343149 
L 470.914938 155.971515 
L 471.751938 137.326793 
L 472.588938 127.365609 
L 474.262938 93.026067 
L 475.099938 90.437109 
L 475.936937 99.008849 
L 477.610937 129.354735 
L 478.447937 140.445955 
L 479.284938 141.622330 
L 480.121937 155.531310 
L 480.958938 160.701886 
L 481.795938 149.511905 
L 482.632938 129.395340 
L 483.469938 121.393681 
L 484.306938 111.140341 
L 485.980937 99.362482 
L 486.817938 111.303256 
L 487.654937 116.578509 
L 488.491938 135.098392 
L 489.328938 141.751952 
L 490.165938 144.425608 
L 491.002938 156.515002 
L 491.839938 150.803372 
L 492.676938 134.177373 
L 493.513937 122.399430 
L 494.350938 121.163771 
L 495.187937 109.106589 
L 496.024937 104.559190 
L 496.861938 108.367371 
L 497.698937 115.185938 
L 498.535938 117.290166 
L 499.372938 138.668428 
L 500.209938 143.575829 
L 501.046938 154.833739 
L 501.883938 151.975037 
L 502.720937 151.225053 
L 503.557937 135.370573 
L 504.394938 133.196238 
L 505.231937 115.591193 
L 506.068938 105.178657 
L 506.905938 97.219166 
L 507.742938 108.101709 
L 508.579938 108.961244 
L 509.416938 125.734973 
L 510.253938 126.793867 
L 511.090937 143.466458 
L 511.927938 155.015582 
L 512.764937 154.032063 
L 513.601938 157.569469 
L 514.438938 142.250256 
L 515.275937 130.406829 
L 516.112938 120.803009 
L 516.949938 94.287903 
L 517.786938 100.053841 
L 518.623938 95.585017 
L 520.297937 142.751190 
L 521.134937 146.976361 
L 521.971938 163.370193 
L 522.808937 163.951342 
L 523.645938 156.869412 
L 524.482938 138.872361 
L 525.319938 134.335228 
L 526.156938 124.022810 
L 526.993938 95.750755 
L 527.830938 81.708363 
L 528.667937 96.997386 
L 529.504938 101.730327 
L 530.341937 118.877797 
L 531.178938 138.997423 
L 532.015938 155.038702 
L 532.852938 159.601189 
L 533.689938 180.255182 
L 534.526938 156.197202 
L 535.363938 137.719055 
L 536.200938 129.334954 
L 537.037937 100.339201 
L 537.874937 88.822276 
L 538.711937 87.417651 
L 539.548938 96.339832 
L 540.385937 114.958260 
L 541.222938 130.856306 
L 542.059938 160.926895 
L 542.896938 166.520869 
L 543.733938 166.616237 
L 544.570938 162.544975 
L 545.407938 159.478101 
L 547.918937 86.987852 
L 547.918937 86.987852 
" style="fill:none;opacity:0.5;stroke:#e24a33;stroke-linecap:square;stroke-width:2.0;"/>
   </g>
   <g id="line2d_47">
    <path clip-path="url(#pdd263db176)" d="M 46.555937 185.842469 
L 47.392938 156.045092 
L 48.229937 147.842735 
L 49.066938 132.788496 
L 49.903937 101.469839 
L 50.740938 90.407102 
L 51.577937 76.129534 
L 52.414938 84.269465 
L 53.251937 96.973604 
L 55.762937 175.277898 
L 56.599937 167.279926 
L 57.436937 180.226417 
L 58.273938 151.403593 
L 59.110937 141.956734 
L 60.784937 95.727546 
L 61.621938 74.995203 
L 62.458937 89.507908 
L 63.295938 95.395866 
L 64.132937 114.481930 
L 64.969938 138.045347 
L 65.806938 166.501617 
L 66.643937 166.669266 
L 67.480938 170.939850 
L 68.317937 161.873290 
L 69.154938 131.871111 
L 69.991938 126.254949 
L 70.828937 97.545144 
L 71.665937 82.597206 
L 72.502938 84.729050 
L 73.339937 100.661490 
L 74.176938 103.928422 
L 75.013937 133.394110 
L 75.850938 155.296936 
L 76.687938 173.984101 
L 77.524938 168.081664 
L 78.361937 159.686056 
L 79.198937 152.418681 
L 80.035938 138.679422 
L 80.872938 103.960814 
L 81.709937 94.590263 
L 82.546938 96.586972 
L 83.383938 84.853637 
L 84.220937 116.935326 
L 85.057938 130.078011 
L 85.894937 160.786086 
L 86.731938 161.284004 
L 87.568938 172.314586 
L 89.242938 154.619404 
L 90.079937 124.160633 
L 90.916938 114.160821 
L 91.753938 96.156743 
L 92.590937 81.789635 
L 93.427938 86.770486 
L 94.264938 101.133733 
L 95.101937 129.797379 
L 95.938938 139.288884 
L 96.775937 157.535362 
L 97.612938 172.099519 
L 98.449938 170.735470 
L 99.286937 151.784514 
L 101.797938 104.890226 
L 102.634938 95.762047 
L 103.471937 90.616438 
L 104.308937 106.808595 
L 105.145938 119.014573 
L 107.656937 170.003816 
L 108.493938 164.514324 
L 109.330938 147.283413 
L 110.167937 146.013836 
L 111.004938 124.063743 
L 111.841938 109.153531 
L 112.678938 99.432463 
L 113.515938 95.603231 
L 114.352937 93.810613 
L 115.189937 121.315238 
L 116.026938 132.117632 
L 116.863938 150.045947 
L 117.700937 152.487912 
L 118.537938 168.848427 
L 119.374938 159.413338 
L 120.211938 144.462310 
L 121.048938 133.605994 
L 121.885937 105.572972 
L 122.722938 99.059140 
L 123.559938 89.992665 
L 124.396938 101.503957 
L 125.233937 110.744027 
L 126.070937 123.768443 
L 126.907938 146.781888 
L 127.744938 146.913530 
L 128.581937 181.342237 
L 129.418937 157.046330 
L 130.255938 147.343899 
L 131.092938 123.805942 
L 131.929937 117.822630 
L 132.766938 106.781079 
L 133.603938 108.403411 
L 134.440938 93.493158 
L 135.277938 101.709258 
L 136.114937 112.679674 
L 137.788938 156.517795 
L 138.625937 156.086163 
L 139.462938 161.980562 
L 140.299937 159.906974 
L 141.136937 130.278791 
L 141.973938 135.650959 
L 142.810938 120.867090 
L 143.647938 112.823146 
L 144.484938 99.907933 
L 145.321937 99.930439 
L 146.158937 123.269670 
L 146.995937 136.163843 
L 147.832938 136.041117 
L 148.669938 151.150322 
L 149.506937 158.714847 
L 150.343938 144.546560 
L 151.180937 146.557843 
L 152.017938 129.576968 
L 152.854938 116.063339 
L 153.691937 112.859815 
L 154.528937 97.796266 
L 155.365938 108.915402 
L 156.202938 110.583676 
L 157.876937 135.744976 
L 158.713937 144.450116 
L 159.550938 156.037524 
L 160.387938 148.263671 
L 161.224938 149.748023 
L 162.061937 135.658366 
L 162.898938 128.817534 
L 164.572938 101.881987 
L 165.409938 118.547036 
L 166.246938 107.935263 
L 167.083937 119.629160 
L 167.920938 126.932988 
L 168.757937 138.616686 
L 170.431938 151.795859 
L 172.105938 135.907691 
L 172.942938 129.847443 
L 173.779938 126.043067 
L 174.616938 113.605393 
L 175.453938 118.775518 
L 176.290938 110.786989 
L 177.127938 113.085752 
L 177.964938 121.878595 
L 178.801938 135.712467 
L 179.638937 140.863121 
L 180.475938 135.781716 
L 181.312938 137.591287 
L 182.149937 144.355082 
L 182.986938 133.739281 
L 183.823937 129.981973 
L 184.660938 123.101145 
L 185.497938 112.214189 
L 186.334937 107.663283 
L 187.171938 107.145386 
L 188.008938 117.033695 
L 188.845937 128.480710 
L 189.682938 130.736892 
L 190.519938 136.760213 
L 191.356937 141.163388 
L 192.193938 143.294566 
L 193.030938 136.735248 
L 193.867938 128.530533 
L 194.704937 130.966417 
L 195.541938 124.877728 
L 196.378938 112.366357 
L 197.215937 122.004697 
L 198.052938 114.038050 
L 198.889938 122.376147 
L 199.726938 112.902741 
L 200.563938 130.629921 
L 201.400937 142.966535 
L 202.237938 144.236831 
L 203.074938 148.760943 
L 203.911937 142.915507 
L 204.748938 135.589859 
L 205.585938 129.351686 
L 206.422937 120.248184 
L 207.259938 108.808482 
L 208.096937 110.371047 
L 208.933938 101.193428 
L 209.770938 113.666811 
L 210.607937 129.142504 
L 211.444938 138.979124 
L 212.281937 138.970761 
L 213.118937 143.631504 
L 213.955938 145.677626 
L 214.792937 135.794274 
L 215.629937 131.822980 
L 216.466938 123.375510 
L 217.303938 111.671869 
L 218.140938 107.344767 
L 218.977938 103.634386 
L 219.814938 116.690140 
L 220.651938 117.758953 
L 221.488938 134.713054 
L 222.325938 136.048794 
L 223.162937 151.299711 
L 223.999938 153.927284 
L 224.836938 141.115169 
L 225.673937 147.239165 
L 226.510938 135.760820 
L 227.347938 115.679335 
L 228.184937 105.273467 
L 229.021938 108.744247 
L 229.858937 103.907791 
L 230.695937 109.635545 
L 231.532938 123.544184 
L 232.369938 133.014760 
L 233.206938 132.235255 
L 234.043938 144.543167 
L 234.880938 147.229808 
L 235.717938 152.628698 
L 236.554938 134.737163 
L 237.391938 126.414939 
L 238.228938 115.718401 
L 239.065938 108.977486 
L 239.902938 91.930850 
L 240.739937 110.058933 
L 241.576938 114.096249 
L 242.413938 126.296263 
L 243.250937 145.021275 
L 244.087938 150.614375 
L 244.924937 150.608761 
L 245.761937 152.963093 
L 246.598938 138.937291 
L 247.435937 132.387092 
L 248.272937 113.537018 
L 249.109938 106.605242 
L 249.946938 98.414458 
L 250.783938 97.522888 
L 251.620938 115.197144 
L 252.457938 119.168706 
L 253.294938 138.715858 
L 254.131938 149.302068 
L 254.968938 163.121635 
L 255.805937 161.645318 
L 256.642938 153.748057 
L 258.316937 119.459824 
L 259.153937 104.857551 
L 259.990937 101.737637 
L 260.827937 86.294334 
L 261.664938 105.595142 
L 262.501937 120.976519 
L 263.338937 134.105334 
L 264.175938 157.778283 
L 265.012938 156.543114 
L 265.849938 161.335749 
L 266.686937 155.633742 
L 267.523937 144.929819 
L 268.360937 127.374051 
L 269.197938 97.874997 
L 270.034938 90.150460 
L 270.871938 92.029040 
L 271.708938 105.772930 
L 272.545938 106.289512 
L 273.382938 127.605797 
L 274.219938 138.192029 
L 275.056938 153.560970 
L 275.893937 171.067169 
L 276.730937 163.466693 
L 277.567937 149.948631 
L 278.404937 138.921072 
L 279.241938 109.365016 
L 280.078938 94.820451 
L 280.915937 93.489903 
L 281.752938 89.608145 
L 282.589938 95.331486 
L 283.426938 125.341260 
L 284.263937 145.112704 
L 285.100937 159.845416 
L 285.937937 164.548758 
L 286.774938 162.734695 
L 287.611938 154.787004 
L 288.448937 139.179476 
L 290.122938 98.298606 
L 290.959938 89.020867 
L 291.796938 86.126608 
L 293.470937 118.030861 
L 294.307938 138.676888 
L 295.144937 151.776898 
L 295.981937 168.208272 
L 296.818938 175.167367 
L 297.655938 163.655405 
L 299.329938 118.462720 
L 300.166938 111.131375 
L 301.003938 92.754335 
L 301.840937 87.554707 
L 302.677937 83.307044 
L 303.514937 103.233289 
L 305.188938 157.691098 
L 306.025938 169.799822 
L 306.862938 177.349673 
L 307.699938 171.812913 
L 308.536938 159.237423 
L 309.373938 134.873888 
L 310.210938 100.194816 
L 311.047937 90.319986 
L 311.884937 86.002182 
L 312.721937 88.114460 
L 313.558937 109.862831 
L 314.395938 122.783554 
L 315.232938 146.188126 
L 316.069938 164.598261 
L 316.906938 168.469755 
L 317.743938 175.834745 
L 318.580938 159.931697 
L 319.417937 147.325909 
L 320.254937 115.908325 
L 321.091937 95.498993 
L 321.928938 80.893031 
L 322.765938 77.434308 
L 323.602938 96.192824 
L 325.276938 139.835721 
L 326.950938 166.189883 
L 327.787937 167.646904 
L 328.624937 159.170687 
L 329.461937 140.875771 
L 330.298937 107.710323 
L 331.135937 89.787034 
L 331.972938 82.372975 
L 332.809938 77.225564 
L 333.646938 87.851992 
L 335.320938 128.796330 
L 336.157938 156.129338 
L 336.994937 170.560027 
L 337.831937 169.466597 
L 338.668937 168.715516 
L 339.505938 154.690683 
L 340.342938 130.521685 
L 341.179938 99.206243 
L 342.016938 77.910423 
L 342.853938 79.458809 
L 344.527938 101.705503 
L 347.038937 165.482236 
L 347.875937 174.931713 
L 348.712937 173.683162 
L 349.549938 155.716901 
L 350.386938 130.033563 
L 351.223938 119.419876 
L 352.060938 97.730255 
L 352.897938 81.549324 
L 353.734938 79.270685 
L 354.571937 98.826863 
L 355.408937 113.397655 
L 356.245937 154.163496 
L 357.082938 169.181725 
L 357.919938 165.505800 
L 358.756938 175.773627 
L 359.593938 160.077805 
L 360.430938 131.578608 
L 361.267938 118.406980 
L 362.104938 90.054343 
L 362.941937 80.180589 
L 363.778937 84.110377 
L 364.615937 98.260439 
L 365.452937 115.979054 
L 367.963938 178.502859 
L 368.800938 171.554568 
L 369.637938 153.417763 
L 370.474938 141.896367 
L 371.311937 119.516803 
L 372.148937 93.499167 
L 372.985937 80.073370 
L 373.822938 79.493253 
L 374.659937 88.422074 
L 375.496938 116.841587 
L 376.333938 119.897450 
L 377.170938 149.929815 
L 378.007938 174.811234 
L 378.844938 169.979234 
L 379.681938 166.788446 
L 380.518937 155.796337 
L 383.029937 80.990147 
L 383.866938 79.689162 
L 384.703937 83.183852 
L 387.214938 151.176775 
L 388.051938 164.948869 
L 388.888937 163.700901 
L 389.725937 161.895000 
L 390.562937 151.616549 
L 391.399938 134.974523 
L 392.236937 120.791346 
L 393.073938 99.625826 
L 393.910938 96.455418 
L 394.747938 87.966032 
L 395.584938 93.997681 
L 396.421938 113.724571 
L 397.258938 138.602735 
L 398.095937 156.971870 
L 398.932938 169.938338 
L 399.769937 164.671651 
L 400.606938 150.586130 
L 401.443938 142.832994 
L 402.280937 113.292250 
L 403.117938 107.694911 
L 403.954938 86.084185 
L 404.791938 90.847490 
L 405.628938 93.344845 
L 406.465937 116.292091 
L 407.302937 130.306421 
L 408.139937 151.625774 
L 408.976938 162.713969 
L 409.813937 159.244503 
L 410.650938 157.050660 
L 411.487938 142.448423 
L 412.324938 136.511760 
L 413.161938 116.955201 
L 413.998938 100.126259 
L 415.672937 91.138030 
L 416.509938 106.916514 
L 417.346937 137.500615 
L 418.183938 148.254799 
L 419.020938 153.574125 
L 419.857938 171.330919 
L 420.694938 163.238827 
L 421.531938 149.799752 
L 423.205938 119.519092 
L 424.042937 91.882528 
L 425.716937 97.761675 
L 426.553938 108.733685 
L 427.390937 127.160052 
L 428.227938 139.834238 
L 429.064938 160.251622 
L 429.901938 161.437122 
L 430.738938 162.154551 
L 431.575938 149.244239 
L 432.412937 138.475993 
L 433.249937 113.694602 
L 434.086938 112.587760 
L 434.923937 96.811102 
L 435.760938 91.587236 
L 437.434938 112.678099 
L 438.271938 137.040416 
L 439.108938 142.309805 
L 439.945938 152.770947 
L 440.782938 148.828500 
L 441.619937 149.439693 
L 442.456937 143.288245 
L 443.293937 121.429502 
L 444.130938 106.550906 
L 444.967937 104.243005 
L 445.804938 92.405709 
L 446.641938 91.209142 
L 447.478938 114.987044 
L 448.315938 117.243356 
L 449.152938 133.678939 
L 449.989937 144.511596 
L 450.826937 151.004112 
L 451.663938 151.851702 
L 452.500937 140.942707 
L 453.337938 132.846922 
L 455.011938 109.498171 
L 455.848938 103.447338 
L 456.685938 101.509054 
L 457.522938 116.069616 
L 459.196937 127.179513 
L 460.033937 147.954231 
L 460.870937 148.827067 
L 461.707938 151.303705 
L 462.544937 152.134571 
L 463.381938 138.083002 
L 464.218938 121.914918 
L 465.055938 116.945538 
L 465.892938 113.561289 
L 466.729938 105.531112 
L 467.566937 111.579540 
L 468.403937 122.955989 
L 469.240938 128.955423 
L 470.077937 138.358352 
L 470.914938 140.433483 
L 471.751938 148.384144 
L 472.588938 146.796389 
L 473.425938 136.164512 
L 474.262938 140.279066 
L 475.099938 123.391282 
L 475.936937 119.598131 
L 476.773937 100.755641 
L 477.610937 108.808442 
L 478.447937 121.668401 
L 479.284938 126.215701 
L 480.121937 131.580529 
L 480.958938 143.189816 
L 481.795938 150.986647 
L 482.632938 138.458371 
L 483.469938 140.454444 
L 484.306938 137.641532 
L 485.143937 133.268174 
L 485.980937 122.108833 
L 486.817938 122.648055 
L 487.654937 102.602762 
L 488.491938 112.095567 
L 490.165938 124.756838 
L 491.002938 122.725739 
L 491.839938 135.150409 
L 492.676938 139.915889 
L 493.513937 137.988212 
L 494.350938 133.405111 
L 495.187937 138.439147 
L 496.024937 132.136920 
L 496.861938 121.192709 
L 497.698937 113.628726 
L 498.535938 114.401917 
L 499.372938 109.348456 
L 500.209938 119.478859 
L 501.046938 122.517566 
L 501.883938 134.742344 
L 502.720937 144.655603 
L 503.557937 136.183241 
L 504.394938 147.685749 
L 505.231937 146.761869 
L 506.068938 131.381101 
L 506.905938 129.295487 
L 507.742938 123.636445 
L 508.579938 115.436704 
L 509.416938 117.511481 
L 510.253938 110.817626 
L 511.090937 116.621562 
L 511.927938 123.523664 
L 512.764937 142.585321 
L 513.601938 137.260366 
L 514.438938 149.763743 
L 515.275937 139.473604 
L 516.112938 140.670040 
L 516.949938 130.687923 
L 518.623938 114.747067 
L 519.460938 110.295071 
L 520.297937 108.613016 
L 521.134937 106.356329 
L 521.971938 120.551302 
L 522.808937 125.642485 
L 523.645938 124.904574 
L 524.482938 152.798359 
L 525.319938 147.339246 
L 526.156938 153.770776 
L 526.993938 143.947427 
L 527.830938 145.825856 
L 528.667937 124.781514 
L 531.178938 107.486985 
L 532.015938 114.200899 
L 532.852938 124.937435 
L 533.689938 128.637801 
L 534.526938 155.093652 
L 535.363938 149.676039 
L 536.200938 147.675864 
L 537.037937 151.087124 
L 537.874937 146.924792 
L 538.711937 123.449189 
L 539.548938 113.885943 
L 540.385937 101.366415 
L 541.222938 101.682489 
L 542.059938 98.170115 
L 542.896938 115.645331 
L 543.733938 129.981041 
L 544.570938 137.715381 
L 545.407938 158.404364 
L 546.244937 161.091522 
L 547.081938 160.296558 
L 547.918937 148.902124 
L 547.918937 148.902124 
" style="fill:none;opacity:0.5;stroke:#348abd;stroke-linecap:square;stroke-width:2.0;"/>
   </g>
   <g id="patch_3">
    <path d="M 46.555937 232.967750 
L 46.555937 23.717750 
" style="fill:none;stroke:#ffffff;stroke-linecap:square;stroke-linejoin:miter;"/>
   </g>
   <g id="patch_4">
    <path d="M 548.755938 232.967750 
L 548.755938 23.717750 
" style="fill:none;stroke:#ffffff;stroke-linecap:square;stroke-linejoin:miter;"/>
   </g>
   <g id="patch_5">
    <path d="M 46.555937 23.717750 
L 548.755938 23.717750 
" style="fill:none;stroke:#ffffff;stroke-linecap:square;stroke-linejoin:miter;"/>
   </g>
   <g id="patch_6">
    <path d="M 46.555937 232.967750 
L 548.755938 232.967750 
" style="fill:none;stroke:#ffffff;stroke-linecap:square;stroke-linejoin:miter;"/>
   </g>
   <g id="text_18">
    <!-- Típico registro de velocidade de maré -->
    <defs>
     <path d="M 18.109375 8.203125 
L 18.109375 -20.796875 
L 9.078125 -20.796875 
L 9.078125 54.687500 
L 18.109375 54.687500 
L 18.109375 46.390625 
Q 20.953125 51.265625 25.265625 53.625000 
Q 29.593750 56.000000 35.593750 56.000000 
Q 45.562500 56.000000 51.781250 48.093750 
Q 58.015625 40.187500 58.015625 27.296875 
Q 58.015625 14.406250 51.781250 6.484375 
Q 45.562500 -1.421875 35.593750 -1.421875 
Q 29.593750 -1.421875 25.265625 0.953125 
Q 20.953125 3.328125 18.109375 8.203125 
M 48.687500 27.296875 
Q 48.687500 37.203125 44.609375 42.843750 
Q 40.531250 48.484375 33.406250 48.484375 
Q 26.265625 48.484375 22.187500 42.843750 
Q 18.109375 37.203125 18.109375 27.296875 
Q 18.109375 17.390625 22.187500 11.750000 
Q 26.265625 6.109375 33.406250 6.109375 
Q 40.531250 6.109375 44.609375 11.750000 
Q 48.687500 17.390625 48.687500 27.296875 
" id="BitstreamVeraSans-Roman-70"/>
     <path d="M -0.296875 72.906250 
L 61.375000 72.906250 
L 61.375000 64.593750 
L 35.500000 64.593750 
L 35.500000 0.000000 
L 25.593750 0.000000 
L 25.593750 64.593750 
L -0.296875 64.593750 
z
" id="BitstreamVeraSans-Roman-54"/>
     <path d="M 45.406250 27.984375 
Q 45.406250 37.750000 41.375000 43.109375 
Q 37.359375 48.484375 30.078125 48.484375 
Q 22.859375 48.484375 18.828125 43.109375 
Q 14.796875 37.750000 14.796875 27.984375 
Q 14.796875 18.265625 18.828125 12.890625 
Q 22.859375 7.515625 30.078125 7.515625 
Q 37.359375 7.515625 41.375000 12.890625 
Q 45.406250 18.265625 45.406250 27.984375 
M 54.390625 6.781250 
Q 54.390625 -7.171875 48.187500 -13.984375 
Q 42.000000 -20.796875 29.203125 -20.796875 
Q 24.468750 -20.796875 20.265625 -20.093750 
Q 16.062500 -19.390625 12.109375 -17.921875 
L 12.109375 -9.187500 
Q 16.062500 -11.328125 19.921875 -12.343750 
Q 23.781250 -13.375000 27.781250 -13.375000 
Q 36.625000 -13.375000 41.015625 -8.765625 
Q 45.406250 -4.156250 45.406250 5.171875 
L 45.406250 9.625000 
Q 42.625000 4.781250 38.281250 2.390625 
Q 33.937500 0.000000 27.875000 0.000000 
Q 17.828125 0.000000 11.671875 7.656250 
Q 5.515625 15.328125 5.515625 27.984375 
Q 5.515625 40.671875 11.671875 48.328125 
Q 17.828125 56.000000 27.875000 56.000000 
Q 33.937500 56.000000 38.281250 53.609375 
Q 42.625000 51.218750 45.406250 46.390625 
L 45.406250 54.687500 
L 54.390625 54.687500 
z
" id="BitstreamVeraSans-Roman-67"/>
     <path d="M 30.609375 48.390625 
Q 23.390625 48.390625 19.187500 42.750000 
Q 14.984375 37.109375 14.984375 27.296875 
Q 14.984375 17.484375 19.156250 11.843750 
Q 23.343750 6.203125 30.609375 6.203125 
Q 37.796875 6.203125 41.984375 11.859375 
Q 46.187500 17.531250 46.187500 27.296875 
Q 46.187500 37.015625 41.984375 42.703125 
Q 37.796875 48.390625 30.609375 48.390625 
M 30.609375 56.000000 
Q 42.328125 56.000000 49.015625 48.375000 
Q 55.718750 40.765625 55.718750 27.296875 
Q 55.718750 13.875000 49.015625 6.218750 
Q 42.328125 -1.421875 30.609375 -1.421875 
Q 18.843750 -1.421875 12.171875 6.218750 
Q 5.515625 13.875000 5.515625 27.296875 
Q 5.515625 40.765625 12.171875 48.375000 
Q 18.843750 56.000000 30.609375 56.000000 
" id="BitstreamVeraSans-Roman-6f"/>
     <path d="M 9.421875 54.687500 
L 18.406250 54.687500 
L 18.406250 0.000000 
L 9.421875 0.000000 
z
M 20.656250 79.984375 
L 30.375000 79.984375 
L 14.468750 61.625000 
L 6.984375 61.625000 
z
" id="BitstreamVeraSans-Roman-ed"/>
     <path d="M 56.203125 29.593750 
L 56.203125 25.203125 
L 14.890625 25.203125 
Q 15.484375 15.921875 20.484375 11.062500 
Q 25.484375 6.203125 34.421875 6.203125 
Q 39.593750 6.203125 44.453125 7.468750 
Q 49.312500 8.734375 54.109375 11.281250 
L 54.109375 2.781250 
Q 49.265625 0.734375 44.187500 -0.343750 
Q 39.109375 -1.421875 33.890625 -1.421875 
Q 20.796875 -1.421875 13.156250 6.187500 
Q 5.515625 13.812500 5.515625 26.812500 
Q 5.515625 40.234375 12.765625 48.109375 
Q 20.015625 56.000000 32.328125 56.000000 
Q 43.359375 56.000000 49.781250 48.890625 
Q 56.203125 41.796875 56.203125 29.593750 
M 47.218750 32.234375 
Q 47.125000 39.593750 43.093750 43.984375 
Q 39.062500 48.390625 32.421875 48.390625 
Q 24.906250 48.390625 20.390625 44.140625 
Q 15.875000 39.890625 15.187500 32.171875 
z
M 38.531250 79.984375 
L 48.250000 79.984375 
L 32.343750 61.625000 
L 24.859375 61.625000 
z
" id="BitstreamVeraSans-Roman-e9"/>
     <path d="M 48.781250 52.593750 
L 48.781250 44.187500 
Q 44.968750 46.296875 41.140625 47.343750 
Q 37.312500 48.390625 33.406250 48.390625 
Q 24.656250 48.390625 19.812500 42.843750 
Q 14.984375 37.312500 14.984375 27.296875 
Q 14.984375 17.281250 19.812500 11.734375 
Q 24.656250 6.203125 33.406250 6.203125 
Q 37.312500 6.203125 41.140625 7.250000 
Q 44.968750 8.296875 48.781250 10.406250 
L 48.781250 2.093750 
Q 45.015625 0.343750 40.984375 -0.531250 
Q 36.968750 -1.421875 32.421875 -1.421875 
Q 20.062500 -1.421875 12.781250 6.343750 
Q 5.515625 14.109375 5.515625 27.296875 
Q 5.515625 40.671875 12.859375 48.328125 
Q 20.218750 56.000000 33.015625 56.000000 
Q 37.156250 56.000000 41.109375 55.140625 
Q 45.062500 54.296875 48.781250 52.593750 
" id="BitstreamVeraSans-Roman-63"/>
     <path d="M 41.109375 46.296875 
Q 39.593750 47.171875 37.812500 47.578125 
Q 36.031250 48.000000 33.890625 48.000000 
Q 26.265625 48.000000 22.187500 43.046875 
Q 18.109375 38.093750 18.109375 28.812500 
L 18.109375 0.000000 
L 9.078125 0.000000 
L 9.078125 54.687500 
L 18.109375 54.687500 
L 18.109375 46.187500 
Q 20.953125 51.171875 25.484375 53.578125 
Q 30.031250 56.000000 36.531250 56.000000 
Q 37.453125 56.000000 38.578125 55.875000 
Q 39.703125 55.765625 41.062500 55.515625 
z
" id="BitstreamVeraSans-Roman-72"/>
     <path d="M 56.203125 29.593750 
L 56.203125 25.203125 
L 14.890625 25.203125 
Q 15.484375 15.921875 20.484375 11.062500 
Q 25.484375 6.203125 34.421875 6.203125 
Q 39.593750 6.203125 44.453125 7.468750 
Q 49.312500 8.734375 54.109375 11.281250 
L 54.109375 2.781250 
Q 49.265625 0.734375 44.187500 -0.343750 
Q 39.109375 -1.421875 33.890625 -1.421875 
Q 20.796875 -1.421875 13.156250 6.187500 
Q 5.515625 13.812500 5.515625 26.812500 
Q 5.515625 40.234375 12.765625 48.109375 
Q 20.015625 56.000000 32.328125 56.000000 
Q 43.359375 56.000000 49.781250 48.890625 
Q 56.203125 41.796875 56.203125 29.593750 
M 47.218750 32.234375 
Q 47.125000 39.593750 43.093750 43.984375 
Q 39.062500 48.390625 32.421875 48.390625 
Q 24.906250 48.390625 20.390625 44.140625 
Q 15.875000 39.890625 15.187500 32.171875 
z
" id="BitstreamVeraSans-Roman-65"/>
     <path d="M 9.421875 75.984375 
L 18.406250 75.984375 
L 18.406250 0.000000 
L 9.421875 0.000000 
z
" id="BitstreamVeraSans-Roman-6c"/>
     <path d="M 45.406250 46.390625 
L 45.406250 75.984375 
L 54.390625 75.984375 
L 54.390625 0.000000 
L 45.406250 0.000000 
L 45.406250 8.203125 
Q 42.578125 3.328125 38.250000 0.953125 
Q 33.937500 -1.421875 27.875000 -1.421875 
Q 17.968750 -1.421875 11.734375 6.484375 
Q 5.515625 14.406250 5.515625 27.296875 
Q 5.515625 40.187500 11.734375 48.093750 
Q 17.968750 56.000000 27.875000 56.000000 
Q 33.937500 56.000000 38.250000 53.625000 
Q 42.578125 51.265625 45.406250 46.390625 
M 14.796875 27.296875 
Q 14.796875 17.390625 18.875000 11.750000 
Q 22.953125 6.109375 30.078125 6.109375 
Q 37.203125 6.109375 41.296875 11.750000 
Q 45.406250 17.390625 45.406250 27.296875 
Q 45.406250 37.203125 41.296875 42.843750 
Q 37.203125 48.484375 30.078125 48.484375 
Q 22.953125 48.484375 18.875000 42.843750 
Q 14.796875 37.203125 14.796875 27.296875 
" id="BitstreamVeraSans-Roman-64"/>
     <path d="M 2.984375 54.687500 
L 12.500000 54.687500 
L 29.593750 8.796875 
L 46.687500 54.687500 
L 56.203125 54.687500 
L 35.687500 0.000000 
L 23.484375 0.000000 
z
" id="BitstreamVeraSans-Roman-76"/>
     <path d="M 18.312500 70.218750 
L 18.312500 54.687500 
L 36.812500 54.687500 
L 36.812500 47.703125 
L 18.312500 47.703125 
L 18.312500 18.015625 
Q 18.312500 11.328125 20.140625 9.421875 
Q 21.968750 7.515625 27.593750 7.515625 
L 36.812500 7.515625 
L 36.812500 0.000000 
L 27.593750 0.000000 
Q 17.187500 0.000000 13.234375 3.875000 
Q 9.281250 7.765625 9.281250 18.015625 
L 9.281250 47.703125 
L 2.687500 47.703125 
L 2.687500 54.687500 
L 9.281250 54.687500 
L 9.281250 70.218750 
z
" id="BitstreamVeraSans-Roman-74"/>
    </defs>
    <g transform="translate(161.1293125 18.71775)scale(0.144 -0.144)">
     <use xlink:href="#BitstreamVeraSans-Roman-54"/>
     <use x="61.083984375" xlink:href="#BitstreamVeraSans-Roman-ed"/>
     <use x="88.8671875" xlink:href="#BitstreamVeraSans-Roman-70"/>
     <use x="152.34375" xlink:href="#BitstreamVeraSans-Roman-69"/>
     <use x="180.126953125" xlink:href="#BitstreamVeraSans-Roman-63"/>
     <use x="235.107421875" xlink:href="#BitstreamVeraSans-Roman-6f"/>
     <use x="296.2890625" xlink:href="#BitstreamVeraSans-Roman-20"/>
     <use x="328.076171875" xlink:href="#BitstreamVeraSans-Roman-72"/>
     <use x="369.158203125" xlink:href="#BitstreamVeraSans-Roman-65"/>
     <use x="430.681640625" xlink:href="#BitstreamVeraSans-Roman-67"/>
     <use x="494.158203125" xlink:href="#BitstreamVeraSans-Roman-69"/>
     <use x="521.94140625" xlink:href="#BitstreamVeraSans-Roman-73"/>
     <use x="574.041015625" xlink:href="#BitstreamVeraSans-Roman-74"/>
     <use x="613.25" xlink:href="#BitstreamVeraSans-Roman-72"/>
     <use x="654.33203125" xlink:href="#BitstreamVeraSans-Roman-6f"/>
     <use x="715.513671875" xlink:href="#BitstreamVeraSans-Roman-20"/>
     <use x="747.30078125" xlink:href="#BitstreamVeraSans-Roman-64"/>
     <use x="810.77734375" xlink:href="#BitstreamVeraSans-Roman-65"/>
     <use x="872.30078125" xlink:href="#BitstreamVeraSans-Roman-20"/>
     <use x="904.087890625" xlink:href="#BitstreamVeraSans-Roman-76"/>
     <use x="963.267578125" xlink:href="#BitstreamVeraSans-Roman-65"/>
     <use x="1024.791015625" xlink:href="#BitstreamVeraSans-Roman-6c"/>
     <use x="1052.57421875" xlink:href="#BitstreamVeraSans-Roman-6f"/>
     <use x="1113.755859375" xlink:href="#BitstreamVeraSans-Roman-63"/>
     <use x="1168.736328125" xlink:href="#BitstreamVeraSans-Roman-69"/>
     <use x="1196.51953125" xlink:href="#BitstreamVeraSans-Roman-64"/>
     <use x="1259.99609375" xlink:href="#BitstreamVeraSans-Roman-61"/>
     <use x="1321.275390625" xlink:href="#BitstreamVeraSans-Roman-64"/>
     <use x="1384.751953125" xlink:href="#BitstreamVeraSans-Roman-65"/>
     <use x="1446.275390625" xlink:href="#BitstreamVeraSans-Roman-20"/>
     <use x="1478.0625" xlink:href="#BitstreamVeraSans-Roman-64"/>
     <use x="1541.5390625" xlink:href="#BitstreamVeraSans-Roman-65"/>
     <use x="1603.0625" xlink:href="#BitstreamVeraSans-Roman-20"/>
     <use x="1634.849609375" xlink:href="#BitstreamVeraSans-Roman-6d"/>
     <use x="1732.26171875" xlink:href="#BitstreamVeraSans-Roman-61"/>
     <use x="1793.541015625" xlink:href="#BitstreamVeraSans-Roman-72"/>
     <use x="1834.623046875" xlink:href="#BitstreamVeraSans-Roman-e9"/>
    </g>
   </g>
   <g id="legend_1">
    <g id="patch_7">
     <path d="M 490.773438 226.967750 
L 542.755937 226.967750 
L 542.755937 188.140250 
L 490.773438 188.140250 
z
" style="fill:#e5e5e5;stroke:#ffffff;stroke-linejoin:miter;stroke-width:0.5;"/>
    </g>
    <g id="line2d_48">
     <path d="M 499.173438 197.858375 
L 515.973438 197.858375 
" style="fill:none;opacity:0.5;stroke:#e24a33;stroke-linecap:square;stroke-width:2.0;"/>
    </g>
    <g id="line2d_49"/>
    <g id="text_19">
     <!-- U -->
     <defs>
      <path d="M 8.687500 72.906250 
L 18.609375 72.906250 
L 18.609375 28.609375 
Q 18.609375 16.890625 22.843750 11.734375 
Q 27.093750 6.593750 36.625000 6.593750 
Q 46.093750 6.593750 50.343750 11.734375 
Q 54.593750 16.890625 54.593750 28.609375 
L 54.593750 72.906250 
L 64.500000 72.906250 
L 64.500000 27.390625 
Q 64.500000 13.140625 57.437500 5.859375 
Q 50.390625 -1.421875 36.625000 -1.421875 
Q 22.796875 -1.421875 15.734375 5.859375 
Q 8.687500 13.140625 8.687500 27.390625 
z
" id="BitstreamVeraSans-Roman-55"/>
     </defs>
     <g transform="translate(529.1734375 202.058375)scale(0.12 -0.12)">
      <use xlink:href="#BitstreamVeraSans-Roman-55"/>
     </g>
    </g>
    <g id="line2d_50">
     <path d="M 499.173438 215.472125 
L 515.973438 215.472125 
" style="fill:none;opacity:0.5;stroke:#348abd;stroke-linecap:square;stroke-width:2.0;"/>
    </g>
    <g id="line2d_51"/>
    <g id="text_20">
     <!-- V -->
     <defs>
      <path d="M 28.609375 0.000000 
L 0.781250 72.906250 
L 11.078125 72.906250 
L 34.187500 11.531250 
L 57.328125 72.906250 
L 67.578125 72.906250 
L 39.796875 0.000000 
z
" id="BitstreamVeraSans-Roman-56"/>
     </defs>
     <g transform="translate(529.1734375 219.672125)scale(0.12 -0.12)">
      <use xlink:href="#BitstreamVeraSans-Roman-56"/>
     </g>
    </g>
   </g>
  </g>
 </g>
 <defs>
  <clipPath id="pdd263db176">
   <rect height="209.25" width="502.2" x="46.5559375" y="23.71775"/>
  </clipPath>
 </defs>
</svg>
