<?xml version="1.0" encoding="utf-8" standalone="no"?>
<!DOCTYPE svg PUBLIC "-//W3C//DTD SVG 1.1//EN"
  "http://www.w3.org/Graphics/SVG/1.1/DTD/svg11.dtd">
<!-- Created with matplotlib (http://matplotlib.org/) -->
<svg height="272pt" version="1.1" viewBox="0 0 285 272" width="285pt" xmlns="http://www.w3.org/2000/svg" xmlns:xlink="http://www.w3.org/1999/xlink">
 <defs>
  <style type="text/css">
*{stroke-linecap:butt;stroke-linejoin:round;stroke-miterlimit:100000;}
  </style>
 </defs>
 <g id="figure_1">
  <g id="patch_1">
   <path d="M 0.000000 272.813125 
L 285.717422 272.813125 
L 285.717422 0.000000 
L 0.000000 0.000000 
L 0.000000 272.813125 
z
" style="fill:none;"/>
  </g>
  <g id="axes_1">
   <g id="line2d_1">
    <path clip-path="url(#pbb35c01bc8)" d="M 87.341059 44.459158 
L 83.687419 44.205023 
L 80.405189 43.735099 
L 78.103512 43.199591 
L 76.304218 42.557930 
L 75.280175 41.986892 
L 74.657156 41.381792 
L 74.464000 40.915786 
L 74.509523 40.447493 
L 74.793007 39.984297 
L 75.309981 39.533504 
L 76.347881 38.963985 
L 77.756901 38.445070 
L 79.979042 37.889559 
L 82.621596 37.459970 
L 86.183994 37.136676 
L 89.960934 37.041724 
L 93.715097 37.181080 
L 97.210595 37.545987 
L 99.766649 38.006227 
L 101.878304 38.587289 
L 103.453269 39.263779 
L 104.279699 39.853918 
L 104.630513 40.314309 
L 104.744263 40.781898 
L 104.619154 41.249311 
L 104.257159 41.709177 
L 103.416406 42.298087 
L 102.188639 42.844220 
L 100.163039 43.443576 
L 97.675715 43.926116 
L 94.835375 44.270751 
L 91.136539 44.481536 
L 87.341059 44.459158 
L 83.687419 44.205023 
L 80.405189 43.735099 
L 78.103512 43.199591 
L 76.304218 42.557930 
L 75.280175 41.986892 
L 74.657156 41.381792 
L 74.464000 40.915786 
L 74.509523 40.447493 
L 74.793007 39.984297 
L 75.309981 39.533504 
L 76.347881 38.963985 
L 77.756901 38.445070 
L 79.979042 37.889559 
L 82.621596 37.459970 
L 86.183994 37.136676 
L 89.960934 37.041724 
L 93.715097 37.181080 
L 97.210595 37.545987 
L 99.766649 38.006227 
L 101.878304 38.587289 
L 103.453269 39.263779 
L 104.279699 39.853918 
L 104.630513 40.314309 
L 104.744263 40.781898 
L 104.619154 41.249311 
L 104.257159 41.709177 
L 103.416406 42.298087 
L 102.188639 42.844220 
L 100.163039 43.443576 
L 97.675715 43.926116 
L 94.835375 44.270751 
L 91.136539 44.481536 
L 87.341059 44.459158 
L 83.687419 44.205023 
L 80.405189 43.735099 
L 78.103512 43.199591 
L 76.304218 42.557930 
L 75.280175 41.986892 
L 74.657156 41.381792 
L 74.464000 40.915786 
L 74.509523 40.447493 
L 74.793007 39.984297 
L 75.309981 39.533504 
L 76.347881 38.963985 
L 77.756901 38.445070 
L 79.979042 37.889559 
L 82.621596 37.459970 
L 86.183994 37.136676 
L 89.960934 37.041724 
L 93.715097 37.181080 
L 97.210595 37.545987 
L 99.766649 38.006227 
L 101.878304 38.587289 
L 103.453269 39.263779 
L 104.279699 39.853918 
L 104.630513 40.314309 
L 104.744263 40.781898 
L 104.619154 41.249311 
L 104.257159 41.709177 
L 103.416406 42.298087 
L 102.188639 42.844220 
L 100.163039 43.443576 
L 97.675715 43.926116 
L 94.835375 44.270751 
L 91.136539 44.481536 
L 87.341059 44.459158 
L 83.687419 44.205023 
L 80.405189 43.735099 
L 78.103512 43.199591 
L 76.304218 42.557930 
L 75.280175 41.986892 
L 74.657156 41.381792 
L 74.464000 40.915786 
L 74.509523 40.447493 
L 74.793007 39.984297 
L 75.309981 39.533504 
L 76.347881 38.963985 
L 77.756901 38.445070 
L 79.979042 37.889559 
L 82.621596 37.459970 
L 86.183994 37.136676 
L 89.960934 37.041724 
L 93.715097 37.181080 
L 97.210595 37.545987 
L 99.766649 38.006227 
L 101.878304 38.587289 
L 103.453269 39.263779 
L 104.279699 39.853918 
L 104.630513 40.314309 
L 104.744263 40.781898 
L 104.619154 41.249311 
L 104.257159 41.709177 
L 103.416406 42.298087 
L 102.188639 42.844220 
L 100.163039 43.443576 
L 97.675715 43.926116 
L 94.835375 44.270751 
L 91.136539 44.481536 
L 87.970200 44.479203 
L 87.970200 44.479203 
" style="fill:none;opacity:0.75;stroke:#fffff0;stroke-linecap:square;stroke-width:2.0;"/>
   </g>
   <g id="line2d_2">
    <path clip-path="url(#pbb35c01bc8)" d="M 87.341059 81.022293 
L 83.108655 80.767807 
L 79.909208 80.365118 
L 77.318571 79.818316 
L 75.743606 79.277124 
L 74.917176 78.805013 
L 74.501939 78.312359 
L 74.467795 77.937678 
L 74.672271 77.565107 
L 75.112141 77.200524 
L 76.052293 76.736746 
L 77.756901 76.211023 
L 79.979042 75.766615 
L 83.190662 75.367705 
L 86.804907 75.138688 
L 91.226675 75.104785 
L 95.509456 75.324129 
L 98.791686 75.700069 
L 101.496270 76.225017 
L 103.184881 76.752740 
L 104.110929 77.217619 
L 104.630513 77.706414 
L 104.744263 78.080486 
L 104.619154 78.454416 
L 104.257159 78.822309 
L 103.416406 79.293437 
L 102.188639 79.730343 
L 100.163039 80.209828 
L 97.132105 80.660287 
L 93.627803 80.948086 
L 89.870321 81.055142 
L 85.481778 80.943284 
L 81.986280 80.651358 
L 78.969081 80.197334 
L 76.619765 79.609740 
L 75.280175 79.044481 
L 74.657156 78.560401 
L 74.464000 78.187596 
L 74.509523 77.812961 
L 74.793007 77.442405 
L 75.532887 76.964753 
L 76.666715 76.518101 
L 78.588627 76.022325 
L 81.521160 75.547255 
L 84.961218 75.230796 
L 88.692650 75.092833 
L 93.101119 75.168386 
L 96.655598 75.431216 
L 99.766649 75.859949 
L 102.238795 76.427645 
L 103.697352 76.981356 
L 104.422712 77.459871 
L 104.694936 77.830755 
L 104.729080 78.205437 
L 104.524604 78.578007 
L 104.084734 78.942591 
L 103.144582 79.406369 
L 101.439974 79.932092 
L 99.217833 80.376500 
L 96.006213 80.775410 
L 92.391968 81.004427 
L 87.970200 81.038329 
L 83.687419 80.818985 
L 80.405189 80.443046 
L 77.700605 79.918098 
L 76.011994 79.390375 
L 75.085946 78.925496 
L 74.566362 78.436700 
L 74.452612 78.062629 
L 74.577721 77.688699 
L 74.939716 77.320806 
L 75.780469 76.849678 
L 77.008236 76.412772 
L 79.033836 75.933287 
L 82.064770 75.482828 
L 85.569072 75.195029 
L 89.326554 75.087973 
L 93.715097 75.199831 
L 97.210595 75.491756 
L 100.227794 75.945780 
L 102.577110 76.533375 
L 103.916700 77.098634 
L 104.539719 77.582714 
L 104.732875 77.955519 
L 104.687352 78.330153 
L 104.403868 78.700710 
L 103.663988 79.178362 
L 102.530160 79.625014 
L 100.608248 80.120790 
L 97.675715 80.595860 
L 94.235657 80.912319 
L 90.504225 81.050282 
L 86.095756 80.974729 
L 82.541277 80.711899 
L 79.430226 80.283166 
L 76.958080 79.715470 
L 75.499523 79.161759 
L 74.774163 78.683244 
L 74.501939 78.312359 
L 74.467795 77.937678 
L 74.672271 77.565107 
L 75.112141 77.200524 
L 76.052293 76.736746 
L 77.756901 76.211023 
L 79.979042 75.766615 
L 83.190662 75.367705 
L 86.804907 75.138688 
L 91.226675 75.104785 
L 95.509456 75.324129 
L 98.791686 75.700069 
L 101.496270 76.225017 
L 103.184881 76.752740 
L 104.110929 77.217619 
L 104.630513 77.706414 
L 104.744263 78.080486 
L 104.619154 78.454416 
L 104.257159 78.822309 
L 103.416406 79.293437 
L 102.188639 79.730343 
L 100.163039 80.209828 
L 97.132105 80.660287 
L 93.627803 80.948086 
L 89.870321 81.055142 
L 87.970200 81.038329 
L 87.970200 81.038329 
" style="fill:none;opacity:0.75;stroke:#fffff0;stroke-linecap:square;stroke-width:2.0;"/>
   </g>
   <g id="line2d_3">
    <path clip-path="url(#pbb35c01bc8)" d="M 87.341059 117.585429 
L 82.541277 117.352633 
L 78.969081 116.966710 
L 76.619765 116.526014 
L 75.280175 116.102070 
L 74.657156 115.739010 
L 74.464000 115.459406 
L 74.509523 115.178430 
L 74.793007 114.900513 
L 75.532887 114.542274 
L 77.008236 114.128288 
L 79.497579 113.704709 
L 83.190662 113.344488 
L 87.430720 113.157369 
L 92.480996 113.175234 
L 96.655598 113.392121 
L 100.227794 113.778044 
L 102.577110 114.218740 
L 103.916700 114.642684 
L 104.539719 115.005745 
L 104.732875 115.285348 
L 104.687352 115.566324 
L 104.403868 115.844241 
L 103.663988 116.202480 
L 102.188639 116.616466 
L 99.699296 117.040045 
L 96.006213 117.400267 
L 91.766155 117.587385 
L 86.715879 117.569520 
L 82.541277 117.352633 
L 78.969081 116.966710 
L 76.619765 116.526014 
L 75.280175 116.102070 
L 74.657156 115.739010 
L 74.464000 115.459406 
L 74.509523 115.178430 
L 74.793007 114.900513 
L 75.532887 114.542274 
L 77.008236 114.128288 
L 79.497579 113.704709 
L 83.190662 113.344488 
L 87.430720 113.157369 
L 92.480996 113.175234 
L 96.655598 113.392121 
L 100.227794 113.778044 
L 102.577110 114.218740 
L 103.916700 114.642684 
L 104.539719 115.005745 
L 104.732875 115.285348 
L 104.687352 115.566324 
L 104.403868 115.844241 
L 103.663988 116.202480 
L 102.188639 116.616466 
L 99.699296 117.040045 
L 96.006213 117.400267 
L 91.766155 117.587385 
L 86.715879 117.569520 
L 82.541277 117.352633 
L 78.969081 116.966710 
L 76.619765 116.526014 
L 75.280175 116.102070 
L 74.657156 115.739010 
L 74.464000 115.459406 
L 74.509523 115.178430 
L 74.793007 114.900513 
L 75.532887 114.542274 
L 77.008236 114.128288 
L 79.497579 113.704709 
L 83.190662 113.344488 
L 87.430720 113.157369 
L 92.480996 113.175234 
L 96.655598 113.392121 
L 100.227794 113.778044 
L 102.577110 114.218740 
L 103.916700 114.642684 
L 104.539719 115.005745 
L 104.732875 115.285348 
L 104.687352 115.566324 
L 104.403868 115.844241 
L 103.663988 116.202480 
L 102.188639 116.616466 
L 99.699296 117.040045 
L 96.006213 117.400267 
L 91.766155 117.587385 
L 86.715879 117.569520 
L 82.541277 117.352633 
L 78.969081 116.966710 
L 76.619765 116.526014 
L 75.280175 116.102070 
L 74.657156 115.739010 
L 74.464000 115.459406 
L 74.509523 115.178430 
L 74.793007 114.900513 
L 75.532887 114.542274 
L 77.008236 114.128288 
L 79.497579 113.704709 
L 83.190662 113.344488 
L 87.430720 113.157369 
L 92.480996 113.175234 
L 96.655598 113.392121 
L 100.227794 113.778044 
L 102.577110 114.218740 
L 103.916700 114.642684 
L 104.539719 115.005745 
L 104.732875 115.285348 
L 104.687352 115.566324 
L 104.403868 115.844241 
L 103.663988 116.202480 
L 102.188639 116.616466 
L 99.699296 117.040045 
L 96.006213 117.400267 
L 91.766155 117.587385 
L 87.970200 117.597456 
L 87.970200 117.597456 
" style="fill:none;opacity:0.75;stroke:#fffff0;stroke-linecap:square;stroke-width:2.0;"/>
   </g>
   <g id="line2d_4">
    <path clip-path="url(#pbb35c01bc8)" d="M 87.341059 154.148565 
L 81.986280 153.963097 
L 77.700605 153.596467 
L 75.499523 153.218298 
L 74.566362 152.855768 
L 74.467795 152.606257 
L 74.672271 152.419972 
L 75.309981 152.178303 
L 77.008236 151.843804 
L 79.979042 151.520725 
L 84.361500 151.273191 
L 89.960934 151.181591 
L 95.509456 151.299483 
L 100.227794 151.610308 
L 103.184881 152.013788 
L 104.422712 152.367354 
L 104.732875 152.615177 
L 104.687352 152.802495 
L 104.257159 153.048572 
L 103.144582 153.340603 
L 101.034142 153.651497 
L 97.132105 153.967561 
L 91.766155 154.149869 
L 86.095756 154.124782 
L 80.917298 153.895825 
L 77.318571 153.546576 
L 75.280175 153.159659 
L 74.566362 152.855768 
L 74.467795 152.606257 
L 74.672271 152.419972 
L 75.309981 152.178303 
L 77.008236 151.843804 
L 79.979042 151.520725 
L 84.361500 151.273191 
L 89.960934 151.181591 
L 95.509456 151.299483 
L 100.227794 151.610308 
L 103.184881 152.013788 
L 104.422712 152.367354 
L 104.732875 152.615177 
L 104.687352 152.802495 
L 104.257159 153.048572 
L 103.144582 153.340603 
L 101.034142 153.651497 
L 97.132105 153.967561 
L 91.766155 154.149869 
L 86.095756 154.124782 
L 80.917298 153.895825 
L 77.318571 153.546576 
L 75.280175 153.159659 
L 74.566362 152.855768 
L 74.467795 152.606257 
L 74.672271 152.419972 
L 75.309981 152.178303 
L 77.008236 151.843804 
L 79.979042 151.520725 
L 84.361500 151.273191 
L 89.960934 151.181591 
L 95.509456 151.299483 
L 100.227794 151.610308 
L 103.184881 152.013788 
L 104.422712 152.367354 
L 104.732875 152.615177 
L 104.687352 152.802495 
L 104.257159 153.048572 
L 103.144582 153.340603 
L 101.034142 153.651497 
L 97.132105 153.967561 
L 91.766155 154.149869 
L 86.095756 154.124782 
L 80.917298 153.895825 
L 77.318571 153.546576 
L 75.280175 153.159659 
L 74.566362 152.855768 
L 74.467795 152.606257 
L 74.672271 152.419972 
L 75.309981 152.178303 
L 77.008236 151.843804 
L 79.979042 151.520725 
L 84.361500 151.273191 
L 89.960934 151.181591 
L 95.509456 151.299483 
L 100.227794 151.610308 
L 103.184881 152.013788 
L 104.422712 152.367354 
L 104.732875 152.615177 
L 104.687352 152.802495 
L 104.257159 153.048572 
L 103.144582 153.340603 
L 101.034142 153.651497 
L 97.132105 153.967561 
L 91.766155 154.149869 
L 87.970200 154.156583 
L 87.970200 154.156583 
" style="fill:none;opacity:0.75;stroke:#fffff0;stroke-linecap:square;stroke-width:2.0;"/>
   </g>
   <g id="line2d_5">
    <path clip-path="url(#pbb35c01bc8)" d="M 87.341059 190.711700 
L 79.909208 190.547407 
L 75.743606 190.275408 
L 74.501939 190.034217 
L 74.467795 189.940546 
L 74.509523 189.909367 
L 75.112141 189.756258 
L 77.008236 189.559320 
L 81.521160 189.342941 
L 88.692650 189.229335 
L 96.655598 189.313931 
L 102.238795 189.563038 
L 104.539719 189.851806 
L 104.744263 189.976248 
L 104.729080 190.007486 
L 104.403868 190.131305 
L 103.144582 190.307719 
L 99.699296 190.529906 
L 93.627803 190.693148 
L 85.481778 190.691948 
L 78.526585 190.483070 
L 75.085946 190.187501 
L 74.452612 189.971784 
L 74.577721 189.878302 
L 75.309981 189.726570 
L 77.756901 189.508883 
L 83.190662 189.298053 
L 91.226675 189.232323 
L 98.791686 189.381144 
L 103.453269 189.672625 
L 104.694936 189.913816 
L 104.729080 190.007486 
L 104.687352 190.038665 
L 104.084734 190.191775 
L 102.188639 190.388713 
L 97.675715 190.605092 
L 90.504225 190.718698 
L 82.541277 190.634102 
L 76.958080 190.384995 
L 74.657156 190.096227 
L 74.452612 189.971784 
L 74.467795 189.940546 
L 74.793007 189.816728 
L 76.052293 189.640313 
L 79.497579 189.418127 
L 85.569072 189.254884 
L 93.715097 189.256085 
L 100.670290 189.464962 
L 104.110929 189.760532 
L 104.744263 189.976248 
L 104.619154 190.069731 
L 103.886894 190.221463 
L 101.439974 190.439150 
L 96.006213 190.649980 
L 87.970200 190.715709 
L 80.405189 190.566889 
L 75.743606 190.275408 
L 74.501939 190.034217 
L 74.467795 189.940546 
L 74.509523 189.909367 
L 75.112141 189.756258 
L 77.008236 189.559320 
L 81.521160 189.342941 
L 88.692650 189.229335 
L 96.655598 189.313931 
L 102.238795 189.563038 
L 104.539719 189.851806 
L 104.744263 189.976248 
L 104.729080 190.007486 
L 104.403868 190.131305 
L 103.144582 190.307719 
L 99.699296 190.529906 
L 93.627803 190.693148 
L 87.970200 190.715709 
L 87.970200 190.715709 
" style="fill:none;opacity:0.75;stroke:#fffff0;stroke-linecap:square;stroke-width:2.0;"/>
   </g>
   <g id="line2d_6">
    <path clip-path="url(#pbb35c01bc8)" d="M 87.341059 190.711700 
L 79.909208 190.547407 
L 75.743606 190.275408 
L 74.501939 190.034217 
L 74.467795 189.940546 
L 74.509523 189.909367 
L 75.112141 189.756258 
L 77.008236 189.559320 
L 81.521160 189.342941 
L 88.692650 189.229335 
L 96.655598 189.313931 
L 102.238795 189.563038 
L 104.539719 189.851806 
L 104.744263 189.976248 
L 104.729080 190.007486 
L 104.403868 190.131305 
L 103.144582 190.307719 
L 99.699296 190.529906 
L 93.627803 190.693148 
L 85.481778 190.691948 
L 78.526585 190.483070 
L 75.085946 190.187501 
L 74.452612 189.971784 
L 74.577721 189.878302 
L 75.309981 189.726570 
L 77.756901 189.508883 
L 83.190662 189.298053 
L 91.226675 189.232323 
L 98.791686 189.381144 
L 103.453269 189.672625 
L 104.694936 189.913816 
L 104.729080 190.007486 
L 104.687352 190.038665 
L 104.084734 190.191775 
L 102.188639 190.388713 
L 97.675715 190.605092 
L 90.504225 190.718698 
L 82.541277 190.634102 
L 76.958080 190.384995 
L 74.657156 190.096227 
L 74.452612 189.971784 
L 74.467795 189.940546 
L 74.793007 189.816728 
L 76.052293 189.640313 
L 79.497579 189.418127 
L 85.569072 189.254884 
L 93.715097 189.256085 
L 100.670290 189.464962 
L 104.110929 189.760532 
L 104.744263 189.976248 
L 104.619154 190.069731 
L 103.886894 190.221463 
L 101.439974 190.439150 
L 96.006213 190.649980 
L 87.970200 190.715709 
L 80.405189 190.566889 
L 75.743606 190.275408 
L 74.501939 190.034217 
L 74.467795 189.940546 
L 74.509523 189.909367 
L 75.112141 189.756258 
L 77.008236 189.559320 
L 81.521160 189.342941 
L 88.692650 189.229335 
L 96.655598 189.313931 
L 102.238795 189.563038 
L 104.539719 189.851806 
L 104.744263 189.976248 
L 104.729080 190.007486 
L 104.403868 190.131305 
L 103.144582 190.307719 
L 99.699296 190.529906 
L 93.627803 190.693148 
L 87.970200 190.715709 
L 87.970200 190.715709 
" style="fill:none;opacity:0.75;stroke:#fffff0;stroke-linecap:square;stroke-width:2.0;"/>
   </g>
   <g id="line2d_7">
    <path clip-path="url(#pbb35c01bc8)" d="M 87.341059 227.274836 
L 74.452612 227.274836 
L 86.183994 227.274836 
L 86.183994 227.274836 
L 104.744263 227.274836 
L 86.715879 227.274836 
L 86.715879 227.274836 
L 74.452612 227.274836 
L 86.183994 227.274836 
L 86.183994 227.274836 
L 104.744263 227.274836 
L 86.715879 227.274836 
L 86.715879 227.274836 
L 74.452612 227.274836 
L 86.183994 227.274836 
L 86.183994 227.274836 
L 104.744263 227.274836 
L 86.715879 227.274836 
L 86.715879 227.274836 
L 74.452612 227.274836 
L 86.183994 227.274836 
L 86.183994 227.274836 
L 104.744263 227.274836 
L 87.970200 227.274836 
" style="fill:none;opacity:0.75;stroke:#fffff0;stroke-linecap:square;stroke-width:2.0;"/>
   </g>
   <g id="line2d_8">
    <path clip-path="url(#pbb35c01bc8)" d="M 162.104688 37.040656 
L 165.871318 37.157843 
L 169.401277 37.502042 
L 172.001326 37.947084 
L 174.168845 38.515533 
L 175.809101 39.182546 
L 176.692645 39.767645 
L 177.088101 40.225836 
L 177.247259 40.692621 
L 177.167610 41.160637 
L 176.850410 41.622505 
L 176.300660 42.070940 
L 175.221416 42.635779 
L 173.774799 43.148381 
L 171.512525 43.693979 
L 168.839084 44.111816 
L 165.253696 44.419308 
L 161.470443 44.497548 
L 157.727043 44.341618 
L 154.258706 43.961317 
L 151.736610 43.489850 
L 149.667649 42.899546 
L 148.142247 42.216203 
L 147.358965 41.622505 
L 147.041765 41.160637 
L 146.962116 40.692621 
L 147.121274 40.225836 
L 147.516730 39.767645 
L 148.400274 39.182546 
L 149.667649 38.641929 
L 151.736610 38.051625 
L 154.258706 37.580159 
L 157.123708 37.248136 
L 160.837312 37.053738 
L 164.630549 37.092892 
L 168.265077 37.363138 
L 171.512525 37.847497 
L 173.774799 38.393094 
L 175.527032 39.042606 
L 176.509288 39.618079 
L 177.088101 40.225836 
L 177.247259 40.692621 
L 177.167610 41.160637 
L 176.850410 41.622505 
L 176.300660 42.070940 
L 175.221416 42.635779 
L 173.774799 43.148381 
L 171.512525 43.693979 
L 168.839084 44.111816 
L 165.253696 44.419308 
L 161.470443 44.497548 
L 157.727043 44.341618 
L 154.258706 43.961317 
L 151.736610 43.489850 
L 149.667649 42.899546 
L 148.142247 42.216203 
L 147.358965 41.622505 
L 147.041765 41.160637 
L 146.962116 40.692621 
L 147.121274 40.225836 
L 147.516730 39.767645 
L 148.400274 39.182546 
L 149.667649 38.641929 
L 151.736610 38.051625 
L 154.258706 37.580159 
L 157.123708 37.248136 
L 160.837312 37.053738 
L 164.630549 37.092892 
L 168.265077 37.363138 
L 171.512525 37.847497 
L 173.774799 38.393094 
L 175.527032 39.042606 
L 176.509288 39.618079 
L 177.088101 40.225836 
L 177.247259 40.692621 
L 177.167610 41.160637 
L 176.850410 41.622505 
L 176.300660 42.070940 
L 175.221416 42.635779 
L 173.774799 43.148381 
L 171.512525 43.693979 
L 168.839084 44.111816 
L 165.253696 44.419308 
L 161.470443 44.497548 
L 157.727043 44.341618 
L 154.258706 43.961317 
L 151.736610 43.489850 
L 149.667649 42.899546 
L 148.142247 42.216203 
L 147.358965 41.622505 
L 147.041765 41.160637 
L 146.962116 40.692621 
L 147.121274 40.225836 
L 147.516730 39.767645 
L 148.400274 39.182546 
L 149.667649 38.641929 
L 151.736610 38.051625 
L 154.258706 37.580159 
L 157.123708 37.248136 
L 160.837312 37.053738 
L 164.630549 37.092892 
L 168.265077 37.363138 
L 171.512525 37.847497 
L 173.774799 38.393094 
L 175.527032 39.042606 
L 176.509288 39.618079 
L 177.088101 40.225836 
L 177.247259 40.692621 
L 177.167610 41.160637 
L 176.850410 41.622505 
L 176.300660 42.070940 
L 175.221416 42.635779 
L 173.774799 43.148381 
L 171.512525 43.693979 
L 168.839084 44.111816 
L 165.253696 44.419308 
L 161.470443 44.497548 
L 157.727043 44.341618 
L 154.258706 43.961317 
L 151.736610 43.489850 
L 149.667649 42.899546 
L 148.142247 42.216203 
L 147.358965 41.622505 
L 147.041765 41.160637 
L 146.962116 40.692621 
L 147.121274 40.225836 
L 147.516730 39.767645 
L 148.400274 39.182546 
L 149.667649 38.641929 
L 151.736610 38.051625 
L 154.258706 37.580159 
L 157.123708 37.248136 
L 160.837312 37.053738 
L 161.470443 37.043928 
L 161.470443 37.043928 
" style="fill:none;opacity:0.75;stroke:#fffff0;stroke-linecap:square;stroke-width:2.0;"/>
   </g>
   <g id="line2d_9">
    <path clip-path="url(#pbb35c01bc8)" d="M 162.104688 75.087492 
L 166.482332 75.214853 
L 169.950669 75.519094 
L 172.926014 75.983716 
L 174.892788 76.472615 
L 176.300660 77.031396 
L 176.982305 77.512399 
L 177.220694 77.884186 
L 177.220694 78.258928 
L 176.982305 78.630716 
L 176.300660 79.111719 
L 175.221416 79.563590 
L 173.360280 80.068287 
L 171.007220 80.485717 
L 167.680263 80.846071 
L 164.002971 81.032093 
L 159.578826 81.013834 
L 155.944298 80.797637 
L 152.696850 80.410150 
L 150.040530 79.875721 
L 148.400274 79.342111 
L 147.516730 78.874032 
L 147.041765 78.383477 
L 146.962116 78.009064 
L 147.121274 77.635636 
L 147.516730 77.269083 
L 148.400274 76.801004 
L 150.040530 76.267394 
L 152.208049 75.812634 
L 155.370291 75.398695 
L 158.955679 75.152701 
L 162.738932 75.090109 
L 167.085667 75.253476 
L 170.486297 75.586066 
L 173.360280 76.074828 
L 175.221416 76.579525 
L 176.509288 77.149430 
L 177.088101 77.635636 
L 177.247259 78.009064 
L 177.167610 78.383477 
L 176.850410 78.752971 
L 176.067128 79.227929 
L 174.892788 79.670500 
L 172.926014 80.159399 
L 169.950669 80.624020 
L 166.482332 80.928262 
L 162.738932 81.053005 
L 158.338057 80.961873 
L 154.808098 80.686514 
L 151.736610 80.246848 
L 149.316587 79.670500 
L 147.908715 79.111719 
L 147.227070 78.630716 
L 146.988681 78.258928 
L 146.988681 77.884186 
L 147.227070 77.512399 
L 147.908715 77.031396 
L 148.987959 76.579525 
L 150.849095 76.074828 
L 153.202155 75.657398 
L 156.529112 75.297043 
L 160.206404 75.111022 
L 164.630549 75.129281 
L 168.265077 75.345478 
L 171.512525 75.732965 
L 174.168845 76.267394 
L 175.809101 76.801004 
L 176.692645 77.269083 
L 177.167610 77.759638 
L 177.247259 78.134051 
L 177.088101 78.507479 
L 176.692645 78.874032 
L 175.809101 79.342111 
L 174.168845 79.875721 
L 172.001326 80.330480 
L 168.839084 80.744420 
L 165.253696 80.990414 
L 161.470443 81.053005 
L 157.123708 80.889638 
L 153.723078 80.557049 
L 150.849095 80.068287 
L 148.987959 79.563590 
L 147.700087 78.993684 
L 147.121274 78.507479 
L 146.962116 78.134051 
L 147.041765 77.759638 
L 147.358965 77.390143 
L 148.142247 76.915185 
L 149.316587 76.472615 
L 151.283361 75.983716 
L 154.258706 75.519094 
L 157.727043 75.214853 
L 161.470443 75.090109 
L 165.871318 75.181242 
L 169.401277 75.456601 
L 172.472765 75.896267 
L 174.892788 76.472615 
L 176.300660 77.031396 
L 176.982305 77.512399 
L 177.220694 77.884186 
L 177.220694 78.258928 
L 176.982305 78.630716 
L 176.300660 79.111719 
L 175.221416 79.563590 
L 173.360280 80.068287 
L 171.007220 80.485717 
L 167.680263 80.846071 
L 164.002971 81.032093 
L 159.578826 81.013834 
L 155.944298 80.797637 
L 152.696850 80.410150 
L 150.040530 79.875721 
L 148.400274 79.342111 
L 147.516730 78.874032 
L 147.041765 78.383477 
L 146.962116 78.009064 
L 147.121274 77.635636 
L 147.516730 77.269083 
L 148.400274 76.801004 
L 150.040530 76.267394 
L 152.208049 75.812634 
L 155.370291 75.398695 
L 158.955679 75.152701 
L 161.470443 75.090109 
L 161.470443 75.090109 
" style="fill:none;opacity:0.75;stroke:#fffff0;stroke-linecap:square;stroke-width:2.0;"/>
   </g>
   <g id="line2d_10">
    <path clip-path="url(#pbb35c01bc8)" d="M 162.104688 113.134328 
L 167.085667 113.258816 
L 171.007220 113.561757 
L 174.168845 114.019254 
L 176.067128 114.505098 
L 176.982305 114.953008 
L 177.247259 115.325507 
L 177.167610 115.606317 
L 176.850410 115.883438 
L 176.067128 116.239656 
L 174.541726 116.649662 
L 172.001326 117.066569 
L 168.265077 117.416937 
L 164.002971 117.592779 
L 158.955679 117.561519 
L 154.808098 117.333594 
L 151.283361 116.938258 
L 148.987959 116.491402 
L 147.700087 116.063972 
L 147.121274 115.699318 
L 146.962116 115.419247 
L 147.041765 115.138437 
L 147.358965 114.861317 
L 148.142247 114.505098 
L 149.667649 114.095092 
L 152.208049 113.678185 
L 155.944298 113.327817 
L 160.206404 113.151976 
L 165.253696 113.183235 
L 169.401277 113.411160 
L 172.926014 113.806496 
L 175.221416 114.253352 
L 176.509288 114.680782 
L 177.088101 115.045436 
L 177.247259 115.325507 
L 177.167610 115.606317 
L 176.850410 115.883438 
L 176.067128 116.239656 
L 174.541726 116.649662 
L 172.001326 117.066569 
L 168.265077 117.416937 
L 164.002971 117.592779 
L 158.955679 117.561519 
L 154.808098 117.333594 
L 151.283361 116.938258 
L 148.987959 116.491402 
L 147.700087 116.063972 
L 147.121274 115.699318 
L 146.962116 115.419247 
L 147.041765 115.138437 
L 147.358965 114.861317 
L 148.142247 114.505098 
L 149.667649 114.095092 
L 152.208049 113.678185 
L 155.944298 113.327817 
L 160.206404 113.151976 
L 165.253696 113.183235 
L 169.401277 113.411160 
L 172.926014 113.806496 
L 175.221416 114.253352 
L 176.509288 114.680782 
L 177.088101 115.045436 
L 177.247259 115.325507 
L 177.167610 115.606317 
L 176.850410 115.883438 
L 176.067128 116.239656 
L 174.541726 116.649662 
L 172.001326 117.066569 
L 168.265077 117.416937 
L 164.002971 117.592779 
L 158.955679 117.561519 
L 154.808098 117.333594 
L 151.283361 116.938258 
L 148.987959 116.491402 
L 147.700087 116.063972 
L 147.121274 115.699318 
L 146.962116 115.419247 
L 147.041765 115.138437 
L 147.358965 114.861317 
L 148.142247 114.505098 
L 149.667649 114.095092 
L 152.208049 113.678185 
L 155.944298 113.327817 
L 160.206404 113.151976 
L 165.253696 113.183235 
L 169.401277 113.411160 
L 172.926014 113.806496 
L 175.221416 114.253352 
L 176.509288 114.680782 
L 177.088101 115.045436 
L 177.247259 115.325507 
L 177.167610 115.606317 
L 176.850410 115.883438 
L 176.067128 116.239656 
L 174.541726 116.649662 
L 172.001326 117.066569 
L 168.265077 117.416937 
L 164.002971 117.592779 
L 158.955679 117.561519 
L 154.808098 117.333594 
L 151.283361 116.938258 
L 148.987959 116.491402 
L 147.700087 116.063972 
L 147.121274 115.699318 
L 146.962116 115.419247 
L 147.041765 115.138437 
L 147.358965 114.861317 
L 148.142247 114.505098 
L 149.667649 114.095092 
L 152.208049 113.678185 
L 155.944298 113.327817 
L 160.206404 113.151976 
L 161.470443 113.136291 
L 161.470443 113.136291 
" style="fill:none;opacity:0.75;stroke:#fffff0;stroke-linecap:square;stroke-width:2.0;"/>
   </g>
   <g id="line2d_11">
    <path clip-path="url(#pbb35c01bc8)" d="M 162.104688 151.181164 
L 167.680263 151.285940 
L 172.472765 151.585552 
L 175.527032 151.981944 
L 176.850410 152.332490 
L 177.220694 152.579511 
L 177.220694 152.766882 
L 176.982305 152.952776 
L 176.300660 153.193278 
L 174.541726 153.524720 
L 171.512525 153.842493 
L 167.085667 154.082237 
L 161.470443 154.163921 
L 155.944298 154.036236 
L 151.283361 153.717117 
L 148.400274 153.308473 
L 147.227070 152.952776 
L 146.962116 152.704443 
L 147.041765 152.517237 
L 147.516730 152.271960 
L 148.682343 151.981944 
L 150.849095 151.674832 
L 154.808098 151.365718 
L 160.206404 151.192929 
L 165.871318 151.228039 
L 171.007220 151.466117 
L 174.541726 151.821673 
L 176.509288 152.212133 
L 177.167610 152.517237 
L 177.247259 152.704443 
L 177.088101 152.891157 
L 176.509288 153.134260 
L 175.221416 153.419213 
L 172.472765 153.760842 
L 168.265077 154.036236 
L 162.738932 154.163921 
L 157.123708 154.082237 
L 152.208049 153.802658 
L 148.987959 153.419213 
L 147.516730 153.074434 
L 146.988681 152.766882 
L 146.988681 152.579511 
L 147.227070 152.393618 
L 147.908715 152.153116 
L 149.667649 151.821673 
L 152.696850 151.503900 
L 157.123708 151.264156 
L 162.738932 151.182473 
L 168.265077 151.310157 
L 172.926014 151.629276 
L 175.809101 152.037920 
L 176.982305 152.393618 
L 177.247259 152.641950 
L 177.167610 152.829157 
L 176.692645 153.074434 
L 175.527032 153.364450 
L 173.360280 153.671562 
L 169.401277 153.980675 
L 164.002971 154.153464 
L 158.338057 154.118355 
L 153.202155 153.880277 
L 149.667649 153.524720 
L 147.700087 153.134260 
L 147.041765 152.829157 
L 146.962116 152.641950 
L 147.121274 152.455236 
L 147.700087 152.212133 
L 148.987959 151.927180 
L 151.736610 151.585552 
L 155.944298 151.310157 
L 161.470443 151.182473 
L 167.085667 151.264156 
L 172.001326 151.543735 
L 175.221416 151.927180 
L 176.692645 152.271960 
L 177.220694 152.579511 
L 177.220694 152.766882 
L 176.982305 152.952776 
L 176.300660 153.193278 
L 174.541726 153.524720 
L 171.512525 153.842493 
L 167.085667 154.082237 
L 161.470443 154.163921 
L 155.944298 154.036236 
L 151.283361 153.717117 
L 148.400274 153.308473 
L 147.227070 152.952776 
L 146.962116 152.704443 
L 147.041765 152.517237 
L 147.516730 152.271960 
L 148.682343 151.981944 
L 150.849095 151.674832 
L 154.808098 151.365718 
L 160.206404 151.192929 
L 161.470443 151.182473 
L 161.470443 151.182473 
" style="fill:none;opacity:0.75;stroke:#fffff0;stroke-linecap:square;stroke-width:2.0;"/>
   </g>
   <g id="line2d_12">
    <path clip-path="url(#pbb35c01bc8)" d="M 162.104688 189.228000 
L 169.950669 189.335901 
L 175.221416 189.601008 
L 177.088101 189.865036 
L 177.247259 189.989640 
L 177.220694 190.020859 
L 176.850410 190.144370 
L 175.221416 190.347025 
L 171.512525 190.558665 
L 164.630549 190.709586 
L 156.529112 190.667645 
L 150.040530 190.425057 
L 147.358965 190.144370 
L 146.962116 189.958393 
L 147.121274 189.865036 
L 147.908715 189.713976 
L 150.434576 189.498488 
L 155.944298 189.292497 
L 164.002971 189.233883 
L 171.512525 189.389368 
L 176.067128 189.684923 
L 177.220694 189.927174 
L 177.220694 190.020859 
L 176.850410 190.144370 
L 175.221416 190.347025 
L 171.512525 190.558665 
L 164.630549 190.709586 
L 156.529112 190.667645 
L 150.040530 190.425057 
L 147.358965 190.144370 
L 146.962116 189.958393 
L 147.121274 189.865036 
L 147.908715 189.713976 
L 150.434576 189.498488 
L 155.944298 189.292497 
L 164.002971 189.233883 
L 171.512525 189.389368 
L 176.067128 189.684923 
L 177.220694 189.927174 
L 177.220694 190.020859 
L 176.850410 190.144370 
L 175.221416 190.347025 
L 171.512525 190.558665 
L 164.630549 190.709586 
L 156.529112 190.667645 
L 150.040530 190.425057 
L 147.358965 190.144370 
L 146.962116 189.958393 
L 147.121274 189.865036 
L 147.908715 189.713976 
L 150.434576 189.498488 
L 155.944298 189.292497 
L 164.002971 189.233883 
L 171.512525 189.389368 
L 176.067128 189.684923 
L 177.220694 189.927174 
L 177.220694 190.020859 
L 176.850410 190.144370 
L 175.221416 190.347025 
L 171.512525 190.558665 
L 164.630549 190.709586 
L 156.529112 190.667645 
L 150.040530 190.425057 
L 147.358965 190.144370 
L 146.962116 189.958393 
L 147.121274 189.865036 
L 147.908715 189.713976 
L 150.434576 189.498488 
L 155.944298 189.292497 
L 161.470443 189.228654 
L 161.470443 189.228654 
" style="fill:none;opacity:0.75;stroke:#fffff0;stroke-linecap:square;stroke-width:2.0;"/>
   </g>
   <g id="line2d_13">
    <path clip-path="url(#pbb35c01bc8)" d="M 162.104688 189.228000 
L 169.950669 189.335901 
L 175.221416 189.601008 
L 177.088101 189.865036 
L 177.247259 189.989640 
L 177.220694 190.020859 
L 176.850410 190.144370 
L 175.221416 190.347025 
L 171.512525 190.558665 
L 164.630549 190.709586 
L 156.529112 190.667645 
L 150.040530 190.425057 
L 147.358965 190.144370 
L 146.962116 189.958393 
L 147.121274 189.865036 
L 147.908715 189.713976 
L 150.434576 189.498488 
L 155.944298 189.292497 
L 164.002971 189.233883 
L 171.512525 189.389368 
L 176.067128 189.684923 
L 177.220694 189.927174 
L 177.220694 190.020859 
L 176.850410 190.144370 
L 175.221416 190.347025 
L 171.512525 190.558665 
L 164.630549 190.709586 
L 156.529112 190.667645 
L 150.040530 190.425057 
L 147.358965 190.144370 
L 146.962116 189.958393 
L 147.121274 189.865036 
L 147.908715 189.713976 
L 150.434576 189.498488 
L 155.944298 189.292497 
L 164.002971 189.233883 
L 171.512525 189.389368 
L 176.067128 189.684923 
L 177.220694 189.927174 
L 177.220694 190.020859 
L 176.850410 190.144370 
L 175.221416 190.347025 
L 171.512525 190.558665 
L 164.630549 190.709586 
L 156.529112 190.667645 
L 150.040530 190.425057 
L 147.358965 190.144370 
L 146.962116 189.958393 
L 147.121274 189.865036 
L 147.908715 189.713976 
L 150.434576 189.498488 
L 155.944298 189.292497 
L 164.002971 189.233883 
L 171.512525 189.389368 
L 176.067128 189.684923 
L 177.220694 189.927174 
L 177.220694 190.020859 
L 176.850410 190.144370 
L 175.221416 190.347025 
L 171.512525 190.558665 
L 164.630549 190.709586 
L 156.529112 190.667645 
L 150.040530 190.425057 
L 147.358965 190.144370 
L 146.962116 189.958393 
L 147.121274 189.865036 
L 147.908715 189.713976 
L 150.434576 189.498488 
L 155.944298 189.292497 
L 161.470443 189.228654 
L 161.470443 189.228654 
" style="fill:none;opacity:0.75;stroke:#fffff0;stroke-linecap:square;stroke-width:2.0;"/>
   </g>
   <g id="line2d_14">
    <path clip-path="url(#pbb35c01bc8)" d="M 162.104688 227.274836 
L 177.247259 227.274836 
L 163.372063 227.274836 
L 163.372063 227.274836 
L 146.962116 227.274836 
L 163.372063 227.274836 
L 163.372063 227.274836 
L 177.247259 227.274836 
L 163.372063 227.274836 
L 163.372063 227.274836 
L 146.962116 227.274836 
L 163.372063 227.274836 
L 163.372063 227.274836 
L 177.247259 227.274836 
L 163.372063 227.274836 
L 163.372063 227.274836 
L 146.962116 227.274836 
L 163.372063 227.274836 
L 163.372063 227.274836 
L 177.247259 227.274836 
L 163.372063 227.274836 
L 163.372063 227.274836 
L 146.962116 227.274836 
L 161.470443 227.274836 
" style="fill:none;opacity:0.75;stroke:#fffff0;stroke-linecap:square;stroke-width:2.0;"/>
   </g>
   <g id="line2d_15">
    <path clip-path="url(#pbb35c01bc8)" d="M 236.868316 44.459158 
L 233.072836 44.481536 
L 229.374000 44.270751 
L 226.004221 43.840047 
L 223.601127 43.332279 
L 221.679215 42.712558 
L 220.545387 42.154243 
L 219.805507 41.557178 
L 219.522023 41.093983 
L 219.476500 40.625689 
L 219.669656 40.159683 
L 220.098446 39.703314 
L 221.024494 39.122216 
L 222.331071 38.587289 
L 224.442726 38.006227 
L 226.998780 37.545987 
L 230.494278 37.181080 
L 234.248441 37.041724 
L 238.025381 37.136676 
L 241.587779 37.459970 
L 244.711796 37.991291 
L 246.837531 38.569231 
L 248.428906 39.243388 
L 249.269659 39.832298 
L 249.631654 40.292164 
L 249.756763 40.759577 
L 249.643013 41.227166 
L 249.292199 41.687557 
L 248.465769 42.277696 
L 247.251295 42.825629 
L 245.240294 43.427959 
L 242.764738 43.914156 
L 239.932823 44.262971 
L 236.239175 44.479203 
L 232.443220 44.462418 
L 228.783470 44.213672 
L 225.489881 43.748594 
L 223.175233 43.216488 
L 221.360381 42.577490 
L 220.322481 42.007971 
L 219.684771 41.403800 
L 219.480295 40.938087 
L 219.514439 40.469735 
L 219.786663 40.006130 
L 220.292675 39.554583 
L 221.316718 38.983545 
L 222.713105 38.462562 
L 224.921708 37.903787 
L 227.553777 37.470311 
L 231.108256 37.141773 
L 234.882821 37.041257 
L 238.640303 37.175077 
L 242.144605 37.534826 
L 244.711796 37.991291 
L 246.837531 38.569231 
L 248.428906 39.243388 
L 249.269659 39.832298 
L 249.631654 40.292164 
L 249.756763 40.759577 
L 249.643013 41.227166 
L 249.292199 41.687557 
L 248.465769 42.277696 
L 247.251295 42.825629 
L 245.240294 43.427959 
L 242.764738 43.914156 
L 239.932823 44.262971 
L 236.239175 44.479203 
L 232.443220 44.462418 
L 228.783470 44.213672 
L 225.489881 43.748594 
L 223.175233 43.216488 
L 221.360381 42.577490 
L 220.322481 42.007971 
L 219.684771 41.403800 
L 219.480295 40.938087 
L 219.514439 40.469735 
L 219.786663 40.006130 
L 220.292675 39.554583 
L 221.316718 38.983545 
L 222.713105 38.462562 
L 224.921708 37.903787 
L 227.553777 37.470311 
L 231.108256 37.141773 
L 234.882821 37.041257 
L 238.640303 37.175077 
L 242.144605 37.534826 
L 244.711796 37.991291 
L 246.837531 38.569231 
L 248.428906 39.243388 
L 249.269659 39.832298 
L 249.631654 40.292164 
L 249.756763 40.759577 
L 249.643013 41.227166 
L 249.292199 41.687557 
L 248.465769 42.277696 
L 247.251295 42.825629 
L 245.240294 43.427959 
L 242.764738 43.914156 
L 239.932823 44.262971 
L 236.239175 44.479203 
L 232.443220 44.462418 
L 228.783470 44.213672 
L 225.489881 43.748594 
L 223.175233 43.216488 
L 221.360381 42.577490 
L 220.322481 42.007971 
L 219.684771 41.403800 
L 219.480295 40.938087 
L 219.514439 40.469735 
L 219.786663 40.006130 
L 220.292675 39.554583 
L 221.316718 38.983545 
L 222.713105 38.462562 
L 224.921708 37.903787 
L 227.553777 37.470311 
L 231.108256 37.141773 
L 234.882821 37.041257 
L 238.640303 37.175077 
L 242.144605 37.534826 
L 244.711796 37.991291 
L 246.837531 38.569231 
L 248.428906 39.243388 
L 249.269659 39.832298 
L 249.631654 40.292164 
L 249.756763 40.759577 
L 249.643013 41.227166 
L 249.292199 41.687557 
L 248.465769 42.277696 
L 247.251295 42.825629 
L 245.240294 43.427959 
L 242.764738 43.914156 
L 239.932823 44.262971 
L 237.493496 44.432642 
L 237.493496 44.432642 
" style="fill:none;opacity:0.75;stroke:#fffff0;stroke-linecap:square;stroke-width:2.0;"/>
   </g>
   <g id="line2d_16">
    <path clip-path="url(#pbb35c01bc8)" d="M 236.868316 81.022293 
L 232.443220 81.024902 
L 228.203162 80.775410 
L 224.991542 80.376500 
L 222.384344 79.832762 
L 220.792969 79.293437 
L 219.952216 78.822309 
L 219.522023 78.330153 
L 219.476500 77.955519 
L 219.669656 77.582714 
L 220.098446 77.217619 
L 221.024494 76.752740 
L 222.713105 76.225017 
L 224.921708 75.777997 
L 228.121155 75.375308 
L 231.728379 75.142034 
L 236.149039 75.102919 
L 240.438405 75.317210 
L 243.731994 75.689272 
L 246.452474 76.211023 
L 248.157082 76.736746 
L 249.097234 77.200524 
L 249.631654 77.688699 
L 249.756763 78.062629 
L 249.643013 78.436700 
L 249.292199 78.805013 
L 248.465769 79.277124 
L 247.251295 79.715470 
L 245.240294 80.197334 
L 242.223095 80.651358 
L 238.727597 80.943284 
L 234.973434 81.054768 
L 230.581572 80.948086 
L 227.077270 80.660287 
L 224.046336 80.209828 
L 221.679215 79.625014 
L 220.322481 79.061344 
L 219.684771 78.578007 
L 219.480295 78.205437 
L 219.514439 77.830755 
L 219.786663 77.459871 
L 220.512023 76.981356 
L 221.632265 76.533375 
L 223.539085 76.035342 
L 226.457137 75.556823 
L 229.887522 75.236314 
L 233.614696 75.093954 
L 238.025381 75.164308 
L 241.587779 75.422943 
L 244.711796 75.848000 
L 247.201139 76.412772 
L 248.676488 76.964753 
L 249.416368 77.442405 
L 249.699852 77.812961 
L 249.745375 78.187596 
L 249.552219 78.560401 
L 249.123429 78.925496 
L 248.197381 79.390375 
L 246.508770 79.918098 
L 244.300167 80.365118 
L 241.100720 80.767807 
L 237.493496 81.001081 
L 233.072836 81.040196 
L 228.783470 80.825905 
L 225.489881 80.453842 
L 222.769401 79.932092 
L 221.064793 79.406369 
L 220.124641 78.942591 
L 219.590221 78.454416 
L 219.465112 78.080486 
L 219.578862 77.706414 
L 219.929676 77.338102 
L 220.756106 76.865990 
L 221.970580 76.427645 
L 223.981581 75.945780 
L 226.998780 75.491756 
L 230.494278 75.199831 
L 234.248441 75.088347 
L 238.640303 75.195029 
L 242.144605 75.482828 
L 245.175539 75.933287 
L 247.542660 76.518101 
L 248.899394 77.081770 
L 249.537104 77.565107 
L 249.741580 77.937678 
L 249.707436 78.312359 
L 249.435212 78.683244 
L 248.709852 79.161759 
L 247.589610 79.609740 
L 245.682790 80.107773 
L 242.764738 80.586292 
L 239.334353 80.906801 
L 235.607179 81.049161 
L 231.196494 80.978806 
L 227.634096 80.720172 
L 224.510079 80.295115 
L 222.020736 79.730343 
L 220.545387 79.178362 
L 219.805507 78.700710 
L 219.522023 78.330153 
L 219.476500 77.955519 
L 219.669656 77.582714 
L 220.098446 77.217619 
L 221.024494 76.752740 
L 222.713105 76.225017 
L 224.921708 75.777997 
L 228.121155 75.375308 
L 231.728379 75.142034 
L 236.149039 75.102919 
L 240.438405 75.317210 
L 243.731994 75.689272 
L 246.452474 76.211023 
L 248.157082 76.736746 
L 249.097234 77.200524 
L 249.631654 77.688699 
L 249.756763 78.062629 
L 249.643013 78.436700 
L 249.292199 78.805013 
L 248.465769 79.277124 
L 247.251295 79.715470 
L 245.240294 80.197334 
L 242.223095 80.651358 
L 238.727597 80.943284 
L 237.493496 81.001081 
L 237.493496 81.001081 
" style="fill:none;opacity:0.75;stroke:#fffff0;stroke-linecap:square;stroke-width:2.0;"/>
   </g>
   <g id="line2d_17">
    <path clip-path="url(#pbb35c01bc8)" d="M 236.868316 117.585429 
L 231.817407 117.572029 
L 227.634096 117.358838 
L 224.046336 116.976080 
L 221.679215 116.537469 
L 220.322481 116.114717 
L 219.684771 115.752214 
L 219.480295 115.472787 
L 219.514439 115.191775 
L 219.786663 114.913612 
L 220.512023 114.554726 
L 221.970580 114.139443 
L 224.442726 113.713670 
L 228.121155 113.350190 
L 232.353559 113.159325 
L 237.404468 113.172725 
L 241.587779 113.385916 
L 245.175539 113.768674 
L 247.542660 114.207285 
L 248.899394 114.630037 
L 249.537104 114.992540 
L 249.741580 115.271967 
L 249.707436 115.552979 
L 249.435212 115.831142 
L 248.709852 116.190028 
L 247.251295 116.605312 
L 244.779149 117.031084 
L 241.100720 117.394564 
L 236.868316 117.585429 
L 231.817407 117.572029 
L 227.634096 117.358838 
L 224.046336 116.976080 
L 221.679215 116.537469 
L 220.322481 116.114717 
L 219.684771 115.752214 
L 219.480295 115.472787 
L 219.514439 115.191775 
L 219.786663 114.913612 
L 220.512023 114.554726 
L 221.970580 114.139443 
L 224.442726 113.713670 
L 228.121155 113.350190 
L 232.353559 113.159325 
L 237.404468 113.172725 
L 241.587779 113.385916 
L 245.175539 113.768674 
L 247.542660 114.207285 
L 248.899394 114.630037 
L 249.537104 114.992540 
L 249.741580 115.271967 
L 249.707436 115.552979 
L 249.435212 115.831142 
L 248.709852 116.190028 
L 247.251295 116.605312 
L 244.779149 117.031084 
L 241.100720 117.394564 
L 236.868316 117.585429 
L 231.817407 117.572029 
L 227.634096 117.358838 
L 224.046336 116.976080 
L 221.679215 116.537469 
L 220.322481 116.114717 
L 219.684771 115.752214 
L 219.480295 115.472787 
L 219.514439 115.191775 
L 219.786663 114.913612 
L 220.512023 114.554726 
L 221.970580 114.139443 
L 224.442726 113.713670 
L 228.121155 113.350190 
L 232.353559 113.159325 
L 237.404468 113.172725 
L 241.587779 113.385916 
L 245.175539 113.768674 
L 247.542660 114.207285 
L 248.899394 114.630037 
L 249.537104 114.992540 
L 249.741580 115.271967 
L 249.707436 115.552979 
L 249.435212 115.831142 
L 248.709852 116.190028 
L 247.251295 116.605312 
L 244.779149 117.031084 
L 241.100720 117.394564 
L 236.868316 117.585429 
L 231.817407 117.572029 
L 227.634096 117.358838 
L 224.046336 116.976080 
L 221.679215 116.537469 
L 220.322481 116.114717 
L 219.684771 115.752214 
L 219.480295 115.472787 
L 219.514439 115.191775 
L 219.786663 114.913612 
L 220.512023 114.554726 
L 221.970580 114.139443 
L 224.442726 113.713670 
L 228.121155 113.350190 
L 232.353559 113.159325 
L 237.404468 113.172725 
L 241.587779 113.385916 
L 245.175539 113.768674 
L 247.542660 114.207285 
L 248.899394 114.630037 
L 249.537104 114.992540 
L 249.741580 115.271967 
L 249.707436 115.552979 
L 249.435212 115.831142 
L 248.709852 116.190028 
L 247.251295 116.605312 
L 244.779149 117.031084 
L 241.100720 117.394564 
L 237.493496 117.569520 
L 237.493496 117.569520 
" style="fill:none;opacity:0.75;stroke:#fffff0;stroke-linecap:square;stroke-width:2.0;"/>
   </g>
   <g id="line2d_18">
    <path clip-path="url(#pbb35c01bc8)" d="M 236.868316 154.148565 
L 231.196494 154.126821 
L 226.004221 153.900921 
L 222.384344 153.553799 
L 220.322481 153.168090 
L 219.590221 152.864626 
L 219.476500 152.615177 
L 219.669656 152.428775 
L 220.292675 152.186735 
L 221.970580 151.851240 
L 224.921708 151.526416 
L 229.289052 151.276304 
L 234.882821 151.181404 
L 240.438405 151.296023 
L 245.175539 151.604061 
L 248.157082 152.005791 
L 249.416368 152.358620 
L 249.741580 152.606257 
L 249.707436 152.793598 
L 249.292199 153.039925 
L 248.197381 153.332605 
L 246.105863 153.644738 
L 242.223095 153.963097 
L 236.868316 154.148565 
L 231.196494 154.126821 
L 226.004221 153.900921 
L 222.384344 153.553799 
L 220.322481 153.168090 
L 219.590221 152.864626 
L 219.476500 152.615177 
L 219.669656 152.428775 
L 220.292675 152.186735 
L 221.970580 151.851240 
L 224.921708 151.526416 
L 229.289052 151.276304 
L 234.882821 151.181404 
L 240.438405 151.296023 
L 245.175539 151.604061 
L 248.157082 152.005791 
L 249.416368 152.358620 
L 249.741580 152.606257 
L 249.707436 152.793598 
L 249.292199 153.039925 
L 248.197381 153.332605 
L 246.105863 153.644738 
L 242.223095 153.963097 
L 236.868316 154.148565 
L 231.196494 154.126821 
L 226.004221 153.900921 
L 222.384344 153.553799 
L 220.322481 153.168090 
L 219.590221 152.864626 
L 219.476500 152.615177 
L 219.669656 152.428775 
L 220.292675 152.186735 
L 221.970580 151.851240 
L 224.921708 151.526416 
L 229.289052 151.276304 
L 234.882821 151.181404 
L 240.438405 151.296023 
L 245.175539 151.604061 
L 248.157082 152.005791 
L 249.416368 152.358620 
L 249.741580 152.606257 
L 249.707436 152.793598 
L 249.292199 153.039925 
L 248.197381 153.332605 
L 246.105863 153.644738 
L 242.223095 153.963097 
L 236.868316 154.148565 
L 231.196494 154.126821 
L 226.004221 153.900921 
L 222.384344 153.553799 
L 220.322481 153.168090 
L 219.590221 152.864626 
L 219.476500 152.615177 
L 219.669656 152.428775 
L 220.292675 152.186735 
L 221.970580 151.851240 
L 224.921708 151.526416 
L 229.289052 151.276304 
L 234.882821 151.181404 
L 240.438405 151.296023 
L 245.175539 151.604061 
L 248.157082 152.005791 
L 249.416368 152.358620 
L 249.741580 152.606257 
L 249.707436 152.793598 
L 249.292199 153.039925 
L 248.197381 153.332605 
L 246.105863 153.644738 
L 242.223095 153.963097 
L 237.493496 154.137958 
L 237.493496 154.137958 
" style="fill:none;opacity:0.75;stroke:#fffff0;stroke-linecap:square;stroke-width:2.0;"/>
   </g>
   <g id="line2d_19">
    <path clip-path="url(#pbb35c01bc8)" d="M 236.868316 190.711700 
L 228.783470 190.662603 
L 222.384344 190.414318 
L 219.805507 190.131305 
L 219.465112 189.976248 
L 219.476500 189.945007 
L 219.786663 189.821095 
L 221.024494 189.644312 
L 224.442726 189.421114 
L 230.494278 189.256085 
L 238.640303 189.254884 
L 245.620748 189.461708 
L 249.097234 189.756258 
L 249.756763 189.971784 
L 249.643013 190.065302 
L 248.929200 190.217247 
L 246.508770 190.435651 
L 241.668098 190.634102 
L 234.339054 190.719913 
L 226.533660 190.605092 
L 221.360381 190.335367 
L 219.590221 190.069731 
L 219.476500 189.945007 
L 219.514439 189.913816 
L 219.929676 189.790652 
L 221.632265 189.589471 
L 225.929798 189.362702 
L 232.982700 189.232323 
L 241.018713 189.298053 
L 246.837531 189.533715 
L 249.416368 189.816728 
L 249.756763 189.971784 
L 249.745375 190.003026 
L 249.435212 190.126938 
L 248.197381 190.303721 
L 244.779149 190.526919 
L 238.727597 190.691948 
L 230.581572 190.693148 
L 223.601127 190.486325 
L 220.124641 190.191775 
L 219.465112 189.976248 
L 219.578862 189.882731 
L 220.292675 189.730785 
L 222.713105 189.512381 
L 227.553777 189.313931 
L 234.882821 189.228120 
L 242.688215 189.342941 
L 247.861494 189.612666 
L 249.631654 189.878302 
L 249.745375 190.003026 
L 249.707436 190.034217 
L 249.292199 190.157380 
L 247.589610 190.358562 
L 243.292077 190.585331 
L 236.239175 190.715709 
L 228.203162 190.649980 
L 222.384344 190.414318 
L 219.805507 190.131305 
L 219.465112 189.976248 
L 219.476500 189.945007 
L 219.786663 189.821095 
L 221.024494 189.644312 
L 224.442726 189.421114 
L 230.494278 189.256085 
L 238.640303 189.254884 
L 245.620748 189.461708 
L 249.097234 189.756258 
L 249.756763 189.971784 
L 249.643013 190.065302 
L 248.929200 190.217247 
L 246.508770 190.435651 
L 241.668098 190.634102 
L 237.493496 190.706397 
L 237.493496 190.706397 
" style="fill:none;opacity:0.75;stroke:#fffff0;stroke-linecap:square;stroke-width:2.0;"/>
   </g>
   <g id="line2d_20">
    <path clip-path="url(#pbb35c01bc8)" d="M 236.868316 190.711700 
L 228.783470 190.662603 
L 222.384344 190.414318 
L 219.805507 190.131305 
L 219.465112 189.976248 
L 219.476500 189.945007 
L 219.786663 189.821095 
L 221.024494 189.644312 
L 224.442726 189.421114 
L 230.494278 189.256085 
L 238.640303 189.254884 
L 245.620748 189.461708 
L 249.097234 189.756258 
L 249.756763 189.971784 
L 249.643013 190.065302 
L 248.929200 190.217247 
L 246.508770 190.435651 
L 241.668098 190.634102 
L 234.339054 190.719913 
L 226.533660 190.605092 
L 221.360381 190.335367 
L 219.590221 190.069731 
L 219.476500 189.945007 
L 219.514439 189.913816 
L 219.929676 189.790652 
L 221.632265 189.589471 
L 225.929798 189.362702 
L 232.982700 189.232323 
L 241.018713 189.298053 
L 246.837531 189.533715 
L 249.416368 189.816728 
L 249.756763 189.971784 
L 249.745375 190.003026 
L 249.435212 190.126938 
L 248.197381 190.303721 
L 244.779149 190.526919 
L 238.727597 190.691948 
L 230.581572 190.693148 
L 223.601127 190.486325 
L 220.124641 190.191775 
L 219.465112 189.976248 
L 219.578862 189.882731 
L 220.292675 189.730785 
L 222.713105 189.512381 
L 227.553777 189.313931 
L 234.882821 189.228120 
L 242.688215 189.342941 
L 247.861494 189.612666 
L 249.631654 189.878302 
L 249.745375 190.003026 
L 249.707436 190.034217 
L 249.292199 190.157380 
L 247.589610 190.358562 
L 243.292077 190.585331 
L 236.239175 190.715709 
L 228.203162 190.649980 
L 222.384344 190.414318 
L 219.805507 190.131305 
L 219.465112 189.976248 
L 219.476500 189.945007 
L 219.786663 189.821095 
L 221.024494 189.644312 
L 224.442726 189.421114 
L 230.494278 189.256085 
L 238.640303 189.254884 
L 245.620748 189.461708 
L 249.097234 189.756258 
L 249.756763 189.971784 
L 249.643013 190.065302 
L 248.929200 190.217247 
L 246.508770 190.435651 
L 241.668098 190.634102 
L 237.493496 190.706397 
L 237.493496 190.706397 
" style="fill:none;opacity:0.75;stroke:#fffff0;stroke-linecap:square;stroke-width:2.0;"/>
   </g>
   <g id="line2d_21">
    <path clip-path="url(#pbb35c01bc8)" d="M 236.868316 227.274836 
L 219.465112 227.274836 
L 236.149039 227.274836 
L 236.149039 227.274836 
L 249.756763 227.274836 
L 236.239175 227.274836 
L 236.239175 227.274836 
L 219.465112 227.274836 
L 236.149039 227.274836 
L 236.149039 227.274836 
L 249.756763 227.274836 
L 236.239175 227.274836 
L 236.239175 227.274836 
L 219.465112 227.274836 
L 236.149039 227.274836 
L 236.149039 227.274836 
L 249.756763 227.274836 
L 236.239175 227.274836 
L 236.239175 227.274836 
L 219.465112 227.274836 
L 236.149039 227.274836 
L 236.149039 227.274836 
L 249.756763 227.274836 
L 237.493496 227.274836 
" style="fill:none;opacity:0.75;stroke:#fffff0;stroke-linecap:square;stroke-width:2.0;"/>
   </g>
   <g id="line2d_22">
    <path clip-path="url(#pbb35c01bc8)" d="M 53.345312 37.040656 
L 55.524131 37.157843 
L 57.702950 37.502042 
L 60.244906 38.160936 
L 63.149997 39.182546 
L 67.507635 41.004951 
L 71.865273 42.769416 
L 74.770365 43.693979 
L 76.949184 44.178337 
L 79.128002 44.448584 
L 81.306821 44.487738 
L 83.485640 44.293339 
L 85.664459 43.877602 
L 88.206414 43.148381 
L 91.111506 42.070940 
L 101.279328 38.051625 
L 103.821283 37.429659 
L 106.000102 37.122167 
L 108.178921 37.043928 
L 110.357739 37.199858 
L 112.536558 37.580159 
L 115.078514 38.274826 
L 117.983605 39.325273 
L 123.430653 41.622505 
L 127.062017 43.025942 
L 129.603973 43.788437 
L 131.782792 44.238880 
L 133.961610 44.471407 
L 136.140429 44.471407 
L 138.319248 44.238880 
L 140.498067 43.788437 
L 143.040022 43.025942 
L 146.308251 41.773831 
L 154.660390 38.393094 
L 157.202345 37.663873 
L 159.381164 37.248136 
L 161.559983 37.053738 
L 163.738802 37.092892 
L 165.917621 37.363138 
L 168.096439 37.847497 
L 170.638395 38.641929 
L 173.906623 39.918970 
L 181.532489 43.025942 
L 184.074444 43.788437 
L 186.253263 44.238880 
L 188.432082 44.471407 
L 190.610901 44.471407 
L 192.789720 44.238880 
L 194.968539 43.788437 
L 197.510494 43.025942 
L 200.778722 41.773831 
L 209.130861 38.393094 
L 211.672817 37.663873 
L 213.851636 37.248136 
L 216.030454 37.053738 
L 218.209273 37.092892 
L 220.388092 37.363138 
L 222.566911 37.847497 
L 225.108866 38.641929 
L 228.377095 39.918970 
L 236.002961 43.025942 
L 238.544916 43.788437 
L 240.723735 44.238880 
L 242.902554 44.471407 
L 245.081373 44.471407 
L 247.260191 44.238880 
L 249.439010 43.788437 
L 251.980966 43.025942 
L 255.249194 41.773831 
L 263.601333 38.393094 
L 266.143288 37.663873 
L 268.322107 37.248136 
L 270.500926 37.053738 
L 270.864063 37.043928 
L 270.864063 37.043928 
" style="fill:none;opacity:0.75;stroke:#ff8c00;stroke-linecap:square;stroke-width:4.0;"/>
   </g>
   <g id="patch_2">
    <path d="M 269.842061 26.166213 
Q 263.095627 30.877616 259.835918 37.557003 
" style="fill:none;stroke:#fffff0;stroke-linecap:round;"/>
    <path d="M 263.387633 34.839408 
L 259.835918 37.557003 
L 259.792871 33.085074 
" style="fill:none;stroke:#fffff0;stroke-linecap:round;"/>
   </g>
   <g id="text_1">
    <!-- $\eta$ -->
    <defs>
     <path d="M 10.687500 -1.125000 
Q 9.468750 -1.125000 8.593750 -0.343750 
Q 7.718750 0.437500 7.718750 1.703125 
Q 7.718750 2.296875 7.812500 2.593750 
L 15.281250 32.421875 
Q 16.015625 35.203125 16.015625 37.312500 
Q 16.015625 41.609375 13.093750 41.609375 
Q 9.968750 41.609375 8.453125 37.859375 
Q 6.937500 34.125000 5.515625 28.421875 
Q 5.515625 28.125000 5.218750 27.953125 
Q 4.937500 27.781250 4.687500 27.781250 
L 3.515625 27.781250 
Q 3.171875 27.781250 2.921875 28.140625 
Q 2.687500 28.515625 2.687500 28.812500 
Q 3.765625 33.156250 4.765625 36.171875 
Q 5.765625 39.203125 7.890625 41.687500 
Q 10.015625 44.187500 13.187500 44.187500 
Q 16.890625 44.187500 19.796875 41.843750 
Q 22.703125 39.500000 22.703125 35.796875 
Q 25.640625 39.703125 29.593750 41.937500 
Q 33.546875 44.187500 38.187500 44.187500 
Q 43.406250 44.187500 46.546875 41.375000 
Q 49.703125 38.578125 49.703125 33.406250 
Q 49.703125 30.421875 49.031250 27.875000 
L 37.406250 -18.406250 
Q 37.109375 -19.828125 35.937500 -20.703125 
Q 34.765625 -21.578125 33.296875 -21.578125 
Q 32.078125 -21.578125 31.203125 -20.812500 
Q 30.328125 -20.062500 30.328125 -18.796875 
Q 30.328125 -18.218750 30.421875 -18.015625 
L 41.890625 28.078125 
Q 42.921875 32.171875 42.921875 34.906250 
Q 42.921875 37.703125 41.750000 39.656250 
Q 40.578125 41.609375 37.984375 41.609375 
Q 28.171875 41.609375 21.687500 29.500000 
L 14.890625 2.203125 
Q 14.546875 0.828125 13.343750 -0.140625 
Q 12.156250 -1.125000 10.687500 -1.125000 
" id="Cmmi10-b4"/>
    </defs>
    <g style="fill:#fffff0;" transform="translate(273.517422266 25.380837969)scale(0.1 -0.1)">
     <use transform="translate(0.0 0.8125)" xlink:href="#Cmmi10-b4"/>
    </g>
   </g>
   <g id="text_2">
    <!-- H $\leq \frac{L}{20}$ -->
    <defs>
     <path d="M 9.812500 72.906250 
L 19.671875 72.906250 
L 19.671875 43.015625 
L 55.515625 43.015625 
L 55.515625 72.906250 
L 65.375000 72.906250 
L 65.375000 0.000000 
L 55.515625 0.000000 
L 55.515625 34.718750 
L 19.671875 34.718750 
L 19.671875 0.000000 
L 9.812500 0.000000 
z
" id="BitstreamVeraSans-Roman-48"/>
     <path d="M 25.000000 -2.203125 
Q 12.750000 -2.203125 8.328125 7.875000 
Q 3.906250 17.968750 3.906250 31.890625 
Q 3.906250 40.578125 5.484375 48.234375 
Q 7.078125 55.906250 11.781250 61.250000 
Q 16.500000 66.609375 25.000000 66.609375 
Q 31.593750 66.609375 35.781250 63.375000 
Q 39.984375 60.156250 42.187500 55.046875 
Q 44.390625 49.953125 45.187500 44.109375 
Q 46.000000 38.281250 46.000000 31.890625 
Q 46.000000 23.296875 44.406250 15.796875 
Q 42.828125 8.296875 38.187500 3.046875 
Q 33.546875 -2.203125 25.000000 -2.203125 
M 25.000000 0.390625 
Q 30.562500 0.390625 33.296875 6.093750 
Q 36.031250 11.812500 36.671875 18.750000 
Q 37.312500 25.687500 37.312500 33.500000 
Q 37.312500 41.015625 36.671875 47.359375 
Q 36.031250 53.718750 33.312500 58.859375 
Q 30.609375 64.015625 25.000000 64.015625 
Q 19.343750 64.015625 16.609375 58.828125 
Q 13.875000 53.656250 13.234375 47.328125 
Q 12.593750 41.015625 12.593750 33.500000 
Q 12.593750 27.937500 12.859375 23.000000 
Q 13.140625 18.062500 14.312500 12.812500 
Q 15.484375 7.562500 18.093750 3.968750 
Q 20.703125 0.390625 25.000000 0.390625 
" id="Cmr10-30"/>
     <path d="M 4.687500 0.000000 
Q 3.718750 0.000000 3.718750 1.312500 
Q 3.765625 1.562500 3.906250 2.171875 
Q 4.046875 2.781250 4.312500 3.140625 
Q 4.593750 3.515625 4.984375 3.515625 
Q 11.078125 3.515625 13.484375 4.203125 
Q 14.796875 4.640625 15.375000 6.890625 
L 29.109375 61.812500 
Q 29.296875 62.796875 29.296875 63.187500 
Q 29.296875 64.265625 28.078125 64.406250 
Q 26.218750 64.796875 20.906250 64.796875 
Q 19.921875 64.796875 19.921875 66.109375 
Q 20.265625 67.390625 20.453125 67.843750 
Q 20.656250 68.312500 21.578125 68.312500 
L 51.125000 68.312500 
Q 52.000000 68.312500 52.000000 67.000000 
Q 51.859375 65.968750 51.656250 65.375000 
Q 51.468750 64.796875 50.687500 64.796875 
Q 43.312500 64.796875 40.828125 64.312500 
Q 38.375000 63.875000 37.796875 61.375000 
L 24.125000 6.500000 
Q 23.687500 5.281250 23.687500 4.296875 
Q 23.687500 3.515625 27.093750 3.515625 
L 36.375000 3.515625 
Q 44.234375 3.515625 49.109375 6.640625 
Q 54.000000 9.765625 56.343750 13.687500 
Q 58.687500 17.625000 60.265625 21.843750 
Q 61.859375 26.078125 62.593750 26.218750 
L 63.484375 26.218750 
Q 64.500000 26.218750 64.500000 24.906250 
L 55.609375 0.687500 
Q 55.468750 0.000000 54.687500 0.000000 
z
" id="Cmmi10-4c"/>
     <path d="M 4.984375 0.000000 
L 4.984375 2.687500 
Q 4.984375 2.937500 5.171875 3.218750 
L 20.703125 20.406250 
Q 24.218750 24.218750 26.406250 26.796875 
Q 28.609375 29.390625 30.750000 32.765625 
Q 32.906250 36.140625 34.156250 39.625000 
Q 35.406250 43.109375 35.406250 47.015625 
Q 35.406250 51.125000 33.890625 54.859375 
Q 32.375000 58.593750 29.375000 60.843750 
Q 26.375000 63.093750 22.125000 63.093750 
Q 17.781250 63.093750 14.312500 60.468750 
Q 10.843750 57.859375 9.421875 53.718750 
Q 9.812500 53.812500 10.500000 53.812500 
Q 12.750000 53.812500 14.328125 52.296875 
Q 15.921875 50.781250 15.921875 48.390625 
Q 15.921875 46.093750 14.328125 44.500000 
Q 12.750000 42.921875 10.500000 42.921875 
Q 8.156250 42.921875 6.562500 44.546875 
Q 4.984375 46.187500 4.984375 48.390625 
Q 4.984375 52.156250 6.390625 55.437500 
Q 7.812500 58.734375 10.468750 61.296875 
Q 13.140625 63.875000 16.484375 65.234375 
Q 19.828125 66.609375 23.578125 66.609375 
Q 29.296875 66.609375 34.218750 64.187500 
Q 39.156250 61.765625 42.031250 57.343750 
Q 44.921875 52.937500 44.921875 47.015625 
Q 44.921875 42.671875 43.015625 38.765625 
Q 41.109375 34.859375 38.125000 31.656250 
Q 35.156250 28.468750 30.515625 24.406250 
Q 25.875000 20.359375 24.421875 19.000000 
L 13.093750 8.109375 
L 22.703125 8.109375 
Q 29.781250 8.109375 34.546875 8.218750 
Q 39.312500 8.343750 39.593750 8.593750 
Q 40.765625 9.859375 42.000000 17.828125 
L 44.921875 17.828125 
L 42.093750 0.000000 
z
" id="Cmr10-32"/>
     <path d="M 10.203125 -13.718750 
Q 9.375000 -13.718750 8.828125 -13.078125 
Q 8.296875 -12.453125 8.296875 -11.718750 
Q 8.296875 -10.890625 8.828125 -10.296875 
Q 9.375000 -9.718750 10.203125 -9.718750 
L 67.578125 -9.718750 
Q 68.359375 -9.718750 68.875000 -10.296875 
Q 69.390625 -10.890625 69.390625 -11.718750 
Q 69.390625 -12.453125 68.875000 -13.078125 
Q 68.359375 -13.718750 67.578125 -13.718750 
z
M 9.281250 33.015625 
Q 8.296875 33.296875 8.296875 34.718750 
Q 8.296875 35.984375 9.625000 36.531250 
L 66.703125 63.484375 
Q 66.890625 63.625000 67.390625 63.625000 
Q 68.218750 63.625000 68.796875 63.031250 
Q 69.390625 62.453125 69.390625 61.625000 
Q 69.390625 60.296875 68.218750 59.812500 
L 14.984375 34.718750 
L 68.500000 9.421875 
Q 69.390625 8.937500 69.390625 7.718750 
Q 69.390625 6.843750 68.796875 6.281250 
Q 68.218750 5.718750 67.390625 5.718750 
Q 66.890625 5.718750 66.703125 5.906250 
z
" id="Cmsy10-2219"/>
     <path id="BitstreamVeraSans-Roman-20"/>
    </defs>
    <g style="fill:#fffff0;" transform="translate(89.5984375 29.5804918033)scale(0.1 -0.1)">
     <use transform="translate(0.0 0.6812500000000057)" xlink:href="#BitstreamVeraSans-Roman-48"/>
     <use transform="translate(75.1953125 0.6812500000000057)" xlink:href="#BitstreamVeraSans-Roman-20"/>
     <use transform="translate(124.541015625 0.6812500000000057)" xlink:href="#Cmsy10-2219"/>
     <use transform="translate(214.177734375 38.181250000000006)scale(0.7)" xlink:href="#Cmmi10-4c"/>
     <use transform="translate(203.177734375 -39.6953125)scale(0.7)" xlink:href="#Cmr10-32"/>
     <use transform="translate(238.177734375 -39.6953125)scale(0.7)" xlink:href="#Cmr10-30"/>
     <path d="M 203.177734 13.181250 
L 203.177734 19.431250 
L 273.177734 19.431250 
L 273.177734 13.181250 
L 203.177734 13.181250 
z
"/>
    </g>
   </g>
  </g>
 </g>
 <defs>
  <clipPath id="pbb35c01bc8">
   <rect height="227.535" width="217.51875" x="53.3453125" y="7.2"/>
  </clipPath>
 </defs>
</svg>
