<?xml version="1.0" encoding="utf-8" standalone="no"?>
<!DOCTYPE svg PUBLIC "-//W3C//DTD SVG 1.1//EN"
  "http://www.w3.org/Graphics/SVG/1.1/DTD/svg11.dtd">
<!-- Created with matplotlib (http://matplotlib.org/) -->
<svg height="426pt" version="1.1" viewBox="0 0 423 426" width="423pt" xmlns="http://www.w3.org/2000/svg" xmlns:xlink="http://www.w3.org/1999/xlink">
 <defs>
  <style type="text/css">
*{stroke-linecap:butt;stroke-linejoin:round;stroke-miterlimit:100000;}
  </style>
 </defs>
 <g id="figure_1">
  <g id="patch_1">
   <path d="M 0.000000 426.276563 
L 423.742187 426.276563 
L 423.742187 0.000000 
L 0.000000 0.000000 
L 0.000000 426.276563 
z
" style="fill:none;"/>
  </g>
  <g id="axes_1">
   <g id="line2d_1">
    <path clip-path="url(#p435fcf5f6a)" d="M 25.942187 38.615511 
L 33.754187 30.921532 
L 41.566187 25.154832 
L 49.378187 22.759919 
L 57.190187 24.336701 
L 65.002187 29.490206 
L 72.814188 36.929524 
L 80.626188 44.791168 
L 88.438187 51.105860 
L 96.250188 54.291825 
L 104.062187 53.551002 
L 111.874188 49.068963 
L 119.686187 41.968421 
L 127.498188 34.028003 
L 135.310188 27.236717 
L 143.122187 23.295725 
L 150.934188 23.192212 
L 158.746187 26.952107 
L 166.558188 33.633588 
L 174.370187 41.562999 
L 182.182187 48.754089 
L 189.994187 53.405549 
L 197.806187 54.352228 
L 205.618188 51.356989 
L 213.430187 45.170116 
L 221.242188 37.341369 
L 229.054187 29.831784 
L 236.866187 24.522449 
L 244.678188 22.743309 
L 252.490187 24.940024 
L 260.302188 30.562335 
L 268.114188 38.201899 
L 275.926188 45.945070 
L 283.738187 51.852247 
L 291.550187 54.443731 
L 299.362188 53.070378 
L 307.174188 48.076200 
L 314.986187 40.712199 
L 322.798187 32.822994 
L 330.610187 26.384767 
L 338.422188 23.010239 
L 346.234188 23.544703 
L 354.046187 27.854278 
L 361.858187 34.859453 
L 369.670187 42.805490 
L 377.482188 49.701971 
L 385.294188 53.821386 
L 393.106187 54.131856 
L 400.918187 50.555610 
L 408.730187 43.988468 
" style="fill:none;opacity:0.5;stroke:#ff8c00;stroke-linecap:square;stroke-width:3.0;"/>
   </g>
   <g id="line2d_2">
    <path clip-path="url(#p435fcf5f6a)" d="M 25.942187 38.615511 
L 416.542188 38.615511 
" style="fill:none;opacity:0.5;stroke:#c0c0c0;stroke-linecap:square;stroke-width:3.0;"/>
   </g>
   <g id="text_1">
    <!-- M2 -->
    <defs>
     <path d="M 19.187500 8.296875 
L 53.609375 8.296875 
L 53.609375 0.000000 
L 7.328125 0.000000 
L 7.328125 8.296875 
Q 12.937500 14.109375 22.625000 23.890625 
Q 32.328125 33.687500 34.812500 36.531250 
Q 39.546875 41.843750 41.421875 45.531250 
Q 43.312500 49.218750 43.312500 52.781250 
Q 43.312500 58.593750 39.234375 62.250000 
Q 35.156250 65.921875 28.609375 65.921875 
Q 23.968750 65.921875 18.812500 64.312500 
Q 13.671875 62.703125 7.812500 59.421875 
L 7.812500 69.390625 
Q 13.765625 71.781250 18.937500 73.000000 
Q 24.125000 74.218750 28.421875 74.218750 
Q 39.750000 74.218750 46.484375 68.546875 
Q 53.218750 62.890625 53.218750 53.421875 
Q 53.218750 48.921875 51.531250 44.890625 
Q 49.859375 40.875000 45.406250 35.406250 
Q 44.187500 33.984375 37.640625 27.218750 
Q 31.109375 20.453125 19.187500 8.296875 
" id="BitstreamVeraSans-Roman-32"/>
     <path d="M 9.812500 72.906250 
L 24.515625 72.906250 
L 43.109375 23.296875 
L 61.812500 72.906250 
L 76.515625 72.906250 
L 76.515625 0.000000 
L 66.890625 0.000000 
L 66.890625 64.015625 
L 48.093750 14.015625 
L 38.187500 14.015625 
L 19.390625 64.015625 
L 19.390625 0.000000 
L 9.812500 0.000000 
z
" id="BitstreamVeraSans-Roman-4d"/>
    </defs>
    <g style="fill:#fffff0;" transform="translate(57.1901875 14.7984375)scale(0.1 -0.1)">
     <use xlink:href="#BitstreamVeraSans-Roman-4d"/>
     <use x="86.279296875" xlink:href="#BitstreamVeraSans-Roman-32"/>
    </g>
   </g>
  </g>
  <g id="axes_2">
   <g id="line2d_3">
    <path clip-path="url(#pd2ae46fe49)" d="M 25.942187 95.776486 
L 33.754187 98.158194 
L 41.566187 99.901724 
L 49.378187 100.539901 
L 57.190187 99.901724 
L 65.002187 98.158194 
L 72.814188 95.776486 
L 80.626188 93.394779 
L 88.438187 91.651248 
L 96.250188 91.013072 
L 104.062187 91.651248 
L 111.874188 93.394779 
L 119.686187 95.776486 
L 127.498188 98.158194 
L 135.310188 99.901724 
L 143.122187 100.539901 
L 150.934188 99.901724 
L 158.746187 98.158194 
L 166.558188 95.776486 
L 174.370187 93.394779 
L 182.182187 91.651248 
L 189.994187 91.013072 
L 197.806187 91.651248 
L 205.618188 93.394779 
L 213.430187 95.776486 
L 221.242188 98.158194 
L 229.054187 99.901724 
L 236.866187 100.539901 
L 244.678188 99.901724 
L 252.490187 98.158194 
L 260.302188 95.776486 
L 268.114188 93.394779 
L 275.926188 91.651248 
L 283.738187 91.013072 
L 291.550187 91.651248 
L 299.362188 93.394779 
L 307.174188 95.776486 
L 314.986187 98.158194 
L 322.798187 99.901724 
L 330.610187 100.539901 
L 338.422188 99.901724 
L 346.234188 98.158194 
L 354.046187 95.776486 
L 361.858187 93.394779 
L 369.670187 91.651248 
L 377.482188 91.013072 
L 385.294188 91.651248 
L 393.106187 93.394779 
L 400.918187 95.776486 
L 408.730187 98.158194 
" style="fill:none;opacity:0.5;stroke:#ff8c00;stroke-linecap:square;stroke-width:3.0;"/>
   </g>
   <g id="line2d_4">
    <path clip-path="url(#pd2ae46fe49)" d="M 25.942187 95.776486 
L 416.542188 95.776486 
" style="fill:none;opacity:0.5;stroke:#c0c0c0;stroke-linecap:square;stroke-width:3.0;"/>
   </g>
   <g id="text_2">
    <!-- S2 -->
    <defs>
     <path d="M 53.515625 70.515625 
L 53.515625 60.890625 
Q 47.906250 63.578125 42.921875 64.890625 
Q 37.937500 66.218750 33.296875 66.218750 
Q 25.250000 66.218750 20.875000 63.093750 
Q 16.500000 59.968750 16.500000 54.203125 
Q 16.500000 49.359375 19.406250 46.890625 
Q 22.312500 44.437500 30.421875 42.921875 
L 36.375000 41.703125 
Q 47.406250 39.593750 52.656250 34.296875 
Q 57.906250 29.000000 57.906250 20.125000 
Q 57.906250 9.515625 50.796875 4.046875 
Q 43.703125 -1.421875 29.984375 -1.421875 
Q 24.812500 -1.421875 18.968750 -0.250000 
Q 13.140625 0.921875 6.890625 3.218750 
L 6.890625 13.375000 
Q 12.890625 10.015625 18.656250 8.296875 
Q 24.421875 6.593750 29.984375 6.593750 
Q 38.421875 6.593750 43.015625 9.906250 
Q 47.609375 13.234375 47.609375 19.390625 
Q 47.609375 24.750000 44.312500 27.781250 
Q 41.015625 30.812500 33.500000 32.328125 
L 27.484375 33.500000 
Q 16.453125 35.687500 11.515625 40.375000 
Q 6.593750 45.062500 6.593750 53.421875 
Q 6.593750 63.093750 13.406250 68.656250 
Q 20.218750 74.218750 32.171875 74.218750 
Q 37.312500 74.218750 42.625000 73.281250 
Q 47.953125 72.359375 53.515625 70.515625 
" id="BitstreamVeraSans-Roman-53"/>
    </defs>
    <g style="fill:#fffff0;" transform="translate(57.1901875 71.9594131098)scale(0.1 -0.1)">
     <use xlink:href="#BitstreamVeraSans-Roman-53"/>
     <use x="63.4765625" xlink:href="#BitstreamVeraSans-Roman-32"/>
    </g>
   </g>
  </g>
  <g id="axes_3">
   <g id="line2d_5">
    <path clip-path="url(#pf7e635f1d3)" d="M 25.942187 150.604241 
L 33.754187 152.415189 
L 41.566187 154.352193 
L 49.378187 155.947736 
L 57.190187 156.816717 
L 65.002187 156.749397 
L 72.814188 155.762024 
L 80.626188 154.092913 
L 88.438187 152.144921 
L 96.250188 150.388217 
L 104.062187 149.246801 
L 111.874188 148.996167 
L 119.686187 149.696808 
L 127.498188 151.179615 
L 135.310188 153.086699 
L 143.122187 154.957762 
L 150.934188 156.341204 
L 158.746187 156.903115 
L 166.558188 156.507873 
L 174.370187 155.250873 
L 182.182187 153.435505 
L 189.994187 151.499930 
L 197.806187 149.911319 
L 205.618188 149.053100 
L 213.430187 149.132415 
L 221.242188 150.130119 
L 229.054187 151.805407 
L 236.866187 153.753928 
L 244.678188 155.505386 
L 252.490187 156.637048 
L 260.302188 156.875774 
L 268.114188 156.163945 
L 275.926188 154.673369 
L 283.738187 152.763813 
L 291.550187 150.896169 
L 299.362188 149.521213 
L 307.174188 148.970807 
L 314.986187 149.377795 
L 322.798187 150.643949 
L 330.610187 152.463667 
L 338.422188 154.397740 
L 346.234188 155.979359 
L 354.046187 156.826784 
L 361.858187 156.735477 
L 369.670187 155.727478 
L 377.482188 154.046078 
L 385.294188 152.097102 
L 393.106187 150.350955 
L 400.918187 149.229090 
L 408.730187 149.002282 
" style="fill:none;opacity:0.5;stroke:#ff8c00;stroke-linecap:square;stroke-width:3.0;"/>
   </g>
   <g id="line2d_6">
    <path clip-path="url(#pf7e635f1d3)" d="M 25.942187 152.937462 
L 416.542188 152.937462 
" style="fill:none;opacity:0.5;stroke:#c0c0c0;stroke-linecap:square;stroke-width:3.0;"/>
   </g>
   <g id="text_3">
    <!-- N2 -->
    <defs>
     <path d="M 9.812500 72.906250 
L 23.093750 72.906250 
L 55.421875 11.921875 
L 55.421875 72.906250 
L 64.984375 72.906250 
L 64.984375 0.000000 
L 51.703125 0.000000 
L 19.390625 60.984375 
L 19.390625 0.000000 
L 9.812500 0.000000 
z
" id="BitstreamVeraSans-Roman-4e"/>
    </defs>
    <g style="fill:#fffff0;" transform="translate(57.1901875 129.12038872)scale(0.1 -0.1)">
     <use xlink:href="#BitstreamVeraSans-Roman-4e"/>
     <use x="74.8046875" xlink:href="#BitstreamVeraSans-Roman-32"/>
    </g>
   </g>
  </g>
  <g id="axes_4">
   <g id="line2d_7">
    <path clip-path="url(#pbb0031ff28)" d="M 25.942187 210.098437 
L 33.754187 211.334601 
L 41.566187 212.486062 
L 49.378187 213.473923 
L 57.190187 214.230495 
L 65.002187 214.703936 
L 72.814188 214.861808 
L 80.626188 214.693292 
L 88.438187 214.209936 
L 96.250188 213.444858 
L 104.062187 212.450483 
L 111.874188 211.294945 
L 119.686187 210.057422 
L 127.498188 208.822710 
L 135.310188 207.675410 
L 143.122187 206.694137 
L 150.934188 205.946128 
L 158.746187 205.482636 
L 166.558188 205.335420 
L 174.370187 205.514567 
L 182.182187 206.007803 
L 189.994187 206.781329 
L 197.806187 207.782145 
L 205.618188 208.941674 
L 213.430187 210.180465 
L 221.242188 211.413635 
L 229.054187 212.556687 
L 236.866187 213.531300 
L 244.678188 214.270691 
L 252.490187 214.724199 
L 260.302188 214.860749 
L 268.114188 214.670983 
L 275.926188 214.167905 
L 283.738187 213.385987 
L 291.550187 212.378804 
L 299.362188 211.215371 
L 307.174188 209.975404 
L 314.986187 208.743868 
L 322.798187 207.605148 
L 330.610187 206.637268 
L 338.422188 205.906548 
L 346.234188 205.463058 
L 354.046187 205.337186 
L 361.858187 205.537556 
L 369.670187 206.050438 
L 377.482188 206.840691 
L 385.294188 207.854165 
L 393.106187 209.021417 
L 400.918187 210.262468 
L 408.730187 211.492278 
" style="fill:none;opacity:0.5;stroke:#ff8c00;stroke-linecap:square;stroke-width:3.0;"/>
   </g>
   <g id="line2d_8">
    <path clip-path="url(#pbb0031ff28)" d="M 25.942187 210.098437 
L 416.542188 210.098437 
" style="fill:none;opacity:0.5;stroke:#c0c0c0;stroke-linecap:square;stroke-width:3.0;"/>
   </g>
   <g id="text_4">
    <!-- K1 -->
    <defs>
     <path d="M 12.406250 8.296875 
L 28.515625 8.296875 
L 28.515625 63.921875 
L 10.984375 60.406250 
L 10.984375 69.390625 
L 28.421875 72.906250 
L 38.281250 72.906250 
L 38.281250 8.296875 
L 54.390625 8.296875 
L 54.390625 0.000000 
L 12.406250 0.000000 
z
" id="BitstreamVeraSans-Roman-31"/>
     <path d="M 9.812500 72.906250 
L 19.671875 72.906250 
L 19.671875 42.093750 
L 52.390625 72.906250 
L 65.093750 72.906250 
L 28.906250 38.921875 
L 67.671875 0.000000 
L 54.687500 0.000000 
L 19.671875 35.109375 
L 19.671875 0.000000 
L 9.812500 0.000000 
z
" id="BitstreamVeraSans-Roman-4b"/>
    </defs>
    <g style="fill:#fffff0;" transform="translate(57.1901875 186.281364329)scale(0.1 -0.1)">
     <use xlink:href="#BitstreamVeraSans-Roman-4b"/>
     <use x="65.576171875" xlink:href="#BitstreamVeraSans-Roman-31"/>
    </g>
   </g>
  </g>
  <g id="axes_5">
   <g id="line2d_9">
    <path clip-path="url(#pa38f7d63f6)" d="M 25.942187 267.259413 
L 33.754187 268.407189 
L 41.566187 269.487329 
L 49.378187 270.436181 
L 57.190187 271.197833 
L 65.002187 271.727400 
L 72.814188 271.993677 
L 80.626188 271.980972 
L 88.438187 271.690035 
L 96.250188 271.138009 
L 104.062187 270.357424 
L 111.874188 269.394279 
L 119.686187 268.305330 
L 127.498188 267.154747 
L 135.310188 266.010332 
L 143.122187 264.939523 
L 150.934188 264.005421 
L 158.746187 263.263071 
L 166.558188 262.756218 
L 174.370187 262.514731 
L 182.182187 262.552838 
L 189.994187 262.868296 
L 197.806187 263.442514 
L 205.618188 264.241656 
L 213.430187 265.218628 
L 221.242188 266.315860 
L 229.054187 267.468694 
L 236.866187 268.609196 
L 244.678188 269.670157 
L 252.490187 270.589057 
L 260.302188 271.311748 
L 268.114188 271.795641 
L 275.926188 272.012223 
L 283.738187 271.948731 
L 291.550187 271.608905 
L 299.362188 271.012772 
L 307.174188 270.195460 
L 314.986187 269.205132 
L 322.798187 268.100146 
L 330.610187 266.945618 
L 338.422188 265.809581 
L 346.234188 264.758980 
L 354.046187 263.855724 
L 361.858187 263.153043 
L 369.670187 262.692342 
L 377.482188 262.500770 
L 385.294188 262.589617 
L 393.106187 262.953646 
L 400.918187 263.571407 
L 408.730187 264.406495 
" style="fill:none;opacity:0.5;stroke:#ff8c00;stroke-linecap:square;stroke-width:3.0;"/>
   </g>
   <g id="line2d_10">
    <path clip-path="url(#pa38f7d63f6)" d="M 25.942187 267.259413 
L 416.542188 267.259413 
" style="fill:none;opacity:0.5;stroke:#c0c0c0;stroke-linecap:square;stroke-width:3.0;"/>
   </g>
   <g id="text_5">
    <!-- O1 -->
    <defs>
     <path d="M 39.406250 66.218750 
Q 28.656250 66.218750 22.328125 58.203125 
Q 16.015625 50.203125 16.015625 36.375000 
Q 16.015625 22.609375 22.328125 14.593750 
Q 28.656250 6.593750 39.406250 6.593750 
Q 50.140625 6.593750 56.421875 14.593750 
Q 62.703125 22.609375 62.703125 36.375000 
Q 62.703125 50.203125 56.421875 58.203125 
Q 50.140625 66.218750 39.406250 66.218750 
M 39.406250 74.218750 
Q 54.734375 74.218750 63.906250 63.937500 
Q 73.093750 53.656250 73.093750 36.375000 
Q 73.093750 19.140625 63.906250 8.859375 
Q 54.734375 -1.421875 39.406250 -1.421875 
Q 24.031250 -1.421875 14.812500 8.828125 
Q 5.609375 19.093750 5.609375 36.375000 
Q 5.609375 53.656250 14.812500 63.937500 
Q 24.031250 74.218750 39.406250 74.218750 
" id="BitstreamVeraSans-Roman-4f"/>
    </defs>
    <g style="fill:#fffff0;" transform="translate(57.1901875 243.442339939)scale(0.1 -0.1)">
     <use xlink:href="#BitstreamVeraSans-Roman-4f"/>
     <use x="78.7109375" xlink:href="#BitstreamVeraSans-Roman-31"/>
    </g>
   </g>
  </g>
  <g id="axes_6">
   <g id="line2d_11">
    <path clip-path="url(#p4f1b29d531)" d="M 25.942187 324.420389 
L 33.754187 325.649952 
L 41.566187 326.796179 
L 49.378187 327.781380 
L 57.190187 328.538780 
L 65.002187 329.017045 
L 72.814188 329.183759 
L 80.626188 329.027623 
L 88.438187 328.559218 
L 96.250188 327.810293 
L 104.062187 326.831608 
L 111.874188 325.689496 
L 119.686187 324.461366 
L 127.498188 323.230459 
L 135.310188 322.080203 
L 143.122187 321.088560 
L 150.934188 320.322740 
L 158.746187 319.834650 
L 166.558188 319.657371 
L 174.370187 319.802918 
L 182.182187 320.261427 
L 189.994187 321.001822 
L 197.806187 321.973919 
L 205.618188 323.111832 
L 213.430187 324.338437 
L 221.242188 325.570596 
L 229.054187 326.724796 
L 236.866187 327.722809 
L 244.678188 328.496991 
L 252.490187 328.994871 
L 260.302188 329.182702 
L 268.114188 329.047754 
L 275.926188 328.599174 
L 283.738187 327.867365 
L 291.550187 326.901928 
L 299.362188 325.768298 
L 307.174188 324.543309 
L 314.986187 323.309989 
L 322.798187 322.151930 
L 330.610187 321.147622 
L 338.422188 320.365134 
L 346.234188 319.857502 
L 354.046187 319.659133 
L 361.858187 319.783471 
L 369.670187 320.222089 
L 377.482188 320.945258 
L 385.294188 321.903963 
L 393.106187 323.033227 
L 400.918187 324.256509 
L 408.730187 325.490898 
" style="fill:none;opacity:0.5;stroke:#ff8c00;stroke-linecap:square;stroke-width:3.0;"/>
   </g>
   <g id="line2d_12">
    <path clip-path="url(#p4f1b29d531)" d="M 25.942187 324.420389 
L 416.542188 324.420389 
" style="fill:none;opacity:0.5;stroke:#c0c0c0;stroke-linecap:square;stroke-width:3.0;"/>
   </g>
   <g id="text_6">
    <!-- P1 -->
    <defs>
     <path d="M 19.671875 64.796875 
L 19.671875 37.406250 
L 32.078125 37.406250 
Q 38.968750 37.406250 42.718750 40.968750 
Q 46.484375 44.531250 46.484375 51.125000 
Q 46.484375 57.671875 42.718750 61.234375 
Q 38.968750 64.796875 32.078125 64.796875 
z
M 9.812500 72.906250 
L 32.078125 72.906250 
Q 44.343750 72.906250 50.609375 67.359375 
Q 56.890625 61.812500 56.890625 51.125000 
Q 56.890625 40.328125 50.609375 34.812500 
Q 44.343750 29.296875 32.078125 29.296875 
L 19.671875 29.296875 
L 19.671875 0.000000 
L 9.812500 0.000000 
z
" id="BitstreamVeraSans-Roman-50"/>
    </defs>
    <g style="fill:#fffff0;" transform="translate(57.1901875 300.603315549)scale(0.1 -0.1)">
     <use xlink:href="#BitstreamVeraSans-Roman-50"/>
     <use x="60.302734375" xlink:href="#BitstreamVeraSans-Roman-31"/>
    </g>
   </g>
  </g>
  <g id="axes_7">
   <g id="line2d_13">
    <path clip-path="url(#p69bdf412fc)" d="M 25.942187 380.414754 
L 33.754187 380.470844 
L 41.566187 381.116675 
L 49.378187 382.497036 
L 57.190187 384.538640 
L 65.002187 386.950604 
L 72.814188 389.281155 
L 80.626188 391.017889 
L 88.438187 391.708124 
L 96.250188 391.070652 
L 104.062187 389.071799 
L 111.874188 385.946830 
L 119.686187 382.160432 
L 127.498188 378.314379 
L 135.310188 375.023058 
L 143.122187 372.785319 
L 150.934188 371.882230 
L 158.746187 372.324402 
L 166.558188 373.860993 
L 174.370187 376.047949 
L 182.182187 378.358971 
L 189.994187 380.312514 
L 197.806187 381.584202 
L 205.618188 382.077530 
L 213.430187 381.935789 
L 221.242188 381.492401 
L 229.054187 381.172061 
L 236.866187 381.367306 
L 244.678188 382.321645 
L 252.490187 384.049212 
L 260.302188 386.312412 
L 268.114188 388.665016 
L 275.926188 390.552010 
L 283.738187 391.443123 
L 291.550187 390.967908 
L 299.362188 389.018920 
L 307.174188 385.796349 
L 314.986187 381.781104 
L 322.798187 377.640461 
L 330.610187 374.086936 
L 338.422188 371.722999 
L 346.234188 370.908413 
L 354.046187 371.682311 
L 361.858187 373.759405 
L 369.670187 376.602058 
L 377.482188 379.551435 
L 385.294188 381.986256 
L 393.106187 383.470455 
L 400.918187 383.853300 
L 408.730187 383.296823 
" style="fill:none;opacity:0.5;stroke:#ff8c00;stroke-linecap:square;stroke-width:3.0;"/>
   </g>
   <g id="line2d_14">
    <path clip-path="url(#p69bdf412fc)" d="M 25.942187 381.581364 
L 416.542188 381.581364 
" style="fill:none;opacity:0.5;stroke:#c0c0c0;stroke-linecap:square;stroke-width:3.0;"/>
   </g>
   <g id="text_7">
    <!-- Soma -->
    <defs>
     <path d="M 30.609375 48.390625 
Q 23.390625 48.390625 19.187500 42.750000 
Q 14.984375 37.109375 14.984375 27.296875 
Q 14.984375 17.484375 19.156250 11.843750 
Q 23.343750 6.203125 30.609375 6.203125 
Q 37.796875 6.203125 41.984375 11.859375 
Q 46.187500 17.531250 46.187500 27.296875 
Q 46.187500 37.015625 41.984375 42.703125 
Q 37.796875 48.390625 30.609375 48.390625 
M 30.609375 56.000000 
Q 42.328125 56.000000 49.015625 48.375000 
Q 55.718750 40.765625 55.718750 27.296875 
Q 55.718750 13.875000 49.015625 6.218750 
Q 42.328125 -1.421875 30.609375 -1.421875 
Q 18.843750 -1.421875 12.171875 6.218750 
Q 5.515625 13.875000 5.515625 27.296875 
Q 5.515625 40.765625 12.171875 48.375000 
Q 18.843750 56.000000 30.609375 56.000000 
" id="BitstreamVeraSans-Roman-6f"/>
     <path d="M 52.000000 44.187500 
Q 55.375000 50.250000 60.062500 53.125000 
Q 64.750000 56.000000 71.093750 56.000000 
Q 79.640625 56.000000 84.281250 50.015625 
Q 88.921875 44.046875 88.921875 33.015625 
L 88.921875 0.000000 
L 79.890625 0.000000 
L 79.890625 32.718750 
Q 79.890625 40.578125 77.093750 44.375000 
Q 74.312500 48.187500 68.609375 48.187500 
Q 61.625000 48.187500 57.562500 43.546875 
Q 53.515625 38.921875 53.515625 30.906250 
L 53.515625 0.000000 
L 44.484375 0.000000 
L 44.484375 32.718750 
Q 44.484375 40.625000 41.703125 44.406250 
Q 38.921875 48.187500 33.109375 48.187500 
Q 26.218750 48.187500 22.156250 43.531250 
Q 18.109375 38.875000 18.109375 30.906250 
L 18.109375 0.000000 
L 9.078125 0.000000 
L 9.078125 54.687500 
L 18.109375 54.687500 
L 18.109375 46.187500 
Q 21.187500 51.218750 25.484375 53.609375 
Q 29.781250 56.000000 35.687500 56.000000 
Q 41.656250 56.000000 45.828125 52.968750 
Q 50.000000 49.953125 52.000000 44.187500 
" id="BitstreamVeraSans-Roman-6d"/>
     <path d="M 34.281250 27.484375 
Q 23.390625 27.484375 19.187500 25.000000 
Q 14.984375 22.515625 14.984375 16.500000 
Q 14.984375 11.718750 18.140625 8.906250 
Q 21.296875 6.109375 26.703125 6.109375 
Q 34.187500 6.109375 38.703125 11.406250 
Q 43.218750 16.703125 43.218750 25.484375 
L 43.218750 27.484375 
z
M 52.203125 31.203125 
L 52.203125 0.000000 
L 43.218750 0.000000 
L 43.218750 8.296875 
Q 40.140625 3.328125 35.546875 0.953125 
Q 30.953125 -1.421875 24.312500 -1.421875 
Q 15.921875 -1.421875 10.953125 3.296875 
Q 6.000000 8.015625 6.000000 15.921875 
Q 6.000000 25.140625 12.171875 29.828125 
Q 18.359375 34.515625 30.609375 34.515625 
L 43.218750 34.515625 
L 43.218750 35.406250 
Q 43.218750 41.609375 39.140625 45.000000 
Q 35.062500 48.390625 27.687500 48.390625 
Q 23.000000 48.390625 18.546875 47.265625 
Q 14.109375 46.140625 10.015625 43.890625 
L 10.015625 52.203125 
Q 14.937500 54.109375 19.578125 55.046875 
Q 24.218750 56.000000 28.609375 56.000000 
Q 40.484375 56.000000 46.343750 49.843750 
Q 52.203125 43.703125 52.203125 31.203125 
" id="BitstreamVeraSans-Roman-61"/>
    </defs>
    <g style="fill:#fffff0;" transform="translate(57.1901875 369.672827744)scale(0.1 -0.1)">
     <use xlink:href="#BitstreamVeraSans-Roman-53"/>
     <use x="63.4765625" xlink:href="#BitstreamVeraSans-Roman-6f"/>
     <use x="124.658203125" xlink:href="#BitstreamVeraSans-Roman-6d"/>
     <use x="222.0703125" xlink:href="#BitstreamVeraSans-Roman-61"/>
    </g>
   </g>
  </g>
 </g>
 <defs>
  <clipPath id="p4f1b29d531">
   <rect height="47.6341463415" width="390.6" x="25.9421875" y="300.603315549"/>
  </clipPath>
  <clipPath id="pa38f7d63f6">
   <rect height="47.6341463415" width="390.6" x="25.9421875" y="243.442339939"/>
  </clipPath>
  <clipPath id="p69bdf412fc">
   <rect height="47.6341463415" width="390.6" x="25.9421875" y="357.764291159"/>
  </clipPath>
  <clipPath id="pf7e635f1d3">
   <rect height="47.6341463415" width="390.6" x="25.9421875" y="129.12038872"/>
  </clipPath>
  <clipPath id="p435fcf5f6a">
   <rect height="47.6341463415" width="390.6" x="25.9421875" y="14.7984375"/>
  </clipPath>
  <clipPath id="pd2ae46fe49">
   <rect height="47.6341463415" width="390.6" x="25.9421875" y="71.9594131098"/>
  </clipPath>
  <clipPath id="pbb0031ff28">
   <rect height="47.6341463415" width="390.6" x="25.9421875" y="186.281364329"/>
  </clipPath>
 </defs>
</svg>
