<?xml version="1.0" encoding="utf-8" standalone="no"?>
<!DOCTYPE svg PUBLIC "-//W3C//DTD SVG 1.1//EN"
  "http://www.w3.org/Graphics/SVG/1.1/DTD/svg11.dtd">
<!-- Created with matplotlib (http://matplotlib.org/) -->
<svg height="328pt" version="1.1" viewBox="0 0 555 328" width="555pt" xmlns="http://www.w3.org/2000/svg" xmlns:xlink="http://www.w3.org/1999/xlink">
 <defs>
  <style type="text/css">
*{stroke-linecap:butt;stroke-linejoin:round;stroke-miterlimit:100000;}
  </style>
 </defs>
 <g id="figure_1">
  <g id="patch_1">
   <path d="M 0.000000 328.228125 
L 555.267187 328.228125 
L 555.267187 0.000000 
L 0.000000 0.000000 
L 0.000000 328.228125 
z
" style="fill:none;"/>
  </g>
  <g id="axes_1">
   <g id="patch_2">
    <path clip-path="url(#pfd75283e4d)" d="M 389.376226 157.275000 
L 380.362380 160.603977 
L 380.362380 157.281658 
L 344.950841 157.281658 
L 344.950841 157.268342 
L 380.362380 157.268342 
L 380.362380 153.946023 
z
" style="fill:#fffff0;stroke:#c0c0c0;stroke-linejoin:miter;"/>
   </g>
   <g id="patch_3">
    <path clip-path="url(#pfd75283e4d)" d="M 386.837607 168.577234 
L 378.309431 173.070841 
L 377.898588 169.775798 
L 343.894471 174.309610 
L 343.892824 174.296403 
L 377.896941 169.762592 
L 377.486099 166.467548 
z
" style="fill:#fffff0;stroke:#c0c0c0;stroke-linejoin:miter;"/>
   </g>
   <g id="patch_4">
    <path clip-path="url(#pfd75283e4d)" d="M 379.749220 180.473106 
L 371.846746 186.057557 
L 371.031806 182.843895 
L 340.741059 191.057854 
L 340.737793 191.044974 
L 371.028540 182.831014 
L 370.213600 179.617352 
z
" style="fill:#fffff0;stroke:#c0c0c0;stroke-linejoin:miter;"/>
   </g>
   <g id="patch_5">
    <path clip-path="url(#pfd75283e4d)" d="M 369.293731 193.113964 
L 362.146717 199.697564 
L 360.941062 196.618050 
L 335.542385 207.251385 
L 335.537552 207.239042 
L 360.936230 196.605707 
L 359.730575 193.526194 
z
" style="fill:#fffff0;stroke:#c0c0c0;stroke-linejoin:miter;"/>
   </g>
   <g id="patch_6">
    <path clip-path="url(#pfd75283e4d)" d="M 356.604440 206.181274 
L 350.330240 213.655919 
L 348.753667 210.761120 
L 328.383809 222.624304 
L 328.377490 222.612702 
L 348.747348 210.749518 
L 347.170774 207.854719 
z
" style="fill:#fffff0;stroke:#c0c0c0;stroke-linejoin:miter;"/>
   </g>
   <g id="patch_7">
    <path clip-path="url(#pfd75283e4d)" d="M 342.418801 219.137629 
L 337.120438 227.380587 
L 335.198833 224.718035 
L 319.382877 236.924190 
L 319.375175 236.913519 
L 335.191131 224.707363 
L 333.269526 222.044811 
z
" style="fill:#fffff0;stroke:#c0c0c0;stroke-linejoin:miter;"/>
   </g>
   <g id="patch_8">
    <path clip-path="url(#pfd75283e4d)" d="M 327.119729 231.447691 
L 322.884201 240.323612 
L 320.649117 237.937026 
L 308.687383 249.916239 
L 308.678425 249.906673 
L 320.640159 237.927460 
L 318.405076 235.540874 
z
" style="fill:#fffff0;stroke:#c0c0c0;stroke-linejoin:miter;"/>
   </g>
   <g id="patch_9">
    <path clip-path="url(#pfd75283e4d)" d="M 310.898159 242.671140 
L 307.795014 252.034281 
L 305.283152 249.962849 
L 296.472947 261.387121 
L 296.462879 261.378818 
L 305.273084 249.954546 
L 302.761222 247.883114 
z
" style="fill:#fffff0;stroke:#c0c0c0;stroke-linejoin:miter;"/>
   </g>
   <g id="patch_10">
    <path clip-path="url(#pfd75283e4d)" d="M 293.880192 252.473631 
L 291.960383 262.170251 
L 289.212987 260.447985 
L 282.940129 271.148484 
L 282.929117 271.141581 
L 289.201975 260.441082 
L 286.454579 258.718817 
z
" style="fill:#fffff0;stroke:#c0c0c0;stroke-linejoin:miter;"/>
   </g>
   <g id="patch_11">
    <path clip-path="url(#pfd75283e4d)" d="M 276.193647 260.609828 
L 275.488697 270.480707 
L 272.550879 269.135888 
L 268.311138 279.040049 
L 268.299363 279.034659 
L 272.539104 269.130498 
L 269.601287 267.785678 
z
" style="fill:#fffff0;stroke:#c0c0c0;stroke-linejoin:miter;"/>
   </g>
   <g id="patch_12">
    <path clip-path="url(#pfd75283e4d)" d="M 257.993668 266.904300 
L 258.515153 276.787360 
L 255.435153 275.842068 
L 252.826181 284.932234 
L 252.813837 284.928445 
L 255.422808 275.838279 
L 252.342807 274.892988 
z
" style="fill:#fffff0;stroke:#c0c0c0;stroke-linejoin:miter;"/>
   </g>
   <g id="patch_13">
    <path clip-path="url(#pfd75283e4d)" d="M 239.467556 271.237477 
L 241.206913 280.970437 
L 238.035303 280.440195 
L 236.739522 288.728291 
L 236.726810 288.726166 
L 238.022591 280.438070 
L 234.850981 279.907828 
z
" style="fill:#fffff0;stroke:#c0c0c0;stroke-linejoin:miter;"/>
   </g>
   <g id="patch_14">
    <path clip-path="url(#pfd75283e4d)" d="M 220.830748 273.536708 
L 223.759417 282.959755 
L 220.548276 282.853269 
L 220.315303 290.365889 
L 220.302432 290.365463 
L 220.535405 282.852842 
L 217.324264 282.746357 
z
" style="fill:#fffff0;stroke:#c0c0c0;stroke-linejoin:miter;"/>
   </g>
   <g id="patch_15">
    <path clip-path="url(#pfd75283e4d)" d="M 202.214609 272.644209 
L 206.284501 281.602615 
L 203.086555 281.921634 
L 203.823208 289.818138 
L 203.810391 289.819417 
L 203.073738 281.922912 
L 199.875791 282.241931 
z
" style="fill:#fffff0;stroke:#c0c0c0;stroke-linejoin:miter;"/>
   </g>
   <g id="patch_16">
    <path clip-path="url(#pfd75283e4d)" d="M 183.604724 269.321614 
L 188.749012 277.668283 
L 185.616771 278.407569 
L 187.534038 287.094033 
L 187.521484 287.096996 
L 185.604217 278.410532 
L 182.471976 279.149817 
z
" style="fill:#fffff0;stroke:#c0c0c0;stroke-linejoin:miter;"/>
   </g>
   <g id="patch_17">
    <path clip-path="url(#pfd75283e4d)" d="M 165.216360 263.995936 
L 171.350574 271.593815 
L 168.335470 272.741228 
L 171.715260 282.238303 
L 171.703176 282.242901 
L 168.323385 272.745827 
L 165.308281 273.893240 
z
" style="fill:#fffff0;stroke:#c0c0c0;stroke-linejoin:miter;"/>
   </g>
   <g id="patch_18">
    <path clip-path="url(#pfd75283e4d)" d="M 147.251665 256.762427 
L 154.275082 263.486760 
L 151.426623 265.023460 
L 156.626619 275.330678 
L 156.615202 275.336837 
L 151.415206 265.029619 
L 148.566747 266.566319 
z
" style="fill:#fffff0;stroke:#c0c0c0;stroke-linejoin:miter;"/>
   </g>
   <g id="patch_19">
    <path clip-path="url(#pfd75283e4d)" d="M 129.882003 247.767182 
L 137.679298 253.507556 
L 135.044255 255.408310 
L 142.515869 266.484583 
L 142.505308 266.492201 
L 135.033694 255.415928 
L 132.398650 257.316683 
z
" style="fill:#fffff0;stroke:#c0c0c0;stroke-linejoin:miter;"/>
   </g>
   <g id="patch_20">
    <path clip-path="url(#pfd75283e4d)" d="M 113.247326 237.218469 
L 121.690469 241.880627 
L 119.312109 244.114225 
L 129.614708 255.845269 
L 129.605176 255.854221 
L 119.302577 244.123177 
L 116.924217 246.356775 
z
" style="fill:#fffff0;stroke:#c0c0c0;stroke-linejoin:miter;"/>
   </g>
   <g id="patch_21">
    <path clip-path="url(#pfd75283e4d)" d="M 97.469398 225.403560 
L 106.419751 228.910949 
L 104.337128 231.440716 
L 118.134974 243.587434 
L 118.126627 243.597573 
L 104.328781 231.450855 
L 102.246158 233.980622 
z
" style="fill:#fffff0;stroke:#c0c0c0;stroke-linejoin:miter;"/>
   </g>
   <g id="patch_22">
    <path clip-path="url(#pfd75283e4d)" d="M 82.694912 212.708485 
L 92.005512 215.003514 
L 90.252822 217.787910 
L 108.265162 229.912352 
L 108.258138 229.923511 
L 90.245797 217.799070 
L 88.493107 220.583467 
z
" style="fill:#fffff0;stroke:#c0c0c0;stroke-linejoin:miter;"/>
   </g>
   <g id="patch_23">
    <path clip-path="url(#pfd75283e4d)" d="M 69.191021 199.626000 
L 78.708988 200.670985 
L 77.315009 203.664291 
L 100.167336 215.044566 
L 100.161749 215.056563 
L 77.309422 203.676289 
L 75.915444 206.669595 
z
" style="fill:#fffff0;stroke:#c0c0c0;stroke-linejoin:miter;"/>
   </g>
   <g id="patch_24">
    <path clip-path="url(#pfd75283e4d)" d="M 57.499393 186.711804 
L 67.068442 186.489585 
L 66.056064 189.642651 
L 93.974461 199.228205 
L 93.970403 199.240843 
L 66.052007 189.655289 
L 65.039629 192.808355 
z
" style="fill:#fffff0;stroke:#c0c0c0;stroke-linejoin:miter;"/>
   </g>
   <g id="patch_25">
    <path clip-path="url(#pfd75283e4d)" d="M 48.568625 174.428576 
L 58.031632 172.942803 
L 57.417479 176.203856 
L 89.788224 182.722974 
L 89.785762 182.736044 
L 57.415018 176.216926 
L 56.800865 179.477979 
z
" style="fill:#fffff0;stroke:#c0c0c0;stroke-linejoin:miter;"/>
   </g>
   <g id="patch_26">
    <path clip-path="url(#pfd75283e4d)" d="M 43.630904 162.882278 
L 52.832487 160.157348 
L 52.626643 163.472841 
L 87.677363 165.799888 
L 87.676537 165.813177 
L 52.625818 163.486130 
L 52.419973 166.801623 
z
" style="fill:#fffff0;stroke:#c0c0c0;stroke-linejoin:miter;"/>
   </g>
   <g id="patch_27">
    <path clip-path="url(#pfd75283e4d)" d="M 43.630904 151.667722 
L 52.419973 147.748377 
L 52.625818 151.063870 
L 87.676537 148.736823 
L 87.677363 148.750112 
L 52.626643 151.077159 
L 52.832487 154.392652 
z
" style="fill:#fffff0;stroke:#c0c0c0;stroke-linejoin:miter;"/>
   </g>
   <g id="patch_28">
    <path clip-path="url(#pfd75283e4d)" d="M 48.568625 140.121424 
L 56.800865 135.072021 
L 57.415018 138.333074 
L 89.785762 131.813956 
L 89.788224 131.827026 
L 57.417479 138.346144 
L 58.031632 141.607197 
z
" style="fill:#fffff0;stroke:#c0c0c0;stroke-linejoin:miter;"/>
   </g>
   <g id="patch_29">
    <path clip-path="url(#pfd75283e4d)" d="M 57.499393 127.838196 
L 65.039629 121.741645 
L 66.052007 124.894711 
L 93.970403 115.309157 
L 93.974461 115.321795 
L 66.056064 124.907349 
L 67.068442 128.060415 
z
" style="fill:#fffff0;stroke:#c0c0c0;stroke-linejoin:miter;"/>
   </g>
   <g id="patch_30">
    <path clip-path="url(#pfd75283e4d)" d="M 69.191021 114.924000 
L 75.915444 107.880405 
L 77.309422 110.873711 
L 100.161749 99.493437 
L 100.167336 99.505434 
L 77.315009 110.885709 
L 78.708988 113.879015 
z
" style="fill:#fffff0;stroke:#c0c0c0;stroke-linejoin:miter;"/>
   </g>
   <g id="patch_31">
    <path clip-path="url(#pfd75283e4d)" d="M 82.694912 101.841515 
L 88.493107 93.966533 
L 90.245797 96.750930 
L 108.258138 84.626489 
L 108.265162 84.637648 
L 90.252822 96.762090 
L 92.005512 99.546486 
z
" style="fill:#fffff0;stroke:#c0c0c0;stroke-linejoin:miter;"/>
   </g>
   <g id="patch_32">
    <path clip-path="url(#pfd75283e4d)" d="M 97.469398 89.146440 
L 102.246158 80.569378 
L 104.328781 83.099145 
L 118.126627 70.952427 
L 118.134974 70.962566 
L 104.337128 83.109284 
L 106.419751 85.639051 
z
" style="fill:#fffff0;stroke:#c0c0c0;stroke-linejoin:miter;"/>
   </g>
   <g id="patch_33">
    <path clip-path="url(#pfd75283e4d)" d="M 113.247326 77.331531 
L 116.924217 68.193225 
L 119.302577 70.426823 
L 129.605176 58.695779 
L 129.614708 58.704731 
L 119.312109 70.435775 
L 121.690469 72.669373 
z
" style="fill:#fffff0;stroke:#c0c0c0;stroke-linejoin:miter;"/>
   </g>
   <g id="patch_34">
    <path clip-path="url(#pfd75283e4d)" d="M 129.882003 66.782818 
L 132.398650 57.233317 
L 135.033694 59.134072 
L 142.505308 48.057799 
L 142.515869 48.065417 
L 135.044255 59.141690 
L 137.679298 61.042444 
z
" style="fill:#fffff0;stroke:#c0c0c0;stroke-linejoin:miter;"/>
   </g>
   <g id="patch_35">
    <path clip-path="url(#pfd75283e4d)" d="M 147.251665 57.787573 
L 148.566747 47.983681 
L 151.415206 49.520381 
L 156.615202 39.213163 
L 156.626619 39.219322 
L 151.426623 49.526540 
L 154.275082 51.063240 
z
" style="fill:#fffff0;stroke:#c0c0c0;stroke-linejoin:miter;"/>
   </g>
   <g id="patch_36">
    <path clip-path="url(#pfd75283e4d)" d="M 165.216360 50.554064 
L 165.308281 40.656760 
L 168.323385 41.804173 
L 171.703176 32.307099 
L 171.715260 32.311697 
L 168.335470 41.808772 
L 171.350574 42.956185 
z
" style="fill:#fffff0;stroke:#c0c0c0;stroke-linejoin:miter;"/>
   </g>
   <g id="patch_37">
    <path clip-path="url(#pfd75283e4d)" d="M 183.604724 45.228386 
L 182.471976 35.400183 
L 185.604217 36.139468 
L 187.521484 27.453004 
L 187.534038 27.455967 
L 185.616771 36.142431 
L 188.749012 36.881717 
z
" style="fill:#fffff0;stroke:#c0c0c0;stroke-linejoin:miter;"/>
   </g>
   <g id="patch_38">
    <path clip-path="url(#pfd75283e4d)" d="M 202.214609 41.905791 
L 199.875791 32.308069 
L 203.073738 32.627088 
L 203.810391 24.730583 
L 203.823208 24.731862 
L 203.086555 32.628366 
L 206.284501 32.947385 
z
" style="fill:#fffff0;stroke:#c0c0c0;stroke-linejoin:miter;"/>
   </g>
   <g id="patch_39">
    <path clip-path="url(#pfd75283e4d)" d="M 220.830748 41.013292 
L 217.324264 31.803643 
L 220.535405 31.697158 
L 220.302432 24.184537 
L 220.315303 24.184111 
L 220.548276 31.696731 
L 223.759417 31.590245 
z
" style="fill:#fffff0;stroke:#c0c0c0;stroke-linejoin:miter;"/>
   </g>
   <g id="patch_40">
    <path clip-path="url(#pfd75283e4d)" d="M 239.467556 43.312523 
L 234.850981 34.642172 
L 238.022591 34.111930 
L 236.726810 25.823834 
L 236.739522 25.821709 
L 238.035303 34.109805 
L 241.206913 33.579563 
z
" style="fill:#fffff0;stroke:#c0c0c0;stroke-linejoin:miter;"/>
   </g>
   <g id="patch_41">
    <path clip-path="url(#pfd75283e4d)" d="M 257.993668 47.645700 
L 252.342807 39.657012 
L 255.422808 38.711721 
L 252.813837 29.621555 
L 252.826181 29.617766 
L 255.435153 38.707932 
L 258.515153 37.762640 
z
" style="fill:#fffff0;stroke:#c0c0c0;stroke-linejoin:miter;"/>
   </g>
   <g id="patch_42">
    <path clip-path="url(#pfd75283e4d)" d="M 276.193647 53.940172 
L 269.601287 46.764322 
L 272.539104 45.419502 
L 268.299363 35.515341 
L 268.311138 35.509951 
L 272.550879 45.414112 
L 275.488697 44.069293 
z
" style="fill:#fffff0;stroke:#c0c0c0;stroke-linejoin:miter;"/>
   </g>
   <g id="patch_43">
    <path clip-path="url(#pfd75283e4d)" d="M 293.880192 62.076369 
L 286.454579 55.831183 
L 289.201975 54.108918 
L 282.929117 43.408419 
L 282.940129 43.401516 
L 289.212987 54.102015 
L 291.960383 52.379749 
z
" style="fill:#fffff0;stroke:#c0c0c0;stroke-linejoin:miter;"/>
   </g>
   <g id="patch_44">
    <path clip-path="url(#pfd75283e4d)" d="M 310.898159 71.878860 
L 302.761222 66.666886 
L 305.273084 64.595454 
L 296.462879 53.171182 
L 296.472947 53.162879 
L 305.283152 64.587151 
L 307.795014 62.515719 
z
" style="fill:#fffff0;stroke:#c0c0c0;stroke-linejoin:miter;"/>
   </g>
   <g id="patch_45">
    <path clip-path="url(#pfd75283e4d)" d="M 327.119729 83.102309 
L 318.405076 79.009126 
L 320.640159 76.622540 
L 308.678425 64.643327 
L 308.687383 64.633761 
L 320.649117 76.612974 
L 322.884201 74.226388 
z
" style="fill:#fffff0;stroke:#c0c0c0;stroke-linejoin:miter;"/>
   </g>
   <g id="patch_46">
    <path clip-path="url(#pfd75283e4d)" d="M 342.418801 95.412371 
L 333.269526 92.505189 
L 335.191131 89.842637 
L 319.375175 77.636481 
L 319.382877 77.625810 
L 335.198833 89.831965 
L 337.120438 87.169413 
z
" style="fill:#fffff0;stroke:#c0c0c0;stroke-linejoin:miter;"/>
   </g>
   <g id="patch_47">
    <path clip-path="url(#pfd75283e4d)" d="M 356.604440 108.368726 
L 347.170774 106.695281 
L 348.747348 103.800482 
L 328.377490 91.937298 
L 328.383809 91.925696 
L 348.753667 103.788880 
L 350.330240 100.894081 
z
" style="fill:#fffff0;stroke:#c0c0c0;stroke-linejoin:miter;"/>
   </g>
   <g id="patch_48">
    <path clip-path="url(#pfd75283e4d)" d="M 369.293731 121.436036 
L 359.730575 121.023806 
L 360.936230 117.944293 
L 335.537552 107.310958 
L 335.542385 107.298615 
L 360.941062 117.931950 
L 362.146717 114.852436 
z
" style="fill:#fffff0;stroke:#c0c0c0;stroke-linejoin:miter;"/>
   </g>
   <g id="patch_49">
    <path clip-path="url(#pfd75283e4d)" d="M 379.749220 134.076894 
L 370.213600 134.932648 
L 371.028540 131.718986 
L 340.737793 123.505026 
L 340.741059 123.492146 
L 371.031806 131.706105 
L 371.846746 128.492443 
z
" style="fill:#fffff0;stroke:#c0c0c0;stroke-linejoin:miter;"/>
   </g>
   <g id="patch_50">
    <path clip-path="url(#pfd75283e4d)" d="M 386.837607 145.972766 
L 377.486099 148.082452 
L 377.896941 144.787408 
L 343.892824 140.253597 
L 343.894471 140.240390 
L 377.898588 144.774202 
L 378.309431 141.479159 
z
" style="fill:#fffff0;stroke:#c0c0c0;stroke-linejoin:miter;"/>
   </g>
   <g id="patch_51">
    <path clip-path="url(#pfd75283e4d)" d="M 389.376226 157.275000 
L 380.362380 160.603977 
L 380.362380 157.281658 
L 344.950841 157.281658 
L 344.950841 157.268342 
L 380.362380 157.268342 
L 380.362380 153.946023 
z
" style="fill:#fffff0;stroke:#c0c0c0;stroke-linejoin:miter;"/>
   </g>
   <g id="line2d_1">
    <path clip-path="url(#pfd75283e4d)" d="M 344.950841 157.275000 
L 343.893648 174.303007 
L 340.739426 191.051414 
L 335.539968 207.245213 
L 328.380650 222.618503 
L 319.379026 236.918855 
L 308.682904 249.911456 
L 296.467913 261.382969 
L 282.934623 271.145033 
L 268.305250 279.037354 
L 252.820009 284.930340 
L 236.733166 288.727229 
L 220.308868 290.365676 
L 203.816799 289.818778 
L 187.527761 287.095514 
L 171.709218 282.240602 
L 156.620911 275.333758 
L 142.510588 266.488392 
L 129.609942 255.849745 
L 118.130800 243.592504 
L 108.261650 229.917932 
L 100.164543 215.050564 
L 93.972432 199.234524 
L 89.786993 182.729509 
L 87.676950 165.806532 
L 87.676950 148.743468 
L 89.786993 131.820491 
L 93.972432 115.315476 
L 100.164543 99.499436 
L 108.261650 84.632068 
L 118.130800 70.957496 
L 129.609942 58.700255 
L 142.510588 48.061608 
L 156.620911 39.216242 
L 171.709218 32.309398 
L 187.527761 27.454486 
L 203.816799 24.731222 
L 220.308868 24.184324 
L 236.733166 25.822771 
L 252.820009 29.619660 
L 268.305250 35.512646 
L 282.934623 43.404967 
L 296.467913 53.167031 
L 308.682904 64.638544 
L 319.379026 77.631145 
L 328.380650 91.931497 
L 335.539968 107.304787 
L 340.739426 123.498586 
L 343.893648 140.246993 
L 344.950841 157.275000 
" style="fill:none;stroke:#d2691e;stroke-linecap:square;stroke-width:3.0;"/>
   </g>
   <g id="text_1">
    <!-- + -->
    <defs>
     <path d="M 46.000000 62.703125 
L 46.000000 35.500000 
L 73.187500 35.500000 
L 73.187500 27.203125 
L 46.000000 27.203125 
L 46.000000 0.000000 
L 37.796875 0.000000 
L 37.796875 27.203125 
L 10.593750 27.203125 
L 10.593750 35.500000 
L 37.796875 35.500000 
L 37.796875 62.703125 
z
" id="BitstreamVeraSans-Roman-2b"/>
    </defs>
    <g style="fill:#fffff0;" transform="translate(203.612079327 165.553125)scale(0.3 -0.3)">
     <use xlink:href="#BitstreamVeraSans-Roman-2b"/>
    </g>
   </g>
   <g id="patch_52">
    <path d="M 527.701374 157.275000 
L 524.100788 151.275000 
Q 525.300495 153.975000 526.500202 155.475000 
L 524.100788 151.275000 
Q 530.100788 153.075000 536.100788 157.275000 
Q 530.100788 161.475000 524.100788 163.275000 
L 526.500202 159.075000 
Q 525.300495 160.575000 524.100788 163.275000 
L 527.701374 157.275000 
z
" style="fill:#fffff0;stroke:#c0c0c0;stroke-linecap:round;"/>
   </g>
   <g id="text_2">
    <!-- Satélite -->
    <defs>
     <path d="M 18.312500 70.218750 
L 18.312500 54.687500 
L 36.812500 54.687500 
L 36.812500 47.703125 
L 18.312500 47.703125 
L 18.312500 18.015625 
Q 18.312500 11.328125 20.140625 9.421875 
Q 21.968750 7.515625 27.593750 7.515625 
L 36.812500 7.515625 
L 36.812500 0.000000 
L 27.593750 0.000000 
Q 17.187500 0.000000 13.234375 3.875000 
Q 9.281250 7.765625 9.281250 18.015625 
L 9.281250 47.703125 
L 2.687500 47.703125 
L 2.687500 54.687500 
L 9.281250 54.687500 
L 9.281250 70.218750 
z
" id="BitstreamVeraSans-Roman-74"/>
     <path d="M 56.203125 29.593750 
L 56.203125 25.203125 
L 14.890625 25.203125 
Q 15.484375 15.921875 20.484375 11.062500 
Q 25.484375 6.203125 34.421875 6.203125 
Q 39.593750 6.203125 44.453125 7.468750 
Q 49.312500 8.734375 54.109375 11.281250 
L 54.109375 2.781250 
Q 49.265625 0.734375 44.187500 -0.343750 
Q 39.109375 -1.421875 33.890625 -1.421875 
Q 20.796875 -1.421875 13.156250 6.187500 
Q 5.515625 13.812500 5.515625 26.812500 
Q 5.515625 40.234375 12.765625 48.109375 
Q 20.015625 56.000000 32.328125 56.000000 
Q 43.359375 56.000000 49.781250 48.890625 
Q 56.203125 41.796875 56.203125 29.593750 
M 47.218750 32.234375 
Q 47.125000 39.593750 43.093750 43.984375 
Q 39.062500 48.390625 32.421875 48.390625 
Q 24.906250 48.390625 20.390625 44.140625 
Q 15.875000 39.890625 15.187500 32.171875 
z
M 38.531250 79.984375 
L 48.250000 79.984375 
L 32.343750 61.625000 
L 24.859375 61.625000 
z
" id="BitstreamVeraSans-Roman-e9"/>
     <path d="M 9.421875 75.984375 
L 18.406250 75.984375 
L 18.406250 0.000000 
L 9.421875 0.000000 
z
" id="BitstreamVeraSans-Roman-6c"/>
     <path d="M 53.515625 70.515625 
L 53.515625 60.890625 
Q 47.906250 63.578125 42.921875 64.890625 
Q 37.937500 66.218750 33.296875 66.218750 
Q 25.250000 66.218750 20.875000 63.093750 
Q 16.500000 59.968750 16.500000 54.203125 
Q 16.500000 49.359375 19.406250 46.890625 
Q 22.312500 44.437500 30.421875 42.921875 
L 36.375000 41.703125 
Q 47.406250 39.593750 52.656250 34.296875 
Q 57.906250 29.000000 57.906250 20.125000 
Q 57.906250 9.515625 50.796875 4.046875 
Q 43.703125 -1.421875 29.984375 -1.421875 
Q 24.812500 -1.421875 18.968750 -0.250000 
Q 13.140625 0.921875 6.890625 3.218750 
L 6.890625 13.375000 
Q 12.890625 10.015625 18.656250 8.296875 
Q 24.421875 6.593750 29.984375 6.593750 
Q 38.421875 6.593750 43.015625 9.906250 
Q 47.609375 13.234375 47.609375 19.390625 
Q 47.609375 24.750000 44.312500 27.781250 
Q 41.015625 30.812500 33.500000 32.328125 
L 27.484375 33.500000 
Q 16.453125 35.687500 11.515625 40.375000 
Q 6.593750 45.062500 6.593750 53.421875 
Q 6.593750 63.093750 13.406250 68.656250 
Q 20.218750 74.218750 32.171875 74.218750 
Q 37.312500 74.218750 42.625000 73.281250 
Q 47.953125 72.359375 53.515625 70.515625 
" id="BitstreamVeraSans-Roman-53"/>
     <path d="M 34.281250 27.484375 
Q 23.390625 27.484375 19.187500 25.000000 
Q 14.984375 22.515625 14.984375 16.500000 
Q 14.984375 11.718750 18.140625 8.906250 
Q 21.296875 6.109375 26.703125 6.109375 
Q 34.187500 6.109375 38.703125 11.406250 
Q 43.218750 16.703125 43.218750 25.484375 
L 43.218750 27.484375 
z
M 52.203125 31.203125 
L 52.203125 0.000000 
L 43.218750 0.000000 
L 43.218750 8.296875 
Q 40.140625 3.328125 35.546875 0.953125 
Q 30.953125 -1.421875 24.312500 -1.421875 
Q 15.921875 -1.421875 10.953125 3.296875 
Q 6.000000 8.015625 6.000000 15.921875 
Q 6.000000 25.140625 12.171875 29.828125 
Q 18.359375 34.515625 30.609375 34.515625 
L 43.218750 34.515625 
L 43.218750 35.406250 
Q 43.218750 41.609375 39.140625 45.000000 
Q 35.062500 48.390625 27.687500 48.390625 
Q 23.000000 48.390625 18.546875 47.265625 
Q 14.109375 46.140625 10.015625 43.890625 
L 10.015625 52.203125 
Q 14.937500 54.109375 19.578125 55.046875 
Q 24.218750 56.000000 28.609375 56.000000 
Q 40.484375 56.000000 46.343750 49.843750 
Q 52.203125 43.703125 52.203125 31.203125 
" id="BitstreamVeraSans-Roman-61"/>
     <path d="M 56.203125 29.593750 
L 56.203125 25.203125 
L 14.890625 25.203125 
Q 15.484375 15.921875 20.484375 11.062500 
Q 25.484375 6.203125 34.421875 6.203125 
Q 39.593750 6.203125 44.453125 7.468750 
Q 49.312500 8.734375 54.109375 11.281250 
L 54.109375 2.781250 
Q 49.265625 0.734375 44.187500 -0.343750 
Q 39.109375 -1.421875 33.890625 -1.421875 
Q 20.796875 -1.421875 13.156250 6.187500 
Q 5.515625 13.812500 5.515625 26.812500 
Q 5.515625 40.234375 12.765625 48.109375 
Q 20.015625 56.000000 32.328125 56.000000 
Q 43.359375 56.000000 49.781250 48.890625 
Q 56.203125 41.796875 56.203125 29.593750 
M 47.218750 32.234375 
Q 47.125000 39.593750 43.093750 43.984375 
Q 39.062500 48.390625 32.421875 48.390625 
Q 24.906250 48.390625 20.390625 44.140625 
Q 15.875000 39.890625 15.187500 32.171875 
z
" id="BitstreamVeraSans-Roman-65"/>
     <path d="M 9.421875 54.687500 
L 18.406250 54.687500 
L 18.406250 0.000000 
L 9.421875 0.000000 
z
M 9.421875 75.984375 
L 18.406250 75.984375 
L 18.406250 64.593750 
L 9.421875 64.593750 
z
" id="BitstreamVeraSans-Roman-69"/>
    </defs>
    <g style="fill:#fffff0;" transform="translate(409.335456731 165.553125)scale(0.3 -0.3)">
     <use xlink:href="#BitstreamVeraSans-Roman-53"/>
     <use x="63.4765625" xlink:href="#BitstreamVeraSans-Roman-61"/>
     <use x="124.755859375" xlink:href="#BitstreamVeraSans-Roman-74"/>
     <use x="163.96484375" xlink:href="#BitstreamVeraSans-Roman-e9"/>
     <use x="225.48828125" xlink:href="#BitstreamVeraSans-Roman-6c"/>
     <use x="253.271484375" xlink:href="#BitstreamVeraSans-Roman-69"/>
     <use x="281.0546875" xlink:href="#BitstreamVeraSans-Roman-74"/>
     <use x="320.263671875" xlink:href="#BitstreamVeraSans-Roman-65"/>
    </g>
   </g>
  </g>
 </g>
 <defs>
  <clipPath id="pfd75283e4d">
   <rect height="292.95" width="502.2" x="35.9046875" y="10.8"/>
  </clipPath>
 </defs>
</svg>
