<?xml version="1.0" encoding="utf-8" standalone="no"?>
<!DOCTYPE svg PUBLIC "-//W3C//DTD SVG 1.1//EN"
  "http://www.w3.org/Graphics/SVG/1.1/DTD/svg11.dtd">
<!-- Created with matplotlib (http://matplotlib.org/) -->
<svg height="232pt" version="1.1" viewBox="0 0 537 232" width="537pt" xmlns="http://www.w3.org/2000/svg" xmlns:xlink="http://www.w3.org/1999/xlink">
 <defs>
  <style type="text/css">
*{stroke-linecap:butt;stroke-linejoin:round;stroke-miterlimit:100000;}
  </style>
 </defs>
 <g id="figure_1">
  <g id="patch_1">
   <path d="M 0.000000 232.077522 
L 537.006562 232.077522 
L 537.006562 0.000000 
L 0.000000 0.000000 
z
" style="fill:#f0f0f0;"/>
  </g>
  <g id="axes_1">
   <g id="line2d_1">
    <path clip-path="url(#p3f6ba6bf47)" d="M 40.746563 32.925618 
L 43.615066 34.236042 
L 46.483569 37.919188 
L 49.352072 43.277662 
L 52.220576 49.296851 
L 55.089079 54.837035 
L 57.957582 58.849195 
L 60.826085 60.573638 
L 63.694589 59.683845 
L 66.563092 56.348297 
L 69.431595 51.198570 
L 72.300098 45.209754 
L 75.168602 39.515815 
L 78.037105 35.194886 
L 80.905608 33.065125 
L 83.774112 33.529797 
L 86.642615 36.500917 
L 89.511118 41.415910 
L 92.379621 47.344136 
L 95.248125 53.163100 
L 98.116628 57.770994 
L 100.985131 60.295326 
L 103.853634 60.258121 
L 106.722138 57.666421 
L 109.590641 53.010960 
L 112.459144 47.173238 
L 115.327648 41.258612 
L 118.196151 36.387002 
L 121.064654 33.480836 
L 123.933157 33.090389 
L 126.801661 35.289590 
L 129.670164 39.662027 
L 132.538667 45.379790 
L 135.407170 51.360234 
L 138.275674 56.470978 
L 141.144177 59.744314 
L 144.012680 60.560445 
L 146.881183 58.764838 
L 149.749687 54.697487 
L 152.618190 49.128535 
L 155.486693 43.112449 
L 158.355197 37.788360 
L 161.223700 34.164370 
L 164.092203 32.926674 
L 166.960706 34.309626 
L 169.829210 38.051367 
L 172.697713 43.443409 
L 175.566216 49.464780 
L 178.434719 54.975351 
L 181.303223 58.931707 
L 184.171726 60.584724 
L 187.040229 59.621405 
L 189.908733 56.224153 
L 192.777236 51.036230 
L 195.645739 45.039956 
L 198.514242 39.370709 
L 201.382746 35.101949 
L 204.251249 33.041953 
L 207.119752 33.580778 
L 209.988255 36.616398 
L 212.856759 41.574026 
L 215.725262 47.514947 
L 218.593765 53.314263 
L 221.462269 57.873887 
L 224.330772 60.330467 
L 227.199275 60.218855 
L 230.067778 57.560185 
L 232.936282 52.857868 
L 235.804785 47.002278 
L 238.673288 41.102154 
L 241.541791 36.274672 
L 244.410295 33.433903 
L 247.278798 33.117739 
L 250.147301 35.386046 
L 253.015804 39.809324 
L 255.884308 45.550038 
L 258.752811 51.521197 
L 261.621314 56.592177 
L 264.489818 59.802802 
L 267.358321 60.545146 
L 270.226824 58.678650 
L 273.095327 54.556729 
L 275.963831 48.959859 
L 278.832334 42.947793 
L 281.700837 37.658901 
L 284.569340 34.094622 
L 287.437844 32.929843 
L 290.306347 34.385112 
L 293.174850 38.184877 
L 296.043354 43.609662 
L 298.911857 49.632298 
L 301.780360 55.112414 
L 304.648863 59.012363 
L 307.517367 60.593700 
L 310.385870 59.557003 
L 313.254373 56.098566 
L 316.122876 50.873238 
L 318.991380 44.870421 
L 321.859883 39.226733 
L 324.728386 35.010792 
" style="fill:none;stroke:#006400;stroke-width:2.0;"/>
   </g>
   <g id="text_1">
    <!-- $\eta_1 = \eta_o \cos[(K + \delta k)x - (\omega + \delta\omega)t]$ -->
    <defs>
     <path d="M 12.109375 -1.125000 
Q 6.453125 -1.125000 3.937500 3.015625 
Q 1.421875 7.171875 1.421875 13.187500 
Q 1.421875 17.140625 2.125000 20.921875 
Q 2.828125 24.703125 4.265625 28.578125 
Q 5.718750 32.468750 7.562500 35.859375 
Q 9.421875 39.265625 11.718750 42.484375 
Q 12.156250 43.109375 12.890625 43.109375 
Q 13.531250 43.109375 13.921875 42.718750 
Q 14.312500 42.328125 14.312500 41.796875 
Q 14.312500 41.265625 14.015625 40.828125 
Q 4.890625 28.265625 4.890625 17.671875 
Q 4.890625 13.093750 7.000000 9.796875 
Q 9.125000 6.500000 13.484375 6.500000 
Q 17.234375 6.500000 20.437500 8.687500 
Q 23.640625 10.890625 25.984375 14.312500 
Q 25.984375 16.062500 26.593750 19.765625 
Q 27.203125 23.484375 28.484375 26.390625 
Q 29.781250 29.296875 31.593750 29.296875 
Q 33.890625 29.296875 33.890625 26.609375 
Q 33.890625 25.046875 33.218750 22.671875 
Q 32.562500 20.312500 31.750000 18.265625 
Q 30.953125 16.218750 29.781250 13.625000 
Q 30.953125 6.500000 36.921875 6.500000 
Q 40.375000 6.500000 43.859375 8.500000 
Q 47.359375 10.500000 50.046875 13.750000 
Q 52.734375 17.000000 54.265625 20.750000 
Q 55.812500 24.515625 55.812500 27.875000 
Q 55.812500 30.906250 54.859375 32.593750 
Q 53.906250 34.281250 52.343750 36.125000 
Q 50.781250 37.984375 50.781250 39.109375 
Q 50.781250 41.062500 52.437500 42.671875 
Q 54.109375 44.281250 56.000000 44.281250 
Q 58.453125 44.281250 59.468750 42.062500 
Q 60.500000 39.843750 60.500000 37.015625 
Q 60.500000 32.421875 58.671875 25.437500 
Q 56.843750 18.453125 54.500000 13.812500 
Q 51.265625 7.515625 46.406250 3.187500 
Q 41.546875 -1.125000 35.500000 -1.125000 
Q 31.640625 -1.125000 29.265625 1.187500 
Q 26.906250 3.515625 26.218750 7.515625 
Q 23.437500 3.562500 19.875000 1.218750 
Q 16.312500 -1.125000 12.109375 -1.125000 
" id="Cmmi10-21"/>
     <path d="M 7.515625 23.000000 
Q 6.687500 23.000000 6.140625 23.625000 
Q 5.609375 24.265625 5.609375 25.000000 
Q 5.609375 25.734375 6.140625 26.359375 
Q 6.687500 27.000000 7.515625 27.000000 
L 36.921875 27.000000 
L 36.921875 56.500000 
Q 36.921875 57.281250 37.500000 57.781250 
Q 38.093750 58.296875 38.921875 58.296875 
Q 39.656250 58.296875 40.281250 57.781250 
Q 40.921875 57.281250 40.921875 56.500000 
L 40.921875 27.000000 
L 70.312500 27.000000 
Q 71.046875 27.000000 71.578125 26.359375 
Q 72.125000 25.734375 72.125000 25.000000 
Q 72.125000 24.265625 71.578125 23.625000 
Q 71.046875 23.000000 70.312500 23.000000 
L 40.921875 23.000000 
L 40.921875 -6.500000 
Q 40.921875 -7.281250 40.281250 -7.781250 
Q 39.656250 -8.296875 38.921875 -8.296875 
Q 38.093750 -8.296875 37.500000 -7.781250 
Q 36.921875 -7.281250 36.921875 -6.500000 
L 36.921875 23.000000 
z
" id="Cmr10-2b"/>
     <path d="M 24.906250 -1.125000 
Q 18.843750 -1.125000 13.906250 2.015625 
Q 8.984375 5.171875 6.156250 10.421875 
Q 3.328125 15.671875 3.328125 21.578125 
Q 3.328125 27.484375 6.125000 32.906250 
Q 8.937500 38.328125 13.890625 41.578125 
Q 18.843750 44.828125 24.906250 44.828125 
Q 30.765625 44.828125 35.562500 42.531250 
Q 40.375000 40.234375 40.375000 35.015625 
Q 40.375000 33.062500 38.984375 31.609375 
Q 37.593750 30.171875 35.593750 30.171875 
Q 33.593750 30.171875 32.203125 31.609375 
Q 30.812500 33.062500 30.812500 35.015625 
Q 30.812500 36.765625 31.937500 38.062500 
Q 33.062500 39.359375 34.718750 39.703125 
Q 31.250000 41.890625 25.000000 41.890625 
Q 20.218750 41.890625 17.281250 38.718750 
Q 14.359375 35.546875 13.187500 30.859375 
Q 12.015625 26.171875 12.015625 21.578125 
Q 12.015625 16.750000 13.453125 12.234375 
Q 14.890625 7.718750 18.093750 4.765625 
Q 21.296875 1.812500 26.125000 1.812500 
Q 30.859375 1.812500 34.171875 4.718750 
Q 37.500000 7.625000 38.718750 12.312500 
Q 38.718750 12.890625 39.500000 12.890625 
L 40.718750 12.890625 
Q 41.015625 12.890625 41.250000 12.625000 
Q 41.500000 12.359375 41.500000 12.015625 
L 41.500000 11.718750 
Q 39.984375 5.812500 35.484375 2.343750 
Q 31.000000 -1.125000 24.906250 -1.125000 
" id="Cmr10-63"/>
     <path d="M 10.687500 -1.125000 
Q 9.468750 -1.125000 8.593750 -0.343750 
Q 7.718750 0.437500 7.718750 1.703125 
Q 7.718750 2.296875 7.812500 2.593750 
L 15.281250 32.421875 
Q 16.015625 35.203125 16.015625 37.312500 
Q 16.015625 41.609375 13.093750 41.609375 
Q 9.968750 41.609375 8.453125 37.859375 
Q 6.937500 34.125000 5.515625 28.421875 
Q 5.515625 28.125000 5.218750 27.953125 
Q 4.937500 27.781250 4.687500 27.781250 
L 3.515625 27.781250 
Q 3.171875 27.781250 2.921875 28.140625 
Q 2.687500 28.515625 2.687500 28.812500 
Q 3.765625 33.156250 4.765625 36.171875 
Q 5.765625 39.203125 7.890625 41.687500 
Q 10.015625 44.187500 13.187500 44.187500 
Q 16.890625 44.187500 19.796875 41.843750 
Q 22.703125 39.500000 22.703125 35.796875 
Q 25.640625 39.703125 29.593750 41.937500 
Q 33.546875 44.187500 38.187500 44.187500 
Q 43.406250 44.187500 46.546875 41.375000 
Q 49.703125 38.578125 49.703125 33.406250 
Q 49.703125 30.421875 49.031250 27.875000 
L 37.406250 -18.406250 
Q 37.109375 -19.828125 35.937500 -20.703125 
Q 34.765625 -21.578125 33.296875 -21.578125 
Q 32.078125 -21.578125 31.203125 -20.812500 
Q 30.328125 -20.062500 30.328125 -18.796875 
Q 30.328125 -18.218750 30.421875 -18.015625 
L 41.890625 28.078125 
Q 42.921875 32.171875 42.921875 34.906250 
Q 42.921875 37.703125 41.750000 39.656250 
Q 40.578125 41.609375 37.984375 41.609375 
Q 28.171875 41.609375 21.687500 29.500000 
L 14.890625 2.203125 
Q 14.546875 0.828125 13.343750 -0.140625 
Q 12.156250 -1.125000 10.687500 -1.125000 
" id="Cmmi10-b4"/>
     <path d="M 3.328125 -0.296875 
L 3.328125 16.015625 
Q 3.328125 16.796875 4.203125 16.796875 
L 5.421875 16.796875 
Q 6.000000 16.796875 6.203125 16.015625 
Q 8.984375 1.515625 19.671875 1.515625 
Q 24.421875 1.515625 27.609375 3.656250 
Q 30.812500 5.812500 30.812500 10.296875 
Q 30.812500 13.531250 28.312500 15.796875 
Q 25.828125 18.062500 22.406250 18.890625 
L 15.718750 20.218750 
Q 12.359375 20.953125 9.593750 22.453125 
Q 6.843750 23.968750 5.078125 26.484375 
Q 3.328125 29.000000 3.328125 32.328125 
Q 3.328125 36.718750 5.640625 39.515625 
Q 7.953125 42.328125 11.656250 43.578125 
Q 15.375000 44.828125 19.671875 44.828125 
Q 24.812500 44.828125 28.609375 42.093750 
L 31.500000 44.578125 
Q 31.500000 44.828125 31.984375 44.828125 
L 32.718750 44.828125 
Q 33.015625 44.828125 33.250000 44.546875 
Q 33.500000 44.281250 33.500000 44.000000 
L 33.500000 30.906250 
Q 33.500000 29.984375 32.718750 29.984375 
L 31.500000 29.984375 
Q 30.609375 29.984375 30.609375 30.906250 
Q 30.609375 36.140625 27.703125 39.312500 
Q 24.812500 42.484375 19.578125 42.484375 
Q 15.093750 42.484375 11.796875 40.812500 
Q 8.500000 39.156250 8.500000 35.109375 
Q 8.500000 32.328125 10.859375 30.546875 
Q 13.234375 28.765625 16.406250 27.984375 
L 23.187500 26.703125 
Q 26.609375 25.921875 29.562500 24.062500 
Q 32.515625 22.218750 34.250000 19.375000 
Q 35.984375 16.546875 35.984375 12.984375 
Q 35.984375 9.375000 34.734375 6.703125 
Q 33.500000 4.046875 31.265625 2.281250 
Q 29.046875 0.531250 26.015625 -0.296875 
Q 23.000000 -1.125000 19.671875 -1.125000 
Q 13.421875 -1.125000 8.984375 3.078125 
L 5.328125 -0.875000 
Q 5.328125 -1.125000 4.781250 -1.125000 
L 4.203125 -1.125000 
Q 3.328125 -1.125000 3.328125 -0.296875 
" id="Cmr10-73"/>
     <path d="M 20.125000 -1.125000 
Q 15.375000 -1.125000 11.687500 1.125000 
Q 8.015625 3.375000 6.000000 7.171875 
Q 4.000000 10.984375 4.000000 15.828125 
Q 4.000000 22.609375 7.781250 29.250000 
Q 11.578125 35.890625 17.843750 40.031250 
Q 24.125000 44.187500 31.000000 44.187500 
Q 34.718750 44.187500 37.625000 42.921875 
Q 40.531250 41.656250 42.671875 39.359375 
Q 44.828125 37.062500 45.968750 33.984375 
Q 47.125000 30.906250 47.125000 27.296875 
Q 47.125000 22.078125 44.921875 17.015625 
Q 42.718750 11.968750 38.890625 7.843750 
Q 35.062500 3.718750 30.125000 1.296875 
Q 25.203125 -1.125000 20.125000 -1.125000 
M 20.312500 1.515625 
Q 24.750000 1.515625 28.437500 4.531250 
Q 32.125000 7.562500 34.484375 12.171875 
Q 36.859375 16.796875 38.125000 21.921875 
Q 39.406250 27.046875 39.406250 31.203125 
Q 39.406250 35.546875 37.234375 38.578125 
Q 35.062500 41.609375 30.812500 41.609375 
Q 24.953125 41.609375 20.546875 36.593750 
Q 16.156250 31.593750 13.937500 24.625000 
Q 11.718750 17.671875 11.718750 11.921875 
Q 11.718750 7.562500 13.937500 4.531250 
Q 16.156250 1.515625 20.312500 1.515625 
" id="Cmmi10-6f"/>
     <path d="M 4.687500 0.000000 
Q 3.718750 0.000000 3.718750 1.312500 
Q 3.765625 1.562500 3.906250 2.171875 
Q 4.046875 2.781250 4.312500 3.140625 
Q 4.593750 3.515625 4.984375 3.515625 
Q 11.078125 3.515625 13.484375 4.203125 
Q 14.796875 4.640625 15.375000 6.890625 
L 29.109375 61.812500 
Q 29.296875 62.796875 29.296875 63.187500 
Q 29.296875 64.265625 28.078125 64.406250 
Q 26.218750 64.796875 20.906250 64.796875 
Q 19.921875 64.796875 19.921875 66.109375 
Q 20.265625 67.390625 20.453125 67.843750 
Q 20.656250 68.312500 21.578125 68.312500 
L 48.484375 68.312500 
Q 49.515625 68.312500 49.515625 67.000000 
Q 49.468750 66.750000 49.312500 66.156250 
Q 49.171875 65.578125 48.921875 65.187500 
Q 48.687500 64.796875 48.187500 64.796875 
Q 42.093750 64.796875 39.703125 64.109375 
Q 38.375000 63.625000 37.796875 61.375000 
L 29.687500 29.000000 
L 68.890625 59.281250 
Q 69.000000 59.468750 70.140625 60.609375 
Q 71.296875 61.765625 71.296875 62.890625 
Q 71.296875 64.796875 67.921875 64.796875 
Q 66.890625 64.796875 66.890625 66.109375 
Q 67.093750 66.890625 67.203125 67.328125 
Q 67.328125 67.781250 67.640625 68.046875 
Q 67.968750 68.312500 68.609375 68.312500 
L 87.984375 68.312500 
Q 88.531250 68.312500 88.765625 67.921875 
Q 89.015625 67.531250 89.015625 67.000000 
Q 88.968750 66.750000 88.796875 66.109375 
Q 88.625000 65.484375 88.359375 65.140625 
Q 88.093750 64.796875 87.593750 64.796875 
Q 80.281250 64.796875 71.578125 58.015625 
Q 71.531250 57.953125 71.437500 57.921875 
Q 71.343750 57.906250 71.234375 57.875000 
Q 71.140625 57.859375 71.093750 57.812500 
L 50.484375 41.796875 
L 65.484375 6.687500 
Q 66.843750 4.500000 68.406250 4.000000 
Q 69.968750 3.515625 73.187500 3.515625 
Q 74.218750 3.515625 74.218750 2.203125 
Q 73.921875 1.031250 73.625000 0.515625 
Q 73.343750 0.000000 72.515625 0.000000 
L 49.312500 0.000000 
Q 48.390625 0.000000 48.390625 1.312500 
Q 48.531250 2.343750 48.718750 2.921875 
Q 48.921875 3.515625 49.703125 3.515625 
Q 52.250000 3.515625 54.031250 4.031250 
Q 55.812500 4.546875 55.812500 6.390625 
Q 55.812500 7.078125 55.718750 7.421875 
L 43.312500 36.281250 
L 28.718750 25.000000 
L 24.125000 6.500000 
Q 23.875000 5.281250 23.875000 5.078125 
Q 23.875000 4.046875 25.093750 3.906250 
Q 27.000000 3.515625 32.328125 3.515625 
Q 33.296875 3.515625 33.296875 2.203125 
Q 32.953125 0.781250 32.750000 0.390625 
Q 32.562500 0.000000 31.593750 0.000000 
z
" id="Cmmi10-4b"/>
     <path d="M 6.500000 -25.000000 
Q 5.609375 -25.000000 5.609375 -24.125000 
Q 5.609375 -23.687500 5.812500 -23.484375 
Q 22.906250 -6.781250 22.906250 25.000000 
Q 22.906250 56.781250 6.000000 73.296875 
Q 5.609375 73.531250 5.609375 74.125000 
Q 5.609375 74.468750 5.875000 74.734375 
Q 6.156250 75.000000 6.500000 75.000000 
L 7.421875 75.000000 
Q 7.718750 75.000000 7.906250 74.812500 
Q 15.093750 69.140625 19.875000 61.031250 
Q 24.656250 52.937500 26.875000 43.750000 
Q 29.109375 34.578125 29.109375 25.000000 
Q 29.109375 17.921875 27.906250 11.062500 
Q 26.703125 4.203125 24.093750 -2.453125 
Q 21.484375 -9.125000 17.484375 -14.765625 
Q 13.484375 -20.406250 7.906250 -24.812500 
Q 7.718750 -25.000000 7.421875 -25.000000 
z
" id="Cmr10-29"/>
     <path d="M 31.000000 -24.812500 
Q 25.437500 -20.406250 21.406250 -14.718750 
Q 17.390625 -9.031250 14.812500 -2.578125 
Q 12.250000 3.859375 10.984375 10.890625 
Q 9.718750 17.921875 9.718750 25.000000 
Q 9.718750 32.171875 10.984375 39.203125 
Q 12.250000 46.234375 14.859375 52.734375 
Q 17.484375 59.234375 21.531250 64.890625 
Q 25.593750 70.562500 31.000000 74.812500 
Q 31.000000 75.000000 31.500000 75.000000 
L 32.421875 75.000000 
Q 32.718750 75.000000 32.953125 74.734375 
Q 33.203125 74.468750 33.203125 74.125000 
Q 33.203125 73.687500 33.015625 73.484375 
Q 28.125000 68.703125 24.875000 63.234375 
Q 21.625000 57.765625 19.640625 51.578125 
Q 17.671875 45.406250 16.796875 38.781250 
Q 15.921875 32.171875 15.921875 25.000000 
Q 15.921875 -6.781250 32.906250 -23.296875 
Q 33.203125 -23.578125 33.203125 -24.125000 
Q 33.203125 -24.359375 32.937500 -24.671875 
Q 32.671875 -25.000000 32.421875 -25.000000 
L 31.500000 -25.000000 
Q 31.000000 -25.000000 31.000000 -24.812500 
" id="Cmr10-28"/>
     <path d="M 20.015625 -1.515625 
Q 16.546875 -1.515625 13.562500 -0.218750 
Q 10.593750 1.078125 8.375000 3.515625 
Q 6.156250 5.953125 5.078125 8.953125 
Q 4.000000 11.968750 4.000000 15.484375 
Q 4.000000 21.734375 6.953125 27.609375 
Q 9.906250 33.500000 15.015625 37.796875 
Q 20.125000 42.093750 26.125000 43.609375 
Q 23.187500 49.031250 21.656250 52.953125 
Q 20.125000 56.890625 20.125000 60.984375 
Q 20.125000 64.015625 21.531250 66.328125 
Q 22.953125 68.656250 25.437500 69.968750 
Q 27.937500 71.296875 31.000000 71.296875 
Q 33.984375 71.296875 42.828125 69.281250 
Q 45.125000 68.750000 45.125000 66.609375 
Q 45.125000 64.937500 43.890625 63.562500 
Q 42.671875 62.203125 41.015625 62.203125 
Q 39.796875 62.203125 38.812500 62.765625 
Q 37.843750 63.328125 35.734375 64.734375 
Q 33.640625 66.156250 31.984375 66.906250 
Q 30.328125 67.671875 28.515625 67.671875 
Q 26.468750 67.671875 24.828125 66.421875 
Q 23.187500 65.187500 23.187500 63.187500 
Q 23.187500 60.015625 26.000000 55.890625 
Q 28.812500 51.765625 33.984375 45.312500 
Q 39.890625 37.796875 39.890625 28.718750 
Q 39.890625 24.218750 38.593750 18.984375 
Q 37.312500 13.765625 34.843750 9.125000 
Q 32.375000 4.500000 28.531250 1.484375 
Q 24.703125 -1.515625 20.015625 -1.515625 
M 20.218750 1.218750 
Q 24.125000 1.218750 26.921875 5.265625 
Q 29.734375 9.328125 31.171875 14.921875 
Q 32.625000 20.515625 32.625000 24.312500 
Q 32.625000 31.781250 27.390625 41.109375 
Q 22.125000 39.656250 18.312500 34.968750 
Q 14.500000 30.281250 12.546875 24.171875 
Q 10.593750 18.062500 10.593750 12.593750 
Q 10.593750 7.812500 13.078125 4.515625 
Q 15.578125 1.218750 20.218750 1.218750 
" id="Cmmi10-b1"/>
     <path d="M 11.812500 -25.000000 
L 11.812500 75.000000 
L 25.484375 75.000000 
L 25.484375 71.000000 
L 15.828125 71.000000 
L 15.828125 -21.000000 
L 25.484375 -21.000000 
L 25.484375 -25.000000 
z
" id="Cmr10-5b"/>
     <path d="M 6.203125 8.109375 
Q 6.203125 9.578125 6.500000 10.890625 
L 13.718750 39.593750 
L 3.218750 39.593750 
Q 2.203125 39.593750 2.203125 40.921875 
Q 2.593750 43.109375 3.515625 43.109375 
L 14.593750 43.109375 
L 18.609375 59.421875 
Q 19.000000 60.750000 20.171875 61.671875 
Q 21.343750 62.593750 22.796875 62.593750 
Q 24.078125 62.593750 24.921875 61.828125 
Q 25.781250 61.078125 25.781250 59.812500 
Q 25.781250 59.515625 25.750000 59.343750 
Q 25.734375 59.187500 25.687500 58.984375 
L 21.687500 43.109375 
L 31.984375 43.109375 
Q 33.015625 43.109375 33.015625 41.796875 
Q 32.953125 41.546875 32.812500 40.953125 
Q 32.671875 40.375000 32.421875 39.984375 
Q 32.171875 39.593750 31.687500 39.593750 
L 20.796875 39.593750 
L 13.625000 10.687500 
Q 12.890625 7.859375 12.890625 5.812500 
Q 12.890625 1.515625 15.828125 1.515625 
Q 20.218750 1.515625 23.609375 5.640625 
Q 27.000000 9.765625 28.812500 14.703125 
Q 29.203125 15.281250 29.593750 15.281250 
L 30.812500 15.281250 
Q 31.203125 15.281250 31.437500 15.015625 
Q 31.687500 14.750000 31.687500 14.406250 
Q 31.687500 14.203125 31.593750 14.109375 
Q 29.390625 8.062500 25.187500 3.468750 
Q 21.000000 -1.125000 15.578125 -1.125000 
Q 11.625000 -1.125000 8.906250 1.453125 
Q 6.203125 4.046875 6.203125 8.109375 
" id="Cmmi10-74"/>
     <path d="M 2.203125 -25.000000 
L 2.203125 -21.000000 
L 11.921875 -21.000000 
L 11.921875 71.000000 
L 2.203125 71.000000 
L 2.203125 75.000000 
L 15.921875 75.000000 
L 15.921875 -25.000000 
z
" id="Cmr10-5d"/>
     <path d="M 10.203125 23.000000 
Q 9.375000 23.000000 8.828125 23.625000 
Q 8.296875 24.265625 8.296875 25.000000 
Q 8.296875 25.734375 8.828125 26.359375 
Q 9.375000 27.000000 10.203125 27.000000 
L 67.578125 27.000000 
Q 68.359375 27.000000 68.875000 26.359375 
Q 69.390625 25.734375 69.390625 25.000000 
Q 69.390625 24.265625 68.875000 23.625000 
Q 68.359375 23.000000 67.578125 23.000000 
z
" id="Cmsy10-a1"/>
     <path d="M 7.812500 2.875000 
Q 9.578125 1.515625 12.796875 1.515625 
Q 15.921875 1.515625 18.312500 4.515625 
Q 20.703125 7.515625 21.578125 11.078125 
L 26.125000 28.812500 
Q 27.203125 33.640625 27.203125 35.406250 
Q 27.203125 37.890625 25.812500 39.750000 
Q 24.421875 41.609375 21.921875 41.609375 
Q 18.750000 41.609375 15.968750 39.625000 
Q 13.187500 37.640625 11.281250 34.593750 
Q 9.375000 31.546875 8.593750 28.421875 
Q 8.406250 27.781250 7.812500 27.781250 
L 6.593750 27.781250 
Q 5.812500 27.781250 5.812500 28.718750 
L 5.812500 29.000000 
Q 6.781250 32.718750 9.125000 36.250000 
Q 11.468750 39.796875 14.859375 41.984375 
Q 18.265625 44.187500 22.125000 44.187500 
Q 25.781250 44.187500 28.734375 42.234375 
Q 31.687500 40.281250 32.906250 36.921875 
Q 34.625000 39.984375 37.281250 42.078125 
Q 39.937500 44.187500 43.109375 44.187500 
Q 45.265625 44.187500 47.500000 43.421875 
Q 49.750000 42.671875 51.171875 41.109375 
Q 52.593750 39.546875 52.593750 37.203125 
Q 52.593750 34.671875 50.953125 32.828125 
Q 49.312500 31.000000 46.781250 31.000000 
Q 45.171875 31.000000 44.093750 32.031250 
Q 43.015625 33.062500 43.015625 34.625000 
Q 43.015625 36.718750 44.453125 38.296875 
Q 45.906250 39.890625 47.906250 40.187500 
Q 46.093750 41.609375 42.921875 41.609375 
Q 39.703125 41.609375 37.328125 38.625000 
Q 34.968750 35.640625 33.984375 31.984375 
L 29.593750 14.312500 
Q 28.515625 10.296875 28.515625 7.718750 
Q 28.515625 5.171875 29.953125 3.343750 
Q 31.390625 1.515625 33.796875 1.515625 
Q 38.484375 1.515625 42.156250 5.640625 
Q 45.843750 9.765625 47.015625 14.703125 
Q 47.218750 15.281250 47.796875 15.281250 
L 49.031250 15.281250 
Q 49.421875 15.281250 49.656250 15.015625 
Q 49.906250 14.750000 49.906250 14.406250 
Q 49.906250 14.312500 49.812500 14.109375 
Q 48.390625 8.156250 43.843750 3.515625 
Q 39.312500 -1.125000 33.593750 -1.125000 
Q 29.937500 -1.125000 26.984375 0.843750 
Q 24.031250 2.828125 22.796875 6.203125 
Q 21.234375 3.265625 18.468750 1.062500 
Q 15.718750 -1.125000 12.593750 -1.125000 
Q 10.453125 -1.125000 8.171875 -0.359375 
Q 5.906250 0.390625 4.484375 1.953125 
Q 3.078125 3.515625 3.078125 5.906250 
Q 3.078125 8.250000 4.703125 10.171875 
Q 6.343750 12.109375 8.796875 12.109375 
Q 10.453125 12.109375 11.578125 11.109375 
Q 12.703125 10.109375 12.703125 8.500000 
Q 12.703125 6.390625 11.296875 4.828125 
Q 9.906250 3.265625 7.812500 2.875000 
" id="Cmmi10-78"/>
     <path d="M 5.328125 1.812500 
Q 5.328125 2.390625 5.421875 2.687500 
L 19.921875 60.500000 
Q 20.312500 62.203125 20.406250 63.187500 
Q 20.406250 64.796875 13.921875 64.796875 
Q 12.890625 64.796875 12.890625 66.109375 
Q 12.937500 66.359375 13.109375 66.984375 
Q 13.281250 67.625000 13.546875 67.968750 
Q 13.812500 68.312500 14.312500 68.312500 
L 27.781250 69.390625 
L 28.078125 69.390625 
Q 28.078125 69.281250 28.421875 69.109375 
Q 28.765625 68.953125 28.812500 68.890625 
Q 29.000000 68.406250 29.000000 68.109375 
L 18.500000 26.312500 
Q 22.125000 27.828125 27.609375 33.515625 
Q 33.109375 39.203125 36.203125 41.687500 
Q 39.312500 44.187500 44.000000 44.187500 
Q 46.781250 44.187500 48.734375 42.281250 
Q 50.687500 40.375000 50.687500 37.593750 
Q 50.687500 35.843750 49.953125 34.343750 
Q 49.218750 32.859375 47.890625 31.921875 
Q 46.578125 31.000000 44.828125 31.000000 
Q 43.218750 31.000000 42.109375 32.000000 
Q 41.015625 33.015625 41.015625 34.625000 
Q 41.015625 37.015625 42.703125 38.640625 
Q 44.390625 40.281250 46.781250 40.281250 
Q 45.796875 41.609375 43.796875 41.609375 
Q 40.828125 41.609375 38.062500 39.890625 
Q 35.296875 38.187500 32.093750 34.984375 
Q 28.906250 31.781250 26.265625 29.125000 
Q 23.640625 26.468750 21.390625 25.093750 
Q 27.296875 24.421875 31.640625 22.000000 
Q 35.984375 19.578125 35.984375 14.593750 
Q 35.984375 13.578125 35.593750 12.015625 
Q 34.718750 8.250000 34.718750 6.000000 
Q 34.718750 1.515625 37.796875 1.515625 
Q 41.406250 1.515625 43.281250 5.468750 
Q 45.171875 9.421875 46.390625 14.703125 
Q 46.578125 15.281250 47.218750 15.281250 
L 48.390625 15.281250 
Q 48.781250 15.281250 49.046875 15.031250 
Q 49.312500 14.796875 49.312500 14.406250 
Q 49.312500 14.312500 49.218750 14.109375 
Q 45.453125 -1.125000 37.593750 -1.125000 
Q 34.765625 -1.125000 32.593750 0.187500 
Q 30.421875 1.515625 29.250000 3.781250 
Q 28.078125 6.062500 28.078125 8.890625 
Q 28.078125 10.500000 28.515625 12.203125 
Q 28.812500 13.375000 28.812500 14.406250 
Q 28.812500 18.265625 25.390625 20.265625 
Q 21.968750 22.265625 17.578125 22.703125 
L 12.500000 2.296875 
Q 12.109375 0.781250 10.984375 -0.171875 
Q 9.859375 -1.125000 8.406250 -1.125000 
Q 7.125000 -1.125000 6.218750 -0.265625 
Q 5.328125 0.593750 5.328125 1.812500 
" id="Cmmi10-6b"/>
     <path d="M 9.281250 0.000000 
L 9.281250 3.515625 
Q 21.781250 3.515625 21.781250 6.687500 
L 21.781250 59.187500 
Q 16.609375 56.687500 8.687500 56.687500 
L 8.687500 60.203125 
Q 20.953125 60.203125 27.203125 66.609375 
L 28.609375 66.609375 
Q 28.953125 66.609375 29.265625 66.328125 
Q 29.593750 66.062500 29.593750 65.718750 
L 29.593750 6.687500 
Q 29.593750 3.515625 42.093750 3.515625 
L 42.093750 0.000000 
z
" id="Cmr10-31"/>
     <path d="M 25.000000 -1.125000 
Q 19.000000 -1.125000 13.859375 1.921875 
Q 8.734375 4.984375 5.750000 10.109375 
Q 2.781250 15.234375 2.781250 21.296875 
Q 2.781250 25.875000 4.421875 30.125000 
Q 6.062500 34.375000 9.109375 37.718750 
Q 12.156250 41.062500 16.203125 42.937500 
Q 20.265625 44.828125 25.000000 44.828125 
Q 31.156250 44.828125 36.203125 41.578125 
Q 41.265625 38.328125 44.187500 32.875000 
Q 47.125000 27.437500 47.125000 21.296875 
Q 47.125000 15.281250 44.140625 10.125000 
Q 41.156250 4.984375 36.046875 1.921875 
Q 30.953125 -1.125000 25.000000 -1.125000 
M 25.000000 1.812500 
Q 33.015625 1.812500 35.687500 7.609375 
Q 38.375000 13.421875 38.375000 22.406250 
Q 38.375000 27.437500 37.843750 30.734375 
Q 37.312500 34.031250 35.500000 36.718750 
Q 34.375000 38.375000 32.640625 39.625000 
Q 30.906250 40.875000 28.968750 41.531250 
Q 27.046875 42.187500 25.000000 42.187500 
Q 21.875000 42.187500 19.062500 40.765625 
Q 16.265625 39.359375 14.406250 36.718750 
Q 12.546875 33.890625 12.031250 30.484375 
Q 11.531250 27.093750 11.531250 22.406250 
Q 11.531250 16.796875 12.500000 12.328125 
Q 13.484375 7.859375 16.437500 4.828125 
Q 19.390625 1.812500 25.000000 1.812500 
" id="Cmr10-6f"/>
     <path d="M 7.515625 13.281250 
Q 6.687500 13.281250 6.140625 13.906250 
Q 5.609375 14.546875 5.609375 15.281250 
Q 5.609375 16.109375 6.140625 16.687500 
Q 6.687500 17.281250 7.515625 17.281250 
L 70.312500 17.281250 
Q 71.046875 17.281250 71.578125 16.687500 
Q 72.125000 16.109375 72.125000 15.281250 
Q 72.125000 14.546875 71.578125 13.906250 
Q 71.046875 13.281250 70.312500 13.281250 
z
M 7.515625 32.718750 
Q 6.687500 32.718750 6.140625 33.296875 
Q 5.609375 33.890625 5.609375 34.718750 
Q 5.609375 35.453125 6.140625 36.078125 
Q 6.687500 36.718750 7.515625 36.718750 
L 70.312500 36.718750 
Q 71.046875 36.718750 71.578125 36.078125 
Q 72.125000 35.453125 72.125000 34.718750 
Q 72.125000 33.890625 71.578125 33.296875 
Q 71.046875 32.718750 70.312500 32.718750 
z
" id="Cmr10-3d"/>
    </defs>
    <g transform="translate(338.2865625 17.7)scale(0.14 -0.14)">
     <use xlink:href="#Cmmi10-b4"/>
     <use transform="translate(49.609375 -25.509375000000006)scale(0.7)" xlink:href="#Cmr10-31"/>
     <use transform="translate(117.16796875 0.0)" xlink:href="#Cmr10-3d"/>
     <use transform="translate(201.2265625 0.0)" xlink:href="#Cmmi10-b4"/>
     <use transform="translate(250.8359375 -25.509375000000006)scale(0.7)" xlink:href="#Cmmi10-6f"/>
     <use transform="translate(299.224609375 0.0)" xlink:href="#Cmr10-63"/>
     <use transform="translate(343.609375 0.0)" xlink:href="#Cmr10-6f"/>
     <use transform="translate(393.609375 0.0)" xlink:href="#Cmr10-73"/>
     <use transform="translate(433.013671875 0.0)" xlink:href="#Cmr10-5b"/>
     <use transform="translate(460.69921875 0.0)" xlink:href="#Cmr10-28"/>
     <use transform="translate(499.517578125 0.0)" xlink:href="#Cmmi10-4b"/>
     <use transform="translate(601.98828125 0.0)" xlink:href="#Cmr10-2b"/>
     <use transform="translate(686.046875 0.0)" xlink:href="#Cmmi10-b1"/>
     <use transform="translate(730.431640625 0.0)" xlink:href="#Cmmi10-6b"/>
     <use transform="translate(782.43359375 0.0)" xlink:href="#Cmr10-29"/>
     <use transform="translate(821.251953125 0.0)" xlink:href="#Cmmi10-78"/>
     <use transform="translate(878.33203125 0.0)" xlink:href="#Cmsy10-a1"/>
     <use transform="translate(956.017578125 0.0)" xlink:href="#Cmr10-28"/>
     <use transform="translate(994.8359375 0.0)" xlink:href="#Cmmi10-21"/>
     <use transform="translate(1074.6015625 0.0)" xlink:href="#Cmr10-2b"/>
     <use transform="translate(1158.66015625 0.0)" xlink:href="#Cmmi10-b1"/>
     <use transform="translate(1203.044921875 0.0)" xlink:href="#Cmmi10-21"/>
     <use transform="translate(1265.251953125 0.0)" xlink:href="#Cmr10-29"/>
     <use transform="translate(1304.0703125 0.0)" xlink:href="#Cmmi10-74"/>
     <use transform="translate(1340.154296875 0.0)" xlink:href="#Cmr10-5d"/>
    </g>
   </g>
  </g>
  <g id="axes_2">
   <g id="line2d_2">
    <path clip-path="url(#pb622a300db)" d="M 40.746563 99.364676 
L 43.615066 100.246577 
L 46.483569 102.779900 
L 49.352072 106.641826 
L 52.220576 111.340236 
L 55.089079 116.276417 
L 57.957582 120.821356 
L 60.826085 124.395899 
L 63.694589 126.544546 
L 66.563092 126.993497 
L 69.431595 125.685543 
L 72.300098 122.787356 
L 75.168602 118.668246 
L 78.037105 113.853108 
L 80.905608 108.955529 
L 83.774112 104.599600 
L 86.642615 101.340393 
L 89.511118 99.593225 
L 92.379621 99.580734 
L 95.248125 101.304513 
L 98.116628 104.544902 
L 100.985131 108.888983 
L 103.853634 113.783195 
L 106.722138 118.603874 
L 109.590641 122.736728 
L 112.459144 125.655111 
L 115.327648 126.987139 
L 118.196151 126.563071 
L 121.064654 124.436948 
L 123.933157 120.879697 
L 126.801661 116.344615 
L 129.670164 111.409602 
L 132.538667 106.703521 
L 135.407170 102.826061 
L 138.275674 100.271323 
L 141.144177 99.364853 
L 144.012680 100.222163 
L 146.881183 102.734005 
L 149.749687 106.580300 
L 152.618190 111.270918 
L 155.486693 116.208140 
L 158.355197 120.762821 
L 161.223700 124.354565 
L 164.092203 126.525680 
L 166.960706 126.999504 
L 169.829210 125.715657 
L 172.697713 122.837738 
L 175.566216 118.732478 
L 178.434719 113.923004 
L 181.303223 109.022183 
L 184.171726 104.654518 
L 187.040229 101.376577 
L 189.908733 99.606064 
L 192.777236 99.568592 
L 195.645739 101.268937 
L 198.514242 104.490426 
L 201.382746 108.822549 
L 204.251249 113.713268 
L 207.119752 118.539365 
L 209.988255 122.685857 
L 212.856759 125.624361 
L 215.725262 126.980428 
L 218.593765 126.581255 
L 221.462269 124.477709 
L 224.330772 120.937841 
L 227.199275 116.412733 
L 230.067778 111.479014 
L 232.936282 106.765382 
L 235.804785 102.872488 
L 238.673288 100.296399 
L 241.541791 99.365384 
L 244.410295 100.198080 
L 247.278798 102.688378 
L 250.147301 106.518942 
L 253.015804 111.201649 
L 255.884308 116.139786 
L 258.752811 120.704093 
L 261.621314 124.312946 
L 264.489818 126.506474 
L 267.358321 127.005157 
L 270.226824 125.745450 
L 273.095327 122.887875 
L 275.963831 118.796569 
L 278.832334 113.992882 
L 281.700837 109.088943 
L 284.569340 104.709655 
L 287.437844 101.413063 
L 290.306347 99.619250 
L 293.174850 99.556798 
L 296.043354 101.233666 
L 298.911857 104.436172 
L 301.780360 108.756226 
L 304.648863 113.643327 
L 307.517367 118.474719 
L 310.385870 122.634743 
L 313.254373 125.593293 
L 316.122876 126.973365 
L 318.991380 126.599097 
L 321.859883 124.518181 
L 324.728386 120.995788 
" style="fill:none;stroke:#ff8c00;stroke-width:2.0;"/>
   </g>
   <g id="text_2">
    <!-- + -->
    <defs>
     <path d="M 46.000000 62.703125 
L 46.000000 35.500000 
L 73.187500 35.500000 
L 73.187500 27.203125 
L 46.000000 27.203125 
L 46.000000 0.000000 
L 37.796875 0.000000 
L 37.796875 27.203125 
L 10.593750 27.203125 
L 10.593750 35.500000 
L 37.796875 35.500000 
L 37.796875 62.703125 
z
" id="BitstreamVeraSans-Roman-2b"/>
    </defs>
    <g transform="translate(181.6865625 85.5232058824)scale(0.14 -0.14)">
     <use xlink:href="#BitstreamVeraSans-Roman-2b"/>
    </g>
   </g>
   <g id="text_3">
    <!-- $\eta_2 = \eta_o \cos[(K - \delta k)x - (\omega - \delta\omega)t]$ -->
    <defs>
     <path d="M 4.984375 0.000000 
L 4.984375 2.687500 
Q 4.984375 2.937500 5.171875 3.218750 
L 20.703125 20.406250 
Q 24.218750 24.218750 26.406250 26.796875 
Q 28.609375 29.390625 30.750000 32.765625 
Q 32.906250 36.140625 34.156250 39.625000 
Q 35.406250 43.109375 35.406250 47.015625 
Q 35.406250 51.125000 33.890625 54.859375 
Q 32.375000 58.593750 29.375000 60.843750 
Q 26.375000 63.093750 22.125000 63.093750 
Q 17.781250 63.093750 14.312500 60.468750 
Q 10.843750 57.859375 9.421875 53.718750 
Q 9.812500 53.812500 10.500000 53.812500 
Q 12.750000 53.812500 14.328125 52.296875 
Q 15.921875 50.781250 15.921875 48.390625 
Q 15.921875 46.093750 14.328125 44.500000 
Q 12.750000 42.921875 10.500000 42.921875 
Q 8.156250 42.921875 6.562500 44.546875 
Q 4.984375 46.187500 4.984375 48.390625 
Q 4.984375 52.156250 6.390625 55.437500 
Q 7.812500 58.734375 10.468750 61.296875 
Q 13.140625 63.875000 16.484375 65.234375 
Q 19.828125 66.609375 23.578125 66.609375 
Q 29.296875 66.609375 34.218750 64.187500 
Q 39.156250 61.765625 42.031250 57.343750 
Q 44.921875 52.937500 44.921875 47.015625 
Q 44.921875 42.671875 43.015625 38.765625 
Q 41.109375 34.859375 38.125000 31.656250 
Q 35.156250 28.468750 30.515625 24.406250 
Q 25.875000 20.359375 24.421875 19.000000 
L 13.093750 8.109375 
L 22.703125 8.109375 
Q 29.781250 8.109375 34.546875 8.218750 
Q 39.312500 8.343750 39.593750 8.593750 
Q 40.765625 9.859375 42.000000 17.828125 
L 44.921875 17.828125 
L 42.093750 0.000000 
z
" id="Cmr10-32"/>
    </defs>
    <g transform="translate(338.2865625 84.1390588235)scale(0.14 -0.14)">
     <use xlink:href="#Cmmi10-b4"/>
     <use transform="translate(49.609375 -25.509375000000006)scale(0.7)" xlink:href="#Cmr10-32"/>
     <use transform="translate(117.16796875 0.0)" xlink:href="#Cmr10-3d"/>
     <use transform="translate(201.2265625 0.0)" xlink:href="#Cmmi10-b4"/>
     <use transform="translate(250.8359375 -25.509375000000006)scale(0.7)" xlink:href="#Cmmi10-6f"/>
     <use transform="translate(299.224609375 0.0)" xlink:href="#Cmr10-63"/>
     <use transform="translate(343.609375 0.0)" xlink:href="#Cmr10-6f"/>
     <use transform="translate(393.609375 0.0)" xlink:href="#Cmr10-73"/>
     <use transform="translate(433.013671875 0.0)" xlink:href="#Cmr10-5b"/>
     <use transform="translate(460.69921875 0.0)" xlink:href="#Cmr10-28"/>
     <use transform="translate(499.517578125 0.0)" xlink:href="#Cmmi10-4b"/>
     <use transform="translate(584.4296875 0.0)" xlink:href="#Cmsy10-a1"/>
     <use transform="translate(662.115234375 0.0)" xlink:href="#Cmmi10-b1"/>
     <use transform="translate(706.5 0.0)" xlink:href="#Cmmi10-6b"/>
     <use transform="translate(758.501953125 0.0)" xlink:href="#Cmr10-29"/>
     <use transform="translate(797.3203125 0.0)" xlink:href="#Cmmi10-78"/>
     <use transform="translate(854.400390625 0.0)" xlink:href="#Cmsy10-a1"/>
     <use transform="translate(932.0859375 0.0)" xlink:href="#Cmr10-28"/>
     <use transform="translate(970.904296875 0.0)" xlink:href="#Cmmi10-21"/>
     <use transform="translate(1033.111328125 0.0)" xlink:href="#Cmsy10-a1"/>
     <use transform="translate(1110.796875 0.0)" xlink:href="#Cmmi10-b1"/>
     <use transform="translate(1155.181640625 0.0)" xlink:href="#Cmmi10-21"/>
     <use transform="translate(1217.388671875 0.0)" xlink:href="#Cmr10-29"/>
     <use transform="translate(1256.20703125 0.0)" xlink:href="#Cmmi10-74"/>
     <use transform="translate(1292.291015625 0.0)" xlink:href="#Cmr10-5d"/>
    </g>
   </g>
  </g>
  <g id="axes_3">
   <g id="line2d_3">
    <path clip-path="url(#p26bccd483b)" d="M 40.746563 151.962265 
L 43.615066 154.154589 
L 46.483569 160.371059 
L 49.352072 169.591459 
L 52.220576 180.309057 
L 55.089079 190.785422 
L 57.957582 199.342522 
L 60.826085 204.641508 
L 63.694589 205.900362 
L 66.563092 203.013765 
L 69.431595 196.556084 
L 72.300098 187.669080 
L 75.168602 177.856031 
L 78.037105 168.719965 
L 80.905608 161.692625 
L 83.774112 157.801368 
L 86.642615 157.513281 
L 89.511118 160.681106 
L 92.379621 166.596841 
L 95.248125 174.139583 
L 98.116628 181.987867 
L 100.985131 188.856280 
L 103.853634 193.713286 
L 106.722138 195.942266 
L 109.590641 195.419659 
L 112.459144 192.500320 
L 115.327648 187.917721 
L 118.196151 182.622044 
L 121.064654 177.589754 
L 123.933157 173.642056 
L 126.801661 171.306176 
L 129.670164 170.743600 
L 132.538667 171.755281 
L 135.407170 173.858266 
L 138.275674 176.414271 
L 141.144177 178.781138 
L 144.012680 180.454578 
L 146.881183 181.170814 
L 149.749687 180.949757 
L 152.618190 180.071423 
L 155.486693 178.992559 
L 158.355197 178.223151 
L 161.223700 178.190906 
L 164.092203 179.124325 
L 166.960706 180.981100 
L 169.829210 183.438994 
L 172.697713 185.953117 
L 175.566216 187.869229 
L 178.434719 188.570326 
L 181.303223 187.625861 
L 184.171726 184.911212 
L 187.040229 180.669953 
L 189.908733 175.502188 
L 192.777236 170.276793 
L 195.645739 165.980863 
L 198.514242 163.533106 
L 201.382746 163.596468 
L 204.251249 166.427192 
L 207.119752 171.792114 
L 209.988255 178.974225 
L 212.856759 186.870357 
L 215.725262 194.167345 
L 218.593765 199.567488 
L 221.462269 202.023567 
L 224.330772 200.940279 
L 227.199275 196.303559 
L 230.067778 188.711170 
L 232.936282 179.295220 
L 235.804785 169.546736 
L 238.673288 161.070524 
L 241.541791 155.312027 
L 244.410295 153.303954 
L 247.278798 155.478088 
L 250.147301 161.576958 
L 253.015804 170.682943 
L 255.884308 181.361794 
L 258.752811 191.897261 
L 261.621314 200.577094 
L 264.489818 205.981246 
L 267.358321 207.222274 
L 270.226824 204.096070 
L 273.095327 197.116574 
L 275.963831 187.428398 
L 278.832334 176.612646 
L 281.700837 166.419815 
L 284.569340 158.476247 
L 287.437844 154.014877 
L 290.306347 153.676332 
L 293.174850 157.413645 
L 296.043354 164.515299 
L 298.911857 173.740441 
L 301.780360 183.540610 
L 304.648863 192.327661 
L 307.517367 198.740390 
L 310.385870 201.863717 
L 313.254373 201.363831 
L 316.122876 197.518574 
L 318.991380 191.141488 
L 321.859883 183.416884 
L 324.728386 175.678550 
" style="fill:none;stroke:#6495ed;stroke-width:2.0;"/>
   </g>
   <g id="text_4">
    <!-- = -->
    <defs>
     <path d="M 10.593750 45.406250 
L 73.187500 45.406250 
L 73.187500 37.203125 
L 10.593750 37.203125 
z
M 10.593750 25.484375 
L 73.187500 25.484375 
L 73.187500 17.187500 
L 10.593750 17.187500 
z
" id="BitstreamVeraSans-Roman-3d"/>
    </defs>
    <g transform="translate(181.6865625 151.962264706)scale(0.14 -0.14)">
     <use xlink:href="#BitstreamVeraSans-Roman-3d"/>
    </g>
   </g>
   <g id="text_5">
    <!-- $\eta_1 + \eta_2$ -->
    <g transform="translate(338.2865625 150.578117647)scale(0.14 -0.14)">
     <use transform="translate(0.0 0.703125)" xlink:href="#Cmmi10-b4"/>
     <use transform="translate(49.609375 -24.806250000000006)scale(0.7)" xlink:href="#Cmr10-31"/>
     <use transform="translate(117.16796875 0.703125)" xlink:href="#Cmr10-2b"/>
     <use transform="translate(201.2265625 0.703125)" xlink:href="#Cmmi10-b4"/>
     <use transform="translate(250.8359375 -24.806250000000006)scale(0.7)" xlink:href="#Cmr10-32"/>
    </g>
   </g>
  </g>
 </g>
 <defs>
  <clipPath id="pb622a300db">
   <rect height="55.3658823529" width="313.2" x="40.7465625" y="85.5232058824"/>
  </clipPath>
  <clipPath id="p26bccd483b">
   <rect height="55.3658823529" width="313.2" x="40.7465625" y="151.962264706"/>
  </clipPath>
  <clipPath id="p3f6ba6bf47">
   <rect height="55.3658823529" width="313.2" x="40.7465625" y="19.0841470588"/>
  </clipPath>
 </defs>
</svg>
